<?xml version="1.0" encoding="UTF-8"?>
<svg xmlns="http://www.w3.org/2000/svg" version="1.1" viewBox="0 0 500 500">
  <defs>
    <style>
      .cls-1 {
        fill: #fff;
      }

      .cls-2 {
        fill: none;
      }
    </style>
  </defs>
  <!-- Generator: Adobe Illustrator 28.7.1, SVG Export Plug-In . SVG Version: 1.2.0 Build 142)  -->
  <g>
    <g id="_Слой_2" data-name="Слой_2">
      <g>
        <path class="cls-1" d="M0,448.9C0,329.8,0,210.6,0,91.5c.2-.6.6-1.2.7-1.8,7-32.3,28.8-50,61.7-50,6.4,0,12.9,0,19.6,0V.7h39.1v38.8h257.8V.7h39.1v39.1c8.8,0,16.9-.2,25,0,18.6.7,33.7,8.6,45.2,23.2,6.6,8.4,9.7,18.2,11.9,28.4v357.4c-.3,1.1-.7,2.1-.9,3.2-4.7,23.1-18.3,38.3-40.6,45.9-3.3,1.1-6.8,1.8-10.3,2.6H51.8c-.7-.3-1.5-.7-2.2-.8-16.2-2.6-28.9-10.7-38.6-23.8C4.9,468,2.1,458.6,0,448.9ZM39.1,184.4v5.2c0,83.2,0,166.3,0,249.5,0,15.1,7.8,22.7,23,22.6,125.4-1.3,250.7-1,376.1,0,15.1.1,22.8-7.5,22.8-22.6,0-83.2,0-166.3,0-249.5s0-3.4,0-5.2H39.1ZM39.2,144.9h421.7c0-16.1.2-31.9,0-47.7-.2-9-6.9-16.9-15.8-17.8-8.8-.9-17.7-.2-27.2-.2v38.5h-39v-38.5H121v38.4h-39.1v-38.7c-8.5,0-16.5-.3-24.4,0-9.8.4-17.9,8.1-18.1,17.8-.4,15.9-.1,31.9-.1,48.1Z"/>
        <path class="cls-2" d="M378.9,0v38.8H121.1V0h257.8Z"/>
        <path class="cls-2" d="M82,0v39.1c-6.7,0-13.2,0-19.6,0-32.9,0-54.8,17.7-61.7,50-.1.6-.5,1.2-.7,1.8C0,60.5,0,30.3,0,0h82Z"/>
        <path class="cls-2" d="M500,90.8c-2.2-10.2-5.3-20-11.9-28.4-11.5-14.7-26.6-22.6-45.2-23.2-8.1-.3-16.2,0-25,0V0h82v90.8Z"/>
        <path class="cls-2" d="M0,448.2c2.1,9.7,4.9,19.1,10.9,27.2,9.7,13,22.4,21.2,38.6,23.8.8.1,1.5.5,2.2.8H0v-51.8Z"/>
        <path class="cls-2" d="M448.2,500c3.4-.9,6.9-1.5,10.3-2.6,22.2-7.6,35.8-22.8,40.6-45.9.2-1.1.6-2.1.9-3.2v51.8h-51.8Z"/>
        <path class="cls-2" d="M39.1,183.7h421.9c0,1.8,0,3.5,0,5.2,0,83.2,0,166.3,0,249.5,0,14.9-7.6,22.6-22.5,22.6-125.6,0-251.3,0-376.9,0-14.9,0-22.5-7.7-22.5-22.6,0-83.2,0-166.3,0-249.5v-5.2ZM113,263.4v-38.5h-38.4v38.5h38.4ZM152.7,224.8v38.5h38.5v-38.5h-38.5ZM230.7,263.3h38.6v-38.4h-38.6v38.4ZM309,224.8v38.6h38.4v-38.6h-38.4ZM387.1,224.8v38.5h38.5v-38.5h-38.5ZM113,341.6v-38.5h-38.5v38.5h38.5ZM191.2,303.1h-38.5v38.5h38.5v-38.5ZM269.2,341.6v-38.5h-38.4v38.5h38.4ZM308.8,341.5h38.5v-38.5h-38.5v38.5ZM425.4,341.6v-38.6h-38.4v38.6h38.4ZM113.1,381.3h-38.6v38.4h38.6v-38.4ZM191.2,381.1h-38.5v38.4h38.5v-38.4ZM269.1,419.7v-38.6h-38.4v38.6h38.4ZM308.9,381.1v38.5h38.5v-38.5h-38.5Z"/>
        <path class="cls-2" d="M39.2,144.2c0-16.3-.3-32.2.1-48.1.3-9.7,8.3-17.4,18.1-17.8,7.9-.4,15.9,0,24.4,0v38.7h39.1v-38.4h257.9v38.5h39v-38.5c9.4,0,18.4-.7,27.2.2,9,.9,15.6,8.8,15.8,17.8.3,15.8,0,31.5,0,47.7H39.2Z"/>
        <path class="cls-1" d="M113,263.4h-38.4v-38.5h38.4v38.5Z"/>
        <path class="cls-1" d="M152.7,225.5h38.5v38.5h-38.5v-38.5Z"/>
        <path class="cls-1" d="M230.7,264v-38.4h38.6v38.4h-38.6Z"/>
        <path class="cls-1" d="M309,225.5h38.4v38.6h-38.4v-38.6Z"/>
        <path class="cls-1" d="M387.1,225.5h38.5v38.5h-38.5v-38.5Z"/>
        <path class="cls-1" d="M113.3,341.9h-38.5v-38.5h38.5v38.5Z"/>
        <path class="cls-1" d="M191.2,303.8v38.5h-38.5v-38.5h38.5Z"/>
        <path class="cls-1" d="M269.2,342.3h-38.4v-38.5h38.4v38.5Z"/>
        <path class="cls-1" d="M308.8,341.5v-38.5h38.5v38.5h-38.5Z"/>
        <path class="cls-1" d="M425.4,341.6h-38.4v-38.6h38.4v38.6Z"/>
        <path class="cls-1" d="M113.4,381.6v38.4h-38.6v-38.4h38.6Z"/>
        <path class="cls-1" d="M191.2,381.8v38.4h-38.5v-38.4h38.5Z"/>
        <path class="cls-1" d="M269.1,420.4h-38.4v-38.6h38.4v38.6Z"/>
        <path class="cls-1" d="M308.9,381.1h38.5v38.5h-38.5v-38.5Z"/>
      </g>
    </g>
  </g>
</svg>