<?xml version="1.0" encoding="UTF-8"?>
<svg xmlns="http://www.w3.org/2000/svg" version="1.1" viewBox="0 0 125 270">
  <defs>
    <style>
      .cls-1 {
        fill: #fff;
      }
    </style>
  </defs>
  <!-- Generator: Adobe Illustrator 28.7.1, SVG Export Plug-In . SVG Version: 1.2.0 Build 142)  -->
  <g>
    <g id="_Слой_1" data-name="Слой_1">
      <g>
        <path class="cls-1" d="M72.1,213.3c2.3,2.3,7.3,4.8,7.5,4.9,1.1.7,2.5,1.1,3.8,1.1,4.4.1,8.8,0,13.2,0,5,0,9.4-2.1,12.9-5.1,2.8-2.5,5.1-4.2,8.6-2.2-2.2,9.5-9.6,12.9-18.2,14-5.8.8-11.8,1.3-17.6.6-3.8-.4-7.6-2.7-11.1-4.6-5.2-2.8-9.9-6.5-15.3-8.7-8.6-3.6-17.6-5.3-27-2.1.7-.6,0,.3-2.9.8-3.5,1.2-2.4.6-4.1,1.2-2.8.9-1.9.5-4.7,1.7-.4.2-2.1,1.3-2.3,1.7-2.6,5.3-6.3,6-9.8,10.6-.9,1.2-2.9,1.6-4.4,2.3-.1-2-1.1-4.7-.2-5.8,5.6-6.4,10.6-13.4,19-16.9,4.3-1.8,8.4-4.1,13.2-4.6,2.2-.2,13,.4,18.8.9"/>
        <path class="cls-1" d="M37.1,110.1c-1.2,1.4-2,2.4-2.9,3.3-2.1,2.4-4.2,2.3-6.4,0-3-3.1-6.1-6.1-9.9-10v16.7c-3.7.5-5.3-1.2-5.3-4.2,0-2.6-.8-4.5-2.2-6.8-2-3.4-2.7-7.6-3.9-11.5-.3-.9-.3-2.2-.9-2.7-2.7-1.9-2.3-4.6-2.1-7.2.1-1.1,1.2-2,1.9-3,1.1.8,2.9,1.5,3.2,2.5.7,2.9,2.3,4.4,5.5,5.4,0-3.5,0-6.5,0-9.5,0-4.1,1.4-7.6,4.6-10,1-.7,3.3-.7,4.4,0,2.7,1.8,4.4,4.4,4,8-.1.9.5,2.4,1.2,2.8,2,1,2.4,2.5,1.2,4-1.2,1.5-2.9,3.2-4.6,3.6-1.4.4-3.4-.6-3.4-3.2,0-2.6-.6-5.2-1-8.8-3.1,5.7-2.1,11.2-3.6,16.8,8.2-.6,15.2.5,15.3,11.3l1.3-.8c0-1.4.3-2.8.2-4.1-.6-5.3-1.3-10.6-2.1-15.9-.4-2.7.8-4.7,2.8-5.7,2.6-1.3,2.7-3.3,2.5-5.6-.4-4.7.6-8.9,4.3-12.1,2.2-1.9,5.9-1.9,8.1.1,4.2,4.1,8.2,8.3,8.1,14.8,0,1.9,3.1,2.8,5.1,1.6.6-.4,1.2-1,1.6-1.6,4.7-5.8,7.1-5.1,13.4-1,.3-3.6-.2-7.6,5.1-9.5.4,2.2,1.2,4.3,1.1,6.4-.1,3.5,1.4,4.1,4.4,3.5,1-.2,2.5,0,3.2.6,3.1,3,7,5.6,6.5,11.1,1.5-6,6.3-9.1,9.8-13.2,2.3-2.7,5.4-3.1,7.7-1.7,2.6,1.6,5,4.5,3.9,8.2-1.6,5.3-3.2,10.7-8,14.1-1.9,1.4-4.1,2.6-6.2,3.8-3.1,1.7-1.4,4.5-1.5,6.8,0,1,1.7,2.7,2.9,3,2.3.6,4.7.3,6.3-2.1.8-1.1,1.8-2.2,3-2.9.7-.5,1.9-.3,2.9-.4,0,1.1.6,2.3.2,3.1-2.7,5.3-10.3,9.5-15.6,7.4-3.1-1.2-5.1-5.3-7.4-8.2-.6-.7-.6-1.9-1.1-3.5-2,2.2-3.6,3.7-4.8,5.4-1.7,2.3-4,2.3-6.4,1.9-3.4-.6-5.5.7-5,4.1.8,5.6-1.9,9-6.6,12.3-2.9-6.7.3-13.3-.6-20.8-1.6,1.3-2.9,2.1-4,3.1-3.8,3.7-6.6,3-8.7-1.9-2.9-6.8-1.2-13.3,1.3-19.7,0-.2.1-.5.1-.7,0-.2-.1-.5-.2-.8-1.1.1-2.1.3-3.5.5.1,1.2.4,2.4.4,3.6,0,2.4-.3,4.9-.6,7.3-.2,1.2-1.1,2.4-1,3.5.5,5.1-3.1,7.6-6.1,10.5-2.8,2.8-6.9,3-10,.5-.7-.6-1.2-1.3-2.1-2.4ZM40.6,87.2c0,5.8-.2,12.4.2,19,0,1.4,2,3.1,3.5,4,.5.3,2.6-.9,3.2-1.9,1.9-3.2,4.2-6.2,3.8-10.4-.2-1.9.4-3.9,1-5.7.7-2,.1-2.8-1.8-3.1-3.2-.6-6.4-1.3-9.9-2ZM52,83.4c-.7-5.1,1.9-10.7-2.5-15.2-1-1-3.1-2.1-4-1.7-1.4.6-2.6,2.4-3.2,3.9-.5,1.4-.1,3.2-.1,4.9,0,6.7,2.7,9,9.9,8.1ZM82.5,102.9c.4,1.2,1.8,1.7,2.8.9,2.1-1.6,2.1-1.6,4.3-4.8s1.5-4.9,1.7-6.4c.7-3.6-1.6-6.8-3.6-10.3-4.9,3.5-7.3,14.3-5.3,20.7ZM71,78c-2.6.9-3.2,2.7-4.1,4.7s-2.3,5.2-3.5,8.2-2.3,19.2,4.4,7.7c.7-.7,1.2-1.1,1.5-1.7,1.2-2.6,1.9-5.6,3.6-7.8,3.8-4.9,4.1-6.6-1.9-11.1ZM113,78.7c-5.5,5-8.1,11.5-6.3,16.2,2.4-2.5,4.9-4.6,6.9-7.1,2.2-2.7,1.8-6.6-.6-9.1Z"/>
        <path class="cls-1" d="M12,266.9c-2.3-2.5-2.3-4.2-.5-6.1,2.1-2.1,3.8-4.9,6.3-6.4,5-3.1,7.3-9.1,13.6-11.1,5.4-1.7,10.2-.9,15.2.3,4.2,1,8.3,2.3,12.3,3.9,2.5,1.1,5.1,2.7,6.9,4.7,2.1,2.2,3.7,4.7,6.1,6.5s2.3,1.7,5.2,2.9c5.2,2.1,10.7,2.1,16.2,1.4,4.6-.5,9.1-2.2,13.5-3.8,1.6-.6,3.1-1.8,4.3-3.1,3.8-4.1,8.6-4.1,13,.5-5.7-1.7-8.8,1.8-12.1,4.9-4.3,4.1-9.2,6.6-15.2,7-3.8.2-7.5,1.3-11.3,1.4-3.5,0-6.7-1.3-10.1-2.5-7.6-2.7-12.5-8.7-18.6-13.1-4-2.9-8.3-5.2-13.5-4.7-4.6.4-9.5.3-13.8,1.8-3.5,1.2-6.5,4.4-9.5,7-2.8,2.5-5.2,5.5-8.1,8.5Z"/>
        <path class="cls-1" d="M69.1,20.3c-.2-3.5-.3-6.4-.5-9.2-.1-1.2-.2-2.7-.9-3.4-1.1-1.1-3.5-2.8-4.1-2.4-2.1,1.5-4.6,3.5-5.3,5.8-1.1,3.5-.8,7.4-.9,11.2,0,3.3,1.8,4.6,4.5,2.9,2.8-1.7,4.5-.8,7,.8,7.2,4.7,7.2,11.7,6.7,19-.6,8.1-5.3,12.7-12.9,12.6-3,0-9-5.5-9.8-8.6-3.1-11.4-1.1-23-1.3-34.5-.1-6.8,8.2-13.8,14.7-12.1,3,.8,5.9,4.3,7.6,7.3,1.2,2.1.3,5.4.2,8.2,0,3.2-2.3,2.2-4.8,2.5ZM58,41.8c0,2.5-.2,5.1,0,7.6.1,1.2,1,2.8,1.9,3.2,4.4,2.1,9.9-1.7,10.1-6.6.1-3.8,0-7.6,0-11.3,0-3.1-2.5-5.3-5.9-5.3-3.6,0-6.1,2.1-6.2,5.3,0,2.4,0,4.8,0,7.2Z"/>
      </g>
      <path class="cls-1" d="M62.1,125.4c6.6,0,13.3,0,19.9,0,.5,0,1,0,1.5,0,1.9,0,3.1,1.1,3.7,2.9.3,1.1.7,2.3,1,3.4.1.6.4.8,1,.8.6,0,1.3,0,2,0,1.7.1,2.5,1.1,2.2,2.8-.2.8,0,1.3.6,1.9.5.7,1,1.6,1.1,2.4.2,1.1-.3,1.5-1.4,1.7-.7,0-1.7-.1-2,.3-.4.4-.3,1.4-.3,2.1-1,10.6-2,21.2-3,31.8-1,10.3-1.9,20.5-2.9,30.8-.3,3.6-.7,7.2-.9,10.8,0,1.1-.5,1.6-1.6,1.8-9.5,1.8-43.1-11.2-43.6-16-.7-6.4-1.3-12.9-2-19.3-.7-7.2-1.5-14.4-2.2-21.6-.7-6.5-1.4-13-2-19.6,0-.9-.4-1.1-1.2-1,0,0,0,0-.1,0-.8-.2-2.1-.3-2.2-.6-.2-.8,0-1.9.4-2.7.6-1,1-1.8.8-3-.3-1.4.5-2.2,1.9-2.5.2,0,.5,0,.7,0q2.5-.1,3.2-2.6c1.2-4.1,1.8-4.6,6-4.6,6.5,0,13,0,19.4,0,0,0,0,0,0,0ZM37.4,173.1h49.9c1-10.6,1.9-21,2.9-31.5h-56c1.1,10.6,2.1,21,3.1,31.5ZM71,219.1c3.7-.2,7.4-.6,11.1-1.2.8-.1,1.1-.4,1.1-1.2.3-3.8.7-7.6,1.1-11.3.1-1.2.2-2.3.3-3.6-14.8,1.8-29.4,1.8-44.1,0,0,.4,0,.8,0,1.1.5,4.7,18.3,9.3,25.3,12.2,2,.8,3.1,4.2,5.3,4.1h0ZM41.1,200.3c0,0,.4,0,.6.1,6.1.9,12.3,1.2,18.5,1.2,1.9,0,1.9,0,1.9-1.9,0-7.9.1-15.8.2-23.7,0-1.1.5-1.4,1.5-1.3,2,0,3.9,0,5.9,0,1.3,0,2.6,0,3.8,0,0,0,0-.1,0-.2h-35.5c.7.2,1.2.3,1.7.5,0,.1,0,.3,0,.4h-1.7c.3,3.3.7,6.6,1,9.8.2-.7.4-1.4.3-2.1,0-.7-.3-1.4-.5-2.1-.3-1.1.2-2.9,1-3.4,0,.2.2.4.3.6.5,4.5,1,9,1.4,13.5.2,2.4.3,4.9.4,7.3,0,.4-.4.8-.6,1.2ZM63.2,201.4h5.8c-.4-.6-.7-1.3-1-1.3-1,0-2.1,0-3,.2-.7.2-1.4.8-1.9,1.1ZM73.8,178h0c0-.5,0-.9-.2-1.3-.1-.3-.4-.4-.7-.7-.2.3-.4.5-.5.8-.1.4-.1.8-.2,1.2-.1.7,0,1.4.8,1.5.9,0,.6-.7.7-1.2,0,0,0-.2,0-.2ZM40.4,199.4h.2c-.4-4.1-.8-8.2-1.3-12.3,0,0-.2,0-.3,0,.4,4.1.8,8.2,1.3,12.2Z"/>
      <g>
        <path class="cls-1" d="M14.9,231.1c0,0,.3,0,.6-.1.2,0,.4-.2.7-.2.6,0,1,.5,1.5,1.1.4.7.6,1.8.7,2.8,0,.3.1.8.2,1.3,0,1.5-.3,3-1.1,5.3-.8,2.3-1.7,4.6-2.8,6.3-.5.7-.9,1.2-1.4,1.7-.5.4-1.1,1-2,1.7-.3.3-.8.5-1.4.7-.6.2-1.1.5-1.4.7-.4.3-.7.5-.9.6-.2,0-.3,0-.4,0-.1-.1-.2-.5-.2-1v-.8c.6-.4.9-.7,1.5-1.1.1-.7.2-1.9.3-3.2,0-.6.1-1.6,0-2.5,0-.8,0-1.6,0-2.2s0-1.3.2-1.9c0-.4,0-.5,0-.9,0-.9,0-1.4,0-2.2,0-1.8,0-2.8,0-5.3,0-2,0-3.1,0-5-.7.5-1.3.8-1.6,1-.4.1-.5,0-.5-.5.2-.4.6-.8,1-1.1.4-.4,1-.8,1.7-1.3,1.8-1.3,3.1-2.1,4.1-2.7.9-.5,1.6-.7,2-.5,0,.1.1.2.2.3s0,.2.1.2c.2.3.4.7.4,1,0,.3,0,.9,0,1.4,0,.2,0,.6,0,1,0,.8-.2,1.7-.6,2.7-.4,1-.8,1.9-1.2,2.7,0,.2,0,.3.1.3ZM11.7,225.6c0,.4-.1.9-.1,1.6,0,1.2,0,2,0,2.6,0,.6.1,1.1.3,1.4,0,0,.2,0,.3,0,.1,0,.3-.3.4-.5.1-.2.3-.6.5-1,.2-.3.2-.5.4-.8.3-1,.5-1.8.6-2.5.1-.7.2-1.3.3-1.8,0-.5,0-.9-.1-1.1-.1-.1-.5,0-.8,0-.3.2-.7.4-1.1.7-.2.4-.4.8-.5,1.2ZM14.9,243.1c.2-.4.4-.9.5-1.4,0-.5.2-1,.2-1.4.3-.4.4-.7.5-.8,0,0,0-.2,0-.5.1-.3.2-.8.2-1.3,0-.2,0-.7-.2-1.4,0-.5-.1-.9-.1-1,0-.3,0-.5,0-.8,0-.2,0-.4,0-.5,0-.1-.2-.3-.3-.5,0,0,0-.1,0-.1,0-.1,0-.2,0-.3,0,0,0-.1-.1-.2,0,0-.2-.2-.3-.4-.5,0-1,0-1.6.2s-1.1.5-1.6.8c-.2.4-.3.7-.4,1.1,0,.3,0,.7,0,1.1.1,2.9.5,3.7.2,7.2-.1,1.5-.2,2.7-.3,4.9.6-.5,1.2-.9,1.5-1.2.4-.4.7-.8.9-1.3.4-.9.6-1.3,1.1-2.1Z"/>
        <path class="cls-1" d="M42.3,233.1c0,.8,0,1.5,0,2.1,0,.7.2,1.2.4,1.6,0,.1,0,.2.3.3.2,0,.3.1.5.2.1,0,.2.3.2.5-.5,0-1.1,0-1.9,0-.4,0-1.1-.2-1.9-.3-.9-.2-1.6-.2-2-.2,0-.1,0-.3,0-.6,0-.2.2-.3.4-.3.2,0,.3,0,.4,0,.2-1.6.3-3,.4-5.3,0-2.3,0-6.7,0-9.7,0-2,0-2.7,0-4.5,0-.4,0-.9.1-1.3,0-.1,0-.3,0-.4,0-.2,0-.3,0-.5,0-.4,0-.7-.2-.9-1.6-.1-2.4-.1-4,0,0,1.3,0,3.4-.2,6.1-.2,2.8-.2,6.3-.2,8.4,0,2.6,0,3.6,0,5.4,0,.7,0,1.1,0,1.9,0,.2,0,.3.1.5,0,.1.2.2.4.3.1,0,.3.2.3.3,0,0,.1.2.1.3,0,.1,0,.2,0,.3,0,.2-.3.3-.6.4-.4.1-.8.2-1.3.3-.8.2-1.5.3-2.1.3-.2,0-.3,0-.4-.1,0,0,0-.3,0-.6,0-.1,0-.3,0-.4,0,0,.2-.2.3-.4,0,0,0-.1.2-.2.1,0,.2-.2.3-.3,0-2.1,0-2.8,0-5.3,0-.7,0-1,0-1.7,0-2.5,0-4,0-6.2,0-.7,0-1,0-1.5,0-.5,0-1.2.1-2.3,0-1.2.1-2.2.1-2.8,0-1,0-1.9-.1-2.7-.4,0-.7.1-.9.1-.3,0-.4,0-.4-.3.2-.4.6-.7,1.2-.8.2,0,.5,0,.8,0,.3,0,.5,0,.6,0,.5,0,.8,0,1.3-.1,3.1-.3,4.8-.1,7.9.4.3,0,.5.2.5.5,0,.2,0,.4-.3.6-.2.2-.4.2-.7.2,0,6.4,0,12.5,0,18.9Z"/>
        <path class="cls-1" d="M54.3,239.7c-.2.2-.4.3-.6.3-.8.2-1.7.2-2.6-.1-.9-.3-1.8-.8-2.7-1.5-.8-.7-1.4-1.5-1.9-2.3-.6-1.1-1.1-2.2-1.4-3.5-.2-.9-.3-2-.4-3.2,0-1.2,0-2.8,0-4.6,0-.3,0-.7,0-1.2,0-.5,0-.9,0-1.1,0-.4,0-.8,0-1.1,0,0,0-.3.1-.7,0-.4,0-.7.1-1,0-.1,0-.4.1-.8,0-.4.1-.7.2-.9,0-.2.2-.4.3-.5.2-.1.4-.5.7-.9.4-.6.8-1,1.1-1.3.3-.3.7-.5,1.1-.6.5-.1,1-.1,1.6,0,.3,0,.5.2.7.3.8.3,1.5.7,2,1.1.5.4.9,1.2,1.4,1.9.5.7,1.2,1.6,1.7,2.7.5,1.1.8,2.2.9,3.4,0,.6.1,1.3.1,2.6,0,.5,0,.8,0,1.3,0,2.2,0,4.3-.3,5.7-.4,2.8-1,4.1-1.8,5.3-.1.2-.3.4-.5.5ZM53.5,236.6c.2-.6.4-1.2.5-1.8.1-.6.3-1.5.3-2.3,0-.9,0-2.1,0-3.4,0-.5,0-1.1,0-1.7,0-.1,0-.4,0-.7,0-.3,0-.6,0-.9,0-.3,0-.6,0-.9,0-.3,0-.5,0-.7,0-.6-.1-1-.1-1.3-.1-.3-.3-.8-.4-1.4-.2-.6-.3-1.2-.5-1.5,0-.2-.1-.4-.2-.6-.3-.6-.5-1.2-.7-1.5-.2-.4-.5-.7-.8-1-.3,0-.6-.2-.9-.3-.3-.1-.6-.2-.9-.3-.4.3-.8.6-1,1s-.5,1-.7,1.5c-.1.3-.3.7-.4,1.1,0,.4,0,.9,0,1.5,0,.8-.2,1.9-.1,3.5,0,2.9.2,7,.7,9.5.1.2.2.5.3.7,0,.2.1.4.1.5,0,.3.2.6.2.8,0,.2.2.3.3.5.1,0,.2,0,.2.1,0,0,0,.2.1.3,0,.2,0,.3.2.4.2.3.6.5,1.1.7.4.1.9.2,1.3.2.4,0,.7-.1.7-.4.2-.4.4-.9.6-1.6Z"/>
        <path class="cls-1" d="M68.4,250c0,.4,0,1,0,1.8,0,.4-.2.5-.5.2-.2-.1-.4-.3-.7-.7,0-.2-.2-.4-.2-.6,0-.2,0-.5,0-1,0,0,0-.2,0-.4,0-.2,0-.4,0-.6s0-.3-.1-.4c0-.2-.2-.4-.2-.5,0,0-.1-.2-.2-.3-.4-.3-1.2-.9-2-1.4-.3-.2-.4-.3-.7-.4,0,0,0,0,0,0-.5-.3-.9-.6-1.3-.8-1.2-.8-2.3-1.4-3.2-1.8-.4-.2-.5-.3-.9-.5,0,.2,0,.4,0,.6,0,.1,0,.4,0,.8,0,.4,0,.7,0,1,0,.5,0,.8-.2.8-.1,0-.3,0-.4-.1-.3-.2-.6-.4-.7-.7-.1-.3-.2-.8-.2-1.4,0,0,0-.3,0-.6,0-.3,0-.6-.2-.9,0-.1,0-.3,0-.5,0-.2,0-.4,0-.5,0-.3,0-.4.2-.3.2,0,.3.1.5.2.1,0,.4.1.9.4.1-.2.2-.4.2-.6,0-.2,0-.5,0-.9,0-.2,0-.5,0-.8.1-1.3.5-3.5,1.1-7.3.2-1.4.3-2.1.5-3.2.6-3.7,1-5.7,1.1-8.5.2-.1.2-.2.4-.3.5,0,.9.1,1.2.3.3.1.6.4.8.6.2.3.4.6.5,1.1.2,1.8.4,3.7.8,5.9.3,2.1.7,5.7,1.2,10.5.5,5.5.8,7.2.9,8.7.2.1.3.3.5.4.1.1.2.3.3.5,0,0,.2.2.3.4,0,.1,0,.2,0,.3,0,0,0,0,0,.2,0,0,0,0,0,0,0,.5.1,1,.1,1.4ZM62,227.9c-.2.9-.4,2.8-.8,5.5-.4,2.7-.7,4.6-.9,5.6-.2,1-.3,2.1-.4,3.2,1.8,1,2.7,1.5,4.4,2.6,0,0,0,0,0-.2,0-.1,0-.2,0-.3,0-1.7-.3-3.5-.6-7.3-.2-2.5-.3-4.7-.4-6.1,0-1.3-.1-2.4-.2-3.5,0-.5,0-.9-.2-1.4-.1-.5-.3-.8-.5-.9-.1,1-.3,1.8-.4,2.7Z"/>
        <path class="cls-1" d="M75.5,247c0-1.9,0-4.1-.1-5.9-.2-.1-.5-.5-1-1-.6-.7-1.2-1.3-1.6-1.5-.2.2-.3.6-.3,1.2s0,1.4-.1,2.5c-.2,1.2-.4,2.5-.4,3.6,0,1-.5,2.7-.3,3.9,0,.1.2.3.3.4,0,0,.2.1.3.2.1,0,.2.2.3.2,0,0,.1.2.2.3,0,.2,0,.4,0,.6,0,.2,0,.3,0,.3-.3,0-.6,0-.9-.2,0,0-.1,0-.3-.2-.2-.2-.4-.4-.6-.5-.3-.2-.5-.4-.6-.5-.3-.2-.5-.3-.8-.4-.3-.6-.5-.9-.8-1.6.5-.3.9-.3,1.2,0,.2.1.3.1.3,0,0-.1,0-.4,0-.7.2-1.1.5-2.4.9-6.6.3-3.5.6-5.9.7-6.7,0-.8,0-1.4.2-2,.1-.6.4-1.2.5-1.5.2-.7.3-1.5.6-2.1.3-.6.6-1.2,1-1.8,0,0,0,0,.2-.1,0,0,.2,0,.3,0,.1,0,.3,0,.4.1.1,0,.3.2.4.4.2.3.4.7.6,1.3.2.6.4,1.1.5,1.7.1.6.2,1,.2,1.4.3.9.4,1.9.5,2.9.1,1.1.2,3.1.3,9.1,0,3.3,0,5.9.1,7.7,0,1.2,0,1.7,0,2.9,0,0,0,.2,0,.3,0,.1,0,.2,0,.2.1.3.2.5.2.6,0,.2-.1.3-.3.3-.2-.1-.2-.2-.4-.4-.3-.2-.6-.3-.9-.5-.1,0-.2-.1-.4-.2-.2-.1-.4-.2-.5-.3,0,0-.2,0-.3-.1-.1,0-.2-.1-.3-.2-.2-.1-.3-.3-.3-.5,0-.2,0-.4.2-.6.1-.2.2-.4.4-.5s.3-.2.4,0c0-2,.1-3.5.2-5.4ZM73.7,231.5c-.2.8-.3,1.5-.4,2.3,0,.2,0,.5-.2,1-.1.7-.2,1.3-.2,1.6.4.6.9,1,1.3,1.4.4.4.8.7,1.3,1,0-1.7.1-2.3,0-3.5,0-.7,0-1.6-.2-2.6-.1-1-.3-2-.5-2.8,0,0,0-.2,0-.3,0-.2-.1-.3-.3-.4-.1.1-.2.2-.3.3-.1.6-.3,1.3-.5,2.1Z"/>
        <path class="cls-1" d="M83.9,256.2c.3.2.4.4.4.6,0,.2-.1.4-.3.6-.3,0-1-.1-1.8-.3-.6-.1-1-.2-1.3-.3-.5-.2-.9-.4-1.3-.7,0,0,0-.1-.1-.2,0-.1-.1-.2-.2-.4,0-.2,0-.3,0-.5.2-.2.3-.2.4-.2,0,0,.3,0,.6.2.1-.1.2-.4.2-.8,0-.2,0-.4,0-.8,0-.3,0-.5,0-.6,0-.3,0-.4,0-.7,0-1.4,0-3.2.1-5.2,0-2.4,0-4.3,0-5.3,0-.6,0-1.1,0-1.3,0-.7,0-1.1,0-1.6,0-.6,0-1.1,0-1.4,0-.4,0-.7,0-.8,0,0,0,0,0,0,0-.3,0-.6,0-.8,0-.7,0-1.3,0-2,0-.3,0-.4,0-.7,0-.2,0-.4,0-.5,0-.1-.1-.3-.2-.3-.1-.1-.3-.2-.4-.3-.1,0-.2-.1-.3-.2,0,0-.1-.2-.2-.3-.2-.3-.3-.5-.3-.7,0-.1,0-.2,0-.3,0,0,.1-.2.2-.2,0,0,.2-.1.2-.2.8.2,1.8.5,3.1.8.8.2,1.2.3,2,.4.1,0,.2,0,.3,0,0,0,.1,0,.2,0,.1,0,.3,0,.4,0,.8.2,1.5.8,2.2,1.8.7,1,1.3,2.2,1.4,3.4,0,.8,0,1.7,0,2.2,0,.6-.2,1.1-.4,1.5-.2.5-.4,1.2-.8,1.9s-.8,1.4-1.3,2.2c-.3.4-.4.6-.6,1-.4.4-.8.6-1.2.6-.4,0-.9,0-1.6-.1,0,0,0,0-.1,0,0,0-.1,0-.2.2,0,.1,0,.3,0,.5,0,.2,0,.6,0,1.1,0,.5,0,.9,0,1.2,0,.3,0,.5,0,.8,0,.9,0,1.8-.1,2.5,0,.2,0,.4,0,.8s0,.7,0,1c0,.7,0,1.3.2,1.9.4,0,.8.2,1.1.4ZM82.9,242.3c.1.3.2.5.4.6.2.2.3.3.5.3.2,0,.4,0,.5-.2.4-.4.7-1,1-1.7.3-.7.5-1.3.6-1.8,0-.1,0-.4.2-.7s.1-.6.1-.9c0-.3,0-.7,0-1.1,0-.7,0-1.4-.2-2.1-.1-.7-.3-1.3-.5-1.8-.1,0-.2,0-.3-.1-.1,0-.2-.1-.2-.1-.4-.2-.7-.4-1-.5-.5,0-.7-.1-1.1-.2-.1.7-.2,1.5-.2,2.3,0,.4,0,.9,0,1.4,0,.5,0,.8,0,1,0,.9.1,1.7,0,2.4,0,1,0,1.7,0,3.2Z"/>
        <path class="cls-1" d="M101.4,255c-.3.3-.5.5-.8.7-1,.7-2,1.2-3.1,1.4-1.1.2-2.1,0-3-.3-.9-.4-1.6-.9-2-1.6-.6-1-1.1-1.9-1.5-3.1-.2-.9-.3-2.2-.4-3.6,0-1.4,0-3.3,0-5.4,0-.3,0-.8,0-1.3,0-.6,0-1,0-1.2,0-.5,0-.9,0-1.2,0,0,0-.3.1-.7,0-.4,0-.8.1-1,0-.1,0-.4.2-.8,0-.4.1-.7.2-1s.2-.4.3-.6c.2-.2.4-.6.8-1.1.5-.7.9-1.3,1.3-1.7.4-.4.8-.8,1.3-1.1.5-.3,1.2-.5,1.9-.6.3,0,.6,0,.8,0,.9,0,1.8-.1,2.4,0,.6.2,1.2.7,1.7,1.1.6.4,1.5.8,2.1,1.6.6.8.9,1.7,1.1,2.7,0,.5.1,1.2,0,2.6,0,.6,0,.9,0,1.5,0,2.5-.2,5-.5,6.8-.6,3.6-1.4,5.2-2.5,7-.2.3-.4.6-.7.9ZM100.6,252.3c.3-.8.5-1.5.7-2.2.2-.8.4-1.8.5-2.9,0-1,.1-2.4.1-4,0-.6,0-1.3.1-2.1,0-.1,0-.4,0-.8,0-.4,0-.7,0-1,0-.3,0-.6,0-.9,0-.3,0-.5,0-.7,0-.5-.1-1-.1-1.2-.2-.2-.4-.6-.5-1.2-.2-.6-.4-1-.6-1.2-.1-.2-.2-.3-.3-.5-.3-.5-.6-.9-.8-1.2-.2-.3-.6-.5-.9-.6-.3,0-.7,0-1,0-.4,0-.7,0-1.1,0-.5.5-.9,1-1.2,1.5s-.5,1.2-.8,1.8c-.2.4-.4.8-.4,1.2,0,.4,0,.9,0,1.5,0,.9-.2,2-.2,3.9,0,3.4.2,8.3.7,10.6.1.2.2.4.3.6,0,.2.1.4.2.4,0,.3.2.5.3.7,0,.2.2.3.3.4.1,0,.2,0,.3,0,0,0,0,.1.1.3,0,.1,0,.2.2.3.3.2.7.2,1.3.1.5,0,1-.3,1.5-.5.5-.3.8-.5.9-.8.2-.5.5-1.2.8-2Z"/>
        <path class="cls-1" d="M116.3,229.6c-.1.7-.3,1.6-.6,2.5-.2.7-.6,1.3-.8,1.9-.2.5-.3.7-.6,1.3,0,.3,0,.5,0,.5s.2,0,.4,0c.2.1.5.3.9.6.4.3.7.5.9.7.4.8.7,1.8.9,3.1.2,1.2.4,2.9.5,4.4,0,1,.2,1.5.3,1.9,0,.1,0,.5-.1,1,0,.4,0,.6,0,.8,0,.2,0,.4.2.5,0,.1,0,.2.1.2,0,0,.2.1.4.2,0,0,0,0,.2,0s.2,0,.2.1c0,0,0,.1,0,.2,0,.2,0,.4-.1.6,0,.2-.1.4-.2.4-.3.3-1.4.6-2.5,1.1-.7.3-1.1.4-1.8.7-.2-.1-.3-.3-.3-.5,0,0,0-.1,0-.2,0,0,0-.1,0-.1.4-.5.6-.8,1-1.3.1-.3.2-.6.2-.9,0-.2,0-.5,0-.8,0-.4,0-.7,0-.9,0-1.1,0-1.6,0-3.3,0-.3,0-.4,0-.7,0-1.2,0-2.4-.3-3.6-.2-1.2-.6-1.8-1-2-.5-.2-.9-.2-1.4,0-.5.2-1.1.5-1.5,1-.4.6-.6,2.2-.7,4.3,0,1,0,1.9,0,2.7,0,1.1,0,1.7,0,2,0,.3,0,.5,0,.7,0,.2-.1.4-.2.6-.2.5-.3.9-.3,1.2,0,.7,0,1,0,1.7.3,0,.6.1.8.3.2.1.3.3.3.5,0,.3-.2.5-.6.8-.2,0-.4,0-.7.1,0,0-.1,0-.2,0-.3,0-.6.2-1.1.5-.5.2-.9.4-1.1.5-.3,0-.6.1-.9.1-.3-.2-.4-.3-.5-.3,0,0,0-.2,0-.4.1-.1.3-.3.6-.5.2-.1.3-.2.4-.3,0,0,.1-.2.1-.3,0-.9,0-1.3,0-2.2,0-1.4,0-2.1.1-4.5,0-.3,0-.5,0-.8,0-.3,0-.4,0-.7,0-.3,0-.7.2-1.3.2-1.2.4-2.1.4-2.8,0-3.2,0-4.7,0-5.8,0-1.2-.3-2.2-.5-3,0-.5,0-.7,0-1.2-.3,0-.6.1-.8.1-.2,0-.3-.1-.3-.3-.2,0-.4,0-.4-.4,0-.1,0-.3,0-.4,0-.2.1-.3.2-.4.1-.1.3-.2.5-.3,0,0,.3,0,.5,0,.5,0,.8-.2,1-.2.3,0,.4-.1.7-.2.5-.2.8-.3,1.1-.4.6-.2,1-.3,1.4-.2.3,0,.5.2.5.5,0,.1,0,.2-.1.3s-.2.2-.3.3c-.3.3-.5.5-.6.6-.1.3.1,1.3.3,2.2.2.9.3,1.7.3,2.2,0,0,0,.2,0,.5,0,0,0,.2,0,.3,0,.2,0,.3,0,.4,0,.2,0,.4.2.5.9-.5,1.6-1.2,2.2-2.1.5-.9.9-1.8,1.1-2.9,0-.3,0-.8.2-1.4.2-.6.2-1.1.2-1.4-.4.2-.6.2-1,.4,0-.2-.1-.3-.3-.3-.2,0-.2-.2-.2-.3.1-.3.3-.5.6-.7.2-.2.6-.4,1-.6.5-.3,1-.5,1.2-.8.3,0,.5,0,.6,0,.1,0,.2.2.2.4,0,.2,0,.4-.2.7-.2.2-.4.4-.6.5,0,.8,0,1.5-.2,2.1Z"/>
      </g>
    </g>
  </g>
</svg>