<?xml version="1.0" encoding="UTF-8"?>
<svg xmlns="http://www.w3.org/2000/svg" version="1.1" viewBox="0 0 500 500">
  <defs>
    <style>
      .cls-1 {
        fill: none;
      }

      .cls-2 {
        display: none;
      }

      .cls-3 {
        fill: gray;
      }
    </style>
  </defs>
  <!-- Generator: Adobe Illustrator 28.7.1, SVG Export Plug-In . SVG Version: 1.2.0 Build 142)  -->
  <g>
    <g id="_Слой_1" data-name="Слой_1">
      <g>
        <g id="_Слой_1-2" data-name="_Слой_1" class="cls-2">
          <rect class="cls-3" x="-87" y="-96.5" width="693" height="693"/>
        </g>
        <g id="_Слой_2">
          <g>
            <path class="cls-1" d="M606,596.5H-87V-96.5h693v693ZM250.4,425.8c30,.4,59.5-2,88.4-10.4,16.5-4.8,33.7-8.2,49.3-15.1,17.1-7.6,33.3-17.5,48.7-28.3,16.6-11.6,30.9-26.1,40.9-44.2,4.8-8.6,10.1-17.1,13.6-26.2,3.6-9.3,5.8-19.3,7.8-29.1,1.2-5.6-2-9.5-7.6-11.6-13-4.7-25.6-10.6-38.9-14.1-20-5.3-40.2-10.9-60.7-12.9-47-4.7-92.1,6.4-136.6,20.1-9.9,3-19.7,6.4-29.4,9.9-13.6,4.9-26.8,11.1-40.7,14.8-17.1,4.5-34.7,8-52.3,10.1-40.4,4.8-80-.3-118.7-12.8-6.1-2-9.5.5-9.4,6.8,0,2.7.4,5.7,1.6,8.1,4.9,9.6,10,19.1,15.4,28.4,2.4,4.2,5,8.5,8.3,11.8,12.1,11.9,24.4,23.5,36.8,35.1,17.3,16.1,38.2,26.3,59.4,35.6,22.6,9.9,46.7,16,71,20.1,17.4,2.9,35.4,2.7,53.1,3.9h0ZM254.4,49c-19.3,2.1-35,4.3-50.9,5.5-22,1.6-43.3,6.4-64.2,13-11.6,3.7-23.5,7.3-34.2,13-22.6,11.9-43.9,25.6-61.5,44.9-18.8,20.6-32,43.6-38.6,70.5-3,12.2.7,19.2,12.8,23.3,14.6,4.9,29.5,9,44,14.3,26,9.5,53.1,8.9,80.1,8.6,22.8-.2,45.6-1.7,67.6-9.1,17.2-5.8,35.1-9.7,52.5-15,10.6-3.2,20.7-7.7,31.3-10.9,17.8-5.5,35.4-12.3,53.7-15.4,31.3-5.2,63-4.9,94.6-1.9,11.1,1.1,22,4.5,33,6.9,4.9,1.1,9.8,2.9,14.8,3.5,8.5,1,12.3-3.5,8.5-11-7.4-14.5-14.5-29.4-24.1-42.4-17.5-23.9-40.9-41.7-66.1-56.8-22.9-13.7-47.8-23.4-73.5-29.3-27.1-6.2-55.1-8.2-79.6-11.6h0Z"/>
            <path d="M250.4,425.8c-17.7-1.2-35.7-.9-53.1-3.9-24.3-4.1-48.4-10.2-71-20.1-21.2-9.3-42.2-19.5-59.4-35.6-12.4-11.6-24.8-23.2-36.8-35.1-3.4-3.3-6-7.6-8.3-11.8-5.3-9.4-10.5-18.8-15.4-28.4-1.2-2.4-1.5-5.3-1.6-8.1-.2-6.4,3.3-8.8,9.4-6.8,38.7,12.5,78.3,17.6,118.7,12.8,17.6-2.1,35.1-5.6,52.3-10.1,13.9-3.7,27.1-9.9,40.7-14.8,9.7-3.5,19.5-6.8,29.4-9.9,44.5-13.6,89.7-24.8,136.6-20.1,20.5,2.1,40.7,7.7,60.7,12.9,13.3,3.5,25.9,9.4,38.9,14.1,5.6,2,8.8,5.9,7.6,11.6-2,9.8-4.2,19.8-7.8,29.1-3.5,9.1-8.9,17.6-13.6,26.2-10,18.1-24.2,32.6-40.9,44.2-15.4,10.7-31.6,20.7-48.7,28.3-15.6,6.9-32.8,10.3-49.3,15.1-28.9,8.4-58.4,10.8-88.4,10.4h0ZM255.7,396.3c29.5-2.4,54.5-.9,78.6-9.4,15.6-5.5,31.8-9.3,47.2-15.1,8.9-3.3,17.5-8.3,25.2-14,11.6-8.6,22.7-17.9,33.2-27.7,11.3-10.7,18.2-24.6,25-38.4,2.1-4.3.9-8.5-3.4-10.7-6.1-3.1-12.4-6.4-18.9-8.3-30.4-8.8-61.5-13.5-93-9.9-20.6,2.3-40.8,7.4-61.2,11.3-.7.1-1.3.5-1.9.7-14.9,5.3-29.7,10.9-44.7,15.8-15.9,5.2-32.1,9.6-48.2,14.4-1.3.4-2.6,1.1-3.9,1.4-7.5,2-15,4.4-22.7,5.8-9.7,1.8-19.6,3.4-29.5,4-18.2,1.1-36.3,1.5-54.5,1.9-4.3,0-8.7-1.3-13-1.4-6.9,0-8.2,1.7-5.1,7.7,6.5,12.8,19,19.8,30.1,27.3,15,10.1,31,18.5,48.1,25.3,18.4,7.3,37.1,13,56.4,15.6,20.1,2.7,40.5,2.8,56.1,3.8h0Z"/>
            <path d="M254.4,49c24.5,3.4,52.6,5.4,79.6,11.6,25.7,5.9,50.7,15.6,73.5,29.3,25.2,15.1,48.6,32.9,66.1,56.8,9.5,13,16.7,27.9,24.1,42.4,3.8,7.5,0,12-8.5,11-5-.6-9.9-2.4-14.8-3.5-11-2.4-21.9-5.8-33-6.9-31.6-3.1-63.4-3.3-94.6,1.9-18.2,3-35.9,9.9-53.7,15.4-10.5,3.3-20.7,7.7-31.3,10.9-17.4,5.2-35.2,9.1-52.5,15-22.1,7.5-44.8,8.9-67.6,9.1-26.9.3-54,.9-80.1-8.6-14.5-5.3-29.3-9.4-44-14.3-12-4.1-15.8-11.1-12.8-23.3,6.7-26.9,19.9-49.9,38.6-70.5,17.6-19.3,38.9-33,61.5-44.9,10.7-5.6,22.6-9.3,34.2-13,20.9-6.6,42.2-11.4,64.2-13,15.9-1.2,31.6-3.4,50.9-5.5h0ZM394.3,160v-.4c10.6,0,21.2.1,31.8,0,4.1,0,8.4-.4,12.2-1.7,1.2-.4,2.7-4.9,1.9-6-2.7-3.9-6-7.8-9.8-10.5-12.1-8.7-23.9-18.3-37-25.1-18.5-9.6-37.4-19.5-57.4-24.9-27.9-7.5-56.7-12-86.1-12.2-28.9-.2-56.9,5.5-85,10.7-13,2.4-26,6.9-37.9,12.7-15.6,7.6-30.9,16.5-44.9,26.7-9.7,7-17.6,16.7-25.3,26-6.2,7.5-11,16.2-16.5,24.3-4.9,7.1-2.5,17.1,5.1,19.6,11.2,3.6,22.3,7.5,33.8,9.8,24.6,4.9,49.5,4.7,74.4,4,25.8-.7,50-7.5,74.3-14.9,16-4.9,31.6-11.2,47.7-16.1,17.8-5.4,35.9-9.8,53.9-14.7,1.8-.5,3.5-1.3,5.3-1.6,8.5-1.9,17-4.5,25.6-5.2,11.2-.9,22.6-.2,33.9-.2h0Z"/>
            <path class="cls-1" d="M255.7,396.3c-15.6-1-36.1-1-56.1-3.8-19.3-2.6-38-8.3-56.4-15.6-17.1-6.7-33.1-15.2-48.1-25.3-11.1-7.5-23.6-14.4-30.1-27.3-3.1-6.1-1.8-7.8,5.1-7.7,4.4,0,8.7,1.5,13,1.4,18.2-.4,36.4-.8,54.5-1.9,9.9-.6,19.7-2.2,29.5-4,7.7-1.4,15.1-3.8,22.7-5.8,1.3-.4,2.6-1.1,3.9-1.4,16.1-4.8,32.2-9.2,48.2-14.4,15-4.9,29.8-10.5,44.7-15.8.7-.2,1.3-.6,1.9-.7,20.4-3.9,40.6-8.9,61.2-11.3,31.5-3.5,62.6,1.1,93,9.9,6.6,1.9,12.8,5.2,18.9,8.3,4.3,2.2,5.5,6.4,3.4,10.7-6.8,13.8-13.8,27.7-25,38.4-10.5,9.9-21.6,19.2-33.2,27.7-7.7,5.7-16.3,10.7-25.2,14-15.5,5.8-31.7,9.6-47.2,15.1-24.1,8.5-49.2,7-78.6,9.4h0Z"/>
            <path class="cls-1" d="M394.3,160c-11.3,0-22.7-.7-33.9.2-8.6.7-17.1,3.3-25.6,5.2-1.8.4-3.5,1.2-5.3,1.6-18,4.9-36,9.3-53.9,14.7-16,4.9-31.6,11.2-47.7,16.1-24.2,7.3-48.5,14.2-74.3,14.9-25,.7-49.9.9-74.4-4-11.5-2.3-22.6-6.2-33.8-9.8-7.7-2.5-10-12.5-5.1-19.6,5.5-8.1,10.3-16.8,16.5-24.3,7.7-9.3,15.6-19,25.3-26,14.1-10.2,29.3-19.1,44.9-26.7,11.9-5.8,24.9-10.3,37.9-12.7,28.1-5.1,56-10.8,85-10.7,29.4.2,58.2,4.6,86.1,12.2,19.9,5.4,38.9,15.3,57.4,24.9,13.1,6.8,24.9,16.4,37,25.1,3.9,2.8,7.1,6.6,9.8,10.5.8,1.1-.7,5.6-1.9,6-3.9,1.2-8.1,1.6-12.2,1.7-10.6.2-21.2,0-31.8,0v.4h0Z"/>
          </g>
        </g>
      </g>
    </g>
  </g>
</svg>