<?xml version="1.0" encoding="UTF-8"?>
<svg xmlns="http://www.w3.org/2000/svg" version="1.1" viewBox="0 0 500 500">
  <defs>
    <style>
      .cls-1 {
        fill: #fff;
      }

      .cls-2 {
        fill: none;
      }

      .cls-3 {
        display: none;
      }

      .cls-4 {
        fill: gray;
      }
    </style>
  </defs>
  <!-- Generator: Adobe Illustrator 28.7.1, SVG Export Plug-In . SVG Version: 1.2.0 Build 142)  -->
  <g>
    <g id="_Слой_1" data-name="Слой_1">
      <g>
        <g id="_Слой_1-2" data-name="_Слой_1" class="cls-3">
          <rect class="cls-4" width="500" height="500"/>
        </g>
        <g id="_Слой_2">
          <g>
            <path class="cls-2" d="M500,500H0V0h500v500ZM243.4,376.8c21.6.3,42.9-1.4,63.8-7.5,11.9-3.5,24.3-5.9,35.6-10.9,12.3-5.5,24.1-12.7,35.1-20.4,12-8.4,22.3-18.9,29.5-31.9,3.4-6.2,7.3-12.3,9.8-18.9,2.6-6.7,4.2-13.9,5.6-21,.8-4-1.5-6.9-5.5-8.3-9.4-3.4-18.5-7.6-28-10.2-14.4-3.8-29-7.8-43.8-9.3-33.9-3.4-66.5,4.6-98.6,14.5-7.1,2.2-14.2,4.6-21.2,7.1-9.8,3.5-19.3,8-29.4,10.7-12.4,3.2-25,5.8-37.7,7.3-29.2,3.5-57.7-.2-85.6-9.2-4.4-1.4-6.9.4-6.8,4.9,0,2,.3,4.1,1.1,5.8,3.5,6.9,7.2,13.8,11.1,20.5,1.7,3,3.6,6.1,6,8.5,8.7,8.6,17.6,17,26.6,25.3,12.4,11.6,27.6,19,42.9,25.7,16.3,7.1,33.7,11.5,51.2,14.5,12.6,2.1,25.5,1.9,38.3,2.8h0ZM246.3,105c-13.9,1.5-25.3,3.1-36.7,4-15.9,1.2-31.2,4.6-46.3,9.4-8.4,2.7-16.9,5.3-24.7,9.4-16.3,8.6-31.7,18.5-44.4,32.4-13.5,14.8-23.1,31.4-27.9,50.8-2.2,8.8.5,13.9,9.2,16.8,10.5,3.6,21.3,6.5,31.7,10.3,18.8,6.9,38.3,6.4,57.8,6.2,16.5-.2,32.9-1.2,48.8-6.6,12.4-4.2,25.3-7,37.8-10.8,7.6-2.3,15-5.5,22.6-7.9,12.8-4,25.6-8.9,38.7-11.1,22.6-3.8,45.5-3.6,68.3-1.4,8,.8,15.9,3.2,23.8,5,3.6.8,7.1,2.1,10.7,2.5,6.1.8,8.9-2.5,6.1-7.9-5.3-10.4-10.5-21.2-17.4-30.6-12.6-17.2-29.5-30.1-47.7-41-16.5-9.9-34.5-16.9-53-21.2-19.5-4.5-39.8-5.9-57.4-8.4h0Z"/>
            <path class="cls-1" d="M243.4,376.8c-12.8-.9-25.7-.7-38.3-2.8-17.5-2.9-34.9-7.3-51.2-14.5-15.3-6.7-30.4-14.1-42.9-25.7-8.9-8.3-17.9-16.7-26.6-25.3-2.4-2.4-4.3-5.5-6-8.5-3.9-6.8-7.6-13.6-11.1-20.5-.9-1.7-1.1-3.9-1.1-5.8-.1-4.6,2.4-6.4,6.8-4.9,27.9,9,56.5,12.7,85.6,9.2,12.7-1.5,25.4-4,37.7-7.3,10-2.6,19.6-7.1,29.4-10.7,7-2.5,14.1-4.9,21.2-7.1,32.1-9.8,64.7-17.9,98.6-14.5,14.8,1.5,29.4,5.5,43.8,9.3,9.6,2.5,18.7,6.8,28,10.2,4,1.5,6.3,4.3,5.5,8.3-1.5,7.1-3,14.3-5.6,21-2.6,6.6-6.4,12.7-9.8,18.9-7.2,13-17.5,23.5-29.5,31.9-11.1,7.7-22.8,14.9-35.1,20.4-11.3,5-23.7,7.5-35.6,10.9-20.8,6-42.1,7.8-63.8,7.5h0ZM247.3,355.6c21.2-1.7,39.4-.6,56.7-6.8,11.2-4,22.9-6.7,34.1-10.9,6.5-2.4,12.6-6,18.2-10.1,8.4-6.2,16.4-12.9,23.9-20,8.1-7.7,13.2-17.8,18.1-27.7,1.5-3.1.7-6.1-2.4-7.7-4.4-2.3-8.9-4.6-13.7-6-21.9-6.4-44.4-9.7-67.1-7.2-14.8,1.7-29.4,5.3-44.1,8.1-.5,0-.9.4-1.4.5-10.8,3.8-21.4,7.9-32.3,11.4-11.5,3.7-23.2,6.9-34.8,10.4-.9.3-1.9.8-2.8,1-5.4,1.5-10.8,3.2-16.4,4.2-7,1.3-14.1,2.4-21.3,2.9-13.1.8-26.2,1.1-39.3,1.4-3.1,0-6.3-.9-9.4-1-5,0-5.9,1.2-3.7,5.6,4.7,9.3,13.7,14.3,21.7,19.7,10.8,7.3,22.4,13.4,34.7,18.2,13.3,5.2,26.8,9.4,40.7,11.3,14.5,2,29.2,2,40.5,2.7h0Z"/>
            <path class="cls-1" d="M246.3,105c17.7,2.5,37.9,3.9,57.5,8.4,18.5,4.3,36.6,11.3,53,21.1,18.2,10.9,35.1,23.8,47.7,41,6.9,9.4,12,20.1,17.4,30.6,2.8,5.4,0,8.7-6.1,7.9-3.6-.4-7.1-1.7-10.7-2.5-7.9-1.8-15.8-4.2-23.8-5-22.8-2.2-45.7-2.4-68.3,1.4-13.2,2.2-25.9,7.1-38.7,11.1-7.6,2.4-15,5.6-22.6,7.9-12.6,3.8-25.4,6.6-37.9,10.8-15.9,5.4-32.4,6.4-48.8,6.6-19.4.2-39,.6-57.8-6.2-10.4-3.8-21.2-6.8-31.7-10.3-8.7-2.9-11.4-8-9.2-16.8,4.8-19.4,14.3-36,27.9-50.8,12.7-13.9,28.1-23.8,44.4-32.4,7.7-4.1,16.3-6.7,24.7-9.4,15.1-4.8,30.5-8.2,46.3-9.4,11.4-.9,22.8-2.4,36.7-4h0ZM347.3,185.1v-.3c7.6,0,15.3.1,23,0,3,0,6-.3,8.8-1.2.9-.3,1.9-3.6,1.4-4.4-2-2.8-4.3-5.6-7.1-7.6-8.7-6.3-17.2-13.2-26.7-18.1-13.3-6.9-27-14.1-41.4-17.9-20.2-5.4-40.9-8.7-62.1-8.8-20.9-.1-41.1,4-61.3,7.7-9.4,1.7-18.8,5-27.4,9.1-11.3,5.5-22.3,11.9-32.4,19.2-7,5.1-12.7,12.1-18.3,18.8-4.5,5.4-7.9,11.7-11.9,17.5-3.5,5.1-1.8,12.3,3.7,14.1,8.1,2.6,16.1,5.4,24.4,7,17.7,3.5,35.7,3.4,53.7,2.9,18.6-.5,36.1-5.4,53.6-10.7,11.6-3.5,22.8-8.1,34.4-11.6,12.9-3.9,25.9-7.1,38.9-10.6,1.3-.4,2.5-.9,3.8-1.2,6.2-1.3,12.3-3.2,18.5-3.7,8.1-.6,16.3-.2,24.5-.2h0Z"/>
            <path class="cls-2" d="M247.3,355.6c-11.3-.7-26-.7-40.5-2.7-13.9-1.9-27.4-6-40.7-11.3-12.3-4.9-23.9-10.9-34.7-18.2-8-5.4-17.1-10.4-21.7-19.7-2.2-4.4-1.3-5.7,3.7-5.6,3.1,0,6.3,1,9.4,1,13.1-.3,26.2-.6,39.3-1.4,7.1-.4,14.2-1.6,21.3-2.9,5.5-1,10.9-2.7,16.4-4.2,1-.3,1.9-.8,2.8-1,11.6-3.5,23.2-6.6,34.8-10.4,10.9-3.5,21.5-7.6,32.3-11.4.5-.2.9-.4,1.4-.5,14.7-2.8,29.3-6.5,44.1-8.1,22.8-2.6,45.2.8,67.1,7.2,4.7,1.4,9.2,3.7,13.7,6,3.1,1.6,4,4.6,2.4,7.7-4.9,10-9.9,20-18.1,27.7-7.5,7.1-15.6,13.9-23.9,20-5.6,4.1-11.8,7.7-18.2,10.1-11.1,4.2-22.8,6.9-34.1,10.9-17.4,6.1-35.5,5-56.7,6.8h0Z"/>
            <path class="cls-2" d="M347.3,185.1c-8.2,0-16.4-.5-24.5.2-6.2.5-12.4,2.4-18.5,3.7-1.3.3-2.5.8-3.8,1.2-13,3.5-26,6.7-38.9,10.6-11.6,3.5-22.8,8.1-34.4,11.6-17.5,5.3-35,10.2-53.6,10.7-18,.5-36,.6-53.7-2.9-8.3-1.6-16.3-4.4-24.4-7-5.6-1.8-7.2-9-3.7-14.1,4-5.8,7.4-12.1,11.9-17.5,5.6-6.7,11.3-13.7,18.3-18.8,10.2-7.4,21.1-13.8,32.4-19.2,8.6-4.2,18-7.4,27.4-9.1,20.2-3.7,40.4-7.8,61.3-7.7,21.2.1,42,3.4,62.1,8.8,14.4,3.9,28,11,41.4,17.9,9.5,4.9,18,11.8,26.7,18.1,2.8,2,5.1,4.8,7.1,7.6.6.8-.5,4.1-1.4,4.4-2.8.9-5.9,1.2-8.8,1.2-7.6.1-15.3,0-23,0v.3h0Z"/>
          </g>
        </g>
      </g>
    </g>
  </g>
</svg>