<?xml version="1.0" encoding="UTF-8"?>
<svg xmlns="http://www.w3.org/2000/svg" version="1.1" viewBox="0 0 500 500">
  <defs>
    <style>
      .cls-1 {
        fill: #fff;
      }

      .cls-2 {
        fill: none;
      }

      .cls-3 {
        display: none;
      }

      .cls-4 {
        fill: gray;
      }
    </style>
  </defs>
  <!-- Generator: Adobe Illustrator 28.7.1, SVG Export Plug-In . SVG Version: 1.2.0 Build 142)  -->
  <g>
    <g id="_Слой_1" data-name="Слой_1">
      <g id="_Слой_1-2" data-name="_Слой_1">
        <g>
          <g id="_Слой_1-2" class="cls-3">
            <rect class="cls-4" x="-89.7" y="-98.3" width="696.7" height="696.7"/>
          </g>
          <g id="_Слой_2">
            <g>
              <path class="cls-2" d="M607,598.3H-89.7V-98.3h696.7v696.7ZM249.5,426.7c30.1.4,59.8-2,88.9-10.4,16.6-4.9,33.9-8.2,49.6-15.2,17.1-7.7,33.6-17.7,48.9-28.4,16.7-11.7,31.1-26.3,41.1-44.4,4.7-8.6,10.2-17.1,13.7-26.3,3.6-9.3,5.9-19.4,7.8-29.3,1.1-5.6-2.1-9.6-7.7-11.6-13.1-4.7-25.8-10.6-39-14.2-20.1-5.3-40.4-10.9-61-13-47.2-4.7-92.7,6.4-137.4,20.2-9.9,3.1-19.8,6.4-29.5,9.9-13.7,4.9-26.9,11.1-41,14.9-17.3,4.5-34.8,8.1-52.5,10.2-40.7,4.9-80.4-.3-119.3-12.8-6.1-2-9.6.6-9.5,6.8,0,2.8.4,5.7,1.5,8.1,4.9,9.6,10,19.2,15.5,28.6,2.4,4.2,5,8.5,8.4,11.8,12.1,12,24.5,23.7,37.1,35.3,17.3,16.2,38.5,26.5,59.8,35.8,22.7,9.9,47,16,71.3,20.2,17.6,2.9,35.5,2.6,53.4,3.9h0ZM253.5,48c-19.4,2.1-35.3,4.3-51.1,5.6-22.2,1.7-43.5,6.4-64.5,13.1-11.7,3.8-23.5,7.4-34.4,13.1-22.7,12-44.2,25.8-61.9,45.1-18.8,20.6-32.2,43.7-38.9,70.8-3.1,12.3.7,19.4,12.8,23.4,14.6,5,29.7,9.1,44.2,14.4,26.2,9.6,53.4,8.9,80.5,8.6,23-.3,45.8-1.7,68-9.2,17.3-5.9,35.3-9.8,52.7-15,10.6-3.2,20.9-7.7,31.5-11,17.8-5.6,35.7-12.4,53.9-15.5,31.5-5.3,63.4-5,95.2-2,11.1,1.1,22.2,4.5,33.2,7,5,1.1,9.9,2.9,14.9,3.5,8.5,1.1,12.4-3.5,8.5-11-7.4-14.5-14.6-29.5-24.2-42.6-17.6-24-41.1-41.9-66.5-57.1-23-13.8-48.1-23.5-73.8-29.5-27.2-6.3-55.5-8.2-80-11.7h0Z"/>
              <path class="cls-1" d="M249.5,426.7c-17.8-1.3-35.8-1-53.4-3.9-24.4-4-48.6-10.2-71.3-20.2-21.3-9.3-42.4-19.6-59.8-35.8-12.4-11.6-24.9-23.3-37.1-35.3-3.3-3.3-6-7.7-8.4-11.8-5.4-9.5-10.6-18.9-15.5-28.6-1.3-2.4-1.5-5.4-1.5-8.1-.1-6.4,3.3-8.9,9.5-6.8,38.9,12.5,78.7,17.7,119.3,12.8,17.7-2.1,35.4-5.6,52.5-10.2,13.9-3.6,27.3-9.9,41-14.9,9.8-3.5,19.6-6.8,29.5-9.9,44.7-13.7,90.1-24.9,137.4-20.2,20.6,2.1,41,7.7,61,13,13.4,3.5,26.1,9.5,39,14.2,5.6,2.1,8.8,6,7.7,11.6-2.1,9.9-4.2,19.9-7.8,29.3-3.6,9.2-8.9,17.7-13.7,26.3-10,18.1-24.4,32.7-41.1,44.4-15.5,10.7-31.8,20.8-48.9,28.4-15.7,7-33,10.4-49.6,15.2-29,8.4-58.7,10.9-88.9,10.4h0ZM254.9,397.1c29.5-2.4,54.9-.8,79-9.5,15.6-5.6,31.9-9.3,47.5-15.2,9.1-3.3,17.6-8.4,25.4-14.1,11.7-8.6,22.9-18,33.3-27.9,11.3-10.7,18.4-24.8,25.2-38.6,2.1-4.3,1-8.5-3.3-10.7-6.1-3.2-12.4-6.4-19.1-8.4-30.5-8.9-61.9-13.5-93.5-10-20.6,2.4-41,7.4-61.4,11.3-.7,0-1.3.6-2,.7-15,5.3-29.8,11-45,15.9-16,5.2-32.3,9.6-48.5,14.5-1.3.4-2.6,1.1-3.9,1.4-7.5,2.1-15,4.5-22.9,5.9-9.8,1.8-19.6,3.3-29.7,4-18.3,1.1-36.5,1.5-54.8,2-4.3,0-8.8-1.3-13.1-1.4-7,0-8.2,1.7-5.2,7.8,6.5,13,19.1,19.9,30.2,27.4,15,10.2,31.2,18.7,48.3,25.4,18.5,7.2,37.3,13.1,56.7,15.7,20.2,2.8,40.7,2.8,56.4,3.8h.1Z"/>
              <path class="cls-1" d="M253.5,48c24.7,3.5,52.8,5.4,80.1,11.7,25.8,6,51,15.7,73.8,29.4,25.4,15.2,48.9,33.2,66.5,57.1,9.6,13.1,16.7,28,24.2,42.6,3.9,7.5,0,12.1-8.5,11-5-.6-9.9-2.4-14.9-3.5-11-2.5-22-5.9-33.2-7-31.8-3.1-63.7-3.3-95.2,2-18.4,3.1-36.1,9.9-53.9,15.5-10.6,3.3-20.9,7.8-31.5,11-17.6,5.3-35.4,9.2-52.8,15-22.2,7.5-45.1,8.9-68,9.2-27,.3-54.3.8-80.5-8.6-14.5-5.3-29.5-9.5-44.2-14.4-12.1-4-15.9-11.1-12.8-23.4,6.7-27,19.9-50.2,38.9-70.8,17.7-19.4,39.2-33.2,61.9-45.1,10.7-5.7,22.7-9.3,34.4-13.1,21-6.7,42.5-11.4,64.5-13.1,15.9-1.3,31.8-3.3,51.1-5.6h0ZM394.2,159.6v-.4c10.6,0,21.3.1,32,0,4.2,0,8.4-.4,12.3-1.7,1.3-.4,2.6-5,2-6.1-2.8-3.9-6-7.8-9.9-10.6-12.1-8.8-24-18.4-37.2-25.2-18.5-9.6-37.6-19.6-57.7-24.9-28.1-7.5-57-12.1-86.5-12.3-29.1-.1-57.3,5.6-85.4,10.7-13.1,2.4-26.2,7-38.2,12.7-15.7,7.7-31.1,16.6-45.1,26.8-9.8,7.1-17.7,16.9-25.5,26.2-6.3,7.5-11,16.3-16.6,24.4-4.9,7.1-2.5,17.1,5.2,19.6,11.3,3.6,22.4,7.5,34,9.8,24.7,4.9,49.7,4.7,74.8,4,25.9-.7,50.3-7.5,74.7-14.9,16.2-4.9,31.8-11.3,47.9-16.2,18-5.4,36.1-9.9,54.2-14.8,1.8-.6,3.5-1.3,5.3-1.7,8.6-1.8,17.1-4.5,25.8-5.2,11.3-.8,22.7-.3,34.1-.3h-.1Z"/>
              <path class="cls-2" d="M254.9,397.1c-15.7-1-36.2-1-56.4-3.8-19.4-2.6-38.2-8.4-56.7-15.7-17.1-6.8-33.3-15.2-48.3-25.4-11.1-7.5-23.8-14.5-30.2-27.4-3.1-6.1-1.8-7.9,5.2-7.8,4.3,0,8.8,1.4,13.1,1.4,18.3-.4,36.5-.8,54.8-2,9.9-.6,19.8-2.2,29.7-4,7.7-1.4,15.2-3.8,22.9-5.9,1.4-.4,2.6-1.1,3.9-1.4,16.2-4.9,32.3-9.2,48.5-14.5,15.2-4.9,30-10.6,45-15.9.7-.3,1.3-.6,2-.7,20.5-3.9,40.8-9.1,61.4-11.3,31.8-3.6,63,1.1,93.5,10,6.5,2,12.8,5.2,19.1,8.4,4.3,2.2,5.6,6.4,3.3,10.7-6.8,13.9-13.8,27.9-25.2,38.6-10.4,9.9-21.7,19.4-33.3,27.9-7.8,5.7-16.4,10.7-25.4,14.1-15.5,5.9-31.8,9.6-47.5,15.2-24.2,8.5-49.5,7-79,9.5h-.1Z"/>
              <path class="cls-2" d="M394.2,159.6c-11.4,0-22.9-.7-34.1.3-8.6.7-17.3,3.3-25.8,5.2-1.8.4-3.5,1.1-5.3,1.7-18.1,4.9-36.2,9.3-54.2,14.8-16.2,4.9-31.8,11.3-47.9,16.2-24.4,7.4-48.8,14.2-74.7,14.9-25.1.7-50.2.8-74.8-4-11.6-2.2-22.7-6.1-34-9.8-7.8-2.5-10-12.5-5.2-19.6,5.6-8.1,10.3-16.9,16.6-24.4,7.8-9.3,15.7-19.1,25.5-26.2,14.2-10.3,29.4-19.2,45.1-26.8,12-5.9,25.1-10.3,38.2-12.7,28.1-5.2,56.3-10.9,85.4-10.7,29.5.1,58.5,4.7,86.5,12.3,20.1,5.4,39,15.3,57.7,24.9,13.2,6.8,25.1,16.4,37.2,25.2,3.9,2.8,7.1,6.7,9.9,10.6.8,1.1-.7,5.7-2,6.1-3.9,1.3-8.2,1.7-12.3,1.7-10.6.1-21.3,0-32,0v.4h.1Z"/>
            </g>
          </g>
        </g>
      </g>
    </g>
  </g>
</svg>