<?xml version="1.0" encoding="UTF-8"?>
<svg xmlns="http://www.w3.org/2000/svg" version="1.1" viewBox="0 0 500 500">
  <defs>
    <style>
      .cls-1 {
        fill: #fff;
      }

      .cls-2 {
        fill: none;
      }

      .cls-3 {
        display: none;
      }

      .cls-4 {
        fill: gray;
      }
    </style>
  </defs>
  <!-- Generator: Adobe Illustrator 28.7.1, SVG Export Plug-In . SVG Version: 1.2.0 Build 142)  -->
  <g>
    <g id="_Слой_1" data-name="Слой_1" class="cls-3">
      <rect class="cls-4" y="0" width="500" height="500"/>
    </g>
    <g id="_Слой_2" data-name="Слой_2">
      <g>
        <path class="cls-2" d="M0,0h500v500H0V0ZM374.95,244.85l.15.16c-1.08-5.15-4.58-5.61-9.22-5.92-4.89-.33-7.85,5.33-12.85,3.2-.14.51-.27,1.02-.41,1.52-.48-.21-.95-.42-1.43-.63.88-1.89,1.76-3.78,2.91-6.27.09.05-.55-.2-1.06-.6-5.1-4.08-11.02,3.66-16.06-1.14-.18.21-.31.53-.54.62-.98.39-1.98.72-3.3,1.2-.35,2.32.19,6.23-1.5,7.94-1.85,1.87-5.75,1.71-8.76,2.44-.47-2.16-.94-4.31-1.56-7.15-.43-.12-1.93-.52-3.75-1,1.14-.89,1.92-1.5,3.46-2.71-4.55-.44-8.1-.79-12.01-1.17v9.21c-2.83-2-6.06-3.06-6.86-5.09-2.12-5.39-3.89-2.45-6.6-.18,1.33.47,2.18.76,3.16,1.11-6.26,8.76,4.28,5.56,5.82,8-.73,1.5-1.27,2.61-1.81,3.73,1.18-.16,2.4-.19,3.53-.52,1.43-.42,2.79-1.08,4.17-1.63.95,2.38,1.66,4.14,2.37,5.91-.33.37-.66.74-.99,1.11-.85-.69-2.05-1.21-2.47-2.1-.56-1.21-.53-2.69-.75-4.06-.41.07-.83.14-1.24.21-.5,1.75-.99,3.49-1.8,6.33-.68,1.23-2.05,3.7-3.95,7.12,4.48-1.26,8.11-2.28,12.03-3.39,6.96,4.55,11.76-2.6,19.11-5.38-1.51,2.51-2.35,3.9-3.35,5.56,4.86,0,9.66.19,14.42-.1,1.75-.11,3.83-.96,5.05-2.18,2.53-2.54,4.82-2.43,6.59.7.58,1.02,1.7,1.73,2.19,2.22,1.58-3.1,2.87-5.59,4.12-8.1.36-.72.57-1.5.86-2.25.79.51,2.32,1.12,2.26,1.5-.67,4.73,3.25,6.45,5.84,8.83,3.19,2.93,6.81,5.38,10.79,8.45,1.1-2.99,1.65-4.48,2.48-6.71.67,1.78,1.79,3.23,1.44,4.08-2.05,5.06,2.37,5.07,4.68,5.38,6.06.82,6.1.51,8.23,3.24.16.21.23.5.35.77-1.85,2.51-3.71,5.02-5.66,7.66,5.95,3.34,11.13,6.25,16.84,9.46-7.63,5.14-8.13,5.13-16.74,4.19-1.53-.17-3.36.88-4.82,1.75-2.44,1.46-4.69,3.24-7.54,5.25,1.37,5.36-4.12,7.43-7.1,9.84,1.16,2.52,2.01,4.34,3.09,6.69-12.81-.81-24.93,2.49-23.84,10.11h-7.54c.46,1.71,1,3.7,1.99,7.33-2.7-1.85-4.19-2.87-5.2-3.56-1.89,2.38-3.76,4.75-6.07,7.66-1.02-5.6-4.19-6.71-8.16-4.93-1.24,2.21-2.89,3.9-4.5,5.62-.82.88-1.58,1.83-2.37,2.74,1.31.34,2.61.89,3.93.98,1.59.1,3.21-.18,4.82-.3l.12,1.6c-.9,1.09-1.79,2.18-2.62,3.19,2.21.82,4.22,1.56,6.22,2.3-.59,1.21-1.19,2.42-1.78,3.63-.44-.43-.87-.87-1.31-1.3.52-.89,1.03-1.77,2.32-3.99-3.21,1.11-5.12,1.77-7.04,2.43,1.21,2.75,2.42,5.49,3.69,8.36,1.12-.32,2.22-.29,2.63-.8,4.15-5.31,8.93-7.56,15.26-3.61.29.18.86-.05,1.29-.15,4.57-1.08,9.91-7.38,10.4-12.07.05-.46.9-.84.95-.88.92,1.7,1.64,3.03,2.36,4.37.43-1.18.73-2.43,1.31-3.53.56-1.06,1.27-2.12,2.19-2.83.28-.21,1.5.72,2.24,1.22.64.43,1.64,1.46,1.72,1.39,2.61-2.38,5.13-4.87,7.66-7.33-.33-.4-.66-.81-.99-1.21,3.14-.7,7.86,1.07,8.74-3.31.61-3.05-.95-6.54-1.58-10.05h7.2c.02-.26.03-.51.05-.77-1.81-.2-3.61-.4-5.82-.64,4.96-.52,9.49-.99,14.52-1.51.23-.59.75-1.91,1.25-3.16-2.43-1.76-4.65-3.37-6.88-4.99.54-.84,1.08-1.68,1.62-2.52,3.51.54,7.02,1.07,9.66,1.48,1.69-3.6,3.19-6.8,4.76-10.15-2.39-.55-5-2.14-1.78-4.12,3.25-2,2.6-4.15,2.32-6.76-.03-.24.66-.55,1.31-1.05.37,1.51.68,2.75.98,3.94,5.12-.48,9.98-5.12,9.27-9.35-.38-2.25-2.58-4.19-3.96-6.27-.52.21-1.05.42-1.57.62.41-2.48.82-4.96,1.17-7.06h-6.56c-.21.23-.92,1.01-1.64,1.79.59-1.64-2.11-5.05,1.98-4.63.47.05,1.48-1.75,1.66-2.79.63-3.58,1-7.2,1.47-10.81-.51-.21-1.02-.41-1.53-.62-.73,1.13-1.24,2.51-2.23,3.32-1.6,1.33-3.46,2.36-5.32,3.31-.27.14-1.68-1.09-1.6-1.29.59-1.48,1.7-2.78,2.12-4.28.54-1.93,1.03-4.1.63-5.97-.16-.73-3.06-1.66-4.24-1.22-2.59.97-4.87,2.76-6.4,3.69-.68-.65-1.76-1.5-2.62-2.54-.78-.94-1.8-2.04-1.9-3.14-.34-3.61-1.58-5.55-4.16-4.27-3.68,1.83-7.06.86-10.59.91-.62,0-1.24.43-1.86.66ZM107.05,333.11l-.09-.12c2.14,4.52,5.33,7.7,11.67,8.9-1.09-2.15-1.42-3.8-2.42-4.59-2.72-2.14-1.57-3.69.7-4.51,1.31-.48,3.08.28,4.64.48-.4,1.92-.26,4.24-1.33,5.67-2.35,3.16-1.95,4.86,1.78,5.98,1.87.56,3.68,1.33,5.49,2.05,1.03.41,2.9.97,2.88,1.39-.19,3.59,2.55,3.8,4.83,4.98,4.8,2.5,5.49,2.3,5.9-1.87,4.02-1.23,7.6-2.33,10.61-3.25-.59,3.47-1.04,6.1-1.56,9.12,2.54-.15,4-.23,4.54-.26.43,1.4.79,2.58,1.15,3.76.34-.07.68-.13,1.02-.2.13-1.72.25-3.43.38-5.18,1.65.36,3.12.68,3.95.86-.6,1.66-1.16,3.24-1.85,5.17,6.97-.65,9.81,1.55,8.43,5.18,5.3,2.28,11.02,5.28,14.4-4.37,2.19,3.69,3.61,6.08,5.28,8.9,3.07.36,7.22.84,11.24,1.3-.49.81-1.14,1.88-2.1,3.47,4.71.61,8.62,1.31,12.56,1.6,6.36.46,12.73.87,19.1.85,3.08-.01,8.4-.4,8.81-1.77,1.2-4.04,4.76-4.44,7.08-6.56,1.24-1.14,3.02-1.69,3.96-2.18,1.68,1.92,3.54,4.05,5.09,5.82-.72,1.24-1.73,2.98-2.9,5,3,0,6.75,1,7.64-.18,3.53-4.65,7.04-1.65,10.56-.85,7.73,1.76,14.83-2.46,16.75-9.94.38-1.49,1.37-2.82,2.08-4.23,1.71,1.05,3.43,2.09,5.35,3.26-3.11,2.35-5.48,4.13-9.33,7.04,5.12,1.32,8.94,2.3,12.77,3.28.44-.32.88-.64,1.31-.96-5.57-7.13,1.75-7.64,4-10.38,1.89,1.18,3.7,2.3,5.5,3.42-.08,1.05-.17,2.11-.26,3.27,3.5-.73,6.74-.96,9.61-2.12,3.96-1.61,10.56.2,10.47-5.95-4.05-3.26-7.47-6-9.53-7.65,1.29-5.02,2.17-8.49,3.42-13.36-3.88,1.33-6.24,2.9-8.48,2.74-4.02-.29-5.31,1.23-5.11,5.02,4.56.58,5.3,4.11,4.28,7.33-1.86,5.91-5.38,7.05-11.99,5.11.58-3.71,1.15-7.34,1.95-12.47-4.52,2.04-7.38,3.33-10.65,4.81v-4.57c-4.18-1.34-8.25-2.7-7.93,2.64-7.91-.87-15.69-1.72-24.69-2.71.39,3.32.64,5.44.99,8.41-2.91.38-7.16.95-11.22,1.48-2.15-3.96-1.58-6.23,2.81-6.75-4.03-.86-8.06-1.72-12.34-2.64-.25,1.99-.41,3.22-.6,4.78-4.61-1.77-6.9,3.35-11.46,3.07-5.75-.35-5.51-7.21-10.4-8.07-.75,1.94-1.43,3.71-2.11,5.47-.38-.13-.75-.26-1.13-.39.25-1.45.5-2.89.77-4.49-1.91-.5-3.86-1.02-6.28-1.66.27,1.89.45,3.18.87,6.16-5.26-3.7-9.28-6.54-12.81-9.03-.46,2.75-.87,5.25-1.29,7.75.4-.18.8-.37,1.19-.55,1.13,1.45,2.26,2.91,3.3,4.25-2.72,1.13-4.3,2.27-5.94,2.37-4.24.25-6.64-3.92-3.81-6.04-.7-.63-1.43-1.27-2.86-2.55,6.22,1.97,6.56,1.58,6.48-6.45-3.81-.75-7.73-1.53-11.74-2.33-.27,4.8-5.85,7.87-11.33,6.71.51-.54,1.4-1.15,1.3-1.43-1.18-3.59-1.88-7.61-4.07-10.47-1.04-1.37-4.99-.64-7.61-.49-.31.02-.48,2.42-.71,3.71-.51-.02-1.03-.04-1.54-.06-.35-1.92-.49-3.91-1.15-5.71-.28-.78-2.21-1.82-2.43-1.62-5,4.28-11.33,2.48-16.88,4.07-.17-.53-.33-1.06-.5-1.59,1.77-.57,3.54-1.14,5.62-1.81.09-.83.36-2.99.52-5.16.23-3.08-2.82-6.43-5.9-5.84-3.25.62-6.33,2.11-9.2,3.13-.63-3.29-1.19-6.2-1.87-9.74-1.42,1.23-2.32,2-2.28,1.96-2.01-.82-3.41-1.39-5.27-2.15.28,1.99.43,3.06.55,3.87-3.62-3.13-7.16-6.2-10.7-9.27.13-.55.27-1.09.4-1.64,1.85.08,3.71.16,5.56.24-.5-.22-.99-.43-1.49-.65,1.43-.52,2.85-1.04,5-1.83-2.64-2.25-4.83-4.12-7.37-6.28,3.2-.05,1.62-6.75,7.05-4.47-.45,1.54-.84,2.86-1.48,5.02,2.37-1.93,5.12-.48,6.32-4.69,1.4-4.91,5.08-4.58,8.51-.25.75.94,1.92,1.54,3.07,2.44,1.19-2.32,2.15-4.2,3.55-6.94,0,2.8-.59,4.93.16,6.37.82,1.59,2.71,2.94,4.44,3.63,1.04.42,3.72-.41,3.83-1.01.3-1.66.05-3.71-.73-5.21-1.45-2.77-1.36-4.79,1.72-7.72.51,5.86,3.21,6.71,7.15,5.22.4-1.33.81-2.7,1.14-3.8,2.25,1.5,4.31,2.87,5.93,3.95-.94,1.82-2.52,3.65-2.56,5.51-.02.86,3.18,2.79,4.56,2.5,4.72-.97,9.27-2.7,14.06-4.2-1.89-2.25-3.95-4.7-6.54-7.76h8.91c1.64,3.11,2.22,6.15,3.8,6.81,3.57,1.5,9.13-1.55,9.99-4.98.77-3.1,1.13-6.42-4.16-6.78,5.93-2.69,8.36.82,10.53,4.5,3.61-.85,10.3,1.27,6.13-5.49,1.47-2.52,2.54-4.33,3.34-5.7.93,2.14,1.51,6.18,3.16,6.69,2.86.88,6.54,0,9.61-.98,2.45-.78,4.51-2.81,6.39-4.05.41,5.15,4.67,1.51,6.97,1.78.5-2.74.93-4.99,1.31-7.26.43-2.63.81-5.28,1.19-7.76,2.11,2.35,3.63,4.05,5.52,6.16-.16.19-1.11,1.27-1.98,2.4-.69.9-1.27,1.88-1.9,2.82.59.31,1.22.95,1.75.87.95-.15,2.37-.49,2.66-1.17.88-2.01.81-4.58,2.02-6.27,3.61-5.04,8.73-7.82,16.51-8.94-4.3,4.9-.76,7.21,1.57,9.74.54.59,2.14.52,3.12.26.54-.14,1.11-1.29,1.16-2.01.15-2.32.05-4.66.05-8.46,4.46,5.13,8.29,7.85,13.37,4.18-1.34-2.48-2.54-4.72-3.75-6.96l1.12-1.41c2.11,1.09,5.15,1.65,6.14,3.38,2.84,4.96,6.35,2.37,9.6,1.45,2.24-.63,4.24-2.09,6.34-3.17-.56-1.05-.99-1.86-1.38-2.59,1.88-.56,3.46-1.04,5.03-1.51-.13-.63-.26-1.26-.4-1.89-2.75,0-5.55.28-8.24-.13-1.26-.19-2.85-1.5-3.33-2.69-.72-1.79-.35-3.77,2.31-4.1.14,1.57.28,3.14.42,4.71,2.25-.24,4.32-.45,6.4-.67.12-.51.24-1.02.37-1.53-2.44-.79-4.88-1.58-7.32-2.37-1.04-4.8-5.16-5.58-9.96-1.89-.66-.82-1.32-1.64-2.17-2.7-1.21,4.46-4.86,5.7-9.18,3.15-4.28-2.52-8.21-4.86-11.48,1.19-.09.17-.5.16-.76.25-2.18.75-4.35,1.51-7.09,2.46.14.12-.77-1.23-1.31-1.09-2.96.72-5.89,1.68-8.68,2.9-.46.2-.6,2.82-.14,3.1,1.89,1.17,4.08,1.86,6.03,2.68-.91,2.65-1.71,4.99-2.54,7.4-1.83-1.56-4.79-2.87-5.05-4.58-.37-2.43-1.05-5.04-2.96-5.05-3.27-.01-7.24.52-9.67,2.41-4.01,3.12-7.03,7.36-13.05,6.36-1.73-.29-3.83-.9-4.42,2.61-.18,1.07.21,6-4.3,5.76-2.66-.14-5.55.33-8.03,1.3-5.08,1.98-6.93-.03-7.12-4.84,4.46.24,8.86.31,11.33-4.95-3.74,1.68-7.49,3.36-11.23,5.04-2.74,1.35-5.4,3.52-8.26,3.84-4.03.46-8.21-.53-12.34-.75-2.09-.11-7.82,5.82-7.86,7.91,0,.13.29.26.29.38.02,2.72.01,5.44.01,8.89-2.08,0-4.34.03-6.6-.01-1.33-.03-2.65-.23-3.98-.25-1.21-.02-2.42.1-3.63.15v-3.46c1.81.38,3.23.68,5.49,1.16.93-3.38,1.88-6.86,2.84-10.33-4.58-1.38-7.12.53-6.76,3.26.66,4.92-2.61,3.67-4.82,3.8-1.7.1-3.45-.63-5.17-.98.87-.34,1.75-.69,2.99-1.19-2.24-.65-3.99-1.16-6.29-1.83,1.48-.88,2.27-1.34,3.17-1.88-2.28-2.01-4.02-2.65-5.24.76-.27.76-1.65,1.86-2.15,1.69-2.81-.93-7.29,4.78-8.6-2.08-.01-.08-.63.04-.91-.08-1.73-.73-3.44-1.5-5.11-2.23q-.5,5.88-2.62,5.06c-.16-2.51-.3-4.6-.44-6.69-1.98.18-3.96.36-5.28.48-.57,1.15-1.05,2.13-1.62,3.28h4.76v8.1c-5.78-2.71-10.76-5.05-15.75-7.39.07-.36.13-.72.2-1.08,1.15-.29,2.3-.57,4.2-1.05-2.68-1.81-4.48-3.52-6.63-4.32-1.69-.63-3.79-.13-5.71-.13-4.97.93-.68,11.05-9.72,8.75-.2-.77-.59-2.28-1-3.87-2.32.55-4.3,1.03-6.51,1.56.83,2.84,1.59,5.47,2.45,8.4-2.48.54-4.74,1.04-7,1.54-.09.62-.17,1.23-.26,1.85,3.18.91,6.36,1.83,9.28,2.66,1.11,2.08,2.29,4.3,3.62,6.81h-5.82l-.59,1.18c3.04,2.76,6.08,5.52,8.98,8.16,1.47-.51,2.95-1.03,4.36-1.53-1.34-1.38-2.59-2.36-3.36-3.63-.27-.44.65-1.6,1.03-2.43,3.73,1.72,8.68,1.63,10.13,6.8-2.07.96-4.1,2.68-6.11,2.66-3.88-.05-3.05.97-1.28,2.98.47.53.43,1.49.85,2.09,2.21,3.1,4.21,6.44,6.9,9.07,1.04,1.02,3.7.37,6.16.51,1.22,1.87,3.05,4.68,4.89,7.5ZM380.31,153.57s.03,0,.03,0c.83-1.21,1.66-2.43,2.83-4.15-3.02-1.13-5.56-2.08-8.05-3.01-.8,1.81-1.33,2.98-2.3,5.16-3.01-4.7-5.9-8.31-7.77-12.39-1.71-3.72-3.8-5.04-7.62-3.81-.38,3.93-.76,7.8-1.19,12.22-2.96-2.41-5.09-4.14-7.7-6.27,1.94-1.2,3.51-2.18,5.1-3.16v-8.82h-10.38c-.29.97-.88,2.92-1.7,5.63,1.61-.73,2.4-1.08,3.41-1.54.59,1.52,1.16,3,1.83,4.74-2.62.83-4.86,1.54-8.68,2.75.44-3.46.74-5.85,1.07-8.51-.55-.3-1.85-1.02-3.16-1.74l1.18-1.33h3.57c.37-.43.75-.87,1.12-1.3-2.73-3.09-5.47-6.19-8.2-9.28-.41.28-.83.56-1.24.84l-.96,7.57c-1.47-1.06-1.44-2.62-2.03-2.91-3.57-1.73-7.23-3.34-10.98-4.64-2.63-.92-2.54-.75-4.05-4.16-.58-1.32-2.02-2.46-3.35-3.16-.66-.34-2.38.19-2.87.87-2.82,3.92-5.17,4.54-8.79,2.23-.74-.47-1.99-.07-2.86-.42-2.44-.98-6.39.64-6.92-3.9-.04-.36-1.34-.81-2.07-.82-3.41-.09-6.82-.04-10.09-.04-.55,1.5-.94,2.55-1.45,3.92-1.22-.91-2.22-1.64-3.21-2.38.03.5.05,1.01.08,1.51-2.34.58-5.01,2.13-6.93,1.48-2.01-.68-3.3-3.47-5.27-5.77-4.71-.52-10.28-2.34-16,.05-.98.41-2.98-1.43-4.43-2.35-1.18-.75-2.14-2.21-3.37-2.43-3.83-.69-7.73-1.22-11.61-1.29-5.15-.1-6.5,2.65-3.97,8-3.01.23-5.9.45-8.79.68.28-.4.55-.79.83-1.19-1.51-1.88-2.95-3.84-4.63-5.56-.19-.2-1.73.91-3.11,1.67,1.41,1.11,2.3,1.8,3.18,2.49-2.24.55-4.31.59-6.1-.09-3.61-1.37-5.92-.18-6.5,3.69-3.47-1.04-6.91-2.24-10.45-3.02-.77-.17-1.85,1.18-2.83,1.77-3.29,1.99-4.52,8.82-10.45,4.51.15-1.26.3-2.48.3-2.5-4.8,1.39-9.42,2.73-14.12,4.09,5.78,4,6.49,6.96,2.88,11.5-2.43-4.36-5.59-4.81-8.85-1.35-.5.53-1.46.66-2.24.88-3.64,1.04-7.28,2.11-10.96,3.04-.98.25-2.09.04-2.68.04,0-1.8.45-3.39-.14-4.24-.48-.68-2.51-.97-3.39-.52-3.88,2-5.87,5.4-6.27,9.76-.07.73-.49,2.07-.62,2.06-2.45-.29-6.09,1.65-6.01-2.63-1.55.57-3.01.98-4.36,1.63-5.81,2.82-9.31,8.62-15.14,11.68-1.97,1.03-2.04,5.56-3.12,8.44-1.12,2.97-2.01,6.86-6.25,2.56-.22-.23-1.37.45-1.38.45,1.22,2.57,2.37,5,3.53,7.43-.75-.1-1.51-.2-2.26-.29-1.3,2.01-2.51,4.08-3.91,6-1.76,2.42-3.68,4.73-5.54,7.1-.17-.62-.39-1.24-.49-1.87-.22-1.3-.38-2.62-.56-3.93-1.44.67-3.19,1.04-4.21,2.11-.91.96-1.02,2.69-1.84,5.17,3.18-.71,5.2-1.17,7.21-1.62.53,1.28,1.86,3.11,1.43,3.74-1.16,1.71-2.88,3.32-4.73,4.2-2.02.95-4.43,1.21-6.7,1.42-2.39.23-4.82,3.78-3.11,5.44,3.51,3.4,1.42,6.25.07,9.13,3.85,5.92,12.63,6.38,14.6,14.18h-4.07c-.31-2.23-1.36-4.46-2.24-4.39-2.5.19-5.94.58-7.14,2.25-1.97,2.72-2.48,6.51-3.6,9.85,6.39-2.98,11.89-3.81,13.53-1.4,1.63,2.4,3.37,4.87-1.04,7.03,2.75-.47,5.29-1.16,6.53-2.83,2.88-3.83,5.38-4.86,11.6-2.82-2.35,1.1-4.09,1.91-5.04,2.35.25,2.96.44,5.26.64,7.61,2.03,0,4.22.42,6.14-.12,2.01-.56,3.76-2.04,5.63-3.12.46,2.33.91,4.66,1.41,6.99.05.24.34.42.05.08,1.3-1.01,3.06-3.03,3.66-2.73,2.34,1.16,4.31,3.06,7,5.13.95.19,2.9.66,4.88.96,3.05.46,6.12,1.08,9.18,1.12,2.17.03,4.34-1.09,6.52-1.14,5.44-.11,6.97-1.44,6.97-7.34,7.58,4.37,16-.6,23.03,3.38-.29.97-.74,2.51-1.15,3.88-1.45.56-3.11,1.21-4.77,1.85.03.52.06,1.04.09,1.56,1.27.31,2.57.99,3.81.88,4.78-.42,9.59-.81,14.28-1.76,3.14-.64,7.86-1.41,8.78-3.5,2.73-6.15,4.99-1.97,7.74-.69,2.06.96,4.36,1.41,6.99,2.22-.98-10.48,3.57-16.74,9.33-14.93-1.58,4.38-3.16,8.78-4.75,13.19.63.57,1.25,1.15,1.88,1.72,11.04-5.41,22.08-10.82,33.12-16.22.18.45.35.9.53,1.34-.55.38-1.1.77-2.77,1.94,4.39-.99,8.26-.76,10.38-2.58,3.45-2.95,2.97-3.51,6.04.53,2.77-1.6,6.47-2.63,8.17-5.06,1.27-1.82-.03-5.44-.13-7.2h14.8c.11-1.73.17-2.77.21-3.4,4.71-.86,9.24-1.02,13.21-2.58,3.91-1.54,7.04-5.01,10.92-6.71,5.96-2.62,6.36-7.04,4.74-13.78,2.44,1.71,4.76,2.44,5.16,3.76,1.49,4.96,2.36,10.1,3.56,15.62,1.15-.21,2.46-.45,4.09-.75-.75-2.08-1.29-3.6-1.37-3.83,2.16-2.18,3.62-3.65,4.45-4.5,1.88,2,3.45,4.51,5.71,5.8,2.09,1.19,5.44,2.17,7.32,1.3,4.18-1.94,7.7-4.76,11.99-.25.79.83,3.2,1.08,4.28.51,4.54-2.43,8.86-5.27,13.22-7.93.36,1.01,1.09,3.05,1.93,5.38-2.51.53-4.2.89-5.9,1.25q14.02-.93,15.5-2.98c-.79-.48-1.56-.96-3.68-2.27,6.87-.83,12.42-1.51,18.63-2.26v9.66c5.87-2.77,8.28-1.25,7.87,6.98,3.68-.88,6.98-1.66,10.28-2.45-.07-.41-.13-.82-.2-1.23-2.11-.92-4.22-1.85-5.6-2.45v-12.45c-1.85-.35-3.25-.62-4.96-.94.16-1.6.11-3.1.55-4.44.17-.52,1.95-1.14,2.1-.96,1.28,1.51,3.26,3.17,3.3,4.83.1,4.3,2.63,3.97,5.41,3.75-.74.8-1.49,1.59-1.93,2.07.79,2.54,1.51,4.86,2.74,8.8,2.04-3.61,3.5-6.2,5.07-8.99-2.7-.8-4.34-1.29-5.99-1.78,1.38-2.78,2.76-5.56,3.97-7.98-2.86-11.85-10.46-21.21-20.15-28.89-.09.07-.74.55-1.58,1.18-.44-2.02-.77-3.56-1.12-5.17-2.9.3-5.59.57-8.18.84-.21-1.94-.38-3.58-.58-5.4-1.48-.27-2.94-.53-4.4-.79ZM418.94,263.06c0,3.38-.2,5.94.1,8.45.11.93,1.43,2.47,2.13,2.43,1.62-.09,3.55-.6,4.65-1.66.69-.67.68-3.16-.01-3.95-1.56-1.76-3.75-2.97-6.86-5.27ZM260.88,103.71c3.78,2.13,6.63,3.74,9.69,5.46.4-1.48.84-3.11,1.47-5.46h-11.16ZM305.36,111.71c-.05-.58-.1-1.15-.15-1.73-2.79-.42-5.58-.84-9.11-1.37.57,2.27.96,3.81,1.34,5.34,2.64-.75,5.28-1.49,7.92-2.24Z"/>
        <path class="cls-1" d="M412.46,199.67c-2.81.25-5.33.58-5.43-3.72-.04-1.66-2.02-3.32-3.3-4.83-.15-.18-1.93.43-2.1.96-.43,1.34-.38,2.83-.55,4.44,1.71.32,3.11.59,4.96.94v12.45c1.38.6,3.49,1.53,5.6,2.45.07.41.13.82.2,1.23-3.3.79-6.6,1.57-10.28,2.45.41-8.22-2-9.75-7.87-6.98v-9.66c-6.2.75-11.76,1.43-18.63,2.26,2.11,1.3,2.89,1.78,3.68,2.27q-1.49,2.05-15.5,2.98c1.69-.36,3.39-.72,5.9-1.25-.84-2.34-1.57-4.37-1.93-5.38-4.36,2.67-8.68,5.51-13.22,7.93-1.08.58-3.49.33-4.28-.51-4.3-4.51-7.81-1.69-11.99.25-1.89.88-5.24-.11-7.32-1.3-2.26-1.29-3.83-3.81-5.71-5.8-.84.85-2.3,2.32-4.45,4.5.08.23.63,1.75,1.37,3.83-1.63.3-2.94.54-4.09.75-1.2-5.52-2.07-10.67-3.56-15.62-.4-1.32-2.72-2.06-5.16-3.76,1.62,6.74,1.22,11.17-4.74,13.78-3.88,1.7-7.01,5.17-10.92,6.71-3.97,1.56-8.5,1.73-13.21,2.58-.04.63-.1,1.67-.21,3.4h-14.8c.1,1.77,1.4,5.39.13,7.2-1.7,2.43-5.4,3.47-8.17,5.06-3.07-4.04-2.58-3.47-6.04-.53-2.13,1.82-5.99,1.59-10.38,2.58,1.67-1.17,2.22-1.55,2.77-1.94-.18-.45-.35-.9-.53-1.34-11.04,5.41-22.08,10.82-33.12,16.22-.63-.57-1.25-1.15-1.88-1.72,1.58-4.4,3.17-8.8,4.75-13.19-5.76-1.81-10.31,4.45-9.33,14.93-2.63-.81-4.93-1.26-6.99-2.22-2.75-1.28-5.02-5.45-7.74.69-.92,2.08-5.64,2.86-8.78,3.5-4.69.95-9.5,1.34-14.28,1.76-1.23.11-2.54-.57-3.81-.88-.03-.52-.06-1.04-.09-1.56,1.66-.64,3.32-1.29,4.77-1.85.41-1.38.86-2.91,1.15-3.88-7.03-3.98-15.46.99-23.03-3.38,0,5.9-1.53,7.23-6.97,7.34-2.18.04-4.35,1.17-6.52,1.14-3.07-.04-6.13-.66-9.18-1.12-1.98-.3-3.93-.77-4.88-.96-2.69-2.07-4.66-3.97-7-5.13-.6-.3-2.35,1.71-3.66,2.73.29.34,0,.15-.05-.08-.49-2.32-.94-4.66-1.41-6.99-1.87,1.08-3.62,2.56-5.63,3.12-1.92.54-4.11.12-6.14.12-.2-2.35-.39-4.65-.64-7.61.95-.44,2.68-1.25,5.04-2.35-6.22-2.03-8.72-1.01-11.6,2.82-1.25,1.66-3.79,2.35-6.53,2.83,4.41-2.16,2.67-4.63,1.04-7.03-1.64-2.41-7.14-1.58-13.53,1.4,1.12-3.34,1.63-7.13,3.6-9.85,1.21-1.66,4.65-2.06,7.14-2.25.88-.07,1.93,2.17,2.24,4.39h4.07c-1.97-7.8-10.75-8.26-14.6-14.18,1.35-2.88,3.44-5.74-.07-9.13-1.71-1.66.71-5.21,3.11-5.44,2.27-.21,4.68-.47,6.7-1.42,1.86-.87,3.57-2.49,4.73-4.2.43-.63-.9-2.46-1.43-3.74l-.1.13c1.85-2.36,3.77-4.67,5.54-7.09,1.4-1.93,2.62-4,3.91-6,.75.1,1.51.2,2.26.29-1.15-2.43-2.31-4.86-3.53-7.43.01,0,1.16-.68,1.38-.45,4.24,4.3,5.12.42,6.25-2.56,1.09-2.88,1.15-7.4,3.12-8.44,5.83-3.06,9.33-8.86,15.14-11.68,1.35-.65,2.82-1.06,4.36-1.63-.08,4.28,3.55,2.34,6.01,2.63.13.02.56-1.33.62-2.06.4-4.36,2.39-7.76,6.27-9.76.87-.45,2.91-.16,3.39.52.6.85.14,2.44.14,4.24.59,0,1.69.21,2.68-.04,3.67-.93,7.31-2,10.96-3.04.77-.22,1.74-.35,2.24-.88,3.27-3.46,6.42-3.01,8.85,1.35,3.61-4.53,2.9-7.5-2.88-11.5,4.71-1.36,9.32-2.7,14.12-4.09,0,.02-.15,1.25-.3,2.5,5.93,4.31,7.16-2.52,10.45-4.51.97-.59,2.05-1.94,2.83-1.77,3.54.78,6.98,1.98,10.45,3.02.58-3.87,2.89-5.06,6.5-3.69,1.79.68,3.86.64,6.1.09-.88-.69-1.77-1.39-3.18-2.49,1.38-.76,2.91-1.87,3.11-1.67,1.68,1.72,3.12,3.67,4.63,5.56-.28.4-.55.79-.83,1.19,2.89-.22,5.78-.44,8.79-.68-2.53-5.35-1.18-8.09,3.97-8,3.88.07,7.79.6,11.61,1.29,1.23.22,2.19,1.68,3.37,2.43,1.45.92,3.44,2.76,4.43,2.35,5.72-2.39,11.29-.57,16-.05,1.97,2.3,3.26,5.1,5.27,5.77,1.92.65,4.59-.9,6.93-1.48-.03-.5-.05-1.01-.08-1.51,1,.74,1.99,1.48,3.21,2.38.51-1.37.89-2.42,1.45-3.92,3.27,0,6.68-.05,10.09.04.72.02,2.02.46,2.07.82.53,4.54,4.47,2.92,6.92,3.9.87.35,2.12-.05,2.86.42,3.62,2.31,5.97,1.68,8.79-2.23.49-.68,2.21-1.21,2.87-.87,1.33.7,2.77,1.84,3.35,3.16,1.51,3.41,1.42,3.24,4.05,4.16,3.75,1.31,7.4,2.92,10.98,4.64.59.28.56,1.85,2.03,2.91l.96-7.57c.41-.28.83-.56,1.24-.84,2.73,3.09,5.47,6.19,8.2,9.28-.37.43-.75.87-1.12,1.3h-3.57l-1.18,1.33c1.3.72,2.61,1.44,3.16,1.74-.34,2.66-.64,5.05-1.07,8.51,3.82-1.21,6.06-1.92,8.68-2.75-.67-1.74-1.24-3.22-1.83-4.74-1.01.45-1.8.81-3.41,1.54.81-2.71,1.4-4.66,1.7-5.63h10.38v8.82c-1.58.98-3.16,1.96-5.1,3.16,2.61,2.13,4.74,3.86,7.7,6.27.43-4.42.81-8.29,1.19-12.22,3.81-1.23,5.91.08,7.62,3.81,1.87,4.08,4.75,7.69,7.77,12.39.97-2.19,1.5-3.36,2.3-5.16,2.5.93,5.03,1.88,8.05,3.01-1.17,1.72-2,2.93-2.83,4.15-.48,2.02-1.3,4.03-1.3,6.05,0,1.16,1.33,2.32,2.06,3.48,1.08-.97,3.25-2.38,3.07-2.84-.95-2.36-2.51-4.48-3.86-6.69,1.46.26,2.91.52,4.4.79.19,1.82.37,3.46.58,5.4,2.58-.27,5.27-.54,8.18-.84.35,1.61.68,3.15,1.12,5.17.84-.63,1.48-1.1,1.58-1.18,9.68,7.67,17.29,17.03,20.15,28.89-1.2,2.42-2.59,5.2-3.97,7.98l.13-.12ZM287.93,127.16c.27-1.05,1-2.26.7-3.12-.41-1.17-1.6-2.06-2.45-3.07-.73.71-2.11,1.47-2.05,2.11.12,1.34.83,2.73,1.63,3.87.26.37,1.54.04,2.35.03-.03,2.48-.5,4.28-3.75,3.48-4.9-1.21-9.85-2.19-15.04-3.32.3-.75.86-2.13,1.63-4.03-4.52.25-8.91-.6-12.2.93-4.8,2.24-6.9.82-8.5-3.83-2.15,4.11-4.46,7.06-7.75,5.81-1.42,1.74-2.42,4.07-3.57,4.16-3.45.25-6.97-.38-10.39-.66.54-2.4,1.12-4.96,1.75-7.71-4.33-.97-6.73,1.58-8.2,4.15-1.84-.58-3.82-1.95-5.01-1.45-3.76,1.58-5.17-.31-6.24-3.26-.6-1.65-1.1-3.34-1.84-5.62-2.53,2.58-4.66,4.75-6.43,6.56,1.49,3.21,2.82,6.06,4.53,9.71h-16.34c-2.13-2.98-5.61-4.05-6.69-1.1-1.43,3.89-4.14,4.86-7.52,5.67-.64.15-.9,1.6-1.51,2.29-.47.53-1.21.87-1.88,1.15-.15.06-.59-.4-.81-.69-1.91-2.42-3.8-4.85-4.91-6.28-3.05,1.47-4.89,2.36-6.74,3.24-.82.39-1.75.63-2.43,1.18-1.12.89-2.08,1.98-3.11,2.99-.33-1.48-.66-2.96-1.05-4.69-.78.16-2,.41-2.83.59.35,1.2.62,2.16.68,2.37-3.23.99-6.13,1.87-9.59,2.93,2.68,1.73,4.48,2.89,6.27,4.05-.25.24-.51.47-.76.71-5.99-.6-11.97-1.21-17.96-1.81-.06.33-.11.66-.17.98,1.79.41,3.58.81,4.48,1.02-1.13,3.59-2.05,6.5-3.2,10.16-2.82-.89-5.81-1.84-8.6-2.72-.22-2.12-.39-3.73-.56-5.33-.57.02-1.15.03-1.72.05,0,2.93-.21,5.88.14,8.77.1.8,1.83,1.51,2.93,2.03,1.61.76,3.31,1.31,4.98,1.96-2.04,2-4.07,3.4-5.91,3.2-1.79-.2-3.4-2.04-5.43-3.38.79,1.71,1.59,3.44,2.48,5.36-3.55,1.91-7.77,4.19-10.94,5.9-3.13-1.47-5.42-2.54-8.78-4.12.9,2.43,1.34,3.59,1.77,4.75-.47.19-.93.37-1.4.56.95,1.47,2,2.89,2.8,4.44.26.5-.15,1.34-.25,2.02.7-.52,1.37-1.11,2.12-1.56,1.62-.99,3.29-1.91,4.94-2.85-1.06,3.03-2.34,5.24-3.86,7.28-2.01,2.71-3.39,5.87-8.16,5.14-2.08-.32-7.29.73-4.31,5.69.88,1.47,2.93,2.24,4.59,3.44-2.41,3.24-6.28,2.17-10.75,3.26,3.43,3.71,6.25,6.76,9.06,9.81-.19.63-.39,1.27-.58,1.9-3.44-.31-6.88-.61-10.76-.96,1.31,3.23,2.5,6.18,3.61,8.9,2.31-.13,4.23-.23,6.16-.34-.28-.39-.55-.79-.83-1.18,2.85-2.02,5.46-4.74,8.63-5.8,1.86-.62,4.63,1.33,6.89,2.34.26.12.17,1.77-.21,2.47-2.7,5.02-1.52,13.09,3.73,16.82-.63-4.1-1.25-8.19-1.91-12.5h8.31v-5.37c1.3.59,2.28,1.04,3.05,1.39-.84,1.2-1.54,2.21-2.57,3.69,1.7-.16,3.14-.44,3.19-.27,1.72,5.19,3.35,1.76,5.24-.28,1.28,1.46,2.55,2.9,3.82,4.35,2.47,2.82,6.32,2.21,7.98-1.27,1.67-3.49,4.71-4.26,8.17-3.99,2.44.19,4.86.6,7.95.99-.39,1.3-.98,3.27-1.61,5.36.65.14,1.43.58,1.9.36,4.48-2.13,7.85-7.91,14.1-4.17.22.13.76.06.96-.12,6.12-5.57,13.99-.38,21.26-4.94-.73,4.92-1.21,8.15-1.69,11.37l-1.38.02c-.24-1.95-.48-3.9-.75-6.15-1.79.09-3.7.2-6.99.37,2.35,1.23,3.96,1.69,3.95,2.13-.09,5.09,1.84,8.46,7.1,9.58.96.2,1.77,1.09,2.65,1.67.45-.99,1.27-1.98,1.23-2.95-.02-.61-1.37-1.12-2.03-1.76-.52-.5-1.37-1.24-1.27-1.7.18-.85.8-2.04,1.5-2.28,2.73-.93,5.57-1.53,8.31-2.25-.13-2.16-.25-4.11-.39-6.29-1.52-.26-3.01-.52-5.82-1,2.04-1.15,2.91-2.01,3.86-2.11,1.92-.2,5.09.78,5.63-.07,2.2-3.46,2.81-2.51,4.11.51.68,1.58,2.48,2.67,3.78,3.97-.35.37-.7.75-1.04,1.12-1.87.11-3.75.22-5.73.33.97,1.08,1.6,2.31,2.59,2.79,2.18,1.04,4.52,1.81,6.86,2.41.37.1,1.36-1.18,1.64-1.97,1-2.78,1.05-6.46,2.93-8.21,2.05-1.9,5.75-2.04,8.75-2.87.07-.02.35.83.57,1.25,1.69,3.24,3.05,1.57,3.49-.55.6-2.85.54-5.85.82-9.59,2.83.84,5.51,1.63,8.19,2.42,1.95-3.89,5.74-3.87,9.3.02,6.36-.1,7.53-4.32,7.18-9.02,10.02-3.21,19.56-6.26,29.18-9.33,0,4.39-1.05,8.52.36,11.47,1,2.1,5.33,2.61,8.16,3.83.35-1.32.72-2.69,1.07-4.01-8.37-2.94-4.49-7.72-2.65-10.97,3.38-1.92,5.87-3.21,8.25-4.7,2.6-1.62,8.92-.29,10.13,2.37,1.61,3.54,3.07,7.16,4.59,10.75l1.34-.32v-14.74c1.28.07,1.94-.01,2.53.15,4.61,1.3,9.37,2.24,11.73,7.32,1.4,3.02,2.26,6.95,7.43,6.43-.1-1.32-.19-2.55-.26-3.47-1.54.25-2.86.46-4.86.77,2.58-2.22,4.56-3.91,6.53-5.6-.22-.21-.43-.42-.65-.63-1,.69-2,1.38-3.39,2.34v-9.15c6.79,1.43,13.36,4.97,20.13,0,.48,2.7.73,4.09,1.14,6.37,2.73-1.37,5.12-2.57,6.95-3.49,1.67.7,3.66,1.54,5.96,2.51q1.09,4.4,5.9,2.52c-5.05-4.83-4.95-7.54.91-11.96,2.15-1.62,4.91-2.68,3.21-6.01-1.44-2.82-1.57-7.27-6.42-5.87-1.16,1.42-2.54,3.43-3.97,3.46-3.23.08-6.48-.82-10.21-1.39.83-7.79-6.07-6.96-12.28-8.93,4.94-2.14,8.47-3.67,12.31-5.33-.21-1.08-.51-2.67-.9-4.69-3.06,1.01-6.17,1.3-8.32,2.88-4.62,3.41-7.26,1.19-8.89-1.08h-9.18v-5.52c-3.41,5.16-4.68,4.96-11.41-1.09,1.82-1.53,3.69-3.07,5.53-4.65,1.71-1.47,3.39-2.97,5.65-4.96-3.86.41-7.86-2.07-9.51,3.25-.1-1.11-.2-2.22-.3-3.34,0,5.98-5.82,1.72-7.71,4.38-1.35-1.32-2.65-2.68-4.06-3.92-.65-.58-1.61-1.44-2.23-1.3-3.75.84-7.41,2.22-11.19,2.8-1.36.21-3.66-.89-4.34-2.07-1.48-2.57-2.15-5.59-3.25-8.39-.19-.48-.87-.76-1.46-1.24-.33,1.72-.6,3.09-.96,4.92-1.15-.92-1.88-1.5-2.61-2.09ZM172.92,237.78c1.46,9.74,4.33,1.24,7.27,1.91-2.42-1.33-4.32-2.37-6.33-3.48.38-1.98.75-3.86,1.1-5.67,2.82.3,5.42.57,7.33.77-.43-1.35-.51-2.95-1.33-3.92-1.44-1.7-3.24-3.18-5.15-4.31-.32-.19-2.77,1.8-2.82,2.87-.16,3.04-2.01,2.51-3.94,2.8-1.46.22-3.34,1.03-3.97,2.17-.45.81.62,2.8,1.46,3.91,1.58,2.09,3.49,3.92,5.18,5.77.15-.35.4-.94,1.2-2.82ZM112.8,150.41c2.58-2.05,5.02-4,7.32-5.83-1.45-.85-2.97-1.74-3.89-2.28-1.2,1.06-2.16,2.66-3.33,2.83-5.91.83-5.68,5.26-6.52,9.68,2.15-.2,3.77-.25,5.34-.54,1.04-.19,2.01-.75,3.01-1.14-.72-1.02-1.44-2.04-1.92-2.72ZM284.07,202.96c-3.49-.45-5.5-.71-8.21-1.05,2.6,6.87-5.88,2.25-6.1,6.74,1.13.2,2.41.43,4.41.79-1.76.8-2.69,1.23-3.62,1.65,2,.88,6.98-.64,11.08-3.77,1.07-.82,1.46-2.53,2.44-4.36ZM88.96,188.18c-.61-7.06,4.68-7.64,9.4-9.07-2.86-1.4-1.26-8.07-6.32-5.32-2.64,4.46-4.98,8.43-7.44,12.6,1.86.76,2.77,1.14,4.36,1.79ZM376.69,162.11c-.83-2.43-.98-4.6-2.14-5.69-.9-.84-3.18-.72-4.64-.31-1.42.4-2.6,1.69-3.82,2.67-.77.61-1.43,1.37-2.14,2.06.8.42,1.58,1.18,2.39,1.21,3.25.14,6.52.06,10.35.06ZM187.45,116.1c-5.24.62-5.87,3.52-4.56,7.47,1.87.37,3.71.74,5.8,1.15-.4-2.77-.8-5.55-1.24-8.62ZM293.08,117.5c-3.06-1.15-6.49-2.44-9.95-3.74-1.18,5.25,3.42,3.98,6.71,4.6.24,1.08.5,2.23.77,3.43,1.61-.48,2.86-.85,3.22-.95-.3-1.36-.52-2.34-.74-3.35ZM131.37,231.76c-1.88-1.52-2.95-2.38-4.03-3.25-.86,1.24-2.24,2.42-2.38,3.73-.09.88,1.66,2.81,2.44,2.73,1.13-.11,2.12-1.61,3.97-3.21ZM106.21,215.76c-2.97,0-5.5-.72-6.38.17-1.25,1.28-1.29,3.74-1.85,5.69.59.36,1.17.72,1.76,1.09,1.76-1.89,3.52-3.78,6.46-6.95ZM300.23,194.23c.57,4.36,2.59,5.67,7.28,4.66-.25-1.54-.5-3.1-.75-4.66h-6.54ZM76.33,200.64c1.88-3.06,6.6-5.38,1.76-11.26-1.76,4.03-1.79,7.64-1.76,11.26ZM337.74,146.84c2.62-.85,5.25-1.69,7.87-2.54-3.44-1.59-6.91-3.38-7.87,2.54Z"/>
        <path class="cls-1" d="M191.75,268.91c.2,4.82,2.05,6.84,7.13,4.85,2.48-.97,5.37-1.44,8.03-1.3,4.52.23,4.13-4.69,4.3-5.76.59-3.51,2.69-2.9,4.42-2.61,6.02,1,9.04-3.24,13.05-6.36,2.44-1.89,6.4-2.43,9.67-2.41,1.91,0,2.59,2.61,2.96,5.05.26,1.72,3.22,3.03,5.05,4.58.82-2.41,1.63-4.75,2.54-7.4-1.96-.82-4.14-1.51-6.03-2.68-.46-.28-.31-2.9.14-3.1,2.79-1.22,5.72-2.18,8.68-2.9.54-.13,1.45,1.22,1.31,1.09,2.74-.95,4.92-1.71,7.09-2.46.26-.09.67-.08.76-.25,3.26-6.05,7.2-3.72,11.48-1.19,4.33,2.55,7.97,1.31,9.18-3.15.85,1.06,1.51,1.88,2.18,2.7,4.8-3.69,8.92-2.91,9.96,1.89l.12-.12c-2.64.3-3.01,2.28-2.29,4.08.48,1.19,2.07,2.5,3.33,2.69,2.69.41,5.49.13,8.24.13.13.63.26,1.26.4,1.89-1.57.47-3.15.94-5.03,1.51.39.73.82,1.54,1.38,2.59-2.1,1.08-4.1,2.54-6.34,3.17-3.25.92-6.76,3.51-9.6-1.45-.99-1.73-4.03-2.29-6.14-3.38l-1.12,1.41c1.21,2.24,2.41,4.48,3.75,6.96-5.09,3.67-8.91.95-13.37-4.18,0,3.8.09,6.14-.05,8.46-.05.72-.62,1.87-1.16,2.01-.98.26-2.58.33-3.12-.26-2.33-2.53-5.86-4.84-1.57-9.74-7.78,1.12-12.9,3.9-16.51,8.94-1.21,1.7-1.14,4.27-2.02,6.27-.29.67-1.71,1.02-2.66,1.17-.53.08-1.16-.56-1.75-.87.63-.94,1.21-1.92,1.9-2.82.87-1.14,1.82-2.21,1.98-2.4-1.89-2.11-3.41-3.81-5.52-6.16-.38,2.48-.76,5.12-1.19,7.76-.37,2.26-.81,4.51-1.31,7.26-2.3-.26-6.57,3.37-6.97-1.78-1.88,1.24-3.93,3.27-6.39,4.05-3.07.98-6.74,1.86-9.61.98-1.66-.51-2.23-4.55-3.16-6.69-.8,1.37-1.86,3.18-3.34,5.7,4.17,6.76-2.52,4.64-6.13,5.49-2.17-3.68-4.6-7.19-10.53-4.5,5.29.36,4.93,3.68,4.16,6.78-.86,3.43-6.42,6.48-9.99,4.98-1.58-.66-2.16-3.71-3.8-6.81h-8.91c2.58,3.07,4.64,5.51,6.54,7.76-4.79,1.5-9.34,3.23-14.06,4.2-1.39.28-4.58-1.64-4.56-2.5.04-1.86,1.62-3.69,2.56-5.51-1.62-1.08-3.68-2.45-5.93-3.95-.33,1.1-.74,2.46-1.14,3.8-3.94,1.5-6.64.64-7.15-5.22-3.08,2.93-3.18,4.96-1.72,7.72.79,1.5,1.03,3.55.73,5.21-.11.6-2.78,1.43-3.83,1.01-1.73-.7-3.61-2.04-4.44-3.63-.74-1.44-.16-3.56-.16-6.37-1.4,2.74-2.37,4.62-3.55,6.94-1.15-.89-2.32-1.5-3.07-2.44-3.43-4.32-7.1-4.65-8.51.25-1.2,4.2-3.95,2.75-6.32,4.69.64-2.16,1.02-3.48,1.48-5.02-5.44-2.28-3.85,4.41-7.05,4.47,2.53,2.16,4.73,4.03,7.37,6.28-2.15.79-3.58,1.31-5,1.83.5.22.99.43,1.49.65-1.85-.08-3.71-.16-5.56-.24-.13.55-.27,1.09-.4,1.64,3.54,3.07,7.08,6.13,10.7,9.27-.11-.81-.27-1.88-.55-3.87,1.86.76,3.26,1.33,5.27,2.15-.04.04.86-.74,2.28-1.96.68,3.54,1.24,6.45,1.87,9.74,2.87-1.01,5.96-2.5,9.2-3.13,3.08-.59,6.13,2.76,5.9,5.84-.16,2.17-.44,4.33-.52,5.16-2.08.67-3.85,1.24-5.62,1.81.17.53.33,1.06.5,1.59,5.55-1.6,11.87.2,16.88-4.07.23-.19,2.15.85,2.43,1.62.66,1.8.8,3.8,1.15,5.71.51.02,1.03.04,1.54.06.23-1.29.4-3.69.71-3.71,2.61-.15,6.56-.87,7.61.49,2.19,2.87,2.89,6.88,4.07,10.47.09.28-.79.89-1.3,1.43,5.48,1.15,11.06-1.91,11.33-6.71,4.01.79,7.94,1.57,11.74,2.33.07,8.03-.27,8.42-6.48,6.45,1.44,1.28,2.16,1.92,2.86,2.55-2.83,2.12-.43,6.29,3.81,6.04,1.64-.1,3.23-1.24,5.94-2.37-1.05-1.35-2.18-2.8-3.3-4.25-.4.18-.8.37-1.19.55.42-2.5.83-5,1.29-7.75,3.53,2.49,7.55,5.32,12.81,9.03-.42-2.98-.6-4.26-.87-6.16,2.42.64,4.37,1.15,6.28,1.66-.27,1.6-.52,3.04-.77,4.49.38.13.75.26,1.13.39.68-1.77,1.36-3.53,2.11-5.47,4.89.86,4.65,7.72,10.4,8.07,4.57.27,6.85-4.85,11.46-3.07.2-1.55.35-2.79.6-4.78,4.29.92,8.31,1.78,12.34,2.64-4.39.52-4.96,2.79-2.81,6.75,4.06-.54,8.3-1.1,11.22-1.48-.35-2.97-.6-5.09-.99-8.41,9,.99,16.78,1.84,24.69,2.71-.32-5.34,3.75-3.98,7.93-2.64v4.57c3.26-1.47,6.13-2.77,10.65-4.81-.8,5.12-1.37,8.76-1.95,12.47,6.61,1.94,10.13.8,11.99-5.11,1.01-3.22.28-6.75-4.28-7.33-.19-3.79,1.09-5.31,5.11-5.02,2.24.16,4.61-1.41,8.48-2.74-1.25,4.87-2.13,8.34-3.42,13.36,2.06,1.65,5.48,4.4,9.53,7.65.08,6.15-6.51,4.34-10.47,5.95-2.86,1.17-6.11,1.39-9.61,2.12.09-1.17.18-2.22.27-3.27-1.8-1.12-3.61-2.24-5.5-3.42-2.25,2.74-9.58,3.25-4,10.38-.44.32-.88.64-1.31.96-3.82-.98-7.65-1.97-12.77-3.28,3.86-2.91,6.22-4.69,9.33-7.04-1.92-1.17-3.63-2.22-5.35-3.26-.71,1.41-1.7,2.74-2.08,4.23-1.91,7.48-9.01,11.7-16.75,9.94-3.52-.8-7.03-3.81-10.56.85-.89,1.17-4.64.18-7.64.18,1.17-2.02,2.18-3.76,2.9-5-1.55-1.77-3.41-3.9-5.09-5.82-.94.5-2.72,1.04-3.96,2.18-2.31,2.12-5.88,2.52-7.08,6.56-.41,1.37-5.73,1.76-8.81,1.77-6.37.02-12.74-.39-19.1-.85-3.94-.29-7.86-.98-12.56-1.6.96-1.59,1.61-2.66,2.1-3.47-4.02-.47-8.16-.94-11.24-1.3-1.67-2.82-3.09-5.21-5.28-8.9-3.38,9.65-9.1,6.66-14.4,4.37,1.38-3.63-1.46-5.84-8.43-5.18.69-1.93,1.26-3.51,1.85-5.17-.83-.18-2.3-.5-3.95-.86-.13,1.74-.26,3.46-.38,5.18-.34.07-.68.13-1.02.2-.36-1.18-.72-2.35-1.15-3.76-.54.03-2,.11-4.54.26.52-3.03.97-5.66,1.56-9.12-3.01.92-6.59,2.02-10.61,3.25-.42,4.18-1.1,4.37-5.9,1.87-2.28-1.19-5.02-1.4-4.83-4.98.02-.41-1.85-.98-2.88-1.39-1.81-.73-3.62-1.49-5.49-2.05-3.74-1.12-4.14-2.82-1.78-5.98,1.06-1.43.92-3.75,1.33-5.67-1.56-.2-3.32-.96-4.64-.48-2.27.83-3.42,2.37-.7,4.51,1,.79,1.33,2.44,2.42,4.59-6.34-1.2-9.53-4.38-11.67-8.9,1.45.16,3.22.89,4.28.32,1.21-.66,2.04-2.4,2.49-3.84.14-.46-1.72-2.23-2.26-2.06-1.31.4-2.6,1.41-3.49,2.5-.65.79-.65,2.12-.94,3.21-1.83-2.81-3.67-5.63-4.89-7.5-2.46-.14-5.12.5-6.16-.51-2.69-2.63-4.69-5.97-6.9-9.07-.43-.6-.38-1.56-.85-2.09-1.77-2.01-2.61-3.02,1.28-2.98,2.01.02,4.03-1.7,6.11-2.66-1.45-5.17-6.4-5.08-10.13-6.8-.38.83-1.29,1.99-1.03,2.43.77,1.27,2.01,2.25,3.36,3.63-1.41.5-2.9,1.02-4.36,1.53-2.9-2.63-5.94-5.4-8.98-8.16l.59-1.18h5.82c-1.33-2.5-2.51-4.72-3.62-6.81-2.92-.84-6.1-1.75-9.28-2.66.09-.62.17-1.23.26-1.85,2.26-.5,4.51-.99,7-1.54-.85-2.93-1.62-5.56-2.45-8.4,2.21-.53,4.2-1,6.51-1.56.41,1.59.8,3.1,1,3.87,9.05,2.3,4.76-7.81,9.72-8.75,1.92,0,4.03-.5,5.71.13,2.15.8,3.95,2.51,6.63,4.32-1.9.47-3.05.76-4.2,1.05-.07.36-.13.72-.2,1.08,4.99,2.34,9.97,4.68,15.75,7.39v-8.1h-4.76c.57-1.15,1.05-2.13,1.62-3.28,1.32-.12,3.3-.3,5.28-.48.14,2.09.27,4.18.44,6.69q2.12.82,2.62-5.06c1.67.74,3.38,1.5,5.11,2.23.28.12.89,0,.91.08,1.31,6.85,5.8,1.15,8.6,2.08.5.17,1.87-.93,2.15-1.69,1.22-3.4,2.96-2.77,5.24-.76-.9.53-1.69,1-3.17,1.88,2.3.67,4.05,1.18,6.29,1.83-1.24.49-2.12.84-2.99,1.19,1.73.36,3.48,1.08,5.17.98,2.22-.13,5.48,1.11,4.82-3.8-.37-2.73,2.18-4.65,6.76-3.26-.95,3.48-1.91,6.95-2.84,10.33-2.26-.48-3.68-.78-5.49-1.16v3.46c1.21-.06,2.42-.17,3.63-.15,1.33.02,2.65.23,3.98.25,2.26.04,4.52.01,6.6.01,0-3.46,0-6.17-.01-8.89,0-.13-.29-.26-.29-.38.04-2.09,5.77-8.02,7.86-7.91,4.13.21,8.31,1.2,12.34.75,2.86-.32,5.51-2.5,8.26-3.84l-.11-.09ZM209.38,361.42c-4.57,1.11-9.13,2.22-13.92,3.38,1.85.23,3.47.43,5.09.63-.04.16-.07.33-.11.49-.98.19-1.97.38-3.54.68,3.38,1.57,5.99,2.78,8.88,4.13-1.79,3.82.76,4.7,4.42,5.42,0-1.75.57-3.6-.1-4.36-3-3.41-2.46-6.87-.89-10.54.95.46,2.76,1.16,2.71,1.36-.99,3.7,1.49,3.46,3.76,3.56.64-5.73-2.44-8.34-8.46-7.21.72.82,1.45,1.64,2.17,2.47ZM273.13,247.74c-1.28,1.64-1.99,2.55-2.85,3.66-.21-1.8-.4-3.34-.61-5.17-2.7,1.17-5,2.17-7.3,3.16.11.36.23.72.34,1.09,1.44-.08,2.87-.15,4.27-.23.28,1.76.51,3.18.75,4.67h7.67c-.75-2.4-1.33-4.23-2.25-7.19ZM266.52,372.68c.09-.39.17-.78.26-1.18-1.08-.27-2.16-.53-3.52-.87,6.21-4.19,6.73-6.08,3.89-14.28-.23-.68-1.57-.97-2.2-1.32.56,3.66,1.03,6.73,1.57,10.25-6.49-.79-5.39,3.11-4.91,6.72,1.63.23,3.27.45,4.91.68ZM280.48,367.63c1.07-3.73,1.93-6.75,3.12-10.93-3.34,1.64-5.18,2.61-7.08,3.47-1.07.48-2.23.79-3.34,1.17,1.15.85,2.3,1.71,3.12,2.32-.57.43-1.37,1.02-2.16,1.61,2.06.77,4.12,1.54,6.34,2.36ZM77.71,286.69c3.3,3.88,7.36,3.81,11.35,3.21.88-.13,1.85-2.05,2.07-3.28.13-.76-1.22-2.58-1.66-2.51-3.84.65-7.62,1.62-11.75,2.57ZM105.86,325.19v-11.68c-2.78,2.02-4.56,3.31-6.49,4.71,1.68,1.8,3.69,3.96,6.49,6.97ZM132.42,347.28c.39.47.91,1.22,1.56,1.83.85.79,1.8,1.47,2.7,2.2.6-1.4,1.78-2.85,1.67-4.19-.19-2.29-1.18-4.52-1.95-7.13-1.41,2.58-2.56,4.68-3.99,7.28ZM227.21,267.14c-.92,3.89-1.49,6.27-2.08,8.77h7.76c-1.7-2.63-3.25-5.02-5.68-8.77ZM220.18,361.1c-1.26,2.2-2.2,3.84-3.15,5.49q4.5,2.33,6.63-5.28c-1.48-.09-2.92-.18-3.48-.21ZM117.25,325.52c-.18.53-.37,1.06-.55,1.59,2.14.72,4.29,1.44,6.43,2.16.55-1.69,1.1-3.37,1.52-4.67-2.98.37-5.19.64-7.4.91ZM213.68,281.85c3.14.79,4.63,1.16,7.13,1.79-.23-2.19-.4-3.93-.58-5.66-1.82,1.08-3.64,2.15-6.55,3.87ZM189.03,288.69c-2.63,1.42-7.17-1.61-6.73,5.25,2.35-2.35,6.75,1.08,6.73-5.25Z"/>
        <path class="cls-1" d="M374.95,244.85c.62-.23,1.24-.65,1.86-.66,3.53-.05,6.9.92,10.59-.91,2.57-1.28,3.81.66,4.16,4.27.1,1.1,1.12,2.2,1.9,3.14.86,1.03,1.93,1.89,2.62,2.54,1.53-.93,3.81-2.71,6.4-3.69,1.17-.44,4.08.49,4.24,1.22.4,1.87-.09,4.04-.63,5.97-.42,1.5-1.53,2.8-2.12,4.28-.08.21,1.33,1.43,1.6,1.29,1.86-.95,3.72-1.98,5.32-3.31.98-.82,1.5-2.2,2.23-3.32.51.21,1.02.41,1.53.62-.47,3.61-.84,7.23-1.47,10.81-.18,1.04-1.19,2.84-1.66,2.79-4.09-.42-1.39,2.99-1.98,4.63.72-.78,1.43-1.56,1.64-1.79h6.56c-.35,2.11-.76,4.58-1.17,7.06.52-.21,1.05-.42,1.57-.62,1.38,2.08,3.58,4.02,3.96,6.27.71,4.23-4.15,8.87-9.27,9.35-.3-1.19-.6-2.44-.98-3.94-.65.5-1.33.81-1.31,1.05.28,2.61.93,4.76-2.32,6.76-3.22,1.99-.61,3.58,1.78,4.12-1.58,3.36-3.08,6.56-4.76,10.15-2.65-.41-6.16-.94-9.66-1.48-.54.84-1.08,1.68-1.62,2.52,2.23,1.62,4.45,3.23,6.88,4.99-.49,1.25-1.02,2.57-1.25,3.16-5.04.52-9.56,1-14.52,1.51,2.21.24,4.01.44,5.82.64-.02.26-.03.51-.05.77h-7.2c.63,3.51,2.19,7,1.58,10.05-.88,4.38-5.6,2.61-8.74,3.31.33.4.66.81.99,1.21-2.53,2.47-5.05,4.95-7.66,7.33-.08.07-1.08-.97-1.72-1.39-.73-.49-1.96-1.43-2.24-1.22-.92.71-1.64,1.78-2.19,2.83-.58,1.1-.89,2.35-1.31,3.53-.72-1.33-1.44-2.66-2.36-4.37-.05.05-.91.42-.95.88-.49,4.69-5.83,10.99-10.4,12.07-.43.1-1,.33-1.29.15-6.33-3.95-11.11-1.7-15.26,3.61-.4.52-1.51.49-2.63.8-1.27-2.87-2.48-5.62-3.69-8.36,1.91-.66,3.82-1.32,7.04-2.43-1.29,2.21-1.8,3.1-2.32,3.99.44.43.87.87,1.31,1.3.59-1.21,1.19-2.42,1.78-3.63-2.01-.74-4.02-1.49-6.22-2.3.83-1,1.72-2.1,2.62-3.19l-.12-1.6c-1.61.12-3.23.4-4.82.3-1.33-.09-2.62-.63-3.93-.98.79-.92,1.55-1.86,2.37-2.74,1.61-1.73,3.25-3.42,4.5-5.62,3.98-1.77,7.15-.66,8.16,4.93,2.31-2.91,4.18-5.28,6.07-7.66,1.01.69,2.51,1.72,5.2,3.56-.98-3.63-1.52-5.61-1.99-7.33h7.54c-1.09-7.63,11.03-10.92,23.84-10.11-1.09-2.35-1.93-4.17-3.09-6.69,2.97-2.41,8.46-4.48,7.1-9.84,2.85-2.01,5.1-3.79,7.54-5.25,1.46-.88,3.28-1.92,4.82-1.75,8.61.94,9.12.95,16.74-4.19-5.71-3.21-10.89-6.11-16.84-9.46,1.95-2.64,3.81-5.16,5.66-7.66-.12-.28-.19-.56-.35-.77-2.13-2.73-2.17-2.42-8.23-3.24-2.31-.31-6.73-.32-4.68-5.38.35-.85-.77-2.3-1.44-4.08-.82,2.23-1.37,3.72-2.48,6.71-3.98-3.08-7.6-5.52-10.79-8.45-2.59-2.38-6.51-4.1-5.84-8.83.05-.39-1.47-1-2.26-1.5-.28.75-.5,1.54-.86,2.25-1.24,2.51-2.54,4.99-4.12,8.1-.5-.49-1.62-1.2-2.19-2.22-1.77-3.13-4.06-3.24-6.59-.7-1.22,1.22-3.3,2.07-5.05,2.18-4.76.29-9.56.1-14.42.1,1-1.66,1.84-3.05,3.35-5.56-7.35,2.78-12.16,9.93-19.11,5.38-3.93,1.11-7.56,2.13-12.03,3.39,1.9-3.42,3.27-5.89,3.95-7.12.81-2.84,1.3-4.59,1.8-6.33.41-.07.83-.14,1.24-.21.22,1.37.18,2.85.75,4.06.42.89,1.62,1.42,2.47,2.1.33-.37.66-.74.99-1.11-.71-1.77-1.42-3.54-2.37-5.91-1.38.55-2.74,1.21-4.17,1.63-1.13.33-2.35.36-3.53.52.54-1.11,1.08-2.23,1.81-3.73-1.54-2.44-12.09.76-5.82-8-.98-.34-1.83-.64-3.16-1.11,2.72-2.27,4.48-5.21,6.6.18.8,2.02,4.03,3.09,6.86,5.09v-9.21c3.91.38,7.46.73,12.01,1.17-1.54,1.21-2.32,1.81-3.46,2.71,1.82.48,3.32.88,3.75,1,.62,2.84,1.09,4.99,1.56,7.15,3.01-.73,6.92-.57,8.76-2.44,1.69-1.71,1.15-5.62,1.5-7.94,1.33-.47,2.33-.8,3.3-1.2.22-.09.36-.41.54-.62,5.03,4.8,10.96-2.95,16.06,1.14.51.41,1.15.65,1.06.6-1.16,2.49-2.03,4.38-2.91,6.27.48.21.95.42,1.43.63.14-.51.27-1.02.41-1.52,5,2.13,7.96-3.53,12.85-3.2,4.64.31,8.14.78,9.22,5.93-4.13.5-8.03,4.05-12.52.94-.3-.21-1.61,1.06-2.46,1.65.88.64,1.71,1.73,2.64,1.82,2.65.25,5.34.09,7.78.09v8.89c1.49-4.58,2.95-9.06,4.41-13.55ZM351.26,333.35c.12,2.22.23,4.28.35,6.57-2.44-.14-4.42-.26-6.39-.37-.03.41-.07.82-.1,1.23,2.49.34,5.27.09,7.41,1.15,4.47,2.22,5.31,1.98,6.25-3.74-1.99.5-3.84.96-5.7,1.43-.56-.58-1.13-1.16-1.69-1.75,1.08-.24,2.4-.17,3.2-.78,1.32-1,2.31-2.44,3.43-3.69-1.61-.11-3.23-.27-4.84-.32-.63-.02-1.27.18-1.91.27ZM356.56,347.12c-4.19-.34-8.29-.67-12.39-1-.24.34-.48.69-.72,1.03,1.97,1.57,3.82,4.16,5.96,4.43,2.12.27,4.54-1.79,7.16-2.98v-1.48ZM351.36,248.7c-1.95,1.01-4.11,1.58-5.42,2.95-1.38,1.45-2.04,3.7,1.66,2.66,2.27-.64,4.56-1.19,6.84-1.78-.09-.53-.19-1.06-.28-1.6-1.04-.83-2.08-1.66-2.79-2.23ZM387.58,311.56l1.24,1.26c2.12-2.29,4.24-4.59,6.88-7.44q-8.12-.21-8.12,6.18Z"/>
        <path class="cls-1" d="M418.94,263.06c3.11,2.3,5.3,3.51,6.86,5.27.7.79.71,3.28.01,3.95-1.1,1.07-3.03,1.58-4.65,1.66-.7.04-2.02-1.5-2.13-2.43-.3-2.51-.1-5.07-.1-8.45Z"/>
        <path class="cls-1" d="M412.33,199.79c1.64.49,3.29.98,5.99,1.78-1.57,2.78-3.03,5.37-5.07,8.99-1.23-3.94-1.95-6.26-2.74-8.8.44-.47,1.19-1.27,1.94-2.08.01-.01-.12.11-.12.11Z"/>
        <path class="cls-1" d="M82.1,180.88c-2.01.45-4.03.9-7.21,1.62.82-2.48.93-4.21,1.84-5.17,1.02-1.07,2.78-1.44,4.21-2.11.18,1.31.34,2.62.56,3.93.11.63.32,1.25.49,1.87,0,0,.1-.13.1-.13Z"/>
        <path class="cls-1" d="M260.88,103.71h11.16c-.63,2.35-1.07,3.98-1.47,5.46-3.05-1.72-5.9-3.33-9.69-5.46Z"/>
        <path class="cls-1" d="M305.36,111.71c-2.64.75-5.28,1.49-7.92,2.24-.39-1.53-.77-3.06-1.34-5.34,3.53.53,6.32.95,9.11,1.37.05.58.1,1.15.15,1.73Z"/>
        <path class="cls-1" d="M293.65,247.48c2.44.79,4.88,1.58,7.32,2.37-.12.51-.24,1.02-.37,1.53-2.07.22-4.15.44-6.4.67-.14-1.57-.28-3.14-.43-4.7-.01.01-.13.13-.13.13Z"/>
        <path class="cls-1" d="M191.86,269c3.74-1.68,7.49-3.36,11.23-5.04-2.47,5.27-6.87,5.19-11.34,4.95,0,0,.1.09.1.09Z"/>
        <path class="cls-2" d="M287.93,127.17c.73.58,1.46,1.17,2.61,2.08.36-1.84.62-3.21.96-4.92.58.48,1.27.76,1.46,1.24,1.1,2.8,1.77,5.82,3.25,8.39.68,1.19,2.98,2.28,4.34,2.07,3.78-.59,7.44-1.96,11.19-2.8.62-.14,1.58.72,2.23,1.3,1.41,1.25,2.71,2.61,4.06,3.92,1.89-2.66,7.7,1.6,7.71-4.38.1,1.11.2,2.22.3,3.34,1.65-5.32,5.65-2.84,9.51-3.25-2.26,1.99-3.94,3.49-5.65,4.96-1.84,1.58-3.72,3.12-5.53,4.65,6.72,6.05,8,6.25,11.41,1.09v5.52h9.18c1.63,2.27,4.28,4.49,8.89,1.08,2.15-1.59,5.25-1.88,8.32-2.88.39,2.02.69,3.61.9,4.69-3.84,1.66-7.37,3.19-12.31,5.33,6.22,1.97,13.12,1.14,12.28,8.93,3.73.58,6.99,1.47,10.21,1.39,1.43-.03,2.81-2.04,3.97-3.46,4.85-1.4,4.99,3.05,6.42,5.87,1.7,3.33-1.05,4.39-3.21,6.01-5.86,4.42-5.96,7.13-.91,11.96q-4.81,1.89-5.9-2.52c-2.3-.97-4.28-1.8-5.96-2.51-1.83.92-4.22,2.12-6.95,3.49-.41-2.27-.66-3.67-1.14-6.37-6.76,4.97-13.33,1.43-20.13,0v9.15c1.39-.96,2.39-1.65,3.39-2.34.22.21.43.42.65.63-1.97,1.69-3.95,3.39-6.53,5.6,2-.32,3.32-.53,4.86-.77.07.91.16,2.15.26,3.47-5.17.51-6.03-3.41-7.43-6.43-2.36-5.08-7.13-6.02-11.73-7.32-.59-.17-1.25-.09-2.53-.15v14.74l-1.34.32c-1.52-3.59-2.98-7.2-4.59-10.75-1.21-2.66-7.54-3.99-10.13-2.37-2.37,1.48-4.86,2.78-8.25,4.7-1.85,3.26-5.72,8.04,2.65,10.97-.35,1.32-.72,2.69-1.07,4.01-2.84-1.22-7.16-1.73-8.16-3.83-1.41-2.95-.36-7.08-.36-11.47-9.62,3.08-19.16,6.13-29.18,9.33.35,4.7-.82,8.92-7.18,9.02-3.56-3.89-7.35-3.91-9.3-.02-2.68-.79-5.36-1.58-8.19-2.42-.28,3.74-.22,6.74-.82,9.59-.45,2.11-1.8,3.78-3.49.55-.22-.42-.5-1.27-.57-1.25-3,.83-6.69.97-8.75,2.87-1.88,1.74-1.93,5.43-2.93,8.21-.29.79-1.27,2.07-1.64,1.97-2.35-.6-4.68-1.37-6.86-2.41-.99-.48-1.63-1.71-2.59-2.79,1.98-.11,3.85-.22,5.73-.33.35-.37.7-.75,1.04-1.12-1.3-1.31-3.1-2.4-3.78-3.97-1.3-3.01-1.91-3.96-4.11-.51-.54.85-3.71-.12-5.63.07-.95.1-1.82.95-3.86,2.11,2.8.48,4.3.74,5.82,1,.13,2.18.25,4.13.39,6.29-2.75.71-5.58,1.32-8.31,2.25-.71.24-1.32,1.43-1.5,2.28-.1.46.75,1.2,1.27,1.7.67.64,2.01,1.15,2.03,1.76.04.97-.78,1.97-1.23,2.95-.88-.57-1.69-1.46-2.65-1.67-5.26-1.12-7.18-4.5-7.1-9.58,0-.44-1.6-.9-3.95-2.13,3.3-.17,5.2-.27,6.99-.37.28,2.25.52,4.2.75,6.15l1.38-.02c.48-3.23.96-6.46,1.69-11.37-7.27,4.57-15.13-.63-21.26,4.94-.2.18-.74.26-.96.12-6.25-3.74-9.61,2.04-14.1,4.17-.47.22-1.25-.22-1.9-.36.63-2.09,1.22-4.06,1.61-5.36-3.08-.39-5.51-.8-7.95-.99-3.46-.27-6.5.5-8.17,3.99-1.66,3.48-5.52,4.09-7.98,1.27-1.26-1.44-2.53-2.89-3.82-4.35-1.89,2.04-3.52,5.47-5.24.28-.06-.17-1.49.12-3.19.27,1.03-1.48,1.73-2.49,2.57-3.69-.76-.35-1.75-.8-3.05-1.39v5.37h-8.31c.66,4.3,1.29,8.4,1.91,12.5-5.25-3.73-6.43-11.81-3.73-16.82.38-.7.47-2.35.21-2.47-2.26-1.01-5.04-2.96-6.89-2.34-3.17,1.06-5.78,3.78-8.63,5.8.28.39.55.79.83,1.18-1.92.11-3.85.21-6.16.34-1.11-2.73-2.3-5.67-3.61-8.9,3.88.35,7.32.65,10.76.96.19-.63.39-1.27.58-1.9-2.82-3.05-5.64-6.1-9.06-9.81,4.47-1.09,8.34-.02,10.75-3.26-1.67-1.2-3.71-1.97-4.59-3.44-2.98-4.96,2.23-6.01,4.31-5.69,4.78.73,6.16-2.43,8.16-5.14,1.51-2.04,2.79-4.25,3.86-7.28-1.65.95-3.31,1.87-4.94,2.85-.75.45-1.41,1.04-2.12,1.56.1-.68.51-1.52.25-2.02-.8-1.55-1.85-2.97-2.8-4.44.47-.19.93-.37,1.4-.56-.43-1.16-.86-2.32-1.77-4.75,3.36,1.57,5.65,2.65,8.78,4.12,3.17-1.71,7.39-3.98,10.94-5.9-.89-1.92-1.69-3.65-2.48-5.36,2.03,1.34,3.64,3.19,5.43,3.38,1.85.2,3.87-1.2,5.91-3.2-1.66-.64-3.37-1.19-4.98-1.96-1.09-.52-2.83-1.24-2.93-2.03-.35-2.88-.14-5.84-.14-8.77.57-.02,1.15-.03,1.72-.05.17,1.6.34,3.21.56,5.33,2.79.88,5.78,1.83,8.6,2.72,1.15-3.65,2.07-6.56,3.2-10.16-.89-.2-2.69-.61-4.48-1.02.06-.33.11-.66.17-.98,5.99.6,11.97,1.21,17.96,1.81.25-.24.51-.47.76-.71-1.8-1.16-3.59-2.32-6.27-4.05,3.46-1.06,6.36-1.94,9.59-2.93-.06-.21-.34-1.17-.68-2.37.83-.17,2.05-.42,2.83-.59.39,1.73.72,3.21,1.05,4.69,1.03-1.01,1.99-2.1,3.11-2.99.69-.55,1.62-.79,2.43-1.18,1.85-.88,3.69-1.77,6.74-3.24,1.12,1.43,3,3.87,4.91,6.28.22.29.66.75.81.69.67-.29,1.41-.62,1.88-1.15.61-.69.87-2.13,1.51-2.29,3.38-.81,6.09-1.78,7.52-5.67,1.08-2.95,4.56-1.88,6.69,1.1h16.34c-1.7-3.65-3.03-6.5-4.53-9.71,1.77-1.8,3.9-3.98,6.43-6.56.74,2.28,1.24,3.97,1.84,5.62,1.07,2.95,2.47,4.84,6.24,3.26,1.2-.5,3.17.86,5.01,1.45,1.47-2.57,3.87-5.12,8.2-4.15-.62,2.75-1.2,5.31-1.75,7.71,3.42.28,6.94.92,10.39.66,1.16-.08,2.15-2.42,3.57-4.16,3.29,1.24,5.6-1.7,7.75-5.81,1.6,4.65,3.7,6.07,8.5,3.83,3.28-1.53,7.67-.68,12.2-.93-.77,1.9-1.32,3.28-1.63,4.03,5.19,1.13,10.14,2.12,15.04,3.32,3.25.8,3.72-1.01,3.75-3.48l-.18.18ZM265.71,127.54c-.19,5.17,0,5.33,8.13,5.3-3.27-2.13-5.57-3.63-8.13-5.3Z"/>
        <path class="cls-2" d="M172.92,237.78c-.8,1.88-1.05,2.47-1.2,2.82-1.69-1.85-3.6-3.68-5.18-5.77-.85-1.12-1.91-3.1-1.46-3.91.63-1.14,2.51-1.95,3.97-2.17,1.93-.29,3.78.24,3.94-2.8.06-1.06,2.51-3.05,2.82-2.87,1.91,1.14,3.71,2.62,5.15,4.31.82.97.9,2.57,1.33,3.92-1.91-.2-4.51-.48-7.33-.77-.35,1.81-.72,3.69-1.1,5.67,2.01,1.11,3.91,2.15,6.33,3.48-2.95-.67-5.82,7.83-7.27-1.91Z"/>
        <path class="cls-2" d="M112.8,150.41c.48.68,1.2,1.7,1.92,2.72-1,.39-1.97.95-3.01,1.14-1.57.29-3.19.34-5.34.54.85-4.42.62-8.85,6.52-9.68,1.17-.16,2.13-1.77,3.33-2.83.92.54,2.44,1.43,3.89,2.28-2.3,1.83-4.74,3.78-7.32,5.83Z"/>
        <path class="cls-2" d="M284.07,202.96c-.98,1.82-1.37,3.54-2.44,4.36-4.1,3.13-9.08,4.65-11.08,3.77.93-.43,1.86-.85,3.62-1.66-2-.36-3.28-.59-4.41-.79.22-4.49,8.7.13,6.1-6.74,2.7.35,4.71.6,8.21,1.05Z"/>
        <path class="cls-2" d="M88.96,188.18c-1.59-.65-2.51-1.03-4.36-1.79,2.46-4.16,4.8-8.13,7.44-12.6,5.06-2.75,3.46,3.91,6.32,5.32-4.72,1.43-10.01,2.01-9.4,9.07Z"/>
        <path class="cls-2" d="M376.69,162.11c-3.84,0-7.1.08-10.35-.06-.81-.04-1.59-.79-2.39-1.21.71-.69,1.37-1.44,2.14-2.06,1.22-.98,2.41-2.27,3.82-2.67,1.46-.42,3.74-.54,4.64.31,1.16,1.09,1.3,3.25,2.14,5.69Z"/>
        <path class="cls-2" d="M187.45,116.1c.44,3.07.84,5.85,1.24,8.62-2.09-.41-3.93-.78-5.8-1.15-1.31-3.94-.68-6.85,4.56-7.47Z"/>
        <path class="cls-2" d="M293.08,117.5c.22,1,.44,1.99.74,3.35-.35.1-1.6.47-3.22.95-.27-1.21-.53-2.35-.77-3.43-3.29-.62-7.89.65-6.71-4.6,3.45,1.3,6.89,2.59,9.95,3.74Z"/>
        <path class="cls-2" d="M380.31,153.57c1.35,2.2,2.9,4.32,3.86,6.69.19.46-1.98,1.87-3.07,2.84-.73-1.16-2.06-2.32-2.06-3.48,0-2.02.83-4.03,1.3-6.05,0,0-.04,0-.04,0Z"/>
        <path class="cls-2" d="M131.37,231.76c-1.85,1.6-2.84,3.1-3.97,3.21-.78.08-2.53-1.85-2.44-2.73.14-1.31,1.53-2.49,2.38-3.73,1.07.87,2.14,1.73,4.03,3.25Z"/>
        <path class="cls-2" d="M106.21,215.76c-2.95,3.17-4.7,5.06-6.46,6.95-.59-.36-1.17-.72-1.76-1.09.56-1.95.6-4.42,1.85-5.69.88-.89,3.4-.17,6.38-.17Z"/>
        <path class="cls-2" d="M300.23,194.23h6.54c.25,1.56.5,3.12.75,4.66-4.69,1.01-6.72-.3-7.28-4.66Z"/>
        <path class="cls-2" d="M76.33,200.64c-.03-3.62,0-7.24,1.76-11.26,4.84,5.88.12,8.2-1.76,11.26Z"/>
        <path class="cls-2" d="M337.74,146.84c.96-5.92,4.43-4.13,7.87-2.54-2.62.85-5.25,1.69-7.87,2.54Z"/>
        <path class="cls-2" d="M288.11,126.98c-.81.01-2.09.34-2.35-.03-.8-1.14-1.51-2.52-1.63-3.87-.06-.64,1.32-1.4,2.05-2.11.86,1.01,2.05,1.9,2.45,3.07.3.85-.43,2.06-.7,3.12,0,0,.18-.18.18-.18Z"/>
        <path class="cls-2" d="M209.23,361.26c-1.59,3.66-2.13,7.12.87,10.52.67.76.1,2.61.1,4.36-3.65-.72-6.2-1.61-4.42-5.42-2.9-1.35-5.5-2.56-8.88-4.13,1.57-.3,2.56-.49,3.54-.68.04-.16.07-.33.11-.49-1.62-.2-3.24-.4-5.09-.63,4.78-1.16,9.35-2.27,13.92-3.38l-.15-.16Z"/>
        <path class="cls-2" d="M273.13,247.74c.93,2.96,1.5,4.78,2.25,7.19h-7.67c-.24-1.49-.47-2.92-.75-4.67-1.4.07-2.83.15-4.27.23-.11-.36-.23-.72-.34-1.09,2.3-1,4.61-1.99,7.3-3.16.22,1.83.4,3.36.61,5.17.87-1.11,1.57-2.01,2.85-3.66Z"/>
        <path class="cls-2" d="M266.52,372.68c-1.64-.23-3.28-.46-4.91-.68-.48-3.6-1.58-7.51,4.91-6.72-.54-3.52-1.01-6.58-1.57-10.25.62.36,1.96.65,2.2,1.32,2.84,8.2,2.32,10.09-3.89,14.28,1.37.34,2.44.6,3.52.87-.09.39-.17.78-.26,1.18Z"/>
        <path class="cls-2" d="M280.48,367.63c-2.22-.83-4.28-1.59-6.34-2.36.79-.59,1.59-1.18,2.16-1.61-.82-.61-1.97-1.46-3.12-2.32,1.12-.39,2.27-.69,3.34-1.17,1.9-.86,3.74-1.82,7.08-3.47-1.19,4.17-2.05,7.19-3.12,10.93Z"/>
        <path class="cls-2" d="M77.71,286.69c4.13-.95,7.92-1.93,11.75-2.57.44-.08,1.8,1.75,1.66,2.51-.22,1.22-1.19,3.14-2.07,3.28-3.99.6-8.05.67-11.35-3.21Z"/>
        <path class="cls-2" d="M105.86,325.19c-2.8-3.01-4.81-5.17-6.49-6.97,1.93-1.4,3.71-2.69,6.49-4.71v11.68Z"/>
        <path class="cls-2" d="M132.42,347.28c1.43-2.6,2.58-4.71,3.99-7.28.76,2.61,1.76,4.84,1.95,7.13.11,1.34-1.07,2.79-1.67,4.19-.91-.73-1.86-1.41-2.7-2.2-.65-.61-1.17-1.37-1.56-1.83Z"/>
        <path class="cls-2" d="M227.21,267.14c2.43,3.75,3.98,6.14,5.68,8.77h-7.76c.59-2.5,1.16-4.88,2.08-8.77Z"/>
        <path class="cls-2" d="M209.38,361.42c-.72-.82-1.45-1.64-2.17-2.47,6.02-1.13,9.11,1.48,8.47,7.21-2.27-.1-4.75.14-3.76-3.56.05-.2-1.76-.9-2.7-1.35,0,0,.16.16.16.16Z"/>
        <path class="cls-2" d="M107.05,333.11c.29-1.09.29-2.41.94-3.21.89-1.09,2.18-2.1,3.49-2.5.54-.16,2.4,1.61,2.26,2.06-.45,1.44-1.28,3.18-2.49,3.84-1.06.57-2.83-.16-4.28-.32,0,0,.09.12.09.12Z"/>
        <path class="cls-2" d="M220.18,361.1c.56.03,2,.12,3.48.21q-2.13,7.61-6.63,5.28c.94-1.65,1.88-3.29,3.15-5.49Z"/>
        <path class="cls-2" d="M117.25,325.52c2.21-.27,4.42-.55,7.4-.91-.42,1.29-.97,2.98-1.52,4.67-2.14-.72-4.29-1.44-6.43-2.16.18-.53.37-1.06.55-1.59Z"/>
        <path class="cls-2" d="M213.68,281.85c2.91-1.72,4.73-2.79,6.55-3.87.18,1.74.36,3.48.58,5.66-2.5-.63-3.99-1-7.13-1.79Z"/>
        <path class="cls-2" d="M189.03,288.69c.02,6.34-4.38,2.9-6.73,5.25-.45-6.87,4.1-3.83,6.73-5.25Z"/>
        <path class="cls-2" d="M351.26,333.35c.64-.1,1.28-.3,1.91-.27,1.62.06,3.23.21,4.84.32-1.13,1.25-2.11,2.69-3.43,3.69-.8.61-2.11.54-3.2.78.56.58,1.13,1.16,1.69,1.75,1.86-.47,3.71-.93,5.7-1.43-.94,5.72-1.79,5.96-6.25,3.74-2.13-1.06-4.92-.81-7.41-1.15.03-.41.07-.82.1-1.23,1.97.11,3.95.23,6.39.37-.12-2.29-.23-4.35-.35-6.57Z"/>
        <path class="cls-2" d="M374.95,244.85c-1.46,4.49-2.92,8.97-4.41,13.55v-8.89c-2.44,0-5.13.16-7.78-.09-.93-.09-1.76-1.19-2.64-1.82.84-.58,2.16-1.85,2.46-1.65,4.49,3.12,8.39-.44,12.52-.94,0,0-.15-.17-.15-.17Z"/>
        <path class="cls-2" d="M356.56,347.12v1.48c-2.62,1.19-5.04,3.25-7.16,2.98-2.14-.27-3.98-2.86-5.96-4.43.24-.34.48-.69.72-1.03,4.1.33,8.21.66,12.39,1Z"/>
        <path class="cls-2" d="M351.36,248.7c.71.57,1.75,1.4,2.79,2.23.09.53.19,1.06.28,1.6-2.28.59-4.57,1.15-6.84,1.78-3.7,1.04-3.04-1.21-1.66-2.66,1.31-1.38,3.47-1.94,5.42-2.95Z"/>
        <path class="cls-2" d="M387.58,311.56q0-6.39,8.12-6.18c-2.64,2.85-4.76,5.15-6.88,7.44l-1.24-1.26Z"/>
        <path class="cls-1" d="M265.71,127.54c2.56,1.67,4.86,3.17,8.13,5.3-8.12.03-8.32-.13-8.13-5.3Z"/>
      </g>
    </g>
  </g>
</svg>