<?xml version="1.0" encoding="UTF-8"?>
<svg xmlns="http://www.w3.org/2000/svg" version="1.1" viewBox="0 0 500 500">
  <defs>
    <style>
      .cls-1 {
        fill: #fff;
      }

      .cls-2 {
        display: none;
      }

      .cls-3 {
        fill: #b3b3b3;
      }
    </style>
  </defs>
  <!-- Generator: Adobe Illustrator 28.7.1, SVG Export Plug-In . SVG Version: 1.2.0 Build 142)  -->
  <g>
    <g id="_Слой_2" data-name="Слой_2" class="cls-2">
      <rect class="cls-3" x="-19" y="-7" width="612" height="563"/>
    </g>
    <g id="_Слой_1" data-name="Слой_1">
      <g>
        <path class="cls-1" d="M266.8,393.2c4,4,12.4,8.2,12.9,8.4,1.9,1.1,4.4,1.8,6.6,1.9,7.6.2,15.2,0,22.7,0,8.6,0,16.1-3.5,22.2-8.8,4.9-4.2,8.8-7.3,14.7-3.7-3.8,16.4-16.5,22.1-31.3,24.1-10,1.4-20.3,2.2-30.2,1.1-6.6-.7-13-4.7-19.1-7.9-8.9-4.7-17-11.1-26.3-15-14.8-6.2-30.3-9.2-46.4-3.6,1.1-1,.1.4-4.9,1.4-6,2-4.1,1.1-7,2-4.9,1.5-3.3.8-8,3-.8.4-3.7,2.3-4,3-4.5,9.1-10.8,10.2-16.8,18.2-1.6,2-5,2.7-7.5,4-.2-3.4-1.9-8.1-.3-10,9.6-11,18.2-23.1,32.7-28.9,7.5-3,14.3-7,22.7-7.8,3.8-.4,22.3.6,32.3,1.6"/>
        <path class="cls-1" d="M206.9,216c-2.1,2.4-3.5,4-4.9,5.7-3.7,4.1-7.2,3.9-10.9,0-5.1-5.4-10.5-10.5-17-17.1v28.7c-6.3.9-9-2-9.2-7.2-.1-4.4-1.4-7.8-3.8-11.7-3.5-5.8-4.6-13-6.7-19.7-.5-1.6-.4-3.9-1.5-4.6-4.6-3.3-4-7.9-3.5-12.4.2-1.8,2.1-3.5,3.2-5.2,1.9,1.4,5,2.5,5.4,4.3,1.3,4.9,4,7.5,9.4,9.2,0-6,0-11.2,0-16.4,0-7,2.4-13,7.9-17.2,1.7-1.3,5.7-1.3,7.5,0,4.6,3.1,7.6,7.5,6.8,13.7-.2,1.6.8,4.2,2.1,4.8,3.4,1.7,4.1,4.3,2.1,6.8-2,2.6-4.9,5.4-7.9,6.2-2.5.6-5.9-1-5.9-5.5,0-4.4-1-8.8-1.8-15.1-5.3,9.7-3.6,19.2-6.2,28.8,14.1-1,26.1.8,26.2,19.4l2.2-1.4c.1-2.3.6-4.7.3-7-1-9.1-2.2-18.2-3.5-27.2-.7-4.6,1.3-8,4.8-9.7,4.5-2.2,4.7-5.7,4.3-9.6-.7-8.1,1-15.2,7.5-20.7,3.8-3.3,10.2-3.3,13.8.2,7.2,7,14.1,14.2,14,25.4,0,3.3,5.3,4.8,8.8,2.8,1.1-.7,2-1.7,2.8-2.7,8-10,12.2-8.8,22.9-1.6.5-6.2-.3-13.1,8.8-16.3.7,3.8,2,7.4,1.9,11-.2,6,2.4,7.1,7.6,6,1.7-.3,4.3,0,5.4,1,5.4,5.1,11.9,9.7,11.2,19.1,2.6-10.2,10.9-15.5,16.9-22.6,4-4.6,9.3-5.4,13.2-2.9,4.4,2.8,8.7,7.8,6.8,14.1-2.7,9.1-5.5,18.3-13.7,24.3-3.3,2.4-7,4.5-10.6,6.5-5.3,2.9-2.4,7.7-2.5,11.6,0,1.8,3,4.6,5.1,5.1,4,1,8.1.4,10.9-3.6,1.3-1.9,3.1-3.7,5.1-5,1.3-.8,3.3-.5,5-.6.1,1.8,1,4,.3,5.4-4.7,9.1-17.6,16.3-26.8,12.7-5.3-2.1-8.7-9.1-12.7-14.1-1-1.3-1-3.3-1.8-6.1-3.4,3.7-6.1,6.3-8.3,9.3-3,4-6.9,4-11,3.3-5.8-1-9.4,1.3-8.6,7,1.3,9.6-3.3,15.5-11.3,21.1-4.9-11.4.6-22.9-1-35.7-2.8,2.2-5,3.6-6.8,5.3-6.5,6.3-11.3,5.2-14.9-3.3-5-11.7-2-22.8,2.3-33.8.2-.4.2-.8.2-1.2,0-.4-.2-.8-.4-1.3-1.8.2-3.6.5-6.1.8.2,2,.7,4.1.6,6.1-.1,4.2-.5,8.4-1,12.5-.3,2.1-1.8,4.1-1.7,6.1.9,8.7-5.3,13-10.5,18.1-4.8,4.8-11.9,5.2-17.1.8-1.1-1-2-2.3-3.6-4.2ZM212.8,176.7c0,9.9-.4,21.3.3,32.7.1,2.5,3.5,5.2,6,6.9.8.5,4.5-1.6,5.5-3.2,3.3-5.5,7.2-10.7,6.5-17.9-.3-3.2.7-6.6,1.8-9.7,1.2-3.4.2-4.7-3.1-5.3-5.5-1-11-2.2-17-3.4ZM232.3,170.3c-1.1-8.8,3.3-18.4-4.3-26.1-1.7-1.7-5.3-3.6-6.9-2.9-2.4,1.1-4.5,4.1-5.5,6.8-.9,2.5-.2,5.5-.2,8.4,0,11.6,4.6,15.5,16.9,13.8ZM284.8,203.7c.7,2.1,3.2,2.9,4.9,1.6,3.5-2.7,3.6-2.7,7.3-8.3s2.5-8.4,3-11c1.2-6.2-2.7-11.7-6.1-17.7-8.3,6-12.6,24.6-9.1,35.4ZM265,161c-4.5,1.5-5.5,4.7-7,8s-4,9-6,14-4,33,7.6,13.3c1.1-1.3,2.1-1.9,2.5-2.8,2.1-4.4,3.3-9.6,6.2-13.3,6.6-8.4,7-11.4-3.3-19.1ZM337,162.1c-9.4,8.5-13.9,19.7-10.8,27.9,4.2-4.2,8.3-7.9,11.8-12.2,3.7-4.7,3-11.3-1-15.7Z"/>
        <path class="cls-1" d="M163.8,485.2c-3.9-4.3-3.9-7.3-.8-10.5,3.7-3.7,6.6-8.5,10.9-11.1,8.6-5.3,12.5-15.7,23.4-19,9.3-2.9,17.6-1.6,26.1.6,7.1,1.8,14.3,3.9,21.1,6.7,4.4,1.8,8.7,4.6,11.9,8,3.6,3.7,6.3,8.1,10.5,11.2s4,3,9,5c8.9,3.5,18.4,3.6,27.8,2.5,7.9-.9,15.6-3.8,23.2-6.4,2.8-.9,5.4-3.1,7.4-5.4,6.4-7,14.7-7.1,22.3.8-9.7-2.9-15.1,3.1-20.7,8.4-7.4,7-15.8,11.4-26.2,12-6.5.4-12.9,2.2-19.4,2.3-6,.1-11.6-2.3-17.4-4.4-13-4.7-21.4-15-31.9-22.6-6.9-5-14.3-8.9-23.2-8.1-8,.7-16.4.4-23.7,3-6.1,2.1-11.2,7.5-16.2,12-4.8,4.3-9,9.4-14,14.6Z"/>
        <path class="cls-1" d="M261.8,61.9c-.3-6-.5-10.9-.9-15.8-.2-2-.3-4.6-1.6-5.9-1.9-2-6.1-4.8-7-4.2-3.7,2.6-8,6-9.2,9.9-1.8,6-1.5,12.7-1.6,19.2-.1,5.7,3.1,7.8,7.7,4.9,4.8-3,7.7-1.4,11.9,1.4,12.4,8.1,12.4,20.1,11.4,32.6-1,13.9-9.1,21.7-22.2,21.6-5.2,0-15.5-9.5-16.9-14.7-5.3-19.6-1.9-39.5-2.3-59.2-.2-11.7,14.1-23.6,25.3-20.8,5.2,1.3,10.2,7.4,13,12.6,2,3.6.5,9.3.4,14.1-.1,5.4-4,3.7-8.2,4.2ZM242.7,98.9c0,4.3-.3,8.7.2,13,.2,2,1.7,4.8,3.3,5.5,7.5,3.5,17-2.9,17.3-11.4.2-6.5.1-13,0-19.5-.1-5.4-4.3-9.1-10.1-9.1-6.2,0-10.5,3.6-10.7,9.2-.1,4.1,0,8.2,0,12.3Z"/>
      </g>
    </g>
    <g id="_Слой_3" data-name="Слой_3">
      <path class="cls-1" d="M249.7,242.4c11.4,0,22.8,0,34.2,0,.9,0,1.7,0,2.6,0,3.3.1,5.4,1.8,6.3,5,.6,2,1.2,3.9,1.6,5.9.2,1.1.7,1.4,1.8,1.3,1.1,0,2.2,0,3.4,0,2.9.2,4.3,1.9,3.8,4.8-.3,1.4.1,2.3,1,3.3.9,1.2,1.6,2.7,2,4.2.4,1.8-.4,2.6-2.3,2.8-1.2.1-2.9-.2-3.5.5-.7.7-.4,2.4-.5,3.6-1.7,18.2-3.4,36.4-5.1,54.6-1.7,17.6-3.3,35.2-5,52.8-.6,6.2-1.2,12.3-1.6,18.5-.1,1.9-.8,2.7-2.7,3.1-16.3,3.1-74-19.3-74.8-27.5-1.1-11.1-2.3-22.1-3.4-33.2-1.3-12.4-2.5-24.7-3.8-37.1-1.1-11.2-2.3-22.4-3.4-33.6-.1-1.5-.7-2-2.1-1.8,0,0-.1,0-.2,0-1.3-.4-3.6-.5-3.8-1.1-.4-1.4,0-3.3.7-4.6,1-1.7,1.7-3,1.3-5.1-.5-2.4.8-3.8,3.3-4.2.4,0,.8-.1,1.2-.1q4.3-.2,5.5-4.4c2-7.1,3-7.8,10.3-7.8,11.1,0,22.2,0,33.4,0,0,0,0,0,0,0ZM207.3,324.2h85.7c1.7-18.1,3.3-36.1,5-54.1h-96c1.8,18.2,3.6,36.1,5.4,54.1ZM265.1,403c6.4-.4,12.7-1,19-2.1,1.3-.2,1.8-.7,1.9-2.1.5-6.5,1.2-13,1.8-19.4.2-2,.3-4,.5-6.2-25.4,3.1-50.5,3.1-75.7,0,0,.8,0,1.3,0,1.8.8,8,31.4,16,43.4,21s5.4,7.3,9.1,7h0ZM213.7,370.8c.1,0,.6.2,1.1.2,10.5,1.6,21.1,2.1,31.7,2.1,3.2,0,3.2,0,3.2-3.2,0-13.6.2-27.1.3-40.7,0-1.9.8-2.3,2.5-2.3,3.4,0,6.7,0,10.1,0,2.2,0,4.4,0,6.6,0,0,0,0-.2,0-.3h-61c1.1.3,2,.6,3,.8,0,.2-.1.4-.2.7h-2.9c.6,5.7,1.2,11.2,1.7,16.8.3-1.2.6-2.4.5-3.5,0-1.2-.6-2.4-.9-3.5-.5-1.9.3-5,1.6-5.9.2.4.4.7.4,1,.8,7.7,1.7,15.5,2.4,23.2.4,4.2.6,8.3.7,12.5,0,.7-.7,1.4-1,2ZM251.7,372.8h10c-.7-1-1.1-2.2-1.6-2.2-1.7-.1-3.5-.1-5.2.3-1.3.3-2.3,1.4-3.2,1.9ZM269.8,332.5h0c-.1-.8-.1-1.6-.4-2.3-.2-.5-.7-.8-1.1-1.1-.3.4-.7.8-.9,1.3-.2.7-.2,1.4-.3,2.1-.2,1.2,0,2.4,1.4,2.5,1.6.1,1-1.3,1.2-2.1,0-.1,0-.3,0-.4ZM212.4,369.4h.4c-.7-7.1-1.4-14.1-2.2-21.1-.1,0-.3,0-.4,0,.7,7,1.5,14,2.2,21Z"/>
    </g>
    <g id="_Слой_4" data-name="Слой_4">
      <g>
        <path class="cls-1" d="M168.7,423.7c.2,0,.5,0,.9-.2.3-.1.8-.3,1.3-.4,1,.2,1.8.8,2.5,2,.7,1.2,1,3,1.2,4.9,0,.6.2,1.4.3,2.3.1,2.6-.5,5.1-1.9,9.1-1.3,4-3,7.8-4.8,10.8-.8,1.2-1.6,2.1-2.4,2.8s-1.9,1.7-3.4,2.8c-.6.4-1.4.8-2.4,1.2-1.1.4-1.9.8-2.5,1.2-.7.5-1.2.8-1.5,1-.3.1-.6,0-.7-.2-.2-.3-.3-.8-.3-1.8v-1.4c1-.8,1.5-1.1,2.6-1.9.2-1.3.4-3.2.5-5.5,0-1.1.2-2.8.2-4.3,0-1.5,0-2.7,0-3.8,0-1,.1-2.2.3-3.3,0-.6,0-.9,0-1.5,0-1.5,0-2.3,0-3.8,0-3.1,0-4.8.1-9.2,0-3.5.1-5.4.2-8.6-1.2.9-2.2,1.4-2.8,1.7-.6.2-.9,0-.9-.9.4-.7,1-1.3,1.7-1.9.7-.6,1.7-1.4,3-2.3,3.1-2.2,5.3-3.7,7-4.6,1.6-.9,2.8-1.2,3.5-.8,0,.2.2.3.3.5,0,.1.1.3.2.4.4.6.6,1.2.7,1.7.1.6,0,1.6.1,2.5,0,.3.1,1,.1,1.7,0,1.3-.4,2.9-1,4.6-.6,1.7-1.3,3.3-2.1,4.6,0,.3,0,.4.2.4ZM163.3,414.3c-.1.6-.2,1.5-.2,2.8,0,2,0,3.5,0,4.5,0,1,.2,1.8.6,2.4.1,0,.3,0,.4,0,.2-.2.4-.4.7-.9.2-.4.5-1,.8-1.7.3-.5.4-.8.7-1.3.4-1.7.8-3.1,1.1-4.3.3-1.2.4-2.2.4-3,0-.8,0-1.6-.2-1.8-.2-.2-.8-.2-1.4.1-.6.3-1.3.7-2,1.2-.4.7-.7,1.4-.8,2ZM168.7,444.3c.4-.8.7-1.6.8-2.4.2-.8.3-1.7.3-2.4.5-.7.7-1.2.8-1.3,0-.2,0-.4,0-.8.2-.6.3-1.3.3-2.2,0-.4-.1-1.2-.3-2.5-.1-.9-.2-1.5-.3-1.8,0-.6,0-.8,0-1.4,0-.3,0-.6-.2-.8,0-.2-.3-.5-.5-.8,0,0,0-.2,0-.2,0-.2,0-.3-.1-.5,0,0-.1-.2-.2-.3-.1-.2-.3-.4-.5-.6-.9-.2-1.8,0-2.7.3-1,.3-1.9.8-2.7,1.5-.4.6-.6,1.2-.6,1.8,0,.6,0,1.2,0,1.8.2,4.9.8,6.4.4,12.4-.2,2.6-.3,4.6-.5,8.4,1.1-.8,2-1.5,2.6-2.1.7-.6,1.2-1.4,1.6-2.2.7-1.5,1.1-2.3,1.8-3.7Z"/>
        <path class="cls-1" d="M215.8,427.1c0,1.3,0,2.5.2,3.7,0,1.1.3,2,.6,2.7,0,.2.2.4.5.5.3.1.6.2.8.4.2.2.3.4.3.9-.9.1-2,.1-3.3,0-.7,0-1.8-.3-3.3-.5-1.6-.3-2.8-.4-3.5-.4,0-.3,0-.6.2-.9.1-.4.3-.6.6-.6.3,0,.4,0,.7,0,.4-2.7.6-5.1.7-9.1,0-4,.1-11.5.1-16.7,0-3.4,0-4.6,0-7.7,0-.8,0-1.5.2-2.2,0-.2,0-.4,0-.7,0-.3,0-.5,0-.9,0-.6-.1-1.1-.3-1.6-2.7-.2-4.1-.2-6.9,0,0,2.3-.1,5.9-.4,10.5-.3,4.9-.4,10.8-.4,14.3,0,4.5,0,6.1,0,9.2,0,1.3,0,1.9,0,3.2,0,.3,0,.6.2.8.2.2.4.4.6.5.2.2.4.3.6.5.1.2.2.4.2.6,0,.2,0,.3,0,.5-.1.3-.5.5-1.1.7-.6.2-1.4.4-2.3.6-1.4.3-2.6.5-3.6.6-.4,0-.6,0-.6-.2,0-.2,0-.5,0-1,0-.3,0-.5.2-.6.1-.2.3-.4.6-.6,0,0,.2-.2.3-.3.2-.2.3-.3.5-.5,0-3.7.1-4.8,0-9,0-1.1,0-1.7,0-3,0-4.3,0-6.9,0-10.7,0-1.2,0-1.7,0-2.7,0-.8,0-2.1.2-4,.1-2.1.2-3.7.2-4.8,0-1.8,0-3.3-.2-4.7-.6.1-1.2.2-1.6.2-.4,0-.6-.1-.6-.5.4-.7,1-1.2,2-1.4.4,0,.9,0,1.3-.1.5,0,.9,0,1.1,0,.9-.1,1.4-.2,2.3-.2,5.4-.4,8.2-.2,13.6.7.5,0,.8.4.8.9,0,.4-.1.7-.4,1-.3.3-.7.4-1.1.3,0,10.8,0,21.6,0,32.4Z"/>
        <path class="cls-1" d="M236.3,438.5c-.4.3-.7.4-1.1.5-1.4.4-2.9.3-4.5-.2-1.6-.5-3.1-1.4-4.6-2.6-1.4-1.2-2.5-2.5-3.2-3.9-1-1.9-1.9-3.8-2.4-5.9-.4-1.5-.6-3.5-.6-5.5,0-2-.1-4.8-.2-7.8,0-.5,0-1.2,0-2,0-.9,0-1.5,0-1.9,0-.7,0-1.3.1-1.9,0-.1,0-.5.2-1.2s.1-1.2.2-1.6c0-.2.1-.7.3-1.4.1-.6.2-1.2.3-1.5.1-.4.3-.6.5-.8.3-.2.7-.8,1.2-1.5.7-1,1.4-1.7,1.9-2.2.5-.5,1.2-.9,2-1.1.8-.2,1.7-.2,2.8.2.5.2.9.3,1.1.4,1.3.6,2.6,1.1,3.5,1.9.9.8,1.6,2.1,2.5,3.2.8,1.2,2.1,2.7,2.9,4.6s1.3,3.8,1.5,5.8c.1,1,.2,2.2.2,4.4,0,.9,0,1.3,0,2.3,0,3.7-.2,7.3-.5,9.8-.7,4.9-1.7,7-3.1,9.1-.2.3-.5.6-.9.9ZM235,433.2c.4-1.1.6-2.1.8-3,.2-1.1.5-2.5.6-4,0-1.5,0-3.5,0-5.9,0-.8,0-1.8.1-3,0-.2,0-.6,0-1.1,0-.5,0-1,0-1.5,0-.4,0-1,0-1.5,0-.5,0-.9,0-1.1-.1-1-.2-1.8-.2-2.2-.3-.6-.5-1.4-.8-2.5-.3-1.1-.5-2-.8-2.6-.2-.4-.2-.6-.4-1-.5-1.1-.9-2-1.2-2.7-.3-.7-.8-1.2-1.3-1.7-.5-.2-1-.4-1.5-.6-.5-.2-1.1-.4-1.6-.6-.7.5-1.3,1.1-1.7,1.8-.4.7-.8,1.7-1.2,2.6-.3.5-.5,1.2-.6,1.8,0,.7,0,1.6-.1,2.5,0,1.4-.3,3.3-.2,6.1,0,5,.4,12,1.2,16.3.2.4.3.8.5,1.2.1.4.2.7.3.8.2.6.3,1,.4,1.3.1.3.3.6.5.9.2,0,.3.1.4.2,0,0,.1.3.2.5,0,.3.2.5.3.7.4.5,1.1.9,2,1.2.8.2,1.5.3,2.2.3.7,0,1.1-.2,1.3-.6.3-.7.6-1.6,1-2.7Z"/>
        <path class="cls-1" d="M260.5,456.2c0,.6,0,1.7,0,3.1,0,.7-.3.8-.9.4-.3-.2-.7-.6-1.1-1.1-.2-.3-.3-.7-.3-1,0-.4,0-.9,0-1.6,0,0,0-.3,0-.7,0-.4,0-.7,0-.9,0-.3-.1-.5-.2-.7-.2-.4-.3-.7-.4-.8-.1-.2-.2-.3-.4-.4-.7-.5-2.1-1.5-3.4-2.4-.5-.3-.7-.5-1.1-.8,0,0,0,0,0,0-.8-.5-1.5-1-2.2-1.4-2.1-1.4-4-2.4-5.5-3.2-.6-.3-.9-.5-1.6-.8,0,.3,0,.6.1,1,0,.2,0,.7.2,1.3,0,.7.1,1.2.1,1.7,0,.8-.1,1.4-.3,1.4-.2,0-.5-.1-.7-.2-.6-.3-1-.7-1.1-1.2-.2-.6-.3-1.3-.4-2.4,0-.1,0-.5,0-1,0-.6-.2-1.1-.3-1.5,0-.2,0-.5,0-.9,0-.4,0-.6,0-.8,0-.5.1-.6.4-.5.3.1.5.2.8.4.2,0,.7.2,1.5.6.2-.4.4-.7.4-1.1s.1-.9.1-1.6c0-.4,0-.9,0-1.4.2-2.2.9-6,1.8-12.5.3-2.4.5-3.6.9-5.6,1.1-6.4,1.7-9.8,1.8-14.6.3-.2.4-.3.7-.5.8,0,1.5.2,2,.5.6.2,1,.6,1.4,1.1.4.5.7,1.1.9,1.9.3,3.1.7,6.4,1.3,10.1.6,3.6,1.3,9.7,2,18,.9,9.5,1.3,12.4,1.6,14.8.3.2.6.4.8.7.2.2.4.5.6.9.1.1.3.4.4.7,0,.2,0,.3,0,.6,0,.1,0,.2,0,.3,0,0,0,0,0,.1.1.9.2,1.7.2,2.4ZM249.5,418.2c-.3,1.6-.8,4.8-1.4,9.4-.6,4.6-1.2,7.9-1.5,9.7s-.6,3.6-.7,5.5c3.1,1.7,4.6,2.6,7.5,4.5,0,0,0-.2,0-.3,0-.2,0-.3,0-.5-.1-3-.5-6-.9-12.6-.3-4.4-.5-8.1-.7-10.4-.2-2.3-.3-4.2-.3-6,0-.8-.1-1.6-.4-2.4-.2-.8-.5-1.3-.8-1.5-.2,1.6-.4,3.1-.7,4.7Z"/>
        <path class="cls-1" d="M272.8,450.9c0-3.2,0-7-.2-10.2-.3-.2-.9-.8-1.7-1.7-1.1-1.3-2-2.2-2.7-2.6-.3.4-.5,1.1-.6,2.1,0,1-.2,2.5-.2,4.3-.3,2.1-.6,4.3-.8,6.1-.2,1.8-.9,4.7-.4,6.7,0,.3.3.6.5.7.1.1.3.2.5.4.2.1.3.3.5.4s.2.3.3.6c0,.4,0,.8,0,1.1,0,.3,0,.5,0,.5-.5.1-1,0-1.5-.4,0,0-.2-.1-.5-.3-.4-.3-.7-.6-1.1-.9-.4-.4-.8-.7-1.1-.9-.5-.3-.9-.6-1.3-.7-.5-1.1-.8-1.6-1.3-2.7.8-.5,1.5-.5,2-.1.3.2.5.2.6,0,0-.2.1-.6.2-1.2.3-1.9.8-4.2,1.5-11.3.6-6,1-10.1,1.2-11.5.1-1.3.2-2.4.4-3.4.2-1,.6-2,.8-2.7.4-1.2.6-2.6,1-3.6.4-1,1-2,1.6-3.1,0,0,.1,0,.3-.2.1,0,.3-.1.6-.2.2,0,.5,0,.7.2.2.2.5.4.7.7.4.5.7,1.2,1.1,2.2.4,1,.7,1.9.9,2.9.2,1,.4,1.7.4,2.3.4,1.6.7,3.2.9,5,.2,1.9.4,5.4.5,15.7,0,5.7.1,10.1.2,13.2,0,2-.1,3-.2,5,0,.1,0,.3,0,.5,0,.2.1.3.1.4.2.4.3.8.3,1,0,.3-.2.5-.6.5-.3-.2-.4-.4-.7-.6-.5-.3-1.1-.6-1.6-.8-.2,0-.4-.2-.7-.4-.3-.2-.6-.4-.9-.5,0,0-.3-.1-.5-.2-.2-.1-.4-.2-.5-.3-.3-.2-.5-.5-.5-.8,0-.3.1-.6.3-1,.2-.4.4-.7.7-.9s.5-.3.6-.1c.2-3.5.2-6,.3-9.2ZM269.6,424.3c-.3,1.3-.5,2.6-.7,3.9,0,.3,0,.9-.3,1.8-.2,1.1-.4,2.2-.4,2.7.8,1,1.5,1.7,2.2,2.4.7.6,1.4,1.2,2.2,1.7,0-3,.2-4,.1-6,0-1.2-.2-2.7-.4-4.4-.2-1.7-.5-3.3-.8-4.8,0-.1,0-.3-.1-.6,0-.3-.2-.5-.5-.6-.2.2-.3.3-.6.5-.3,1.1-.5,2.3-.8,3.6Z"/>
        <path class="cls-1" d="M287.1,466.8c.5.3.7.6.7,1,0,.3-.2.7-.5,1.1-.6,0-1.6-.2-3.1-.5-1.1-.2-1.8-.4-2.2-.5-.8-.3-1.6-.7-2.2-1.2,0,0,0-.2-.2-.4,0-.2-.2-.4-.3-.7,0-.3-.1-.5-.1-.8.3-.3.5-.4.7-.4.2,0,.5.1,1.1.3.2-.2.4-.7.4-1.4,0-.3,0-.7,0-1.3,0-.5,0-.9,0-1.1,0-.5,0-.7,0-1.2,0-2.4.1-5.6.2-9,0-4.1.1-7.3.2-9.1,0-1.1,0-1.8,0-2.3,0-1.3,0-1.9,0-2.8,0-1.1,0-1.9,0-2.4,0-.7,0-1.1,0-1.3,0,0,0,0,0-.2,0-.5,0-1,0-1.3,0-1.1,0-2.3,0-3.4,0-.5,0-.7,0-1.2,0-.4,0-.7,0-.9,0-.2-.2-.4-.3-.6-.2-.2-.5-.4-.7-.5-.2,0-.4-.2-.5-.3-.1-.1-.3-.3-.4-.6-.4-.5-.5-.8-.5-1.1,0-.2,0-.3.2-.5.1-.1.2-.3.4-.4.1-.1.3-.2.4-.3,1.4.3,3.1.8,5.4,1.4,1.3.3,2,.5,3.4.7.2,0,.3,0,.5,0,.1,0,.2,0,.3,0,.2,0,.5,0,.7.1,1.3.3,2.6,1.4,3.8,3.1,1.2,1.7,2.3,3.8,2.5,5.8.1,1.4,0,2.9-.1,3.8,0,1-.4,1.8-.7,2.7-.3.9-.7,2.1-1.3,3.2-.6,1.1-1.4,2.3-2.3,3.7-.4.7-.7,1.1-1.1,1.8-.7.6-1.4,1-2,1.1-.7,0-1.6,0-2.8-.2,0,0-.1,0-.2,0,0,0-.2.1-.3.3-.1.2-.1.5-.2.9,0,.4,0,1.1,0,1.9,0,.9,0,1.6,0,2,0,.6,0,.9,0,1.4,0,1.5,0,3-.2,4.3,0,.3,0,.7-.1,1.4,0,.7,0,1.2,0,1.8,0,1.1,0,2.2.3,3.3.7.2,1.3.4,1.8.7ZM285.4,442.9c.2.5.4.8.7,1.1.3.3.6.4.9.5.4,0,.7,0,.9-.3.6-.7,1.2-1.8,1.8-2.9.5-1.2.9-2.2,1.1-3.1,0-.3.1-.6.3-1.1.1-.5.2-1,.2-1.5,0-.5,0-1.2,0-1.9,0-1.2-.1-2.3-.4-3.5-.2-1.2-.5-2.2-.9-3-.2,0-.4,0-.6-.2-.2-.1-.3-.2-.4-.2-.6-.4-1.2-.7-1.8-.8-.8-.1-1.2-.2-2-.4-.2,1.2-.3,2.6-.3,4,0,.7,0,1.5,0,2.3s0,1.5,0,1.8c.1,1.5.2,2.8.2,4,0,1.6,0,2.8,0,5.4Z"/>
        <path class="cls-1" d="M317.2,464.7c-.5.5-.9.9-1.3,1.2-1.7,1.3-3.5,2.1-5.4,2.4-1.9.3-3.6.1-5.1-.5s-2.7-1.6-3.4-2.8c-1-1.7-2-3.2-2.5-5.3-.4-1.5-.6-3.7-.7-6.1,0-2.4-.1-5.7-.1-9.2,0-.6,0-1.3,0-2.3,0-1,0-1.7,0-2.1,0-.8,0-1.5.2-2.1,0-.2.1-.6.2-1.3.1-.7.2-1.3.2-1.7,0-.2.2-.7.3-1.5.1-.7.2-1.2.3-1.6.1-.4.4-.7.6-1,.3-.3.8-1,1.4-1.9.8-1.2,1.5-2.2,2.1-2.9.6-.7,1.4-1.3,2.3-1.9.9-.6,2-.9,3.3-1,.6,0,1.1,0,1.4,0,1.6,0,3.1-.2,4.2,0,1.1.3,2.1,1.3,3,1.8,1,.6,2.6,1.4,3.6,2.7,1,1.3,1.6,2.9,1.9,4.7.1.9.2,2.1.2,4.5,0,1,0,1.5,0,2.6,0,4.2-.4,8.6-.9,11.7-1,6.1-2.4,8.9-4.3,12.1-.3.5-.7,1-1.2,1.6ZM315.8,460.1c.5-1.4.9-2.6,1.1-3.8.3-1.4.7-3.2.8-5,.1-1.8.2-4.2.2-6.9,0-.9,0-2.2.2-3.5,0-.3,0-.7,0-1.3,0-.6,0-1.2,0-1.7,0-.5,0-1.1,0-1.6,0-.6,0-.9,0-1.2-.1-.9-.2-1.6-.2-2.1-.3-.4-.6-1.1-.9-2-.3-.9-.6-1.7-1-2.1-.2-.3-.3-.5-.5-.8-.6-.8-1-1.5-1.5-2-.4-.5-1-.8-1.6-1-.6,0-1.2.1-1.8.2-.6,0-1.3,0-1.9.2-.9.8-1.5,1.7-2.1,2.5-.5.9-.9,2-1.4,3.1-.3.7-.6,1.4-.7,2.1,0,.7,0,1.6-.1,2.6,0,1.5-.3,3.5-.4,6.7,0,5.8.4,14.2,1.2,18.3.2.3.4.7.5,1.1.1.4.2.6.3.8.2.5.3.9.4,1.2.1.3.3.5.5.7.2,0,.4,0,.4,0,0,0,.1.2.2.5,0,.2.2.4.3.6.5.3,1.2.4,2.2.3.9-.1,1.8-.4,2.6-.9.8-.4,1.4-.9,1.6-1.4.4-.9.9-2,1.4-3.4Z"/>
        <path class="cls-1" d="M342.7,421.1c-.2,1.1-.5,2.7-1.1,4.3-.4,1.1-1,2.3-1.4,3.2-.4.8-.6,1.3-1,2.3,0,.5,0,.8,0,.9,0,0,.3,0,.7-.1.3.2.8.6,1.6,1.1.8.5,1.3.9,1.5,1.2.7,1.3,1.3,3.1,1.6,5.2.3,2.1.6,4.9.9,7.5.2,1.7.3,2.5.5,3.2,0,.3,0,.8-.2,1.7-.1.6-.2,1.1-.2,1.3,0,.4.1.7.3.8,0,.2,0,.3.2.4.1,0,.4.2.7.3,0,0,.2,0,.3.1.2,0,.3.2.4.3,0,0,.1.2.1.3,0,.3,0,.6-.2,1s-.3.7-.3.7c-.5.5-2.4,1.1-4.3,1.9-1.2.5-1.8.8-3,1.2-.3-.2-.5-.5-.5-.8,0-.1,0-.2,0-.4,0-.1,0-.2.1-.2.7-.9,1-1.3,1.7-2.2.2-.6.3-1.1.4-1.6,0-.3,0-.8-.1-1.4,0-.6-.1-1.1-.1-1.5,0-1.8,0-2.8,0-5.7,0-.5,0-.7,0-1.2,0-2.1-.2-4.2-.6-6.2-.4-2-1-3.1-1.7-3.4-.8-.3-1.6-.3-2.5,0-.8.3-1.9.9-2.6,1.8-.8,1-1.1,3.7-1.2,7.3,0,1.7,0,3.3,0,4.7,0,1.8,0,2.9,0,3.5,0,.4,0,.9-.2,1.2,0,.4-.2.7-.3,1-.3.8-.5,1.5-.5,2,0,1.2,0,1.8,0,2.9.5,0,1,.2,1.3.4.3.2.5.5.5.8,0,.5-.3.9-1,1.4-.3,0-.7,0-1.3.2-.1,0-.2,0-.3,0-.5.1-1.1.4-1.9.8-.9.4-1.5.7-2,.8-.5.1-1,.2-1.5.2-.5-.3-.7-.4-.8-.6,0-.1,0-.3,0-.7.2-.2.5-.5,1-.9.3-.2.5-.4.6-.6.1-.2.2-.3.2-.5,0-1.5,0-2.2.1-3.7,0-2.4.1-3.7.2-7.8,0-.4.1-.9.1-1.4,0-.5,0-.7,0-1.2,0-.5.1-1.2.4-2.3.4-2.1.6-3.7.6-4.8,0-5.5,0-8,0-10-.2-2-.5-3.7-.9-5.2,0-.8,0-1.3,0-2.1-.6.1-1,.2-1.3.2-.3,0-.4-.2-.5-.5-.4,0-.6-.1-.6-.7,0-.2,0-.5.1-.7,0-.3.2-.5.4-.6.2-.2.5-.4.9-.5.1,0,.5,0,.9-.2.9-.1,1.4-.3,1.7-.3.5-.1.7-.2,1.1-.3.8-.3,1.4-.5,1.9-.6,1-.3,1.8-.4,2.4-.4.6,0,.9.3.9.9,0,.2,0,.4-.2.5-.1.1-.3.3-.6.6-.5.4-.9.8-1,.9-.2.6.2,2.2.5,3.8.3,1.6.5,2.8.5,3.8,0,.1,0,.4-.1.9,0,.1,0,.3-.1.6,0,.3,0,.5,0,.7,0,.4.1.7.4.8,1.6-.9,2.8-2,3.7-3.5.9-1.5,1.6-3.2,2-5,0-.6.1-1.4.4-2.4.3-1,.4-1.8.4-2.3-.7.3-1,.4-1.6.7,0-.3-.2-.5-.5-.6-.3-.1-.4-.3-.4-.6.2-.5.6-.8,1-1.1.4-.3,1-.6,1.8-1,.9-.5,1.7-.9,2.1-1.3.5,0,.9,0,1.1.1.2.2.4.4.4.8,0,.4-.1.8-.4,1.2-.3.4-.6.7-1,.9,0,1.3,0,2.5-.3,3.7Z"/>
      </g>
    </g>
  </g>
</svg>