<?xml version="1.0" encoding="UTF-8"?>
<svg xmlns="http://www.w3.org/2000/svg" version="1.1" viewBox="0 0 500 500">
  <defs>
    <style>
      .cls-1 {
        fill: none;
      }

      .cls-2 {
        display: none;
      }

      .cls-3 {
        fill: gray;
      }
    </style>
  </defs>
  <!-- Generator: Adobe Illustrator 28.7.1, SVG Export Plug-In . SVG Version: 1.2.0 Build 142)  -->
  <g>
    <g id="_Слой_1" data-name="Слой_1" class="cls-2">
      <rect class="cls-3" y="0" width="500" height="500"/>
    </g>
    <g id="_Слой_2" data-name="Слой_2">
      <g>
        <path class="cls-1" d="M500,500H0C0,333.33,0,166.67,0,0c166.67,0,333.33,0,500,0,0,166.67,0,333.33,0,500ZM243.45,376.81c21.62.32,42.93-1.42,63.76-7.48,11.93-3.47,24.33-5.92,35.59-10.92,12.32-5.47,24.06-12.66,35.15-20.39,12-8.36,22.29-18.85,29.5-31.89,3.44-6.22,7.28-12.31,9.84-18.88,2.61-6.72,4.17-13.91,5.62-21,.83-4.05-1.45-6.89-5.5-8.34-9.37-3.36-18.48-7.64-28.05-10.17-14.43-3.82-29.04-7.84-43.82-9.33-33.9-3.42-66.46,4.64-98.59,14.47-7.14,2.18-14.21,4.6-21.24,7.12-9.8,3.52-19.33,8.04-29.35,10.68-12.36,3.25-25.03,5.76-37.72,7.27-29.16,3.46-57.72-.2-85.63-9.22-4.37-1.41-6.87.35-6.76,4.94.05,1.96.26,4.12,1.12,5.82,3.53,6.93,7.24,13.77,11.1,20.52,1.72,3.02,3.58,6.12,6.02,8.53,8.7,8.6,17.61,16.98,26.56,25.32,12.45,11.6,27.59,19,42.88,25.7,16.31,7.14,33.69,11.54,51.2,14.48,12.57,2.11,25.53,1.94,38.31,2.78ZM246.32,104.97c-13.89,1.53-25.28,3.11-36.72,3.97-15.87,1.19-31.25,4.6-46.33,9.39-8.38,2.66-16.94,5.3-24.67,9.37-16.29,8.59-31.66,18.45-44.36,32.37-13.53,14.83-23.06,31.44-27.88,50.84-2.18,8.77.52,13.85,9.2,16.78,10.53,3.55,21.28,6.51,31.71,10.33,18.79,6.87,38.34,6.42,57.77,6.23,16.46-.17,32.88-1.22,48.8-6.6,12.41-4.19,25.29-7.01,37.85-10.79,7.62-2.29,14.96-5.52,22.57-7.88,12.84-3.98,25.57-8.88,38.73-11.08,22.56-3.77,45.49-3.57,68.27-1.36,8.03.78,15.9,3.22,23.83,4.97,3.57.79,7.07,2.08,10.68,2.52,6.14.75,8.88-2.5,6.11-7.94-5.32-10.45-10.47-21.19-17.36-30.59-12.63-17.22-29.51-30.06-47.7-40.97-16.49-9.89-34.52-16.89-53.05-21.15-19.53-4.5-39.77-5.93-57.45-8.39Z"/>
        <path d="M243.45,376.81c-12.78-.85-25.74-.67-38.31-2.78-17.51-2.94-34.89-7.34-51.2-14.48-15.3-6.7-30.43-14.1-42.88-25.7-8.95-8.34-17.86-16.72-26.56-25.32-2.44-2.41-4.3-5.51-6.02-8.53-3.86-6.75-7.57-13.59-11.1-20.52-.87-1.7-1.08-3.86-1.12-5.82-.11-4.59,2.4-6.35,6.76-4.94,27.9,9.02,56.47,12.69,85.63,9.22,12.69-1.51,25.36-4.02,37.72-7.27,10.03-2.64,19.55-7.15,29.35-10.68,7.03-2.52,14.1-4.94,21.24-7.12,32.13-9.83,64.69-17.88,98.59-14.47,14.78,1.49,29.38,5.52,43.82,9.33,9.58,2.53,18.68,6.81,28.05,10.17,4.05,1.45,6.33,4.29,5.5,8.34-1.45,7.1-3,14.28-5.62,21-2.56,6.58-6.4,12.67-9.84,18.88-7.21,13.04-17.49,23.53-29.5,31.89-11.1,7.73-22.83,14.91-35.15,20.39-11.26,5-23.66,7.46-35.59,10.92-20.83,6.05-42.13,7.8-63.76,7.48ZM247.28,355.57c21.25-1.72,39.35-.65,56.72-6.76,11.25-3.96,22.93-6.69,34.09-10.87,6.45-2.41,12.65-6.02,18.21-10.12,8.36-6.17,16.4-12.88,23.94-20.02,8.14-7.72,13.16-17.77,18.07-27.73,1.53-3.1.67-6.12-2.44-7.72-4.42-2.27-8.92-4.64-13.66-6.01-21.93-6.35-44.37-9.72-67.13-7.16-14.83,1.67-29.44,5.33-44.14,8.12-.48.09-.93.37-1.4.53-10.75,3.83-21.43,7.89-32.28,11.41-11.5,3.73-23.16,6.93-34.75,10.37-.95.28-1.85.79-2.81,1.04-5.44,1.45-10.83,3.18-16.35,4.19-7.03,1.29-14.15,2.44-21.28,2.87-13.1.78-26.22,1.06-39.34,1.35-3.13.07-6.26-.94-9.4-.98-4.97-.06-5.9,1.2-3.68,5.59,4.68,9.27,13.69,14.26,21.74,19.69,10.8,7.29,22.39,13.36,34.71,18.23,13.26,5.24,26.76,9.36,40.69,11.26,14.47,1.97,29.2,2.02,40.49,2.71Z"/>
        <path d="M246.32,104.97c17.68,2.46,37.92,3.89,57.45,8.39,18.52,4.27,36.56,11.26,53.05,21.15,18.19,10.92,35.07,23.76,47.7,40.97,6.89,9.4,12.04,20.14,17.36,30.59,2.77,5.44.02,8.69-6.11,7.94-3.61-.44-7.11-1.73-10.68-2.52-7.93-1.75-15.8-4.19-23.83-4.97-22.78-2.21-45.71-2.41-68.27,1.36-13.16,2.2-25.89,7.11-38.73,11.08-7.61,2.36-14.95,5.58-22.57,7.88-12.56,3.78-25.43,6.59-37.85,10.79-15.92,5.38-32.35,6.43-48.8,6.6-19.43.2-38.98.65-57.77-6.23-10.43-3.82-21.17-6.78-31.71-10.33-8.68-2.93-11.38-8.01-9.2-16.78,4.82-19.39,14.35-36,27.88-50.84,12.7-13.92,28.06-23.78,44.36-32.37,7.73-4.07,16.29-6.71,24.67-9.37,15.08-4.79,30.46-8.2,46.33-9.39,11.44-.86,22.83-2.44,36.72-3.97ZM347.27,185.08c0-.11,0-.22,0-.32,7.65,0,15.31.1,22.96-.05,2.96-.06,6.03-.32,8.81-1.23.9-.29,1.94-3.55,1.37-4.36-1.98-2.82-4.32-5.6-7.1-7.61-8.72-6.31-17.22-13.18-26.7-18.11-13.33-6.93-27-14.06-41.38-17.94-20.16-5.44-40.91-8.68-62.13-8.79-20.88-.11-41.06,4-61.32,7.7-9.39,1.71-18.77,4.96-27.36,9.14-11.28,5.49-22.27,11.89-32.42,19.24-6.98,5.05-12.68,12.07-18.26,18.78-4.5,5.4-7.92,11.7-11.92,17.53-3.52,5.12-1.83,12.33,3.71,14.12,8.06,2.59,16.12,5.4,24.39,7.04,17.72,3.5,35.68,3.36,53.71,2.88,18.58-.49,36.1-5.44,53.6-10.72,11.58-3.5,22.83-8.1,34.42-11.61,12.85-3.89,25.9-7.08,38.86-10.6,1.28-.35,2.52-.91,3.81-1.19,6.16-1.34,12.27-3.25,18.5-3.74,8.1-.65,16.3-.16,24.45-.16Z"/>
        <path class="cls-1" d="M247.28,355.57c-11.29-.69-26.02-.74-40.49-2.71-13.93-1.9-27.44-6.02-40.69-11.26-12.32-4.87-23.9-10.94-34.71-18.23-8.04-5.43-17.06-10.42-21.74-19.69-2.22-4.39-1.29-5.66,3.68-5.59,3.14.04,6.28,1.05,9.4.98,13.12-.29,26.25-.57,39.34-1.35,7.13-.42,14.24-1.57,21.28-2.87,5.52-1.02,10.91-2.74,16.35-4.19.96-.26,1.85-.76,2.81-1.04,11.59-3.45,23.25-6.65,34.75-10.37,10.85-3.52,21.53-7.58,32.28-11.41.47-.17.92-.44,1.4-.53,14.7-2.79,29.31-6.45,44.14-8.12,22.76-2.56,45.2.81,67.13,7.16,4.74,1.37,9.24,3.74,13.66,6.01,3.11,1.6,3.97,4.62,2.44,7.72-4.91,9.96-9.93,20.01-18.07,27.73-7.54,7.15-15.58,13.85-23.94,20.02-5.56,4.1-11.76,7.71-18.21,10.12-11.15,4.17-22.84,6.91-34.09,10.87-17.37,6.11-35.47,5.04-56.72,6.76Z"/>
        <path class="cls-1" d="M347.27,185.08c-8.16,0-16.35-.49-24.45.16-6.23.5-12.35,2.41-18.5,3.74-1.3.28-2.53.84-3.81,1.19-12.96,3.51-26.01,6.71-38.86,10.6-11.58,3.51-22.83,8.11-34.42,11.61-17.49,5.28-35.02,10.23-53.6,10.72-18.03.48-35.99.62-53.71-2.88-8.27-1.64-16.33-4.45-24.39-7.04-5.55-1.78-7.23-9-3.71-14.12,4-5.83,7.42-12.13,11.92-17.53,5.59-6.71,11.28-13.73,18.26-18.78,10.15-7.35,21.14-13.75,32.42-19.24,8.59-4.18,17.97-7.43,27.36-9.14,20.25-3.7,40.44-7.81,61.32-7.7,21.22.11,41.97,3.35,62.13,8.79,14.38,3.88,28.05,11.01,41.38,17.94,9.48,4.93,17.98,11.81,26.7,18.11,2.78,2.01,5.12,4.79,7.1,7.61.57.81-.47,4.07-1.37,4.36-2.78.9-5.85,1.17-8.81,1.23-7.65.15-15.31.05-22.96.05,0,.11,0,.22,0,.32Z"/>
      </g>
    </g>
  </g>
</svg>