<?xml version="1.0" encoding="UTF-8"?>
<svg xmlns="http://www.w3.org/2000/svg" version="1.1" viewBox="0 0 500 500">
  <defs>
    <style>
      .cls-1 {
        fill: #fff;
      }

      .cls-2 {
        fill: none;
      }
    </style>
  </defs>
  <!-- Generator: Adobe Illustrator 28.7.1, SVG Export Plug-In . SVG Version: 1.2.0 Build 142)  -->
  <g>
    <g id="_Слой_1" data-name="Слой_1">
      <g id="_Слой_1-2" data-name="_Слой_1">
        <g id="_Слой_2">
          <g>
            <path class="cls-1" d="M24.7,327.1c2.6-27.5-3.5-52,0-76.8,1.7-11.9,6.3-23.5,10.8-34.7,1.5-3.8,6.5-7.3,10.7-8.7,8.8-2.9,13.5-7.6,14.6-17.4.7-6.8,2.1-13.6,4.1-20.1,4.8-15.2,11.5-29.8,18.5-44.2,4.1-8.3,9.2-16.2,14-24.2,4.7-7.9,11.4-10.1,20.5-7.7,4.4,1.2,9.1,2.3,13.6,2,2.9-.2,6.5-2.3,8.4-4.7,12.1-14.5,22.9-30.2,36-43.7,10.7-11,23.7-19.8,36.4-28.8,8.2-5.8,17.5-10.2,26.4-14.9,7.2-3.8,14.5-3.4,21.6.5,10.1,5.6,20.8,10.5,30.4,16.9,8.1,5.4,15.1,12.3,22.4,18.8,4.8,4.3,9.8,8.5,13.9,13.4,10.3,12,19.9,24.5,30.3,36.4,2.7,3,7.2,5.5,11.2,6.2,3.8.7,8.1-1.2,12-2.1,7.2-1.8,14.1-1.2,18.3,5.2,9.1,14,16.7,28.7,24,43.8,8.7,18.3,9.2,38.2,17.2,56.3,1.2,2.7,4.6,5.5,7.5,6.3,10.6,3,14.3,9.4,18.1,18.4,12.2,29.6,11.5,60,10.1,93.7-.7,16-3.1,31.8-8.8,46.8-3,7.8-9.4,15.4-11.7,23.4-5.6,19.2-18.9,29.9-30.7,45.4-14,18.2-25.9,32.1-46.8,42.5-8.4,4.2-10,11.7-19.1,14-20.5,5.1-40.8,12-62.4,11.6-3.9,0-8,.4-11.7-.7-10.6-2.9-20.9-4.1-31.5-.4-3.3,1.2-6.2.4-9.3-3-2.4-2.6-9.5-3-13-2.1-27.2,7-38.8,1.9-59.4-1.8-11.5-2.1-22.6-5.2-33.7-8.8-24.6-8-39.5-22.2-55.6-42.5-9.6-12.1-18.2-26.1-27.8-38.1-.3-.4-26.3-48.8-29.3-76.1h-.2ZM189.4,290.3c-2,14.8,2.1,29.7,7.3,44.5,6.7,19.2,13.1,38.4,19,57.9,5.4,17.9,17.4,31.8,28.3,46.4,3.4,4.6,9,5.2,12.4.2,9.5-13.8,20.5-27.1,26.9-42.3,9.6-22.6,15.5-46.7,23.6-69.9,6.6-18.7,5.1-37.6,3.8-56.7-.2-2.7-1.6-5.5-3.3-7.8-3.8-5.2-8.3-9.8-12.1-15-10.4-14.5-24.6-24.8-39.3-34.6-2.7-1.8-8.4-1.5-11.5.1-5.9,3.1-11.4,7.4-16.3,11.9-8.7,8.2-16.8,17-25.3,25.3-8.6,8.4-14.8,17.6-13.7,30.2.3,2.8,0,5.7,0,9.6h0l.2.2ZM274.9,189c3.3-2.9,6.2-4.8,8.2-7.4,5.3-6.8,9.6-14.4,15.4-20.6,10.2-10.9,21.2-21,32-31.3,5.9-5.6,7-12,1.9-18.4-9.4-12-18.9-24-29-35.5-10.9-12.4-24.9-20.8-39-29.5-10.1-6.2-18.1-7.3-27.8,0-8,6.1-17.6,10.2-25.4,16.5-16.8,13.5-30.6,29.6-42.3,47.7-5.1,7.9-4.7,13.9,2.6,20,3.3,2.8,6.7,5.5,9.9,8.5,14.3,13,26.9,27.4,37.2,43.7,1.6,2.5,6.6,4.5,9.7,4,4-.6,8.1-3.2,11.2-6,7.6-6.6,14.1-6.6,21.7,0,3.7,3.2,8.4,5.2,13.6,8.4h0v-.2ZM69.1,250.9c-7.1-.4-11.2,2.9-11.6,9.4-.7,14.2-2.2,28.7-.6,42.7,3.2,27.5,14.8,52.6,26.2,77.8,19.4,42.9,52.5,68.3,99.1,77.1,4.3.8,9.2-.7,13.8-1.2-1.3-4.1-1.7-9-4.2-12.3-10.9-14.6-18.8-30.6-24.8-47.6-3.9-11-8.3-21.9-12.9-32.7-8.7-20-13.5-40.8-14.7-62.4-.2-3.2-2-6.9-4.3-9.2-5-4.8-10.5-9.2-16.3-13.1-13.6-9.1-27.4-17.9-41.3-26.5-2.3-1.4-5.6-1.4-8.4-2h0ZM445.3,284.7c0-3.3.2-6.7,0-10-.2-3.8-.8-7.6-1.3-11.4-1.6-11-5.1-13.6-16.2-11.7-2.6.4-5.2,1.4-7.5,2.8-9.5,5.7-19.1,11.3-28.3,17.4-7.6,5.1-14.8,10.8-22,16.4-5.7,4.5-8.3,9.9-9.3,17.5-2.2,16.5-4.4,33.5-10.5,48.7-12.7,31.6-21.2,65.2-43,92.8-1.8,2.3-1.6,6.1-2.4,9.3,3.4.7,7,2.6,10.1,1.9,9.9-2.2,19.8-4.9,29.4-8.1,20-6.6,37.2-17.1,50.7-33.6,16.9-20.7,27.7-44.3,37-68.7,7.7-20.3,14.1-41.2,13.3-63.3h0ZM90.4,211.9c0,8.4,4,13.8,11.4,17.8,9.1,5,17.8,10.6,26.3,16.4,5.7,3.9,10.6,8.9,16.3,12.9,1.6,1.1,5.2,1.3,6.8.3,4.7-2.8,9.4-5.9,13.1-9.8,9.3-9.9,17.8-20.6,27-30.6,4.6-5,6.3-10.6,2.5-16-6.8-9.7-13-20.3-21.4-28.5-13.2-12.8-27.9-24.2-42.3-35.8-5.2-4.2-13.2-2.9-16.5,3-4.9,8.7-9.3,17.8-12.7,27.1-3.3,9.2-5.2,18.8-7.5,28.3-1.2,4.8-2,9.8-3,14.7h0v.2ZM410.6,212.7c-6.2-24.1-9.4-49.1-23.1-70.8-3.3-5.2-10.8-7.4-15.4-3.9-12.9,9.7-26.2,19-37.6,30.3-10.3,10.2-18.4,22.5-27,34.2-3.4,4.7-4.2,10.2.3,15.1,4.8,5,9.8,9.8,14.5,14.9,4.4,4.7,8.3,9.9,12.7,14.6,3.9,4.1,7.9,8.2,12.5,11.6,3.9,2.9,7.9,1.8,11.9-1.4,8.8-6.9,18-13.4,27.2-19.9,4.5-3.2,9.4-5.9,14.3-8.6,6.4-3.5,9.3-8.9,9.6-16h.1Z"/>
            <path class="cls-2" d="M189.4,290.3c0-3.9.2-6.8,0-9.6-1.2-12.6,5.1-21.8,13.7-30.2,8.5-8.3,16.6-17.2,25.3-25.3,4.9-4.6,10.4-8.8,16.3-11.9,3.1-1.6,8.8-1.9,11.5-.1,14.7,9.7,28.9,20.1,39.3,34.6,3.7,5.2,8.3,9.9,12.1,15,1.6,2.2,3.1,5.1,3.3,7.8,1.3,19,2.8,38-3.8,56.7-8.2,23.2-14,47.3-23.6,69.9-6.4,15.1-17.4,28.5-26.9,42.3-3.4,5-9,4.3-12.4-.2-10.9-14.6-22.9-28.5-28.3-46.4-5.9-19.4-12.3-38.7-19-57.9-5.2-14.8-9.3-29.7-7.3-44.5h0l-.2-.2Z"/>
            <path class="cls-2" d="M274.9,189c-5.2-3.1-9.9-5.2-13.6-8.4-7.6-6.5-14.1-6.5-21.7,0-3.2,2.7-7.3,5.4-11.2,6-3,.4-8.1-1.5-9.7-4-10.3-16.4-22.9-30.7-37.2-43.7-3.2-2.9-6.6-5.7-9.9-8.5-7.3-6.1-7.8-12.1-2.6-20,11.7-18,25.5-34.2,42.3-47.7,7.8-6.3,17.5-10.4,25.4-16.5,9.7-7.5,17.7-6.3,27.8,0,14.1,8.6,28.1,17.1,39,29.5,10.1,11.5,19.5,23.5,29,35.5,5.1,6.4,4,12.8-1.9,18.4-10.8,10.3-21.8,20.5-32,31.3-5.8,6.2-10.1,13.9-15.4,20.6-2,2.6-4.9,4.5-8.2,7.4h0v.2Z"/>
            <path class="cls-2" d="M69.1,250.9c2.8.6,6.1.6,8.4,2,13.9,8.6,27.7,17.4,41.3,26.5,5.8,3.9,11.3,8.3,16.3,13.1,2.3,2.2,4.1,6,4.3,9.2,1.2,21.7,6,42.4,14.7,62.4,4.7,10.7,9,21.7,12.9,32.7,6.1,17,14,33,24.8,47.6,2.5,3.3,2.8,8.2,4.2,12.3-4.6.5-9.4,2-13.8,1.2-46.7-8.8-79.8-34.2-99.1-77.1-11.4-25.2-23-50.3-26.2-77.8-1.6-14,0-28.5.6-42.7.3-6.5,4.5-9.8,11.6-9.4h0Z"/>
            <path class="cls-2" d="M445.3,284.7c.8,22.1-5.6,43-13.3,63.3-9.3,24.4-20.1,48-37,68.7-13.5,16.5-30.7,27-50.7,33.6-9.6,3.2-19.5,5.9-29.4,8.1-3.1.7-6.7-1.2-10.1-1.9.7-3.1.6-7,2.4-9.3,21.8-27.6,30.3-61.3,43-92.8,6.1-15.3,8.3-32.3,10.5-48.7,1-7.6,3.5-13.1,9.3-17.5,7.2-5.6,14.4-11.3,22-16.4,9.2-6.1,18.8-11.8,28.3-17.4,2.2-1.3,4.9-2.3,7.5-2.8,11.1-1.9,14.6.7,16.2,11.7.5,3.8,1.1,7.6,1.3,11.4.2,3.3,0,6.7,0,10h0Z"/>
            <path class="cls-2" d="M90.4,211.9c1-4.9,1.8-9.8,3-14.7,2.3-9.5,4.2-19.2,7.5-28.3,3.4-9.3,7.8-18.4,12.7-27.1,3.3-5.9,11.3-7.3,16.5-3,14.4,11.6,29.1,23,42.3,35.8,8.4,8.2,14.6,18.7,21.4,28.5,3.8,5.4,2,11-2.5,16-9.2,10-17.7,20.6-27,30.6-3.7,3.9-8.4,7-13.1,9.8-1.7,1-5.2.8-6.8-.3-5.7-4-10.6-9-16.3-12.9-8.5-5.8-17.3-11.5-26.3-16.4-7.4-4.1-11.4-9.4-11.4-17.8v-.2Z"/>
            <path class="cls-2" d="M410.6,212.7c-.4,7.2-3.3,12.5-9.6,16-4.9,2.7-9.7,5.4-14.3,8.6-9.2,6.4-18.4,12.9-27.2,19.9-4,3.2-7.9,4.3-11.9,1.4-4.5-3.4-8.6-7.5-12.5-11.6-4.4-4.7-8.4-9.8-12.7-14.6-4.7-5.1-9.7-9.9-14.5-14.9-4.6-4.9-3.8-10.5-.3-15.1,8.6-11.7,16.7-24,27-34.2,11.4-11.2,24.7-20.6,37.6-30.3,4.6-3.4,12.1-1.3,15.4,3.9,13.7,21.7,16.9,46.8,23.1,70.8h-.1Z"/>
          </g>
        </g>
      </g>
    </g>
  </g>
</svg>