<?xml version="1.0" encoding="UTF-8"?>
<svg xmlns="http://www.w3.org/2000/svg" version="1.1" viewBox="0 0 500 500">
  <defs>
    <style>
      .cls-1 {
        stroke: #fff;
        stroke-miterlimit: 10;
      }

      .cls-1, .cls-2, .cls-3 {
        fill: #fff;
      }

      .cls-4 {
        fill: none;
      }

      .cls-3, .cls-5 {
        display: none;
      }
    </style>
  </defs>
  <!-- Generator: Adobe Illustrator 28.7.1, SVG Export Plug-In . SVG Version: 1.2.0 Build 142)  -->
  <g>
    <g id="_Слой_1" data-name="Слой_1" class="cls-5">
      <rect x="-12" y="-6" width="550" height="539"/>
    </g>
    <g id="_Слой_2" data-name="Слой_2">
      <path class="cls-3" d="M63,62h375v375H63V62ZM139.52,244.68c1.71.91,3.23,1.72,5.16,2.75-3.01,1.56-5.83.72-7.75,3.89-1.6,2.64-1.92,4.5-1.14,7.19.46,1.58-1.03,3.79,1.99,4.45.36.08.4,3.15.01,4.68-.37,1.46.73,3.9,2.34,3.98.93.05,1.86.09,2.79.13-.82,1.23-2.05,1.6-2.71,2.43-.88,1.1-2.15,2.85-1.81,3.8,1.63,4.55,6.25,6.93,11.09,6.09v6.39c-2.25-1.44-3.94-2.52-5.74-3.67-1.98,3.31-3.45,7.47-.18,10.21,1.72,1.44,3.95,6.07,8.34,2.51v5.04c-1.03-.89-1.85-1.6-2.67-2.31-.46,1.1-1.27,2.21-1.26,3.31,0,.87.95,2.43,1.57,2.48,3.43.26,3.65,2.38,4,5.13.48,3.75,3.39,5.65,6.01,4.56.84,6.2,2.93,7.81,6.8,6.3,2.04,1.3,3.52,2.23,5.02,3.19-.2,2.05-.41,4.18-.72,7.3,1.86,0,3.6.31,5.17-.08,1.67-.41,3.1-1.8,4.77-2.17,1.24-.27,2.78.21,3.97.8.32.16.18,2.17-.36,2.89-.64.86-1.92,1.24-2.57,1.63,2.92,2.13,5.21,3.69,7.36,5.43.96.77,1.5,2.58,2.45,2.74,3.6.64,7.28.81,11.34,1.19,1.3,2.68,4.38,3.36,7.73,3.51,1.07.05,2.45-.38,3.16.14,3.12,2.28,4.82,1.11,5.93-2.37.38,4.64,3.77.94,5.19,2.66.19-1.45.33-2.55.47-3.65.11.02.22.03.33.05l.44,3.37c.1,0,.2-.02.3-.03.12-1.32.24-2.63.38-4.09,2.69.13,4.56.97,5.74,3.38,1.77,3.6,3.08,3.77,5.91,1.07,3.56-3.39,8.76-2.83,12.35.7,1.05,1.03,3.57.93,5.35.73.93-.1,1.72-1.53,2.79-2.57,2.31,1.1,5.17,2.26,8.13-.16.37-.3,1.5.07,2.14.41,2.73,1.43,5.01,4.21,9.05,2.71-4.55-.21-4.9-1.17-2.77-5.66,1.17.15,2.2.29,3.05.41.8.86,1.89,2.84,2.72,2.74,1.89-.24,4,1.95,5.82-.71,1.48-2.17,6.1-2.26,8.64-.91,1.07.56,2.48,1.13,3.56.89,5.2-1.14,9.7-3.68,13.98-8.05-.71-.42-1.48-.67-1.93-1.19-.6-.7-1.54-1.97-1.3-2.35.5-.8,2.16-1.87,2.5-1.63,3.11,2.19,8.86-.81,10.23,5.36.63-.91.85-1.67.89-2.43.02-.43-.26-.87-.4-1.3.49-.09.98-.26,1.47-.26,1.73-.03,3.45-.01,5.32-.01-.44-2.17-.72-3.54-1.07-5.27,2.91-.2,5.26-.36,7.61-.52-.05-.22-.09-.44-.14-.66l-3.06-.51c7.22-.83,11.9-3.4,8.68-11.92,2.53.07,4.83,1.63,6.21-.98,1.09-2.07,2.07-4.21,3.13-6.39,3.47.88,5.8-1.64,5.75-6.66-1.54,1.65-3.08,2.98-4.16.36-1.06.44-1.94.8-3.36,1.38,2.93-5.08,7.23-6.52,9.57-2.92,1.92-4.27,4.03-8,5.25-12.01.81-2.69,2.06-6.64-1.19-8.23-2.74-1.34-1.41-2.44-.78-3.57,1.37-2.43,3.03-4.7,4.61-7.11-.87-.15-1.54-.27-3.36-.58,3.02-.75,4.97-1.23,6.95-1.72,2.36-5.27-.2-9.7-5.85-10.19-.9-2.59.16-4.1,2.62-5.05.91-.35,1.94-.96,2.43-1.75,1.96-3.16-.94-8.75-4.82-9.56-.63-.13-1.2-.49-2.25-.94,1.45-.8,2.39-1.32,3.56-1.97-1.34-.43-2.32-.74-3.3-1.05.05-.27.09-.55.14-.82,1.82-.55,3.65-1.11,6.22-1.89-.67-2.25-1.32-4.38-1.92-6.52-.1-.34-.13-.76-.03-1.1,1.32-4.4.61-6.87-3.2-9.32-2.26-1.45-2.45-3.27-2-5.54.31-1.53.76-3.09.68-4.61-.05-.86-.88-2.14-1.64-2.4-1.19-.41-2.61-.11-3.94-.11,0-.24,0-.47-.01-.71,1.18-.49,2.37-.98,3.41-1.42-4.23-2.46-8.36-4.87-11.26-6.55-1.75-8.35-3.14-15.76-4.97-23.07-.4-1.59-1.1-3.69-4.05-3.86-2.56-.14-3.48-2.19-3.13-4.24,2.3.42,3.63-1.16,2.54-3.4-1.9-3.91-3.96-7.75-6.26-11.44-.68-1.1-2.44-1.49-3.57-2.37-1.7-1.33-3.27-2.81-4.9-4.22.22-.31.45-.61.67-.92-1.02-.19-2.03-.37-2.35-.43-1.03,1.54-1.6,2.86-2.57,3.68-.71.59-1.96.6-2.98.69-.17.02-.43-.88-.65-1.35.81-.21,1.62-.38,2.41-.64.16-.05.22-.39.65-1.23-1.93,0-3.62.28-5.18-.06-3.19-.69-6.43-1.44-9.37-2.78-.92-.42-.95-2.79-1.38-4.28-.17-.59-.17-1.56-.53-1.71-1.39-.58-2.88-.91-4.34-1.33-.07.22-.13.45-.2.67.69.16,1.39.31,2.1.47-.94.83-1.79,1.58-3.16,2.79-.45-1.68-1.41-3.26-1.03-4.38.47-1.38,2.06-2.39,3.21-3.6-2.98-3.2-5.72-6.43-8.79-9.29-1.08-1.01-2.98-1.14-4.95-1.83.41-4.46-4.35-6.14-7.19-9.39-3.88-4.44-7.5-1.67-11.41-.83-1.96-3.89,2.5-2.25,3.37-3.63-2.5-2.82-2.5-2.79-6.16-2.24-.65.1-1.67.05-1.98-.35-1.64-2.13-2.6-5.16-6.43-3.46-.64.29-2.5-.46-2.64-1.02-.79-3.14-2.48-1.63-4.97-1.14,4.94,1.85-.42,3.15.62,4.63,1.3.32,2.5.62,4.73,1.17-2.95.17-4.76.28-6.77.39-.22-.88-.45-1.77-.5-1.97-.78,1.95-1.74,4.32-2.65,6.61-2.34-1.49-4.2-2.66-6.05-3.83.03-.31.06-.63.1-.94,2.05-.14,4.1-.29,6.32-.44.19-.99.42-2.23.77-4.04-3.67,1.7-7.14,2.71-9.83,4.74-2.03,1.53-3.06,4.37-4.68,6.85-.85.69-1.9,2.07-3.23,2.46-1.64.47-3.51.11-5.42.11,1.67,3.07.25,4-2.85,3.95-2.3-.04-4.28.46-4.1,3.57.17,2.85.04,5.72.04,8.74-.95.11-2.04.24-2.81.34-1.78,2.94-3.05,5.93-6.59,8.14.28-3.31.47-5.54.66-7.77-.31-.15-.63-.3-.94-.45-1.8,2.43-4.13,4.64-5.31,7.34-3.06,7.05-6.92,9.08-14.5,6.83-5.14-1.53-7.1-.56-8.84,4.64-.4-.9-.69-1.58-1.19-2.7-.74,1.37-1.25,2.31-1.99,3.68,1.35.13,2.29.22,4.22.4-1.02,1.65-2.93,3.34-2.69,4.63.66,3.46-2.69,4.33-3.85,4.82-3.39,1.44-5.65,3.12-6.03,6.9-.12,1.16-1.1,2.7-.65,3.37,2.19,3.29,1.45,6.52.88,8.79-2.38.41-4.16.72-6.23,1.08.25.87.76,1.64.59,2.19-1.56,4.87-3.22,9.7-4.89,14.53-1.08,3.13-2.38,5.75-6.6,5.57-3.31-.14-5.71,2.92-6.35,6.29-.5,2.67-1.53,5.24-2.41,7.83-.74,2.17-1.62,4.29-2.45,6.48,1.9.82,3.18,1.37,5.31,2.28-2.32.31-3.76.49-5.78.76.56,2.81,1.07,5.4,1.6,8.11.78-.71,1.24-1.12,1.81-1.64.78,2.61-.05,3.79-2.22,4.8-1.01.47-1.96,2.49-1.82,3.68.22,2,1.34,3.9,2.41,6.71.22-1.89.35-2.98.42-3.63Z"/>
      <path class="cls-1" d="M139.52,244.68c-.07.64-.2,1.74-.42,3.63-1.07-2.81-2.18-4.71-2.41-6.71-.13-1.19.81-3.21,1.82-3.68,2.17-1.01,3-2.2,2.22-4.8-.57.52-1.03.94-1.81,1.64-.53-2.71-1.05-5.3-1.6-8.11,2.02-.27,3.46-.46,5.78-.76-2.13-.92-3.41-1.47-5.31-2.28.84-2.19,1.71-4.32,2.45-6.48.88-2.58,1.91-5.16,2.41-7.83.64-3.37,3.03-6.43,6.35-6.29,4.22.18,5.52-2.43,6.6-5.57,1.67-4.83,3.33-9.66,4.89-14.53.18-.55-.34-1.32-.59-2.19,2.07-.36,3.85-.67,6.23-1.08.57-2.27,1.31-5.5-.88-8.79-.45-.68.53-2.21.65-3.37.38-3.79,2.64-5.47,6.03-6.9,1.15-.49,4.51-1.36,3.85-4.82-.24-1.28,1.67-2.97,2.69-4.63-1.93-.18-2.88-.27-4.22-.4.74-1.37,1.25-2.31,1.99-3.68.49,1.12.79,1.8,1.19,2.7,1.74-5.2,3.7-6.17,8.84-4.64,7.57,2.25,11.44.22,14.5-6.83,1.17-2.71,3.5-4.91,5.31-7.34.31.15.63.3.94.45-.19,2.23-.38,4.46-.66,7.77,3.54-2.22,4.81-5.2,6.59-8.14.77-.09,1.85-.22,2.81-.34,0-3.02.13-5.89-.04-8.74-.18-3.11,1.8-3.61,4.1-3.57,3.1.05,4.52-.88,2.85-3.95,1.91,0,3.79.36,5.42-.11,1.34-.39,2.38-1.77,3.23-2.46,1.62-2.48,2.66-5.32,4.68-6.85,2.69-2.03,6.15-3.04,9.83-4.74-.34,1.82-.58,3.06-.77,4.04-2.22.16-4.27.3-6.32.44-.03.31-.06.63-.1.94,1.85,1.17,3.7,2.35,6.05,3.83.92-2.29,1.87-4.66,2.65-6.61.05.2.28,1.09.5,1.97,2.01-.12,3.82-.22,6.77-.39-2.23-.55-3.43-.85-4.73-1.17-1.04-1.48,4.32-2.77-.62-4.63,2.49-.49,4.19-2,4.97,1.14.14.56,2,1.31,2.64,1.02,3.83-1.7,4.79,1.34,6.43,3.46.31.4,1.33.44,1.98.35,3.67-.55,3.66-.58,6.16,2.24-.87,1.38-5.33-.26-3.37,3.63,3.91-.84,7.52-3.61,11.41.83,2.84,3.25,7.6,4.93,7.19,9.39,1.97.69,3.87.82,4.95,1.83,3.07,2.87,5.81,6.09,8.79,9.29-1.15,1.21-2.74,2.22-3.21,3.6-.38,1.12.58,2.7,1.03,4.38,1.37-1.21,2.22-1.95,3.16-2.79-.71-.16-1.4-.31-2.1-.47.07-.22.13-.45.2-.67,1.45.42,2.95.74,4.34,1.33.35.15.36,1.12.53,1.71.43,1.48.46,3.86,1.38,4.28,2.94,1.34,6.18,2.09,9.37,2.78,1.56.34,3.26.06,5.18.06-.43.83-.5,1.17-.65,1.23-.79.25-1.6.43-2.41.64.22.47.47,1.36.65,1.35,1.02-.09,2.28-.1,2.98-.69.98-.82,1.54-2.14,2.57-3.68.31.06,1.33.24,2.35.43-.22.31-.45.61-.67.92,1.63,1.42,3.21,2.89,4.9,4.22,1.13.89,2.89,1.27,3.57,2.37,2.29,3.69,4.35,7.53,6.26,11.44,1.09,2.24-.24,3.82-2.54,3.4-.35,2.06.58,4.1,3.13,4.24,2.94.17,3.65,2.27,4.05,3.86,1.83,7.31,3.22,14.72,4.97,23.07,2.9,1.69,7.03,4.09,11.26,6.55-1.04.43-2.23.93-3.41,1.42,0,.24,0,.47.01.71,1.33,0,2.75-.3,3.94.11.76.26,1.6,1.54,1.64,2.4.08,1.52-.38,3.08-.68,4.61-.46,2.27-.26,4.09,2,5.54,3.81,2.45,4.52,4.92,3.2,9.32-.1.33-.07.75.03,1.1.61,2.14,1.25,4.26,1.92,6.52-2.57.78-4.4,1.34-6.22,1.89-.05.27-.09.55-.14.82.98.31,1.96.62,3.3,1.05-1.17.65-2.11,1.17-3.56,1.97,1.05.44,1.63.8,2.25.94,3.88.82,6.78,6.4,4.82,9.56-.49.79-1.52,1.4-2.43,1.75-2.46.95-3.52,2.46-2.62,5.05,5.65.5,8.21,4.92,5.85,10.19-1.98.49-3.93.97-6.95,1.72,1.81.31,2.49.43,3.36.58-1.58,2.4-3.24,4.67-4.61,7.11-.63,1.13-1.96,2.23.78,3.57,3.25,1.59,2.01,5.54,1.19,8.23-1.21,4.01-3.33,7.74-5.25,12.01-2.34-3.6-6.64-2.16-9.57,2.92,1.42-.59,2.3-.95,3.36-1.38,1.08,2.62,2.62,1.3,4.16-.36.05,5.02-2.28,7.54-5.75,6.66-1.06,2.19-2.04,4.32-3.13,6.39-1.38,2.61-3.67,1.05-6.21.98,3.21,8.52-1.46,11.08-8.68,11.92l3.06.51c.05.22.09.44.14.66-2.35.16-4.7.32-7.61.52.35,1.73.63,3.1,1.07,5.27-1.86,0-3.59-.02-5.32.01-.49,0-.98.17-1.47.26.14.43.42.87.4,1.3-.04.76-.26,1.52-.89,2.43-1.37-6.17-7.12-3.17-10.23-5.36-.34-.24-2,.83-2.5,1.63-.24.38.69,1.66,1.3,2.35.45.52,1.22.77,1.93,1.19-4.28,4.37-8.77,6.91-13.98,8.05-1.08.24-2.5-.33-3.56-.89-2.54-1.35-7.16-1.25-8.64.91-1.82,2.66-3.93.48-5.82.71-.83.1-1.92-1.88-2.72-2.74-.85-.11-1.89-.25-3.05-.41-2.12,4.49-1.77,5.45,2.77,5.66-4.04,1.5-6.32-1.28-9.05-2.71-.64-.33-1.77-.71-2.14-.41-2.97,2.42-5.83,1.26-8.13.16-1.07,1.04-1.86,2.47-2.79,2.57-1.78.2-4.3.3-5.35-.73-3.59-3.53-8.79-4.09-12.35-.7-2.83,2.69-4.14,2.53-5.91-1.07-1.18-2.41-3.05-3.25-5.74-3.38-.13,1.45-.26,2.77-.38,4.09-.1,0-.2.02-.3.03l-.44-3.37c-.11-.02-.22-.03-.33-.05-.14,1.1-.28,2.2-.47,3.65-1.42-1.72-4.81,1.98-5.19-2.66-1.12,3.48-2.81,4.65-5.93,2.37-.71-.52-2.09-.09-3.16-.14-3.35-.15-6.43-.82-7.73-3.51-4.06-.38-7.75-.55-11.34-1.19-.94-.17-1.49-1.97-2.45-2.74-2.15-1.74-4.44-3.29-7.36-5.43.65-.38,1.93-.77,2.57-1.63.53-.72.68-2.73.36-2.89-1.19-.59-2.74-1.07-3.97-.8-1.67.37-3.1,1.75-4.77,2.17-1.57.39-3.31.08-5.17.08.31-3.12.52-5.25.72-7.3-1.5-.95-2.98-1.89-5.02-3.19-3.87,1.52-5.96-.1-6.8-6.3-2.62,1.09-5.53-.8-6.01-4.56-.35-2.75-.57-4.87-4-5.13-.62-.05-1.57-1.61-1.57-2.48,0-1.1.81-2.2,1.26-3.31.82.71,1.64,1.42,2.67,2.31v-5.04c-4.39,3.56-6.62-1.07-8.34-2.51-3.27-2.74-1.8-6.9.18-10.21,1.8,1.15,3.5,2.23,5.74,3.67v-6.39c-4.85.84-9.46-1.54-11.09-6.09-.34-.95.93-2.7,1.81-3.8.66-.83,1.89-1.2,2.71-2.43-.93-.04-1.86-.08-2.79-.13-1.61-.08-2.71-2.53-2.34-3.98.39-1.54.35-4.6-.01-4.68-3.03-.66-1.54-2.87-1.99-4.45-.78-2.69-.46-4.55,1.14-7.19,1.92-3.17,4.74-2.33,7.75-3.89-1.93-1.03-3.45-1.84-5.16-2.75ZM284.99,209.46c.39.73,1.3,1.89,1.1,2.14-2.97,3.69,1.14,3.52,2.55,4.61,2.56,1.99,5.61,3.45,7.87,5.71,2.89,2.9,5.62,5.59,10.02,5.84,1.02.06,1.99.94,3.17,1.55.21-3.37,1.14-6.39,4.73-7.56.83-.27,1.84,0,2.76.02-.07.89-.07,1.79-.22,2.67-.15.88-.45,1.73-.68,2.6.65-.03,1.31-.14,1.94-.04.35.06.63.5,1.29,1.06v-6.77c.71,1.24,1.22,2.11,2.01,3.49.29-3.24-.33-6.38.96-8.01,1.29-1.64,4.49-1.77,7.68-2.85-.39,3.05-.6,4.73-.82,6.42,2.18-1.97,5.56-3.34,2.9-7.13-.52-.74-.16-2.55.42-3.5,2.49-4.14,2.91-8.57,1.18-12.83-1.33-3.27-1.8-5.54,1.72-6.46-.85-1.98-1.6-3.73-2.42-5.63-.5.18-1.47.53-2.18.79-.69-2.77-2.6-6.38-1.66-7.43,3.48-3.88-2.84-4.2-1.9-6.76-4.4-1.88-6.09-6.64-9.8-9.19-1.42-.98-2.98-3.71-5.13-1.27-3.84,4.36-5.12,4.77-10.32,2.72-.43-.17-1.27.71-2.89,1.69,3.62,1.14,6.14,1.94,8.54,2.7-2.82,2.41-3.58,8.42-8.83,5.83-.09,1.2.01,3.39-.31,3.45-2.18.44-4.46.43-6.87.57.46,1.07.55,1.95.97,2.15,3.16,1.52,2.03,2.22-.36,3.26-1.47.64-3.67,1.95-3.72,3.04-.15,3.49-2.99,2.56-4.78,3.93-.27-1.45-.47-2.51-.67-3.58l-1.13.21c.37,2.98.74,5.95,1.23,9.94-2.41.75-5.48,1.71-9.09,2.83,2.27.14,4.08.26,6.3.4-.38,3.97,1.17,7.18,4.51,9.45-2.92.23-6.09-1.91-8.99.94,1.32.19,2.36.34,3.23.47.22.95.45,1.92.68,2.88.88-2.61.88-2.55,3.74-2.9.48-.06.85-.96,1.27-1.46ZM265.92,211.15c-3.13-2.36-5.82-4.83-8.93-6.56-1.86-1.04-4.52-1.62-6.55-1.17-3.13.7-6.02,2.46-9,3.8-.3.14-.72.47-.73.72-.08,4.06-2.24,4.78-5.76,3.85-.7-.19-1.69.71-2.85,1.24.98,1.12,1.74,1.99,2.49,2.85-1.85,2-3.28,4.17-5.26,5.57-4.3,3.04-7.09,7.33-7.49,12.14-.83,10.11-1.75,20.37,2.6,30.18.79,1.78.12,4.18.28,6.28.13,1.74.5,3.47.79,5.37.94-.14,1.81-.28,2.67-.41,2.26,4.76,2.28,10,4.94,14.62,2.13,3.7,2.41,8.47,3.46,12.57-1.52.26-2.66.46-3.34.58.87,1.78,1.52,3.11,2.26,4.62,6.14-.67,7.91,4.59,10.95,8.38,1.7,2.11,3.95,5.16,6.02,5.22,2.11.06,4.44-2.9,6.41-4.81,1.22-1.19,1.87-2.94,2.92-4.33.9-1.19,2-2.23,3.33-3.67.19,1.12.15,1.55.34,1.83.6.9,1.29,1.74,1.95,2.61.28-.9.54-1.81.85-2.7.21-.59.45-1.18.73-1.74.41-.79.87-1.55,1.68-2.97-1.42.58-2.02.83-3.78,1.55,4.91-15.03,9.52-29.16,14.28-43.73,1.27,1.07,1.78,1.51,2.34,1.97.48-.89.88-1.62,1.41-2.59-1.23-.09-2.1-.16-3.65-.27,3.95-7.86,2.8-15.9,2.81-23.83,0-4.05-.33-7.97-3.23-11.21-1.98-2.21-4.1-4.35-5.72-6.8-2.64-4-4.92-8.22-7.94-13.34-.62,2.05-.9,2.97-1.26,4.17ZM265.78,192.07c2.97-3.88,5.64-7.58,8.55-11.08,1.48-1.77,3.15-3.75,5.18-4.59,2.29-.95,5.06-.72,6.91-.93.09-1.9.52-3.4.12-3.67-2.62-1.75-.79-3.33.22-4.57,1.49-1.82,3.16-3.68,5.14-4.85,4.65-2.75,5.02-7.96,7.32-12.29-1.09.48-2.19.97-3.45,1.52-.11-1.14-.22-2.27-.32-3.36-4.97-.7-5.09-1.09-3.9-5.76.24-.96-1.04-3.29-1.74-3.34-3.76-.27-3.04-2.65-2.96-4.98-3.56-.88-3.29-.79-2.14-4.42.73-2.29-.71-3.55-3.15-3.2.46,2.19.89,4.21,1.38,6.53-5.82-1.41-9.37-4.82-9.39-7.72,2.11-.73,3.98-1.38,5.84-2.03-.12-.5-.23-1-.35-1.5-2.56.53-5.12,1.06-7.83,1.62-.2-.51-.71-1.79-1.52-3.83-.43,1.74-.65,2.63-.96,3.89-1.89-1.33-3.42-2.59-5.12-3.56-1.83-1.05-3.85-1.77-5.73-2.74-2.53-1.31-4.68-3.71-8.03-1.73-2.47,1.46-5.44,2.15-7.74,3.8-4.3,3.08-8.29,6.62-12.31,9.89-2.5-1.38-4.71-2.6-6.93-3.82.43,2.04,1.49,3.26,2.13,4.67.3.66.12,2.13-.37,2.46-1.29.87-2.86,1.32-4.63,2.07-.2.86-.82,2.17-.74,3.43.21,3.1-1.1,4.26-4.12,4.4-.68.03-1.4,1.75-1.85,2.8-.25.57.33,1.54.03,2.05-3.64,6.28-3.67,6.27-4.09,11.08-.34,3.81,3.15,9.13,6.76,9.22,3.82.1,6.04,2.2,7.96,4.78,1.71,2.31,5.17,3.79,4.16,7.61,4.11,1.22,5.83,3.61,3.25,8.03,1.98,0,4.01-.59,4.62.1,3.42,3.82,7.46,2.16,11.6,1.93-.07-1.21-.13-2.23-.26-4.5,1.81,1.15,2.81,2.03,3.98,2.48,2.03.78,5.73,2.23,6,1.77,1.5-2.49,2.9-.97,4.21-.37,1.32.61,2.48,1.58,4.25,2.75ZM208.43,289.57c-1.14-1.55-2.6-2.85-3.2-4.47-2.2-5.97-4.91-11.57-5.59-18.32-.63-6.31-3.17-12.58-3.9-19.16-.26-2.36-2.23-5.44-4.28-6.46-2.83-1.41-4.5-3.07-5.46-5.89-.18-.53-1.08-.86-1.71-1.17-2.63-1.28-5.34-2.42-7.93-3.78-6.24-3.3-12.43-6.7-18.75-10.12,1.15-.86,2.12-1.6,3.3-2.49-1.24-.74-2.02-1.5-2.9-1.65-.79-.14-2.19.12-2.46.64-.46.91-.54,2.24-.27,3.25,1.29,4.82-1.7,7.7-3.87,10,.65,1.72,1.52,2.98,1.54,4.25.07,4.08-.75,8.25-.15,12.23.87,5.76,2.76,11.36,4.04,17.06.33,1.49-.12,3.13,0,4.68.1,1.21.29,2.52.87,3.54.97,1.71,2.54,3.09,3.41,4.84,2.32,4.69,4.4,9.51,6.59,14.27.9,1.96,1.65,4.02,2.81,5.81,2.03,3.11,4.36,6.03,6.5,9.08.68.96,1.14,2.08,1.68,3.09-.72.44-1.6.98-2.34,1.44,1.46,1.65,3.28,4.58,3.97,4.33,2.21-.79,3.18.51,4.64,1.31,4.72,2.58,9.49,5.05,14.36,7.62-3.25,2.42-3.21,2.6,1.54,7.02,1.01-5.77.99-5.7,7.41-4.09,4.21,1.05,8.47,1.99,12.75,2.7,1.18.2,3.07-.22,3.64-1.05.52-.75.03-2.63-.59-3.67-2.24-3.75-4.69-7.36-7.11-11-2.28-3.42-2.52-6.96-.99-10.73.19-.47-.09-1.14-.2-2.19-1.1,1.34-1.81,2.2-2.59,3.14-3.72-5.45-5.81-13.02-4.73-14.07ZM295.37,329.47c2.21-.16,3.58-.07,4.83-.4.96-.25,1.78-1.01,2.67-1.55-2.54-3.02,1.23-2.75,2.1-3.37,2.09-1.48,4.59-2.43,7-3.38,1.1-.43,2.4-.35,3.44-.48.83-1.1,1.61-2.45,2.69-3.51,3.06-3,6.64-5.45,8.93-9.24,1.64-2.71,3.9-5.05,5.56-7.76,2.8-4.57,5.31-9.33,8.05-13.94.32-.54,1.34-.67,1.35-.68.88-3.11,1.51-5.91,2.46-8.6,1.14-3.22,2.87-6.27,3.76-9.54,1.54-5.63,2.58-11.4,3.94-17.08.26-1.09,1.53-2.06,1.51-3.07-.04-2.66-.58-5.31-.85-7.97-.57-5.53-.19-11.25-3.11-16.13-4.71-.52-8.74.29-12.38,3.16-1.7,1.34-3.93,2-5.84,3.09-2.56,1.46-5.21,2.83-7.53,4.61-2.93,2.24-5.64,4.8-8.34,7.33-3.1,2.91-8.06,4.79-6.18,10.63.14.43-.02,1-.14,1.48-2.26,9.05-4.07,18.26-6.95,27.11-2.96,9.11-6.82,17.95-10.6,26.77-1,2.34-3.19,4.16-4.77,6.28-.76,1.02-1.43,2.13-1.99,3.27-1.14,2.36-1.56,5.62-3.4,6.97-2.98,2.18-1.99,4.09-1.52,5.58,6.36.41,12.22.79,17.82,1.15-.38-.11-1.01-.3-2.53-.75ZM174.82,179.84c.23,1.84,1.03,3.57.48,4.6-2.07,3.9-5.25,0-7.87.68-.14.36-.27.73-.41,1.09,2.01.76,4.03,1.51,6.23,2.34-.47,2.89-.68,6.26-1.61,9.42-.9,3.02.58,7.33-4.09,8.58.95,3.29,4.09,5.81,7.81,6.14,2.62.23,3.93,1.26,3.06,3.67.99.74,1.83,1.53,2.82,2.05,1.46.76,2.99,1.43,4.55,1.95,1.86.62,3.93.77,5.66,1.62,4.46,2.22,7.64,7.57,12.42,5.75,4.31-4.81,7.82-8.73,11.59-12.96.25,2.74.44,4.72.62,6.71.47-.01.93-.03,1.4-.04.08-.9.17-1.81.27-2.88.53-.05,1.5-.14,2.32-.21v-3.04c-.87-.23-2.11-.4-2.11-.57,0-1,.08-2.12.55-2.98.67-1.24,1.51-2.51,2.59-3.36,1.97-1.55,4.17-2.81,6.27-4.19.25.35.5.69.75,1.04-.6.89-1.2,1.77-1.96,2.89,2.06.21,3.7.38,5.39.56.41-2.61.77-5.11-2.1-5.85-4.83-1.24-6.19-4.97-7.38-9.04-.26-.9-1.04-1.65-1.6-2.51.65-.32,1.51-.74,3.42-1.69-5.47-1.02-9.27-2.67-12.19-6.49-3.41-4.46-6.43-9.39-5.45-11.96.37,1.18.41,2.36.88,2.58,1.27.59,2.74.76,4.13,1.1.04-.42.07-.85.11-1.27-.9-.09-1.8-.19-2.6-.27-.2-1.32-.36-2.37-.48-3.15h-6.01c-.28-.78-.63-1.72-.98-2.68-5.43,2.39-8.88.78-8.64-2.73,1.45-1.42,2.27-2.22,3.08-3.02-1-.78-2.07-2.28-2.99-2.2-2.01.19-3.88,1.52-5.79,2.19-2.32.82-3.56,4.65-5.29,7.16-2.6,3.77-2.75,9.18-6.84,10.97ZM252.16,341.55c-1.53.28-2.24,1.76-1.46,3.83.6,1.61,1.54,3.1,2.6,5.19,1.3-.7,2.97-1.6,4.45-2.39-1.86-2.2-3.48-4.13-5.58-6.62ZM169.87,325.24c.95-2.02,1.55-3.46,2.29-4.84.72-1.34,1.58-2.6,2.65-4.34h-6.24c.41,2.92.82,5.8,1.3,9.18ZM152.65,240.67c-1.14-.64-2.01-1.4-2.99-1.6-.77-.16-2.08.09-2.44.64-.96,1.43,2.39,6.06,4.29,6.15.36-1.65.73-3.3,1.14-5.18ZM272.88,189.8c.15-.29.29-.58.44-.87.61.22,1.21.54,1.85.64.62.09,1.32.08,1.91-.13.47-.16.81-.68,1.21-1.04-.57-.24-1.17-.44-1.71-.74-1.46-.8-2.89-1.64-4.42-2.51-.3,1.86-.63,3.9-.99,6.15h3.14c.16-.23.32-.45.48-.68-.63-.28-1.26-.55-1.89-.83ZM182.36,150.81c-1.25,2.73-2.04,4.37-2.69,6.07-.04.12,1.12.99,1.33.87,1.44-.86,2.88-1.79,4.02-2.99.17-.18-1.23-1.86-2.66-3.94ZM219.2,177.23c3.13,2.03,4.41.62,5.37-3.03-2.9.79-5.28,1.44-7.46,2.04.69,1.69,1.17,2.88,1.65,4.06.15-.05.3-.1.45-.15v-2.92ZM333.01,173.89c1.23,1.59,2.26,2.92,3.68,4.76.65-2.14,1.11-3.66,1.57-5.19-1.71.14-3.43.28-5.26.43ZM277.84,319.59c-1.08.53-1.82.9-2.55,1.27.16.39.33.78.49,1.17,1.04-.61,2.59-1.01,2.97-1.9.42-1.01-.21-2.46-.39-3.72-.96.6-1.91,1.21-3.29,2.08,1.15.46,1.75.7,2.78,1.11ZM264.28,340.52c.14-.44.28-.88.42-1.32-1.86-.32-3.73-.63-5.72-.97q.18,2.62,5.3,2.28ZM339.97,184.7q3.18,1.61,3.22-1.92c-1.71-.16-3.42-.33-5.7-.54,1.03,1.02,1.76,1.74,2.49,2.46Z"/>
      <path class="cls-4" d="M265.92,211.15c.36-1.2.64-2.12,1.26-4.17,3.02,5.12,5.3,9.35,7.94,13.34,1.62,2.45,3.74,4.59,5.72,6.8,2.9,3.23,3.24,7.15,3.23,11.21-.01,7.93,1.14,15.96-2.81,23.83,1.55.12,2.42.18,3.65.27-.53.97-.93,1.71-1.41,2.59-.55-.47-1.07-.9-2.34-1.97-4.76,14.57-9.37,28.7-14.28,43.73,1.76-.72,2.36-.97,3.78-1.55-.81,1.43-1.27,2.19-1.68,2.97-.29.56-.53,1.14-.73,1.74-.31.89-.57,1.8-.85,2.7-.66-.86-1.35-1.71-1.95-2.61-.19-.28-.14-.71-.34-1.83-1.32,1.44-2.43,2.48-3.33,3.67-1.05,1.39-1.7,3.14-2.92,4.33-1.97,1.91-4.3,4.87-6.41,4.81-2.07-.06-4.32-3.11-6.02-5.22-3.05-3.79-4.82-9.05-10.95-8.38-.74-1.51-1.39-2.84-2.26-4.62.68-.12,1.83-.32,3.34-.58-1.05-4.1-1.33-8.87-3.46-12.57-2.66-4.63-2.68-9.86-4.94-14.62-.85.13-1.73.27-2.67.41-.29-1.9-.65-3.62-.79-5.37-.16-2.1.51-4.5-.28-6.28-4.35-9.8-3.43-20.06-2.6-30.18.4-4.82,3.19-9.1,7.49-12.14,1.98-1.4,3.41-3.57,5.26-5.57-.75-.86-1.51-1.72-2.49-2.85,1.16-.54,2.15-1.43,2.85-1.24,3.52.93,5.67.21,5.76-3.85,0-.25.43-.59.73-.72,2.98-1.34,5.87-3.1,9-3.8,2.02-.46,4.69.13,6.55,1.17,3.11,1.73,5.8,4.21,8.93,6.56Z"/>
      <path class="cls-4" d="M265.78,192.07c-1.77-1.17-2.93-2.14-4.25-2.75-1.32-.61-2.72-2.12-4.21.37-.28.46-3.97-.99-6-1.77-1.17-.45-2.17-1.33-3.98-2.48.13,2.27.19,3.28.26,4.5-4.15.23-8.18,1.9-11.6-1.93-.61-.68-2.64-.1-4.62-.1,2.58-4.42.86-6.81-3.25-8.03,1-3.82-2.45-5.3-4.16-7.61-1.92-2.59-4.14-4.68-7.96-4.78-3.62-.09-7.1-5.41-6.76-9.22.43-4.81.45-4.8,4.09-11.08.29-.5-.28-1.47-.03-2.05.45-1.05,1.17-2.77,1.85-2.8,3.02-.14,4.33-1.3,4.12-4.4-.08-1.26.54-2.57.74-3.43,1.77-.75,3.34-1.2,4.63-2.07.49-.33.67-1.8.37-2.46-.65-1.41-1.7-2.63-2.13-4.67,2.21,1.22,4.42,2.44,6.93,3.82,4.03-3.28,8.01-6.81,12.31-9.89,2.3-1.65,5.27-2.34,7.74-3.8,3.36-1.98,5.51.42,8.03,1.73,1.88.97,3.9,1.69,5.73,2.74,1.7.97,3.23,2.23,5.12,3.56.31-1.26.53-2.15.96-3.89.81,2.04,1.32,3.32,1.52,3.83,2.71-.56,5.27-1.09,7.83-1.62.12.5.23,1,.35,1.5-1.87.65-3.74,1.29-5.84,2.03.02,2.9,3.57,6.31,9.39,7.72-.49-2.32-.92-4.34-1.38-6.53,2.44-.34,3.88.91,3.15,3.2-1.15,3.63-1.42,3.54,2.14,4.42-.07,2.33-.8,4.71,2.96,4.98.7.05,1.99,2.38,1.74,3.34-1.19,4.67-1.07,5.06,3.9,5.76.1,1.09.21,2.23.32,3.36,1.26-.56,2.35-1.04,3.45-1.52-2.3,4.33-2.67,9.54-7.32,12.29-1.99,1.18-3.66,3.04-5.14,4.85-1.02,1.24-2.84,2.82-.22,4.57.4.27-.03,1.77-.12,3.67-1.85.21-4.62-.02-6.91.93-2.02.84-3.7,2.82-5.18,4.59-2.91,3.5-5.58,7.2-8.55,11.08Z"/>
      <path class="cls-4" d="M208.43,289.57c-1.08,1.05,1.01,8.62,4.73,14.07.77-.94,1.48-1.8,2.59-3.14.11,1.06.4,1.72.2,2.19-1.54,3.77-1.29,7.31.99,10.73,2.42,3.63,4.88,7.25,7.11,11,.62,1.04,1.12,2.92.59,3.67-.57.82-2.46,1.24-3.64,1.05-4.28-.71-8.54-1.65-12.75-2.7-6.42-1.61-6.4-1.68-7.41,4.09-4.75-4.41-4.79-4.59-1.54-7.02-4.87-2.57-9.64-5.05-14.36-7.62-1.45-.79-2.43-2.09-4.64-1.31-.69.24-2.51-2.68-3.97-4.33.75-.46,1.62-.99,2.34-1.44-.54-1.01-1-2.12-1.68-3.09-2.14-3.05-4.47-5.96-6.5-9.08-1.17-1.79-1.91-3.85-2.81-5.81-2.19-4.76-4.27-9.57-6.59-14.27-.86-1.75-2.44-3.13-3.41-4.84-.58-1.02-.77-2.34-.87-3.54-.12-1.55.33-3.2,0-4.68-1.28-5.71-3.17-11.31-4.04-17.06-.6-3.98.22-8.15.15-12.23-.02-1.27-.89-2.53-1.54-4.25,2.17-2.3,5.16-5.18,3.87-10-.27-1.02-.19-2.34.27-3.25.26-.52,1.66-.78,2.46-.64.88.16,1.66.91,2.9,1.65-1.17.89-2.15,1.62-3.3,2.49,6.32,3.42,12.51,6.82,18.75,10.12,2.59,1.37,5.29,2.5,7.93,3.78.63.3,1.53.64,1.71,1.17.96,2.82,2.63,4.48,5.46,5.89,2.05,1.03,4.03,4.11,4.28,6.46.72,6.58,3.27,12.85,3.9,19.16.67,6.74,3.38,12.34,5.59,18.32.6,1.61,2.05,2.91,3.2,4.47Z"/>
      <path class="cls-4" d="M295.37,329.47c1.52.45,2.15.64,2.53.75-5.6-.36-11.46-.74-17.82-1.15-.48-1.5-1.46-3.4,1.52-5.58,1.84-1.35,2.26-4.61,3.4-6.97.55-1.14,1.23-2.25,1.99-3.27,1.57-2.12,3.76-3.94,4.77-6.28,3.78-8.82,7.64-17.66,10.6-26.77,2.88-8.86,4.68-18.06,6.95-27.11.12-.48.28-1.04.14-1.48-1.88-5.84,3.08-7.72,6.18-10.63,2.7-2.53,5.4-5.09,8.34-7.33,2.33-1.78,4.97-3.16,7.53-4.61,1.92-1.09,4.14-1.75,5.84-3.09,3.63-2.86,7.67-3.67,12.38-3.16,2.92,4.88,2.54,10.6,3.11,16.13.27,2.66.8,5.31.85,7.97.02,1.01-1.25,1.98-1.51,3.07-1.36,5.68-2.4,11.45-3.94,17.08-.89,3.28-2.62,6.32-3.76,9.54-.95,2.69-1.58,5.48-2.46,8.6-.02,0-1.03.14-1.35.68-2.74,4.61-5.25,9.37-8.05,13.94-1.66,2.71-3.92,5.04-5.56,7.76-2.3,3.79-5.87,6.24-8.93,9.24-1.08,1.06-1.86,2.41-2.69,3.51-1.03.13-2.34.05-3.44.48-2.42.95-4.91,1.91-7,3.38-.87.62-4.65.35-2.1,3.37-.88.53-1.71,1.3-2.67,1.55-1.26.32-2.62.24-4.83.4Z"/>
      <path class="cls-4" d="M285.06,209.54c-3.34-2.28-4.89-5.48-4.51-9.45-2.22-.14-4.03-.25-6.3-.4,3.61-1.13,6.69-2.08,9.09-2.83-.49-3.99-.86-6.97-1.23-9.94l1.13-.21c.2,1.07.4,2.13.67,3.58,1.79-1.37,4.62-.44,4.78-3.93.05-1.09,2.25-2.41,3.72-3.04,2.39-1.04,3.52-1.73.36-3.26-.42-.2-.51-1.08-.97-2.15,2.42-.14,4.69-.13,6.87-.57.32-.06.22-2.24.31-3.45,5.25,2.58,6.01-3.42,8.83-5.83-2.4-.76-4.92-1.56-8.54-2.7,1.62-.98,2.46-1.86,2.89-1.69,5.2,2.05,6.48,1.64,10.32-2.72,2.16-2.45,3.71.29,5.13,1.27,3.71,2.55,5.4,7.31,9.8,9.19-.94,2.56,5.38,2.88,1.9,6.76-.94,1.05.97,4.66,1.66,7.43.71-.25,1.68-.61,2.18-.79.82,1.91,1.57,3.66,2.42,5.63-3.53.92-3.05,3.19-1.72,6.46,1.73,4.26,1.31,8.69-1.18,12.83-.57.95-.93,2.77-.42,3.5,2.66,3.79-.72,5.15-2.9,7.13.22-1.69.43-3.38.82-6.42-3.19,1.07-6.39,1.21-7.68,2.85-1.29,1.63-.67,4.77-.96,8.01-.8-1.39-1.3-2.26-2.01-3.49v6.77c-.66-.56-.94-1-1.29-1.06-.63-.11-1.29.01-1.94.04.23-.86.53-1.72.68-2.6.15-.88.15-1.78.22-2.67-.92-.02-1.93-.29-2.76-.02-3.59,1.17-4.52,4.19-4.73,7.56-1.18-.6-2.15-1.49-3.17-1.55-4.4-.25-7.13-2.94-10.02-5.84-2.26-2.27-5.31-3.72-7.87-5.71-1.41-1.1-5.52-.92-2.55-4.61.21-.26-.7-1.41-1.1-2.14l.07.08Z"/>
      <path class="cls-4" d="M174.82,179.84c4.08-1.79,4.24-7.21,6.84-10.97,1.73-2.51,2.97-6.34,5.29-7.16,1.91-.68,3.78-2,5.79-2.19.92-.09,1.99,1.42,2.99,2.2-.81.8-1.63,1.59-3.08,3.02-.24,3.51,3.22,5.12,8.64,2.73.35.96.7,1.91.98,2.68h6.01c.12.78.28,1.83.48,3.15.8.08,1.7.18,2.6.27-.04.42-.07.85-.11,1.27-1.39-.34-2.85-.52-4.13-1.1-.48-.22-.51-1.4-.88-2.58-.98,2.57,2.04,7.5,5.45,11.96,2.93,3.82,6.72,5.47,12.19,6.49-1.91.94-2.77,1.36-3.42,1.69.56.86,1.34,1.61,1.6,2.51,1.19,4.07,2.55,7.8,7.38,9.04,2.87.74,2.51,3.25,2.1,5.85-1.69-.18-3.33-.35-5.39-.56.75-1.11,1.36-2,1.96-2.89-.25-.35-.5-.69-.75-1.04-2.1,1.38-4.3,2.64-6.27,4.19-1.08.86-1.93,2.13-2.59,3.36-.46.86-.54,1.98-.55,2.98,0,.17,1.24.35,2.11.57v3.04c-.83.08-1.8.16-2.32.21-.1,1.07-.18,1.97-.27,2.88-.47.01-.93.03-1.4.04-.18-1.99-.37-3.97-.62-6.71-3.78,4.22-7.29,8.14-11.59,12.96-4.77,1.82-7.96-3.53-12.42-5.75-1.73-.86-3.8-1-5.66-1.62-1.56-.52-3.09-1.19-4.55-1.95-.99-.52-1.83-1.31-2.82-2.05.87-2.41-.44-3.44-3.06-3.67-3.72-.33-6.86-2.85-7.81-6.14,4.68-1.25,3.2-5.56,4.09-8.58.94-3.15,1.15-6.52,1.61-9.42-2.2-.83-4.21-1.58-6.23-2.34.14-.36.27-.73.41-1.09,2.62-.67,5.79,3.22,7.87-.68.55-1.03-.25-2.77-.48-4.6Z"/>
      <path class="cls-2" d="M252.16,341.55c2.11,2.5,3.73,4.42,5.58,6.62-1.47.79-3.14,1.69-4.45,2.39-1.06-2.09-1.99-3.57-2.6-5.19-.78-2.07-.07-3.55,1.46-3.83Z"/>
      <path class="cls-2" d="M169.87,325.24c-.48-3.38-.89-6.26-1.3-9.18h6.24c-1.07,1.74-1.93,3-2.65,4.34-.74,1.37-1.34,2.82-2.29,4.84Z"/>
      <path class="cls-2" d="M152.65,240.67c-.42,1.89-.78,3.53-1.14,5.18-1.9-.09-5.24-4.72-4.29-6.15.36-.54,1.68-.8,2.44-.64.98.2,1.85.96,2.99,1.6Z"/>
      <path class="cls-2" d="M272.88,189.8c.63.28,1.26.55,1.89.83-.16.23-.32.45-.48.68h-3.14c.36-2.25.69-4.29.99-6.15,1.53.87,2.97,1.71,4.42,2.51.54.3,1.14.49,1.71.74-.4.36-.74.88-1.21,1.04-.58.2-1.28.22-1.91.13-.63-.09-1.23-.42-1.85-.64-.15.29-.29.58-.44.87Z"/>
      <path class="cls-2" d="M182.36,150.81c1.43,2.08,2.83,3.76,2.66,3.94-1.14,1.2-2.58,2.13-4.02,2.99-.21.13-1.37-.75-1.33-.87.66-1.69,1.45-3.34,2.69-6.07Z"/>
      <path class="cls-2" d="M219.2,177.23v2.92c-.15.05-.3.1-.45.15-.48-1.18-.96-2.37-1.65-4.06,2.18-.6,4.56-1.25,7.46-2.04-.95,3.65-2.23,5.07-5.37,3.03Z"/>
      <path class="cls-2" d="M333.01,173.89c1.83-.15,3.54-.29,5.26-.43-.46,1.53-.93,3.05-1.57,5.19-1.43-1.85-2.46-3.18-3.68-4.76Z"/>
      <path class="cls-2" d="M284.99,209.46c-.42.51-.79,1.41-1.27,1.46-2.86.36-2.86.29-3.74,2.9-.23-.96-.45-1.93-.68-2.88-.87-.13-1.92-.28-3.23-.47,2.89-2.85,6.07-.71,8.99-.94,0,0-.07-.08-.07-.08Z"/>
      <path class="cls-2" d="M277.84,319.59c-1.03-.41-1.63-.65-2.78-1.11,1.38-.87,2.34-1.48,3.29-2.08.17,1.26.81,2.71.39,3.72-.38.89-1.93,1.29-2.97,1.9-.16-.39-.33-.78-.49-1.17.74-.37,1.48-.73,2.55-1.27Z"/>
      <path class="cls-2" d="M264.28,340.52q-5.13.34-5.3-2.28c2,.34,3.86.65,5.72.97-.14.44-.28.88-.42,1.32Z"/>
      <path class="cls-2" d="M339.97,184.7c-.73-.72-1.46-1.45-2.49-2.46,2.28.22,3.99.38,5.7.54q-.04,3.53-3.22,1.92Z"/>
    </g>
  </g>
</svg>