<?xml version="1.0" encoding="UTF-8"?>
<svg xmlns="http://www.w3.org/2000/svg" version="1.1" viewBox="0 0 500 500">
  <defs>
    <style>
      .cls-1 {
        fill: none;
      }
    </style>
  </defs>
  <!-- Generator: Adobe Illustrator 28.7.1, SVG Export Plug-In . SVG Version: 1.2.0 Build 142)  -->
  <g>
    <g id="_Слой_2" data-name="Слой_2">
      <g>
        <path d="M99,266c1.79-18.8-2.4-35.55-.03-52.49,1.14-8.11,4.28-16.05,7.37-23.73,1.04-2.57,4.43-5,7.29-5.94,5.99-1.99,9.21-5.2,9.94-11.86.51-4.66,1.42-9.28,2.82-13.75,3.26-10.38,7.87-20.36,12.66-30.19,2.77-5.69,6.27-11.05,9.54-16.5,3.23-5.39,7.8-6.93,14.03-5.29,3.01.8,6.21,1.57,9.26,1.38,2-.13,4.41-1.59,5.73-3.18,8.28-9.9,15.63-20.62,24.62-29.84,7.3-7.48,16.22-13.55,24.85-19.65,5.61-3.96,11.93-6.98,18.06-10.2,4.91-2.59,9.89-2.35,14.78.37,6.92,3.84,14.18,7.17,20.74,11.52,5.52,3.66,10.31,8.41,15.3,12.81,3.3,2.91,6.66,5.82,9.5,9.13,7.01,8.18,13.58,16.74,20.69,24.83,1.83,2.08,4.9,3.73,7.65,4.22,2.57.46,5.5-.79,8.23-1.45,4.93-1.2,9.66-.85,12.53,3.56,6.21,9.56,11.43,19.6,16.36,29.93,5.97,12.5,6.29,26.11,11.77,38.43.83,1.86,3.14,3.77,5.1,4.32,7.22,2.04,9.76,6.39,12.33,12.6,8.35,20.19,7.87,40.97,6.87,63.97-.48,10.94-2.11,21.71-6,32-2.02,5.34-6.39,10.52-8,16-3.85,13.09-12.88,20.44-21,31-9.55,12.41-17.72,21.92-32,29-5.75,2.85-6.83,8.01-13.04,9.56-14.01,3.5-27.85,8.19-42.61,7.89-2.66-.05-5.46.24-7.96-.45-7.21-2-14.26-2.8-21.53-.25-2.27.79-4.22.29-6.38-2.05-1.64-1.77-6.46-2.08-8.9-1.45-18.57,4.75-26.51,1.33-40.57-1.25-7.85-1.44-15.43-3.53-23-6-16.77-5.47-27.01-15.16-38-29-6.54-8.24-12.42-17.8-19-26-.21-.26-17.93-33.32-20-52ZM211.45,240.89c-1.34,10.11,1.46,20.26,4.99,30.38,4.57,13.1,8.97,26.26,12.99,39.53,3.71,12.24,11.9,21.74,19.33,31.71,2.33,3.12,6.12,3.57,8.47.16,6.48-9.41,13.98-18.53,18.38-28.86,6.57-15.43,10.56-31.89,16.14-47.75,4.49-12.76,3.48-25.71,2.59-38.71-.12-1.82-1.12-3.78-2.24-5.3-2.59-3.54-5.7-6.71-8.25-10.27-7.08-9.91-16.81-16.97-26.81-23.61-1.84-1.22-5.76-1.01-7.87.09-4.05,2.1-7.78,5.03-11.12,8.15-5.96,5.57-11.45,11.61-17.29,17.3-5.87,5.72-10.13,12.01-9.33,20.6.18,1.94.03,3.91.03,6.59ZM269.86,171.69c2.23-1.99,4.22-3.31,5.6-5.08,3.61-4.62,6.53-9.83,10.52-14.08,6.96-7.43,14.46-14.37,21.84-21.41,4.02-3.84,4.76-8.2,1.3-12.58-6.45-8.19-12.89-16.42-19.78-24.26-7.43-8.44-17-14.24-26.62-20.13-6.91-4.23-12.37-5.01-18.97.08-5.44,4.19-12.02,6.98-17.37,11.26-11.5,9.19-20.93,20.25-28.89,32.55-3.5,5.41-3.19,9.48,1.79,13.66,2.28,1.91,4.57,3.79,6.76,5.79,9.77,8.9,18.4,18.69,25.42,29.88,1.06,1.69,4.53,3.04,6.61,2.73,2.72-.4,5.51-2.21,7.68-4.08,5.22-4.5,9.63-4.5,14.82-.04,2.52,2.16,5.72,3.56,9.29,5.72ZM129.28,213.96c-4.83-.3-7.68,1.97-7.89,6.42-.46,9.72-1.51,19.58-.41,29.17,2.16,18.81,10.11,35.95,17.87,53.15,13.23,29.31,35.84,46.63,67.71,52.66,2.97.56,6.27-.5,9.41-.8-.91-2.83-1.16-6.12-2.84-8.4-7.42-10-12.81-20.91-16.95-32.53-2.68-7.53-5.65-14.99-8.84-22.33-5.93-13.66-9.21-27.84-10.02-42.65-.12-2.16-1.35-4.73-2.93-6.26-3.4-3.29-7.18-6.3-11.14-8.94-9.29-6.21-18.72-12.23-28.22-18.12-1.58-.98-3.82-.93-5.75-1.35ZM386.27,237.06c0-2.28.12-4.57-.03-6.84-.17-2.6-.52-5.19-.88-7.77-1.06-7.51-3.45-9.3-11.05-8.02-1.76.3-3.56.97-5.09,1.88-6.5,3.87-13.04,7.71-19.32,11.91-5.2,3.48-10.09,7.4-15.03,11.23-3.91,3.04-5.64,6.77-6.33,11.98-1.49,11.24-2.99,22.86-7.19,33.29-8.68,21.56-14.48,44.53-29.39,63.4-1.25,1.58-1.12,4.19-1.64,6.33,2.31.49,4.8,1.77,6.89,1.31,6.79-1.49,13.51-3.36,20.11-5.54,13.67-4.52,25.41-11.71,34.61-22.98,11.52-14.12,18.94-30.28,25.26-46.92,5.27-13.88,9.62-28.15,9.08-43.26ZM143.86,187.37c-.03,5.75,2.72,9.41,7.77,12.18,6.2,3.4,12.16,7.24,17.99,11.23,3.9,2.67,7.27,6.09,11.14,8.81,1.1.77,3.53.9,4.67.23,3.2-1.91,6.45-4.03,8.95-6.72,6.33-6.79,12.13-14.06,18.42-20.89,3.13-3.39,4.31-7.24,1.73-10.91-4.66-6.65-8.87-13.84-14.64-19.45-9.02-8.76-19.08-16.52-28.91-24.45-3.58-2.89-9.04-1.96-11.29,2.07-3.32,5.96-6.36,12.15-8.67,18.53-2.26,6.25-3.52,12.86-5.11,19.34-.81,3.31-1.38,6.69-2.05,10.03ZM362.54,187.87c-4.22-16.45-6.39-33.54-15.77-48.39-2.26-3.57-7.4-5.03-10.51-2.68-8.78,6.63-17.91,13.01-25.67,20.69-7.02,6.94-12.56,15.35-18.43,23.34-2.34,3.19-2.9,7,.23,10.33,3.25,3.44,6.69,6.71,9.89,10.18,2.99,3.24,5.66,6.77,8.7,9.97,2.66,2.8,5.41,5.59,8.51,7.89,2.69,2,5.38,1.2,8.12-.95,6.02-4.74,12.29-9.18,18.59-13.56,3.1-2.16,6.44-4.01,9.76-5.86,4.35-2.42,6.33-6.06,6.57-10.96Z"/>
        <path class="cls-1" d="M211.45,240.89c0-2.68.15-4.65-.03-6.59-.8-8.58,3.46-14.88,9.33-20.6,5.84-5.69,11.33-11.74,17.29-17.3,3.34-3.12,7.07-6.04,11.12-8.15,2.12-1.1,6.04-1.31,7.87-.09,10.01,6.64,19.73,13.7,26.81,23.61,2.55,3.56,5.66,6.74,8.25,10.27,1.12,1.53,2.12,3.48,2.24,5.3.89,13,1.9,25.95-2.59,38.71-5.58,15.86-9.57,32.32-16.14,47.75-4.39,10.33-11.89,19.44-18.38,28.86-2.35,3.41-6.15,2.96-8.47-.16-7.43-9.97-15.62-19.46-19.33-31.71-4.02-13.27-8.42-26.43-12.99-39.53-3.53-10.13-6.33-20.28-4.99-30.38Z"/>
        <path class="cls-1" d="M269.86,171.69c-3.57-2.15-6.77-3.55-9.29-5.72-5.2-4.46-9.6-4.46-14.82.04-2.17,1.87-4.96,3.68-7.68,4.08-2.08.3-5.55-1.05-6.61-2.73-7.02-11.19-15.65-20.98-25.42-29.88-2.19-2-4.49-3.88-6.76-5.79-4.98-4.18-5.3-8.24-1.79-13.66,7.96-12.3,17.39-23.36,28.89-32.55,5.35-4.28,11.93-7.07,17.37-11.26,6.61-5.09,12.07-4.31,18.97-.08,9.61,5.89,19.19,11.69,26.62,20.13,6.9,7.83,13.33,16.06,19.78,24.26,3.45,4.39,2.72,8.74-1.3,12.58-7.37,7.05-14.88,13.99-21.84,21.41-3.99,4.26-6.9,9.47-10.52,14.08-1.38,1.77-3.37,3.09-5.6,5.08Z"/>
        <path class="cls-1" d="M129.28,213.96c1.93.43,4.17.38,5.75,1.35,9.5,5.89,18.93,11.91,28.22,18.12,3.96,2.65,7.74,5.65,11.14,8.94,1.58,1.53,2.81,4.1,2.93,6.26.81,14.81,4.09,28.99,10.02,42.65,3.19,7.34,6.16,14.8,8.84,22.33,4.14,11.62,9.54,22.53,16.95,32.53,1.69,2.28,1.93,5.57,2.84,8.4-3.14.31-6.44,1.37-9.41.8-31.87-6.03-54.49-23.35-67.71-52.66-7.76-17.2-15.72-34.34-17.87-53.15-1.1-9.59-.04-19.45.41-29.17.21-4.45,3.06-6.72,7.89-6.42Z"/>
        <path class="cls-1" d="M386.27,237.06c.53,15.12-3.81,29.38-9.08,43.26-6.32,16.64-13.74,32.8-25.26,46.92-9.2,11.27-20.95,18.46-34.61,22.98-6.59,2.18-13.32,4.05-20.11,5.54-2.09.46-4.58-.83-6.89-1.31.51-2.13.39-4.75,1.64-6.33,14.91-18.87,20.71-41.84,29.39-63.4,4.2-10.43,5.7-22.05,7.19-33.29.69-5.21,2.41-8.94,6.33-11.98,4.94-3.84,9.83-7.75,15.03-11.23,6.28-4.2,12.81-8.04,19.32-11.91,1.53-.91,3.33-1.59,5.09-1.88,7.6-1.28,9.99.51,11.05,8.02.36,2.58.72,5.17.88,7.77.15,2.27.03,4.56.03,6.84Z"/>
        <path class="cls-1" d="M143.86,187.37c.68-3.35,1.24-6.72,2.05-10.03,1.59-6.48,2.85-13.09,5.11-19.34,2.31-6.38,5.35-12.58,8.67-18.53,2.25-4.03,7.71-4.96,11.29-2.07,9.83,7.94,19.9,15.69,28.91,24.45,5.77,5.61,9.98,12.8,14.64,19.45,2.58,3.68,1.39,7.53-1.73,10.91-6.3,6.82-12.09,14.1-18.42,20.89-2.5,2.69-5.75,4.81-8.95,6.72-1.13.68-3.57.55-4.67-.23-3.87-2.72-7.24-6.14-11.14-8.81-5.83-3.99-11.8-7.83-17.99-11.23-5.04-2.77-7.79-6.43-7.77-12.18Z"/>
        <path class="cls-1" d="M362.54,187.87c-.24,4.91-2.22,8.54-6.57,10.96-3.32,1.85-6.65,3.7-9.76,5.86-6.3,4.39-12.57,8.82-18.59,13.56-2.74,2.16-5.43,2.95-8.12.95-3.1-2.3-5.85-5.09-8.51-7.89-3.03-3.2-5.71-6.72-8.7-9.97-3.21-3.48-6.65-6.74-9.89-10.18-3.14-3.32-2.58-7.14-.23-10.33,5.87-7.99,11.41-16.39,18.43-23.34,7.76-7.68,16.89-14.06,25.67-20.69,3.11-2.35,8.25-.9,10.51,2.68,9.37,14.85,11.55,31.94,15.77,48.39Z"/>
      </g>
    </g>
  </g>
</svg>