<?xml version="1.0" encoding="UTF-8"?>
<svg xmlns="http://www.w3.org/2000/svg" version="1.1" viewBox="0 0 500 500">
  <defs>
    <style>
      .cls-1 {
        fill: #fff;
      }
    </style>
  </defs>
  <!-- Generator: Adobe Illustrator 28.7.1, SVG Export Plug-In . SVG Version: 1.2.0 Build 142)  -->
  <g>
    <g id="_Слой_2" data-name="Слой_2">
      <g>
        <path class="cls-1" d="M180.54,241.77c.91-14.65-4.15-29.53,9.63-40.93,2.11-1.75,2.42-5.66,3.58-8.56,2.68-6.67,5.07-13.49,8.25-19.91,1.1-2.23,4.76-5.29,6.3-4.83,7.28,2.18,9.33-3.14,12.99-7.15,25.67-28.17,33.63-28.38,59.52.52,3.45,3.85,5.47,8.95,12.33,6.52,1.28-.45,4.11,1.74,5.39,3.37,2.12,2.69,3.59,5.9,5.28,8.92,4.74,8.45,5.58,18.01,12.67,26.4,7.95,9.39,5.97,23.96,3.96,37.15-6.86-1.33-8.98-4.67-9-10.98-.01-5.73-1.9-11.47-2.97-17.2-5.33,2.55-11.05,4.51-15.89,7.77-8.43,5.67-15.54,4.7-22.33-3.12-19.54-22.5-19.4-22.01-38.56-.28-6.9,7.82-14.63,8.69-23.25,2.84-4.58-3.11-10.08-4.86-15.17-7.22-1.08,5.45-2.84,10.87-3.07,16.35-.24,5.86-2.29,9.14-9.67,10.35ZM252.46,149.53c-8.28.45-27.06,17.4-27.6,23.43-.11,1.26.48,3.42,1.35,3.81,9.12,4.07,9.93,22.26,25.59,15.18.21-.09.61.04.82.2,6.02,4.48,9.19.69,12.41-3.98,1.95-2.83,4.19-5.76,6.97-7.66,6.71-4.57,5.44-9.17.9-14.18-2.52-2.78-4.79-5.88-7.71-8.16-4.45-3.49-9.37-6.39-12.73-8.63ZM201.48,201.28c-.04,4.76,15.73,17.2,19.64,15.93.53-.17,1.02-.53,1.49-.86,12.07-8.38,13.12-15.95,2.85-26.33-4.12-4.16-9.53-7.05-14.35-10.51-2.75,5.44-5.61,10.84-8.21,16.36-.85,1.79-1.03,3.89-1.41,5.41ZM301.17,202.18c-2.45-6.94-4.31-13.35-7.1-19.32-.69-1.49-5.6-2.92-6.49-2.11-6.54,6-12.64,12.48-18.6,19.06-.78.86-.5,3.4.17,4.71,6.33,12.36,11.93,13.83,23.33,6.39,1.45-.95,3.19-1.61,4.35-2.83,1.64-1.73,2.87-3.85,4.35-5.91Z"/>
        <path class="cls-1" d="M338.71,434.42c-.02,10.83-4.92,18.77-14.25,24.08-3.92,2.23-7.94,3.68-7.99,9.86-.04,4.49-9.37,6.1-13.47,3.37-2.79-1.85-6.36-3.56-9.58-3.54-16.27.07-27.27-7.97-31.73-23.98-4.19-15.02,1.72-27.99,15.72-35.77,2.42-1.34,3.63-4.76,5.58-7.06,1.7-1.99,3.37-4.65,5.58-5.37,2.32-.75,5.39.09,7.93.89,3.17,1,6.23,4.06,9.16,3.84,22.24-1.67,33.06,15.43,33.05,33.67ZM311.85,449.65c10.02-2.45,13.51-8.26,11.95-18.27-1.61-10.33-9.2-19.26-16.33-18.29-1.62.22-4.24,4.4-3.84,6.19,2.25,10.02,5.29,19.87,8.22,30.37ZM297.75,453.93c-3.63-12.27-7.09-23.94-10.59-35.78-11.52,5.15-13.79,11.98-9.54,24.99,3.2,9.81,9.17,13.33,20.13,10.8Z"/>
        <path class="cls-1" d="M332.46,285.1c-7.98-1.49-14.08-2.88-20.26-3.74-23.22-3.21-44.5,4.24-65.97,11.61-22.85,7.84-45.81,8.02-68.84-.75-8.15-3.1-8.34-7.49-5.72-13.99,6.92-17.2,19.64-28.52,36.78-34.54,33.6-11.8,66.54-11.35,97.59,7.96,11.97,7.44,21.32,17.49,26.41,33.45ZM313.37,269.74c-3.36-3.01-5.72-5.57-8.5-7.54-26.05-18.43-54.75-20.38-84.63-12.69-15.54,4-28.83,11.7-37.05,26.47-2.84,5.1-2.46,7.56,3.5,9.41,16.25,5.03,32.58,5.27,48.78.75,24.42-6.81,48-17.59,74.33-14.79.71.08,1.51-.65,3.56-1.61Z"/>
        <path class="cls-1" d="M169.29,308.9c19.97,5.75,37.45,7.41,54.91,2.64,11.69-3.2,23.17-7.15,34.7-10.9,21.42-6.97,42.66-6.55,63.8,1.19,9.78,3.58,10.93,6.25,6.75,16.15-8.21,19.48-24.02,30.16-43.35,35.63-27.52,7.79-54.93,7.49-81.23-5.27-13.54-6.57-24.79-15.9-31.91-29.51-1.23-2.36-1.88-5.01-3.68-9.92ZM321.12,313.03c-1.46-1.11-2.48-2.14-3.7-2.77-1.52-.79-3.19-1.34-4.84-1.85-17.2-5.26-34.17-3.67-51.18,1.26-16.3,4.72-32.64,9.45-49.2,13.09-6.99,1.53-14.59.26-21.91.26-.37.93-.74,1.86-1.11,2.79,3.85,3.09,7.42,6.6,11.58,9.19,28.09,17.47,57.86,17.59,88.27,7.55,14.86-4.9,26.14-14.15,32.09-29.51Z"/>
        <path class="cls-1" d="M176.44,101.85c-6.34-3.44-11.11-6-15.86-8.61-4.74-2.6-9.45-5.26-15.61-6.69,4.63,9.06,9.07,18.22,13.96,27.14,2.51,4.58,2.92,7.93-2.39,10.65-5.4,2.76-8.33,1.13-10.81-4.21-4.99-10.74-10.45-21.27-15.94-31.76-1.9-3.63-3.31-8.46-9.61-5.52-1.16.54-4.88-1.85-5.61-3.62-.75-1.82-.07-5.33,1.34-6.77,8.25-8.39,18.22-9.31,28.84-3.3,6.93,3.92,13.89,7.79,21.96,12.31,1.26-11.03,2.88-20.66,3.31-30.34.36-7.98,6.04-10.01,11.66-12,1.35-.48,4.73,1.83,5.68,3.64,8.03,15.36,15.59,30.96,23.58,46.34,2.83,5.44.49,7.66-4.13,9.95-4.58,2.27-7.3,1.94-9.6-3.04-4.45-9.63-9.37-19.04-15.93-28.49-1.52,10.8-3.04,21.61-4.83,34.33Z"/>
        <path class="cls-1" d="M208.39,468.89c-21.45-.16-36.8-13.47-36.9-32.01-.11-20.05,14.06-35.16,32.81-34.96,21.64.23,36.74,13.88,36.65,33.12-.1,20.11-13.44,33.98-32.55,33.84ZM224.89,433.54c.29-11.65-6.12-18.53-17.65-18.93-11.33-.39-19.3,8.68-19.82,22.57-.45,11.91,7,19.46,19.24,19.49,10.73.03,17.89-9.05,18.23-23.12Z"/>
        <path class="cls-1" d="M143.53,433.18c-6.7,10.97-10.14,11.13-17.83,1.72-6.28-7.68-6.08-16.37-5.2-25.49.28-2.94-1.28-6.05-2-9.08-2.66,1.61-5.46,3.04-7.93,4.91-1.57,1.19-2.79,2.93-3.95,4.58-2.99,4.24-5.91,5.59-10.5,1.56-4.26-3.73-5.43-6.75-1.36-11.41,8.17-9.34,16.26-18.78,23.78-28.65,1.66-2.18.71-6.31,1.1-9.52.32-2.71,0-6.16,1.53-7.84,1.16-1.28,4.85-.59,7.33-.21,1.25.19,2.32,1.62,3.44,2.53q11.43,9.32,1.9,20.72c-.19.22-.41.43-.54.68-1.91,3.58-3.82,7.17-5.72,10.75,5.27,1.76,10.66,5.16,15.79,4.81,4.94-.34,10.16-3.88,14.28-7.22,5.66-4.58,8.97-1.26,12.49,2.29,4.29,4.33,1.3,7.92-2.37,9.74-7.58,3.77-15.36,7.91-23.53,9.55-9.54,1.92-13.45,7.8-8.23,16.58,1.88,3.16,4.75,5.73,7.52,8.99Z"/>
        <path class="cls-1" d="M353.47,68.12c-7.87,10.43-14.51,20.65-22.6,29.55-7.7,8.48-17.07,9.1-25.76,2.91-2.18-1.55-2.69-5.44-3.96-8.25,2.79-1.12,5.52-2.45,8.39-3.31,4.66-1.39,10.47-1.2,13.86-4.01,4.72-3.91,7.69-9.95,11.34-15.12,3.6-5.11,6.16-9.95-1.22-14.48-1.16-.71-1.25-5.46-.07-7.04,1.1-1.48,5.15-2.43,6.82-1.55,11.27,5.88,22.44,12.02,33.27,18.67,8.02,4.93,10.69,13.43,6.44,21.93-6.32,12.65-13.59,24.83-20.48,37.19-2.75,4.93-6.22,3.67-10.21,1.42-4.45-2.52-5.4-4.98-2.5-9.65,5.48-8.82,10.31-18.06,15.39-27.13,7.16-12.8,5.33-17-8.7-21.11Z"/>
        <path class="cls-1" d="M79.48,145.92c-2.07-13.53-15.38-24.99,1.4-36.91,3.23,8.06,6.05,15.79,9.43,23.25,1.91,4.2,4.82,11.37,7.17,11.33,7.7-.14,15.94-1.79,22.8-5.22,4.04-2.02,6.37-5.29,10.94-1.71,5.16,4.05,1.8,7.61-.37,11.25-4.16,6.98-11.13,8.71-18.46,9.67-3.63.47-7.29.77-12.6,1.32,2.35,5.86,4.5,10.43,5.99,15.2,1.08,3.46,2.34,7.44,1.56,10.72-.77,3.24-3.99,5.91-6.13,8.83-1.85-2.58-4.16-4.94-5.44-7.77-2.97-6.57-5.18-13.49-8.28-19.99-1.04-2.19-4.07-5.19-5.83-4.97-8.45,1.09-18.19-3.03-25.08,5.71-.85,1.08-4.66,1.14-6.03.17-1.74-1.23-3.82-4.59-3.25-6.01,2.57-6.37,5.37-12.85,14.16-13,5.85-.1,11.69-1.17,18.01-1.86Z"/>
        <path class="cls-1" d="M349.37,391.97c-2.05,1.04-3.67,2.61-5.04,2.41-2.73-.39-5.78-1.23-7.76-2.96-.83-.73-.06-5.01,1.3-6.26,11.25-10.39,22.67-20.61,34.43-30.41,1.48-1.23,6.39-.73,7.58.72,1.26,1.53,1.03,6.11-.4,7.69-4.42,4.91-9.57,9.22-14.72,13.41-4.43,3.61-3.24,6.59.04,10.06,3,3.17,5.62,5.9,9.94,1.63,3.9-3.85,7.89-7.8,12.5-10.65,1.98-1.23,5.61.21,8.48.44-.38,2.67.17,6.13-1.31,7.86-3.53,4.14-7.91,7.59-12.14,11.08-4.05,3.35-2.8,6.16.12,9.45,3.05,3.43,5.81,4.3,9.46.85,4.83-4.56,9.98-8.78,14.82-13.33,3.26-3.06,6.9-4.4,9.27-.02,1.1,2.04.34,6.73-1.36,8.38-8.49,8.25-17.7,15.75-26.39,23.8-4.44,4.11-7.08,1.6-9.99-1.69-9.55-10.79-19.14-21.55-28.82-32.43Z"/>
        <path class="cls-1" d="M252.04,28.41c6.94,0,13.87.05,20.81-.02,4.44-.04,9,.68,7.71,6.25-.56,2.41-4.6,5.21-7.41,5.66-5.64.89-11.52.47-17.3.25-5.45-.21-7.7,1.78-7.75,7.53-.06,6.15,3,7.36,8.07,7.21,4.62-.13,9.25.04,13.87-.02,4.29-.05,8.28,1.26,6.97,6.13-.66,2.46-4.49,4.99-7.34,5.73-3.79.99-8.03.24-12.07.31-4.59.08-9.45-.77-9.5,6.59-.05,7.75,4.98,7.08,9.97,7.08,5.78,0,11.65-.55,17.3.31,2.43.37,4.42,3.66,6.6,5.63-2.05,1.87-4.03,5.25-6.15,5.34-12.11.52-24.26.24-36.4.28-5.41.02-5.78-3.62-5.78-7.66,0-12.14-.09-24.27-.05-36.41.01-3.93.05-7.11-5.19-8.37-1.97-.48-3.72-4.88-4.03-7.67-.13-1.12,3.8-3.73,6.01-3.88,7.19-.5,14.44-.19,21.66-.19,0-.02,0-.04,0-.06Z"/>
        <path class="cls-1" d="M414.1,138.09c4.24,6.3,7.95,11.42,11.24,16.79,5.86,9.57,3.96,19.48-4.72,26.08-8.95,6.81-20.38,6.45-27.29-1.85-6.64-7.96-12.57-16.56-18.16-25.3-1.06-1.66-.02-6.52,1.65-7.77,13.89-10.35,28.17-20.17,42.28-30.22,4.49-3.2,7.17-1.37,9.89,2.61,2.87,4.19,2.77,7.21-1.68,10.11-4.3,2.8-8.34,6-13.21,9.55ZM418.44,163.02c-6.15-7.09-9.82-13.05-15.15-16.32-1.43-.88-7.9,6.46-12.05,10.03,4.78,4.9,9.08,10.52,14.66,14.21,1.42.94,6.89-4.22,12.54-7.92Z"/>
        <path class="cls-1" d="M68.94,209.86c-.77,17.85-2.29,35.71-2.13,53.55.22,25.58,7.65,49.55,19.1,72.32.52,1.03,1.44,2.07,1.44,3.12.02,2.75-.37,5.51-.59,8.26-2.58-1.45-6.67-2.3-7.51-4.44-6.47-16.34-13.8-32.56-17.99-49.53-6.52-26.4-6.04-53.36-.5-80.11.35-1.7.16-3.83,1.13-5,1.44-1.73,3.75-3.88,5.58-3.79,1.49.07,2.83,3.19,4.23,4.95-.92.22-1.84.45-2.76.67Z"/>
        <path class="cls-1" d="M446.03,252.86c-.71,31.21-8.59,60.25-22.23,87.91-1.02,2.07-1.96,4.47-3.65,5.81-1.19.94-5.07.81-5.21.36-.75-2.39-1.59-5.37-.79-7.55,4.7-12.71,10.68-24.99,14.67-37.9,8.45-27.35,8.41-55.32,3.64-83.37-.39-2.28-1.49-4.67-1.12-6.8.46-2.62,2.12-5.02,3.26-7.52,1.97,2.03,5.33,3.85,5.69,6.14,2.28,14.25,3.9,28.6,5.74,42.92Z"/>
      </g>
    </g>
  </g>
</svg>