<?xml version="1.0" encoding="UTF-8"?>
<svg xmlns="http://www.w3.org/2000/svg" version="1.1" viewBox="0 0 500 500">
  <defs>
    <style>
      .cls-1 {
        fill: none;
      }
    </style>
  </defs>
  <!-- Generator: Adobe Illustrator 28.7.1, SVG Export Plug-In . SVG Version: 1.2.0 Build 142)  -->
  <g>
    <g id="_Слой_1" data-name="Слой_1">
      <g>
        <path d="M253.9,500h-7.8c-4-3.2-8.6-5.9-11.8-9.7-42.1-48.9-80.7-100.4-112.9-156.4-18.5-32.2-34.6-65.5-44.7-101.4-11.7-41.4-10.7-82.4,6.8-121.7C110.8,49.2,158.4,12.6,225.3,1.9,230.3,1.1,235.3.6,240.2,0c6.5,0,13,0,19.5,0,5.1.7,10.3,1.2,15.4,2,53.1,8,95.2,34.1,125,78.5,31.4,46.7,38.3,97.8,23.2,152-10.1,36.1-26.4,69.5-44.9,101.8-32,55.6-70.3,106.7-112,155.3-3.5,4.1-8.3,7-12.5,10.4ZM250,272.2c50,0,90.9-40.8,91-91,.1-50.1-40.5-91-90.7-91.3-50.1-.3-91.3,41-91.3,91.2,0,50.2,40.9,91,91,91.1Z"/>
        <path class="cls-1" d="M240.2,0c-5,.6-10,1.1-14.9,1.9-66.9,10.7-114.5,47.3-141.9,108.9-17.5,39.3-18.5,80.3-6.8,121.7,10.2,35.9,26.2,69.2,44.7,101.4,32.2,56,70.8,107.5,112.9,156.4,3.3,3.8,7.9,6.5,11.8,9.7H0C0,333.3,0,166.7,0,0,80.1,0,160.2,0,240.2,0Z"/>
        <path class="cls-1" d="M253.9,500c4.2-3.5,9-6.4,12.5-10.4,41.7-48.6,80.1-99.7,112-155.3,18.6-32.3,34.9-65.7,44.9-101.8,15.1-54.2,8.2-105.3-23.2-152C370.4,36.1,328.3,9.9,275.2,2c-5.1-.8-10.3-1.3-15.4-2,80.1,0,160.2,0,240.2,0v500h-246.1Z"/>
        <path class="cls-1" d="M250,272.2c-50.1,0-90.9-40.9-91-91.1,0-50.3,41.2-91.5,91.3-91.2,50.2.3,90.8,41.2,90.7,91.3-.1,50.2-41,91-91,91Z"/>
      </g>
    </g>
  </g>
</svg>