<?xml version="1.0" encoding="UTF-8"?>
<svg xmlns="http://www.w3.org/2000/svg" version="1.1" viewBox="0 0 180 60">
  <defs>
    <style>
      .cls-1 {
        stroke: #000;
      }

      .cls-1, .cls-2 {
        fill: none;
        stroke-miterlimit: 10;
      }

      .cls-3 {
        fill: #fff;
      }

      .cls-2 {
        stroke: #fff;
        stroke-width: 4px;
      }

      .cls-4 {
        fill: #1d1d1d;
      }
    </style>
  </defs>
  <!-- Generator: Adobe Illustrator 28.7.1, SVG Export Plug-In . SVG Version: 1.2.0 Build 142)  -->
  <g>
    <g id="_Слой_1" data-name="Слой_1">
      <rect class="cls-4" y="49" width="180" height="11"/>
      <path class="cls-4" d="M179.3,49H-.6S29.5,1.4,91.2,2.4c61.7,1,88.2,46.6,88.2,46.6Z"/>
      <path class="cls-1" d="M90.3,49.2"/>
      <path class="cls-1" d="M90.3,2.5"/>
      <path class="cls-2" d="M-1.5,51.2S28.4,3,91,3s91.2,49.6,91.2,49.6"/>
      <g>
        <path class="cls-3" d="M38.3,28.3h.4c.3,0,.5,0,.6.2.4.7.7,1.2.9,1.7s.1.8-.2,1-.6.3-.9.2c-.2-.1-.5-.4-.9-.7-.4-.5-.7-.7-1-.7-1.1.4-2.1,1-3,1.7s-1.6,1.4-2,2c-.1.4-.2,1-.1,1.8v1.7s.1.2.2.4v.9c.3,1,.7,1.8,1.2,2.5s1.2,1.6,2.3,2.8c.8.9,1.2,1.4,2,2.3,3.6,2.6,6.4,3.7,8.5,3.2.3,0,.6-.2,1-.5.3-.2.6-.5.9-.9.3-.3.5-.8.8-1.3,0-.3-.1-.6-.3-.9,0-.2-.3-.5-.5-.8-.2-.4-.4-.7-.6-.9-.1-.2-.2-.5-.2-.8.3-.2.5-.3.7-.4h.8c.1,0,.2,0,.4-.1.8,1.2,1.2,1.9,2,3.1.1,1.2-.7,2.4-2.4,3.7-.7.5-1.4.9-2.1,1.3-.7.4-1.8,1.3-2.6,1.5-.5.1-1.1,0-1.4.1-.7,0-1.3.2-1.8.2s-1.2,0-1.7-.1c-.6-.2-1.4-.8-2-1.1-1.3-.7-2.4-1.3-3.3-1.9-.9-.5-1.8-1.2-2.4-1.9-.3-.4-.7-1.2-1.3-2.1-.7-1.1-1.2-2-1.6-2.8-.4-.8-.7-1.5-.9-2.3v-2.2c.1-1.3.6-2.6,1.4-4.1.8-1.5,2-3.1,3.5-3.9.5-.3,1.1-.6,1.6-.8.9-.4,1.7-.7,2.2-.9s1.1-.3,1.8-.3c0,0,.2.2.3.2h-.3Z"/>
        <path class="cls-3" d="M67.4,38.2c.2,0,.4.1.5.2.1,0,.2.1.2.3,0,.3.1.4.2.7h-.1c0,.1-.2.2-.3.3-.2.1-.4.2-.5.3-.1,0-.2,0-.3.1-.3,0-.4.1-.6.2-.3,0-1.1.3-2.3.8-.5.2-.7.3-1.2.5-.3-.1-.4-.2-.5-.3v-.4c0-.2.2-.3.2-.4v-.3c0-.1.2-.2.3-.4.1-.1.2-.3.3-.4v-.3c-.2-1.1-.7-2.5-1.2-4-.5-1.2-1-2.6-1.7-4-.8-1.7-1.3-3-1.6-3.9-.4-1-.5-1.4-.9-2.4-.5-1.3-.9-2.4-1.3-3.1-.3,2.2-.4,3.4-.6,5.6v.9s0,.5-.2,1.3c-.1.8-.1,1.5,0,2.1v12.1c0,.9-.2,1.4-.6,1.7-.3.2-.6.1-1.1-.1-.4-.2-.8-.6-1.1-1.2-.4-.7-.6-1.1-1-1.8-.6-1-1.2-2.3-1.9-3.8-.5-1.1-.9-2.1-1.3-2.8-.4-.7-.8-1.3-1.4-2-.6-1-.9-1.6-1.5-2.6,0-.2-.1-.3-.2-.4-.3-.5-.4-.8-.7-1.3-.1-.2-.2-.3-.3-.5-.2-.1-.5-.3-.7-.6-.1-.1-.3-.4-.5-.8-.2-.4-.4-.6-.6-.9s-.4-.4-.7-.5c0,0-.1,0-.3.1-.1,0-.3.1-.6.2h-1.1c-.1,0-.2-.1-.3-.2v-.6c1.1-.7,1.6-1,2.7-1.6.3-.2.8-.5,1.5-1,.5-.3.8-.5,1-.6.4-.2.8-.4,1.3-.4.4-.2.7-.2,1.1-.2s.6.2.7.4c.1.2,0,.4-.4.7-.4.2-.8.5-1.4.8-.1.3,0,.8.5,1.7.2.4.7,1.4,1.5,2.6.3.5.6.8.7,1.1.4.8.9,1.8,1.5,3.1s.9,1.9.9,1.9c0-.1-.1-.2-.2-.4.9,1.7,1.3,2.6,2.1,4.4,0-.5,0-1.2-.1-1.9v-2c0-.2,0-.3-.1-.5v-1.2c0-1.1.1-2,.1-2.8,0-1.3.2-4.8,1.1-10.5-.1-.4,0-.7.1-1.1.2-.4.6-.6,1.1-.8.7-.3,1.1-.4,1.9-.6s.8-.3,1-.4c.3-.1.5-.2.7-.3.4,0,.7,0,1,.2s.4.3.5.6c0,.2,0,.4-.1.7-.1.2-.4.4-.7.5-.2.5-.2,1.1-.1,1.7.1.6.3,1.4.7,2.4.6,1.7.9,2.6,1.4,4.3.5,1.5.8,2.3,1.3,3.9.3,1,.9,2.2,1.6,3.8.8,1.7,1.2,3.4,1.5,3.8,0,0,.4.1.7.2h.4Z"/>
        <path class="cls-3" d="M76.9,35.8c.4,0,.7.2.7.5s0,.5-.3.8c-.5,0-1.4.3-2.6.6-.9.2-1.6.4-2,.5-.8.2-1.5.3-2.2.3,0,0-.1,0-.2-.1-.1,0-.2-.2-.4-.3-.1-.1-.2-.3-.3-.4.2-.3.4-.5.5-.6.1,0,.5-.2,1-.3.2-.2.2-.6,0-1.1,0-.2-.1-.4-.3-.8-.1-.3-.2-.5-.2-.7,0-.3-.1-.5-.2-.8-.4-1.5-.7-2.9-.9-4.2-.3-1.5-.6-2.7-.8-3.4-.1-.4-.2-.7-.2-1-.1-.6-.2-.9-.3-1.4-.2-.6-.3-1.1-.4-1.5-.1-.4-.2-.7-.3-.8h0c0-.3-.1-.6-.2-.8-.1-.7-.3-1.4-.5-2.1,0-.3,0-.5-.2-.8,0-.2-.1-.4-.2-.5-.1-.1-.3-.2-.5-.2-.3,0-.6,0-1,.1h-1.2c-.5,0-.8-.2-.9-.3,0-.1,0-.2.1-.4s.3-.3.4-.5l.4-.4c1.8-.7,4.1-1.4,6.9-1.9,1.6-.3,2.4-.4,4-.6h1.5c1.5,0,2.8.5,4,1.5s2.3,2.4,2.5,3.7c.2.9,0,1.9,0,2.5s-.3,1.2-.5,1.7-.6,1.1-1,1.6c-.5.5-1.1,1-1.8,1.7-.4.3-.5.5-.9.8-.6.3-1.2.6-1.8.7-.6.1-1.5.3-2.7.5h-.2s-.2.1-.3.2c0,.1-.1.2,0,.4,0,.1,0,.4.1.7,0,.3.1.6.2.8,0,.2,0,.3.1.6.1.6.2,1.3.2,2.1v.9c0,.4,0,.8.2,1.2.1.7.4,1.4.7,2,.6-.1,1.2-.1,1.6,0l.4-.5ZM73.2,25.1c.2.1.5.2.8.2h.9c.4,0,.7-.2.9-.3.6-.4,1.1-.9,1.6-1.5s.7-1.2.9-1.8c0-.2,0-.4.2-.8,0-.4.1-.7.1-1s0-.8-.1-1.3c0-.8-.3-1.5-.6-2.3s-.7-1.4-1.1-1.8h-1c-.7-.1-1.4-.2-2,0-.9.1-1.4.2-2.3.4,0,.9,0,1.7.1,2.6,0,.4.2.9.4,1.5.1.5.3.9.3,1.1.3.9.5,1.8.6,2.5.2,1,.3,1.5.5,2.6h-.2Z"/>
        <path class="cls-3" d="M97.7,35.8c-.3.2-.6.4-.9.5-1.1.5-2.3.7-3.4.6-1.2,0-2.2-.4-3.2-1s-1.8-1.3-2.3-2.1c-.7-1.2-1.4-2.4-1.9-3.6-.3-.8-.5-1.8-.6-2.7s-.2-2-.2-3.4v-.9c0-.4,0-.8-.1-1v-1.2c0-.1,0-.4.2-.8,0-.5.1-.9.1-1.1s.1-.5.2-1c0-.4.2-.8.3-1.1,0-.3.3-.5.5-.6.3-.2.6-.7,1.2-1.2.7-.8,1.3-1.4,1.9-1.8.5-.4,1.2-.8,2-1.1s1.8-.4,2.9-.3c.5,0,.9,0,1.1.1,1.4.2,2.7.4,3.5.8.8.4,1.6,1.3,2.2,1.9.7.7,1.9,1.6,2.4,2.8.6,1.2.8,2.5.7,3.8,0,.7-.2,1.6-.4,2.7,0,.4-.1.6-.2,1.1-.3,1.7-.8,3.1-1.3,4.1-1.1,2.2-2.3,4.1-3.7,5.8-.2.3-.5.5-.8.8h-.2ZM97.2,32.4c.4-.8.7-1.5,1-2,.3-.6.6-1.3.8-2,.2-.7.3-1.5.5-2.5,0-.3.2-.8.3-1.3,0,0,0-.3.1-.5,0-.3.1-.5.2-.7v-3c-.2-.4-.3-.9-.5-1.6-.1-.7-.3-1.3-.5-1.7-.1-.3-.2-.4-.3-.6-.3-.7-.7-1.2-1-1.6-.3-.4-.7-.7-1.2-1-.5,0-1-.1-1.5-.2-.5,0-1.1-.1-1.6-.2-.8.5-1.4.9-1.8,1.5-.5.5-.9,1.3-1.3,1.9-.3.4-.6.9-.6,1.3s0,1.1-.2,1.7c-.1,1-.3,2.2-.3,3.5,0,2.3.2,4.9.7,7.7.1.2.2.5.3.8,0,.3.1.4.2.5.1.4.2.6.3.8,0,.2.2.4.3.5h.3s0,.2.1.3c0,.2,0,.3.2.4.3.3.8.4,1.4.5.6,0,1.1,0,1.7-.1.5-.1.9-.3,1.1-.6.3-.5.7-1.2,1.1-2l.2.2Z"/>
        <path class="cls-3" d="M117.9,37.4c-.4.8-.6,1.5-.9,2.2-.2.7-.3,1.3-.3,1.8s0,.3.2.4c.2.1.4.3.4.4v.6c-.7-.1-1.4-.4-2.3-.7-.5-.2-1.2-.6-2.1-1-1-.5-1.8-.8-2.3-1,0-.2.2-.3.3-.6.2-.2.3-.3.6-.2.2,0,.3.1.5.2.9-1.6,1.7-3.3,2.5-5.3s1.8-4.4,2.9-7.3c.7-1.9,1.1-2.8,1.8-4.7.2-.5.4-.9.7-1.3,0-.1.1-.3.2-.4,0-.2.2-.3.2-.5.1-.4.2-.7,0-1.1-2.5-1-3.8-1.4-6.4-2.1-.4,1.5-1.2,3.6-2.3,6.4-1.1,3-1.9,5.3-2.3,6.8-.6,1.9-.8,2.9-1.4,4.8-.2.8-.4,1.2-.6,2v.5c0,.2.2.3.3.5.1.2.2.3.3.4v.4c0,.1,0,.2-.1.3-.1.2-.4.2-.9.2s-1-.1-1.6-.3c-1-.3-1.8-.5-2.5-.8-.2-.1-.4-.2-.4-.3v-.6c0-.1,0-.2.2-.3,0,0,.2-.1.5-.2h.3c.1,0,.3,0,.4-.1.5-2.2.8-3.2,1.3-5.4.1-.6.2-.9.3-1.4.5-2,.7-2.9,1.2-4.9.1-.6.2-.9.4-1.5.1-.5.4-1.3.7-2.4.4-1.2.7-2.2.8-2.9.3-1.1.4-2.1.4-3-.6-.1-1.1-.3-1.6-.4-.4-.1-.6-.3-.6-.5.4-.4,1.2-.4,2.2-.2.4,0,.8.2,1.3.4s.9.3,1.1.3c.9.2,1.3.4,2.2.6,5.2,1.5,7.8,2.5,12.8,4.7.5.2.7.5.5.8-.1.2-.3.4-.7.4s-.7,0-1.2-.2c-3,6.6-4.4,9.9-7.4,16.5h.4Z"/>
        <path class="cls-3" d="M135.2,42.9c-.1.2-.3.4-.4.6-.2.4-.4.8-.8,1.2-.9,1.2-2.1,2.1-3.6,2.7-1.4.6-2.8.8-4.3.7-.6-.1-1.1-.3-1.6-.5-.5-.3-1.2-.7-2.1-1.2-.3-.2-.8-.6-1.4-1.1s-1.1-.9-1.4-1.1c-.4-.2-.7-.4-.9-.5-.2-.1-.3-.3-.3-.5s0-.4.2-.7c0-.2.1-.3.2-.5.6.3.9.5,1.6.8.3-.4.6-.9,1-1.4,0-.1,0-.2.2-.3.3-.6.7-1.4,1-2.3.6-1.4,1-2.2,1.2-2.5.3-.5.5-.9.7-1.2.4-.6.9-1.7,1.8-3.1.7-1.1,1.3-2.1,1.8-3.1.6-1.2,1.1-2.3,1.4-3.3h0c.4-.7.5-1,.9-1.7-.4-.2-.7-.4-.9-.6-.2-.2-.3-.4-.2-.6,0-.2.1-.3.2-.5,0-.2.3-.3.6-.2.3,0,.7.3,1.4.7l1.6.8c1.2.5,1.8.9,2.1,1.1.7.4,1.2.8,1.5,1.2.1.2.1.4,0,.6-.1.2-.4.3-.8.3s-.8-.1-1.3-.4c-.5.4-.9,1-1.4,1.8s-.7,1.2-1.2,2c-.1.2-.2.4-.4.6-.2.4-.3.5-.5.9,0,0,.3.2.5.3s.5.2.7.4c.4.2.7.5.9.8.2.3.6.7.9,1.2.1.1.3.4.5.6.3.4.5.8.7,1.1s.4.8.6,1.5.3,1.5.3,2.3-.3,1.7-.6,2.5c0,.2-.2.4-.3.6h-.1ZM131.6,42.8c.1-.2.2-.3.3-.4.3-.6.5-.9.8-1.5.1-.3.2-.4.3-.7.1-.3.2-.7.3-1.1,0-.4.1-.7.1-.9v-.9c-.3-.8-.7-1.6-1.1-2.2-.4-.6-.9-1.1-1.5-1.4-.4,0-.7.2-.9.5-.3.3-.5.6-.7.9-.6,1-.9,1.5-1.5,2.5h0c-1.6,2.7-2.4,4.1-4,6.8.7.4,1.2.7,1.6.9s.8.3,1.2.3c.6,0,.9-.1,1.6-.2.4,0,.7-.2,1-.4s.6-.5.7-.7c.3,0,.5-.2.6-.3.1,0,.2-.2.4-.4.3,0,.6-.4.9-.8h0ZM144,45.4c-1.4,1.3-2.8,2.7-4.3,4.1-1.5,1.4-3.7,3.1-4,4,0,.1.1.6.3,1,.2.4.3.7.3.9-.1.1-.2.2-.3.2h-.5c-.2,0-.5-.1-.8-.1,0-.2-.3-.5-.7-.9s-.5-.5-1-.9-.9-.8-1.2-1.1c-.3-.3-.6-.6-.8-1v-.2c0-.1,0-.2.1-.3s.3-.2.5-.2c0,0,.1-.1.2-.1,0,0,.1,0,.3.2.1.1.2.2.3.2.2,0,.4.1.5,0,.2,0,.4-.1.6-.3,0-.1.2-.2.3-.4,0-.2.1-.3.2-.3.1-.3.2-.5.3-.5.3-.4.8-1,1.5-1.7.6-.7.9-1,1.4-1.7l.2-.4c.1-.2.3-.4.5-.6,1.2-1.4,1.8-2.1,3-3.5,2.3-2.7,3.4-4,5.6-6.7-.4-.3-.6-.6-.8-.8-.2-.2-.2-.4,0-.6.3-.3.4-.5.6-.8,0-.1.2-.1.4,0,0,0,.2.2.5.6.3.3.6.7.9,1,.2.2.7.6,1.5,1.2.2.1.5.4.9.7.4.4.8.7,1.1,1,.7.6,1.1,1.2,1.3,1.6,0,.2,0,.4-.1.6s-.5.2-.9.1c-.4,0-.8-.3-1.2-.7-.4.1-.9.4-1.3.8-.3.3-.6.7-.9,1.2,0,.1-.2.3-.4.6-.2.3-.4.5-.6.7-.7.7-1.9,1.8-3.6,3.3v-.2Z"/>
      </g>
    </g>
  </g>
</svg>