<?xml version="1.0" encoding="UTF-8"?>
<svg xmlns="http://www.w3.org/2000/svg" version="1.1" viewBox="0 0 185 90">
  <defs>
    <style>
      .cls-1 {
        fill: aqua;
      }

      .cls-2 {
        fill: #fff;
      }

      .cls-3 {
        fill: none;
        stroke: #fff;
        stroke-miterlimit: 10;
        stroke-width: 4px;
      }

      .cls-4 {
        fill: #1d1d1d;
      }

      .cls-5 {
        display: none;
      }
    </style>
  </defs>
  <!-- Generator: Adobe Illustrator 28.7.1, SVG Export Plug-In . SVG Version: 1.2.0 Build 142)  -->
  <g>
    <g id="_Слой_3" data-name="Слой_3" class="cls-5">
      <rect class="cls-1" x="-2" y="-4" width="190" height="98"/>
    </g>
    <g id="_Слой_2" data-name="Слой_2">
      <path class="cls-4" d="M182.1,50.9h-.2v39.9H3.1v-39.9h-.2C22.7,22.7,55.4,4.2,92.5,4.2s69.8,18.4,89.6,46.6Z"/>
      <g>
        <path class="cls-2" d="M68.8,32c.2.8.4,1.6.6,2.3.2.7.6,1.2,1,1.6,0,.1.2.2.5.2h.8c.2,0,.3.2.4.5-.8.3-1.7.6-2.9.9-.7.1-1.6.3-3,.6-1.5.3-2.5.5-3.2.7v-.6c0-.3.2-.4.5-.5.3,0,.4-.1.7-.2,0-1.8-.4-3.8-.8-5.8-.4-2.1-1-4.6-1.7-7.7-.5-1.9-.7-2.9-1.2-4.9,0-.5-.2-1-.2-1.5v-1.1c0-.4-.3-.7-.6-.9-3,.8-4.5,1.2-7.4,2.2.5,1.4,1,3.7,1.6,6.6.7,3.1,1.3,5.5,1.7,7,.6,1.9.9,2.9,1.5,4.8.2.8.4,1.2.6,2,0,.2.2.3.4.4.2,0,.4.1.7.2.3,0,.5,0,.6.2,0,0,.2.2.3.3v.3c0,.2-.3.4-.9.7-.5.3-1.2.5-1.9.8-1.3.4-2.3.7-3.2,1h-.7s-.2-.3-.3-.5v-.4c0-.1.2-.3.4-.5l.3-.3c0-.1.3-.2.3-.4-.8-2.1-1.1-3.1-1.8-5.2-.2-.6-.3-.8-.5-1.4-.7-1.9-1-2.8-1.6-4.7-.2-.6-.3-.9-.5-1.4s-.4-1.3-.7-2.5c-.3-1.3-.6-2.2-.9-2.9-.4-1.1-.8-2-1.3-2.7-.7.3-1.3.5-1.7.6s-.8,0-.9,0c.2-.6.9-1,2-1.5.5-.2,1-.3,1.5-.5.6-.2,1-.3,1.3-.4,1-.3,1.5-.5,2.5-.9,5.9-2,8.9-2.8,14.9-4,.6-.1,1,0,1,.3s0,.5-.4.8c-.3.3-.7.5-1.2.6,1.5,7.1,2.1,10.6,3.6,17.7h0Z"/>
        <path class="cls-2" d="M94.4,33.2c.2.1.4.2.5.3,0,0,.2.2.2.3v.7h-.2c0,0-.3,0-.5.1-.3,0-.5.1-.7.1h-4.4c-.7,0-1,0-1.6.1-.3-.2-.5-.3-.5-.4,0,0,0-.2.3-.3.2-.1.3-.2.4-.3,0-.1,0-.2.2-.3,0,0,.3-.2.5-.3.2,0,.4-.2.5-.2s.2-.2.2-.3c.2-1.2.2-2.6.2-4.2s-.2-2.7-.4-4.3c-.2-1.9-.3-3.3-.3-4.2v-2.5c0-1.4-.2-2.5-.3-3.3-1.2,2-1.7,3.1-2.8,5.1,0,0,0,.1,0,.3,0,.1-.2.3-.3.6,0,0-.3.5-.7,1.2s-.7,1.4-.9,1.9c-.3.9-.6,1.7-1,2.4-.3.7-.8,1.6-1.3,2.6-.7,1.3-1.2,2.5-1.6,3.6,0,0-.2.4-.5,1.1-.5,1.2-.8,1.8-.8,1.8-.4.8-.9,1.3-1.5,1.4-.4,0-.8,0-1.2-.4s-.6-.9-.7-1.5c0-.8-.2-1.2-.3-2-.2-1.2-.3-2.6-.4-4.2,0-1.2,0-2.3-.2-3.1,0-.7-.3-1.5-.6-2.4-.2-1.2-.3-1.8-.5-3v-.5c0-.6,0-.9-.2-1.5v-.5c-.2-.2-.4-.5-.5-.8,0-.2,0-.5-.2-.9,0-.4,0-.7-.2-1,0-.3-.3-.5-.5-.7h-1c-.3,0-.6-.1-.9-.2,0,0-.2,0-.3-.1,0,0-.2-.2-.2-.3,0-.2,0-.4.3-.6,1.4-.2,2-.4,3.4-.6.4,0,1.1-.2,1.9-.4.6-.1,1.1-.2,1.3-.3h1.6c.5,0,.9,0,1.3.2.4.2.6.4.6.6s-.2.4-.7.5-1.1.2-1.7.3c-.3.2-.3.8-.2,1.8,0,.5.2,1.5.6,3,0,.5.2,1,.3,1.3,0,.9.2,2,.3,3.4s0,2.1,0,2.1v-.4c.2,1.9.3,2.9.5,4.8.2-.5.5-1.1.7-1.8,0-.3.2-.6.3-.8,0-.2.2-.4.3-.6,0-.2.2-.4.3-.6v-.5c0-.3.3-.6.6-1.1.6-1,1-1.8,1.3-2.6.7-1.2,2.2-4.5,5.2-9.6,0-.4.2-.7.6-1,.4-.3.9-.4,1.5-.4h4.4c.4.1.8.3,1,.5s.3.5.3.7,0,.4-.3.6c-.2.2-.6.2-1,.2-.4.5-.6,1-.7,1.6s0,1.5,0,2.5v8.6c0,1,.2,2.4.5,4.1.3,1.8.2,3.7.4,4,0,.1.5.3.8.4l-.5.2Z"/>
        <path class="cls-2" d="M110.2,20c.2,0,.5.2.9.4.3.1.7.3,1.2.5.8.7,1.5,1.6,1.9,2.6.5,1.1.4,2.3.4,3.4v1.5c-.3,1.6-1,3-2.2,4.3-1.2,1.3-2.5,2.1-4.2,2.6-.7.1-1.4.2-2,.2s-1.6-.1-3-.2c-.5,0-1.2-.2-2.1-.4s-1.7-.3-2.1-.4h-1.3c-.3,0-.5-.1-.6-.3-.2-.1-.2-.4-.2-.7v-.5h2.1c.2-.4.3-1.1.5-2,0-.4,0-1.2,0-2.1,0-1,0-1.8.2-2.5,0-.7.2-1.3.4-2v-1c0-1,0-1.5,0-2.5,0-2,0-3.1.2-5.1,0-1.6,0-2.4.2-4.1-1.2,0-2-.1-2.6-.3-.6-.1-.9-.4-.9-.9.4-.2.9-.3,1.6-.4h2.7c2.9.2,5.1.4,6.8.7s2.8.7,3.5,1.3c0,.1.2.3.3.4,0,.1.2.2.2.3.4.5.6.9.8,1.3,0,.4,0,.9,0,1.3s0,.6,0,.9c0,.6-.5,1.2-1.1,1.9-.6.6-1.3,1.1-2,1.5,0,.2,0,.3.2.4h.2ZM104.9,12.7c0,.3-.2.7-.2,1.3v2.1c0,.5.2,1,.6,1.5,0,0,.3.1.4.2.2,0,.4,0,.7-.1.2-.1.5-.3.8-.5.3-.1.4-.2.7-.4.5-.6.8-1.2,1.1-1.6.3-.5.4-.9.5-1.3,0-.4,0-.8-.2-1-.3-.3-.9-.5-1.5-.6s-1.3-.2-1.9-.3c-.4.2-.7.4-.8.7h0ZM108.4,32.3c.3-.2.6-.4.7-.8,0-.3.2-.7.3-1.1.4-.2.7-.4.7-.4,0,0,0-.2.2-.5.3-.3.4-.7.5-1.2v-2.9c0-.3,0-.5.2-.8v-.6c0-.2-.2-.5-.4-.8h0v-.5s0-.2-.2-.4c0-.2-.2-.4-.3-.6-.7-.6-1.6-1.1-2.4-1.4-.9-.4-1.7-.6-2.6-.6-.4.2-.6.5-.7.8,0,.4-.2.7-.2,1.1-.3,3.3-.4,4.9-.6,8.1,0,1.4-.2,2.1-.3,3.5,1,0,1.7.1,2.3.1s1.1,0,1.4-.3l1.6-.8h0Z"/>
        <path class="cls-2" d="M131.3,39.6c-.5.1-.9.2-1.3.3-1.5.1-3,0-4.5-.4s-2.8-1.1-3.9-2c-1.2-.9-1.9-1.8-2.4-2.7-.7-1.3-1.3-2.7-1.6-4-.2-.9-.2-1.9,0-2.8,0-.9.3-2,.5-3.4v-.9c0-.4,0-.8,0-1,0-.4.2-.8.4-1.1,0,0,.2-.3.4-.8.2-.4.3-.8.4-1.1,0-.1.3-.4.5-.9.2-.4.4-.7.6-1,.2-.2.5-.4.7-.5.3-.1.9-.5,1.6-.9,1-.6,1.8-1,2.5-1.3s1.6-.5,2.5-.5,2,0,3.3.4c.6.2,1,.3,1.3.4,1.6.5,2.9,1,3.8,1.6s1.6,1.7,2.2,2.4c.8.9,1.8,2.1,2.3,3.4.5,1.3.6,2.7.3,3.9,0,.7-.4,1.5-.8,2.6-.2.4-.2.6-.4,1-.6,1.6-1.4,2.9-2.1,3.8-1.6,1.9-3.3,3.5-5.2,4.8-.3.2-.7.4-1.2.5v.2ZM131.2,36c.7-.7,1.2-1.3,1.6-1.8.5-.5,1-1.1,1.3-1.7.3-.6.6-1.4.9-2.4,0-.3.3-.7.6-1.2,0,0,0-.3.2-.5s.2-.5.3-.7.2-.5.2-.8,0-.5.2-.7c0-.7.2-1.2.3-1.5-.2-.4-.3-1-.3-1.7s-.2-1.3-.4-1.8c0-.3-.2-.4-.3-.7-.3-.8-.6-1.4-.9-1.9s-.7-.9-1.3-1.2c-.6-.2-1.1-.3-1.6-.5s-1.2-.4-1.7-.6c-1,.3-1.7.6-2.3,1s-1.3,1-1.8,1.6-.8.7-1,1.2c-.2.4-.3,1.1-.5,1.6-.3.9-.8,2.1-1.1,3.4-.5,2.3-.7,4.9-.7,7.7,0,.3.2.5.2.8s0,.5,0,.6c0,.4,0,.7.2.9,0,.2.2.4.3.6.2,0,.3.1.4.2v.4c0,.2,0,.3.2.5.3.4.9.7,1.7.9.7.2,1.5.3,2.1.3s1.2,0,1.5-.3c.5-.4,1-1,1.6-1.7h0Z"/>
        <path class="cls-2" d="M37.1,84.3c.4-.2.7-.1.9,0,0,.2.2.5,0,.9-.4.3-1.1,1-2,2l-1.5,1.5c-.6.6-1.2,1-1.7,1.4h-.8c-.2,0-.3-.1-.4-.2,0-.4,0-.7.2-.8,0-.1.3-.4.8-.9,0-.3,0-.6-.4-1l-.6-.6c-.3-.2-.4-.4-.5-.5-.2-.2-.3-.3-.5-.6-1.1-1.1-1.9-2.2-2.8-3.2-1-1.2-1.7-2-2.2-2.6-.3-.3-.5-.6-.7-.8-.4-.4-.6-.7-1-1.1l-1.1-1.1-.6-.6h0c-.2-.3-.4-.5-.6-.6-.5-.6-1-1.1-1.5-1.6s-.3-.4-.5-.6c-.2-.2-.3-.3-.5-.3h-.5c-.2.1-.5.3-.8.6s-.4.3-.5.4c0,0-.3.2-.6.2-.5.2-.8.3-.9.1,0,0,0-.2,0-.4,0-.2,0-.4,0-.6,0-.2,0-.4.2-.6,1.2-1.5,2.8-3.2,4.8-5.1,1.2-1,1.7-1.5,3-2.5.2-.1.3-.2.4-.3,0,0,.2-.2.3-.2.2-.2.4-.3.6-.4,1.2-.8,2.5-1,4.1-.7,1.6.3,3.1.9,3.9,1.8.6.7,1.1,1.6,1.4,2.1.3.6.4,1.2.5,1.7,0,.6,0,1.2,0,1.9s-.4,1.5-.7,2.4c0,.5-.2.7-.4,1.1-.3.6-.7,1.1-1.2,1.5s-1.2,1.1-2,1.9v.2c0,0-.2.2-.2.3s0,.3,0,.4c0,.1.2.3.5.6s.4.4.5.6c.2.2.2.3.4.4.4.5.8,1,1.3,1.7,0,.2.3.4.5.8.3.4.5.7.7.9.5.6,1,1,1.6,1.4.5-.4,1-.8,1.4-.9h-.6ZM28.7,76.8c.3,0,.5,0,.8-.2.3-.1.6-.3.8-.5.3-.2.5-.5.6-.7.3-.7.5-1.4.6-2.1,0-.8,0-1.4-.2-1.9,0-.2-.2-.4-.3-.8,0-.3-.3-.7-.4-.9-.2-.3-.4-.6-.7-1-.5-.6-1-1.2-1.6-1.6-.7-.5-1.3-.8-1.8-1-.2.1-.3.2-.5.3-.2,0-.3.1-.4.2-.7.2-1.3.6-1.7,1-.7.6-1.1.9-1.6,1.5.4.8.8,1.5,1.4,2.2.3.3.6.7,1,1.1l.8.8c.7.7,1.3,1.3,1.7,1.9.7.8,1,1.2,1.6,2v-.3Z"/>
        <path class="cls-2" d="M48.8,69c-.8-1.3-1.6-2.3-2.3-3.2-.4.2-1,.5-1.8.8-1.3.5-2.1,1-2.8,1.4,0,.4,0,.7,0,1.1.2.4.4.9.8,1.5.2,1,.6,1.9,1.1,2.9s1.4,3.3,2.1,3.7h.5c0,0,.2-.1.4-.2.2-.1.3-.2.4-.2h.4c0,.2.2.4.3.6,0,.2,0,.3,0,.3-.3.5-.6.9-1,1.2,0,0-.2.2-.4.3-.3.2-.6.4-.9.5-.4.2-.7.4-.9.5-.4.2-.7.5-.9.8-.6,0-1,0-1.6-.1.2-1,.5-1.6.9-1.9.2-.2.3-.3.3-.5s-.2-.4-.4-.7c-.5-1.2-1.5-3.2-2.6-6-1.1-2.3-1.6-4-2-4.8-.3-.6-.7-1.3-.8-2.1-.2-.8,0-1.6-.2-2.3,0-.9-.3-2-.2-3s.3-2.1.6-3.4c0,0,0-.2.2-.4,0-.2.3-.4.5-.7.2-.2.5-.5.8-.6.3-.2.6-.3.9-.3.5,0,1.1,0,1.6.1.6.2,1.2.4,1.6.7s.8.6,1,1c.9.5,1.6,1.2,2.1,2,.7,1,2,3.1,4,6.3,1.1,1.8,2.1,3.5,3.1,5.2.6,1.2.8,1.7,1.4,2.9l.2.2c0,0,.2.1.2.1.3.1.5.2.5.4s0,.4-.3.7c-.3,0-.4.1-.7.2-.5.2-1,.5-1.5.8-.2.1-.4.2-.7.4s-.6.3-.8.5c0,0-.2.2-.4.3s-.3.2-.4.3c-.3.2-.5.2-.6,0,0-.2,0-.4,0-.8s0-.7.2-1c0-.3.2-.5.4-.6-1.1-2-1.9-3.6-2.6-4.8h.3ZM39.6,61.2c0,1,.3,1.9.5,2.9,0,.2.2.6.4,1.2.2.7.4,1.2.5,1.4.9-.3,1.6-.6,2.3-1,.8-.4,1.6-.8,2.3-1.3-.6-1.1-.9-1.7-1.5-2.8-.4-.7-.9-1.4-1.6-2.1s-1.4-1.4-2.1-1.9c0,0,0-.1-.3-.2,0,0-.4,0-.6.1-.2.3-.2.5-.4.8,0,.9.2,1.8.3,2.8h0Z"/>
        <path class="cls-2" d="M65,61c.3.9.4,1.9.4,2.9v1.5c0,.6,0,1.1-.3,1.5-.2.6-.4,1.2-.7,1.5-.2.4-.5.7-.8,1s-.5.5-.6.7c-.4.4-1,.8-1.7,1.2h0c-.6.2-1.3.2-2,0s-1.4-.5-1.8-1-.6-.7-1-1.6c-.3-.7-.6-1.5-.9-2.4-.3-.9-.5-1.7-.6-2.3,0-.2,0-.4.2-.5.2-.2.4-.3.7-.4.3-.1.5-.2.8-.2s.4.1.4.3c.3,1.4.7,2.5,1.1,3.3.4,1,.8,1.7,1.3,2.2.4.5.9.8,1.3.7.2,0,.4-.2.6-.4.2-.2.4-.3.5-.4.2-.4.4-.7.6-1.1,0-.4.2-.9.2-1.3v-1.6c0-.1,0-.3,0-.4,0-.1,0-.2,0-.3,0-.4,0-.8,0-1.3s-.2-.6-.5-1c0-.1,0-.2-.2-.4,0-.2,0-.3-.2-.5,0-.3,0-.4-.2-.7,0-.1,0-.3,0-.5,0-.3-.3-.7-.6-1.1h0c0-.1,0-.2-.3-.4,0,0-.2-.1-.4-.3-.2-.1-.4-.3-.7-.4-.7-.1-1.5,0-2.2.3-.3.1-.6.3-1,.4,0,0-.3,0-.4-.1-.2-.1-.3-.3-.4-.6,0-.3-.2-.5-.2-.8s0-.4.2-.5h.4c.4-.4.7-.8.8-1.2s.2-.9.2-1.5c0-.9,0-1.8-.4-2.6-.3-.7-.6-1.2-1.1-1.6h-.8c-.4,0-.7,0-.9.2-.6.2-1.1.5-1.6.8s-.9.7-1.1,1c0,.3.2.7.4,1.2s.3.9.4,1.2c0,.3,0,.5,0,.7-.2.1-.2.2-.3.2-.3.1-.6.1-.9-.1-.3-.2-.5-.6-.8-1.1,0,0-.2-.2-.3-.5,0-.2-.3-.4-.4-.6,0-.1-.2-.3-.5-.6-.3-.2-.5-.5-.6-.6,0-.2,0-.4,0-.5,0-.2,0-.5.5-.7.2-.1.5-.2.7-.2.3,0,.5-.1.6,0,0,0,.2.2.2.4.2,0,.4-.2.6-.3.2-.1.3-.3.5-.4l.2-.2c.7-.5,1.2-.8,1.6-.9,0,0,.3-.1.5-.2,1.7-.5,3-.7,3.8-.5,0,0,.2.1.3.2,0,0,.2.2.4.3.5.3.8.6,1.1.8.3.3.5.8.7,1.2,0,.2.3.4.3.5.2.6.2,1.5-.2,2.5-.3,1-.7,1.9-1.2,2.7h.7c.6,0,1.2.1,1.5.1,1,.3,1.8.8,2.6,1.5s1.4,1.6,1.6,2.5c0,.3.3.7.5,1.1v.2Z"/>
        <path class="cls-2" d="M69.8,65.8c0-.3,0-.7-.2-1.1,0-.3,0-.6-.2-1-.2-1.6-.2-3.9,0-7,0-1.1,0-1.7,0-2.8,0-3.6,0-7.1-.5-10.4.2-.3.3-.4.6-.7.8-.4,1.4-.6,1.8-.7.5-.1,1,0,1.4,0,.4.1.8.4,1,.8.6,1.9,1.4,3.8,2.1,5.9.8,2.1,1.7,4.7,2.9,7.8,1.3,3.6,2.1,6.1,2.5,7.5h1c.3,0,.5.3.9.7v.3c0,.1-.2.2-.4.3-.2,0-.5.1-.8.2-.4,0-1,0-1.6.1-.9,0-1.6.1-1.9.2-.4,0-.8.2-1.1.4-.2-.2-.3-.5-.4-.7v-.7c0-.2.3-.4.5-.7-.6-1.3-1.1-2.6-1.5-3.8s-.8-2.8-1.3-4.6c-.6-2.4-1.1-4.3-1.6-5.5-.3-.3-.5-.5-.7-.6s-.5-.1-.8,0v3.6c0,1.2-.2,2.6-.3,4.3,0,2-.2,3.6-.2,4.9s0,2.5.3,3.8c.2,0,.4,0,.6.1.2.1.4.2.6.1,0,.2,0,.3,0,.5v.3c0,.1-.2.2-.4.3-.3,0-.7.2-1.3.3-.5.1-.7.2-1.2.3-.4.1-.7.2-1,.4,0,0,0-.2-.3-.3,0-.2-.2-.4-.3-.6,0-.2,0-.4,0-.5.2,0,.5-.2,1.1-.4,0-.4,0-.7,0-1h0Z"/>
        <path class="cls-2" d="M100.2,63.4c.2.1.3.2.4.3,0,0,0,.2,0,.3v.7h-2.1c-.3,0-1.1,0-2.3-.1h-1.3c-.2-.2-.3-.4-.3-.5,0,0,0-.2.2-.3,0-.1.3-.2.3-.3s0-.2,0-.3c0,0,.2-.1.4-.2.2,0,.3-.2.4-.2,0,0,0-.2,0-.3.2-1.1.3-2.5.4-4.2v-14.5c-1.1,2-1.6,3-2.4,4.9,0,0,0,.1,0,.3,0,.1-.2.3-.3.5,0,0-.3.4-.6,1.1-.4.7-.6,1.3-.8,1.9-.3.9-.6,1.6-.9,2.3-.3.7-.7,1.5-1.1,2.5-.6,1.3-1,2.4-1.4,3.4,0,0-.2.4-.4,1.1-.4,1.1-.6,1.7-.7,1.7-.3.8-.7,1.2-1.2,1.3-.3,0-.6-.2-.9-.5-.3-.4-.4-.9-.5-1.5,0-.8,0-1.2-.2-2,0-1.2-.2-2.6-.2-4.2v-3.1c0-.7-.2-1.5-.4-2.4,0-1.2-.2-1.8-.3-3v-.5c0-.6,0-.9,0-1.5v-.5c0-.2-.3-.5-.4-.8,0-.2,0-.5,0-.9,0-.4,0-.8-.2-1,0-.3-.2-.5-.4-.7h-.8c-.2,0-.4-.2-.7-.3,0,0,0,0-.2-.2,0,0,0-.2-.2-.3,0-.2,0-.4.3-.5,1.1-.1,1.6-.2,2.7-.3.3,0,.9-.1,1.6-.2.5,0,.8-.2,1-.2.4,0,.8,0,1.3.2.4,0,.7,0,1,.3.3.2.4.4.5.7,0,.2-.2.4-.6.5-.4,0-.9.1-1.5.2-.2.2-.3.8-.2,1.7,0,.5,0,1.5.3,3,0,.6.2,1,.2,1.3,0,.9,0,2.1,0,3.5v2.1-.4c0,1.9,0,2.9.2,4.8.2-.5.4-1.1.6-1.8,0-.3.2-.6.3-.8,0-.2.2-.3.3-.6,0-.2.2-.4.2-.5v-.5c0-.3.3-.6.5-1,.5-.9.9-1.8,1.1-2.5.6-1.2,1.9-4.3,4.6-9.3,0-.4.2-.7.5-.9.3-.3.7-.4,1.2-.3.7,0,1.1,0,1.7.1h1.6c.3.1.6.3.8.6.2.2.2.5.2.7s0,.4-.3.6c-.2.2-.5.2-.8.2-.3.4-.6,1-.7,1.6s-.2,1.4-.3,2.5c0,1.8-.2,2.7-.3,4.5,0,1.6,0,2.4-.2,4.1v4.1c0,1.9,0,3.6,0,4.1,0,.1.4.3.6.4h.6Z"/>
        <path class="cls-2" d="M113.3,50.9c0,0,.3.2.7.5.2.1.5.3.9.5.6.7,1,1.6,1.3,2.7.3,1.1,0,2.3,0,3.4,0,.4,0,.9-.2,1.4-.4,1.6-1.1,2.9-2.1,4.2-1.1,1.2-2.1,2.1-3.4,2.5-.5.1-1.1.2-1.6.1-.5,0-1.3-.1-2.2-.3-.4,0-.9-.2-1.6-.5s-1.3-.4-1.6-.4-.8,0-1-.2c-.2,0-.4-.2-.5-.3,0-.2,0-.4,0-.7v-.5c.7,0,1,0,1.6.2.2-.4.3-1.1.5-2,0-.4.2-1.2.3-2.1,0-1,.2-1.8.3-2.5,0-.7.3-1.3.5-2,0-.4,0-.6,0-1,0-1,.2-1.5.3-2.5.2-2,.4-3.1.6-5.1.2-1.6.3-2.4.5-4-.9-.1-1.6-.2-2-.4s-.7-.5-.6-.9c.3-.2.8-.3,1.3-.3s1.3,0,2.2.2c2.2.3,4.1.6,5.3,1,1.3.3,2.1.8,2.6,1.4,0,.1,0,.3.2.4,0,.1,0,.2,0,.3.3.5.4.9.5,1.3v2.2c0,.6-.5,1.2-1,1.8-.6.6-1.2,1.1-1.7,1.4,0,.2,0,.3,0,.4l-.2-.2ZM109.8,43.4c0,.3-.2.7-.3,1.3,0,.9-.2,1.6-.2,2.1s0,1,.3,1.5c0,0,.2.2.3.2.2,0,.4,0,.5-.1.2,0,.4-.2.7-.4.2-.1.3-.2.6-.3.4-.6.8-1.1,1-1.6.3-.5.4-.9.5-1.3v-1c-.2-.3-.6-.5-1.1-.6s-1-.3-1.6-.3c-.4.2-.6.4-.7.7v-.2ZM110.8,63c.3-.2.5-.4.6-.8,0-.3.2-.7.3-1.1.3-.2.5-.3.6-.4,0,0,0-.2.2-.5.2-.3.4-.7.5-1.2,0-.2,0-.8.2-1.6,0-.6,0-1,0-1.2,0-.3,0-.5.2-.8v-.6c0-.2,0-.5-.2-.8h0v-.5s0-.2,0-.4c0-.2,0-.4-.2-.7-.5-.6-1.1-1.1-1.7-1.5-.7-.4-1.4-.6-2-.7-.3.2-.5.5-.7.8,0,.3-.2.7-.3,1.1-.5,3.2-.7,4.9-1.2,8.1-.2,1.4-.3,2.1-.5,3.5.7.1,1.3.2,1.7.2s.8,0,1.1-.2c.5-.3.8-.5,1.3-.8h.2Z"/>
        <path class="cls-2" d="M136.6,52.6c-.3.5-.7,1.3-1.1,2.2-.7,1.7-1.1,2.5-1.7,4.2-.6,1.5-1,2.2-1.6,3.7-.4.9-.8,2.3-1.3,3.9-.5,1.8-1.4,3.3-1.4,3.8s.2.4.4.6c0,.2.2.3.3.4v.4c-.2.4-.3.6-.4.9h0c0-.1,0-.2,0-.3h-.3c-.2,0-.4,0-.6-.1h-.3l-.6-.3c-.2,0-.6-.3-1.2-.5-.5-.2-.7-.3-1.2-.5,0-.3-.2-.4,0-.5,0,0,0-.1.3-.2.2,0,.3-.1.4-.1,0-.1,0-.2.2-.2h1c0,0,.2,0,.2-.2.6-1,1.2-2.3,1.7-3.8.5-1.2,1-2.6,1.5-4.1.6-1.8,1.1-3.1,1.5-3.9v-.4c0-.1,0-.2-.2-.3,0,0-.2,0-.2-.1-.5-.3-1.1-.7-1.8-1-.6-.2-1.4-.5-2.1-.7-.9-.2-1.6-.5-1.9-.6-.7.3-1.2.6-1.5,1s-.6,1.1-.9,2c-.7,2.1-1,3.2-1.6,5.3-.2.6-.3.9-.5,1.5v.8c0,.1,0,.3,0,.6,0,.2,0,.4-.2.6v.6c.2,0,.4.2.6.5s.2.5.2.7-.3.4-.7.4c-.4-.1-1-.3-1.9-.5-.7-.1-1.2-.3-1.5-.3-.6-.2-1.2-.4-1.7-.7v-1c0-.3.2-.4.4-.5.4.1.7.2,1.1.3.2-.8.3-1.2.5-2,1.3-4.5,1.8-6.8,3-11.3,0-.4.2-.6.3-1,0-.2,0-.3,0-.5.2-.6.2-.9.4-1.4,0-.2,0-.3,0-.5v-.9c0-.2,0-.5.2-.9s.2-.7.2-1,0-.5,0-.8h-.2c0,0-.3-.1-.5-.3-.2-.1-.4-.3-.5-.5,0,0,0-.1,0-.2v-.4c0-.2.2-.3.4-.4,1.1.3,1.6.4,2.7.7.3,0,.8.2,1.5.3s1.3.3,1.7.4c.6.2,1.1.4,1.5.7.4.1.6.3.8.6.2.3.3.6.2.8,0,.2-.3.3-.7.2-.4,0-.9-.2-1.4-.4-.2,0-.4.2-.5.4v.6c0,.4,0,.8,0,1,0,.2-.2.5-.5,1-.2.4-.4.8-.6,1.2,0,.4-.2.8,0,1.2,1.2.7,2.3,1.2,3.6,1.7,1.3.5,2.5.8,3.8,1.1.4-1.1.8-2.1,1.1-3,.3-.9.4-1.7.3-2.5,0-.1-.2-.3-.5-.5,0,0-.4-.2-.7-.3-.3-.1-.6-.2-.8-.3-.2,0-.3-.2-.4-.4,0-.4.2-.6.4-1,1.2,0,2.1.2,3,.6.3.1.7.3,1,.5.4.2.7.3.8.4.2,0,.4.2.6.2s.4.2.6.2c.3.2.5.5.5.8v.7c0,.2-.3.4-.5.4h-.8c-.5.3-.9.7-1.2,1.2h-.3Z"/>
        <path class="cls-2" d="M142.1,78.1h-1.1c-1.3,0-2.3-.4-3.3-1s-1.8-1.4-2.4-2.4-1-2-1.1-3c0-1.4-.2-2.8,0-4,0-.9.4-1.8.7-2.6.3-.9.8-1.9,1.4-3.1,0-.2.2-.5.3-.9,0-.4.3-.7.4-.9.2-.3.4-.7.6-1,0,0,.2-.3.5-.7s.5-.7.6-.9c0-.1.3-.4.6-.8.3-.4.5-.7.7-.8.2-.2.5-.3.7-.3.3,0,.9-.3,1.6-.6,1-.4,1.7-.6,2.3-.8s1.4-.2,2.1-.1c.8,0,1.6.4,2.5.9.4.2.7.5.9.6,1.1.7,2,1.5,2.6,2.2s.8,1.8,1.1,2.6c.4.9,1,2.2,1,3.6s-.3,2.6-.9,3.7c-.3.6-.8,1.4-1.5,2.3-.3.4-.4.5-.6.9-1,1.4-1.9,2.5-2.8,3.2-1.8,1.5-3.7,2.8-5.6,3.7-.3.1-.7.2-1.1.3h0ZM143.1,74.7c.7-.5,1.3-1.1,1.7-1.4.5-.4,1.1-.9,1.5-1.4s.9-1.2,1.5-2.1c.2-.3.5-.6.8-1,0,0,.2-.2.3-.4.2-.2.3-.4.4-.6s.3-.4.4-.7c.2-.3.3-.5.3-.6.3-.6.5-1,.7-1.3,0-.4,0-1,.3-1.6.2-.7.3-1.3.2-1.7v-.7c0-.8,0-1.4,0-1.9,0-.5-.3-.9-.7-1.4-.4-.2-.8-.5-1.2-.8-.4-.3-.9-.6-1.3-.8-.9,0-1.6.3-2.1.5-.6.3-1.3.8-1.9,1.2-.4.3-.9.6-1.2.9-.3.4-.6.9-.9,1.5-.5.8-1.3,1.9-1.8,3-1.1,2.1-1.9,4.5-2.7,7.2v1.4c0,.4,0,.6,0,.9v.6c0,0,.2.1.2.2v.8c0,.4.5.7,1.1,1.1.5.3,1,.5,1.6.6s1,0,1.3,0c.5-.3,1.1-.8,1.8-1.3v-.2Z"/>
        <path class="cls-2" d="M168.6,74.5c0-.1.2-.2.4-.4.2-.2.3-.4.4-.5v-.5c-.2-.5-.5-1.1-.7-1.4-.6-.7-1.6-1.4-2.1-1.9-.7-.5-1.3-.9-1.9-1.1-.3,0-.6,0-.8.1-.2.1-.5.4-.8.7-.5.6-1,1.2-1.6,1.8s-.6.7-1,1.1c-.2.2-.5.6-.8,1.3-.3.4-.4.7-.6.9-.3.3-.6.5-.9.6,0,.4.4.8.9,1.3s1.1,1.1,1.7,1.8c.3-.3.5-.5.8-.7s.5-.1.7,0c.2.2.4.4.5.5,0,.1,0,.4.2.8-.2,0-.4.2-.5.3,0,0-.2.1-.3.3-.2.3-.5.6-.7.9-.3.4-.5.6-.6.8-.2.2-.4.4-.6.5-.2,0-.4,0-.5-.2,0,0,0-.2-.2-.4,0-.2-.2-.5-.2-.7v-.5c0-.2.2-.2.4-.4-1-.9-1.5-1.3-2.4-2.2-.5.3-1.1.7-1.6,1.4-.4.4-.7.9-1,1.3-.4.5-.7.9-.8,1.1,0,0-.7.8-1.6,2.1-.4.6-.8,1.1-1.1,1.4.5.7.9,1.3,1.4,1.7.4.5,1.1,1.4,1.8,1.8.2.1.6,0,.8,0s.3-.2.6-.5c.2-.3.5-.4.6-.5.2,0,.5-.1.7,0,.4.2.5.8.3,1.2s-.6.9-1.1,1.5c-.2.2-.4.3-.7.3h-1.3c-.9-.8-1.3-1.2-2.1-2.1-1.5-1.3-2.6-2.4-3.6-3.3-1-.9-2-1.9-3.1-3,.2-.3.4-.5.6-.8.8.6,1.1.8,1.8,1.4.7-.6,1.3-1.3,1.9-2.1.4-.5.9-1.2,1.6-2.2.6-.9,1.2-1.8,1.6-2.5.3-.3.4-.5.6-.8,1.3-1.6,1.8-2.4,3-4.1.5-.6.7-1,1.2-1.6,1.1-1.4,1.6-2.2,2.7-3.6-.9-.7-1.4-1.1-2.2-1.8.2-.3.4-.5.6-.8.9.4,2.1,1.2,3.8,2.4,1.6,1.1,2.7,1.9,3.6,2.4,2.2,2,3.3,3,5.4,5.1v.8c0,.2,0,.3-.2.4,0,.1-.3.4-.5.7-.3.5-.5.8-.6.9-.3.3-.6.4-.9.3-.3,0-1.1-.4-1.2-.8v-.6h0Z"/>
      </g>
    </g>
    <g id="_Слой_1" data-name="Слой_1">
      <path class="cls-3" d="M1,51.3S27.4,5.6,91.9,3.9c59.5-1.3,92.1,48.1,92.1,48.1"/>
    </g>
  </g>
</svg>