<?xml version="1.0" encoding="UTF-8"?>
<svg xmlns="http://www.w3.org/2000/svg" version="1.1" xmlns:xlink="http://www.w3.org/1999/xlink" viewBox="0 0 500 500">
  <defs>
    <style>
      .cls-1 {
        fill: #fff;
      }

      .cls-2 {
        fill: none;
      }

      .cls-3 {
        display: none;
      }

      .cls-4 {
        fill: #1d1d1d;
        stroke: #fff;
        stroke-width: 4px;
      }

      .cls-5 {
        clip-path: url(#clippath);
      }
    </style>
    <clipPath id="clippath">
      <rect class="cls-2" x="193.3" y="151.9" width="112.6" height="47.8"/>
    </clipPath>
  </defs>
  <!-- Generator: Adobe Illustrator 28.7.1, SVG Export Plug-In . SVG Version: 1.2.0 Build 142)  -->
  <g>
    <g id="_Слой_3" data-name="Слой_3" class="cls-3">
      <rect class="cls-4" x="-35" y="-19" width="657" height="560"/>
    </g>
    <g id="_Слой_2" data-name="Слой_2">
      <g id="_Эллипс_1" data-name="Эллипс_1">
        <path class="cls-4" d="M442.2,190.5v166H42.2v-166h118c20.3-28.3,53.5-46.7,91-46.7s70.7,18.4,91,46.7h100Z"/>
      </g>
      <g id="_Сгруппировать_10" data-name="Сгруппировать_10">
        <g class="cls-5">
          <g id="_Сгруппировать_9" data-name="Сгруппировать_9">
            <path id="_Контур_66" data-name="Контур_66" class="cls-1" d="M215,176.8c0-.9-.1-1.8-.2-2.5s-.1-1.3-.1-1.5c0-.6,0-1.5,0-2.7,0-1.1,0-1.7,0-2.8,0-.5,0-.7,0-1.2,0-.8,0-1.4,0-1.8,0-.5,0-.9-.2-1.3-.2-.8,0-1.6.5-2.2.5-.8,1.2-1.3,2-1.6,1.9-.6,2.9-.9,4.9-1.4.2,0,.4,0,.6,0,.2.1.4.2.6.4.3.2.5.4.8.6-.3.4-.6.7-.9,1-.3.3-.6.4-1,.5-.4.1-.8.1-1.3,0-.1.7,0,1.4,0,2,.1.6.3,1.1.5,1.7.3.6.5,1.3.6,1.9l.6,2.9c.3,1.4.4,2.1.7,3.5l1.2,5.7c.2.8.2,1.2.4,2,0,.3.1.8.3,1.4,0,.5.2,1,.4,1.5.3.9.5,1.8.7,2.6.1.6.3,1.4.4,2.4.2,1,.3,1.7.4,2.1.6-.2,1.3-.2,1.9,0,.6.3.9.6,1,1,0,.3,0,.6-.3.8-.2,0-.5,0-.7,0,0,0-.2,0-.3,0-.1,0-.3,0-.4,0-.2,0-.4.2-.6.3-.2.1-.4.3-.7.3-.5,0-.7,0-1.1,0,0,0,0,0-.2,0l-.8.4c-.3.2-.7.3-1,.4,0-.1,0-.2-.2-.3-.1,0-.2-.1-.4-.1-.2,0-.3-.2-.3-.4,0-.2,0-.4,0-.5.2-.2.4-.4.6-.6.3-.3.6-.6.9-1-.9-2.5-1.7-5-2.2-7.6-.2-1-.6-2.5-1-4.7-.3-1.6-.6-2.7-.7-3.5,0-.3-.2-.9-.3-2-.1-1.2-.2-2-.4-2.6l-.6-2.8c0-.2-.1-.4-.1-.6-.1-.2-.3-.5-.5-.7,0-.3,0-.4-.1-.7s-.3-.5-.7-.7c0,0,0,.1,0,.2,0,.1.1.2.1.4,0,.3,0,.6,0,.9-.1.8-.2,1.7-.2,2.5,0,1,0,2,0,3,0,1.3,0,2.2,0,2.9,0,.2,0,.5,0,1.1,0,.5,0,1,0,1.3,0,1.1.1,1.6.2,2.7.1,2.1.2,3.4.2,3.9,0,.3,0,.9.2,1.7.1.9.2,1.6.3,2s0,.7-.2.8c-.4,0-.7.1-1.1,0-.3,0-.7,0-1,0-.1-.4-.3-.9-.5-1.3-.2-.4-.5-.9-.8-1.3-.2-.2-.2-.4-.4-.6-.5-.7-.7-1.1-1.2-1.8-.2-.3-.6-.9-1.1-1.6s-.9-1.3-1.3-1.9c-1-1.4-2-2.5-2.8-3.4-.1-.1-.3-.3-.5-.6-.2-.2-.4-.5-.6-.6-.2-.2-.5-.3-.8-.4l1.6,4.7c.3.9.5,1.9.6,2.8.2,1.2.5,2.4.8,3.6l1.2,3.4,2.1,6c.3-.2.6-.3.9-.3.2,0,.4.1.5.4.2.5,0,1.2-.4,1.5-.6.6-1.3,1-2,1.4-.4.2-1,.5-1.6.8-.3.2-.5.2-.8.4-.1,0-.3.1-.4,0-.2,0-.4-.2-.5-.3-.2-.2-.5-.3-.8-.4,0-.2.1-.5.2-.7,0-.2,0-.4.2-.5,0-.1.2-.2.3-.3.3-.1.6-.2.9-.2-1-2.6-1.6-4-2.6-6.6-1.4-3.4-2-5.2-3.4-8.6-.2-.5-.3-.8-.5-1.3l-2.6-6.6c-.7-1.8-1.1-2.8-1.8-4.6-.3.1-.5.3-.7.5-.2.2-.4.3-.6.5-.2,0-.3.2-.5.2-.1,0-.3,0-.4.2-.3,0-.6.2-.9.4-.4,0-.7-.2-1-.3-.3-.4-.5-.7-.6-1.2.7-.7,1.4-1.2,2.2-1.7,2-1.1,4.3-1.9,6.6-2.4.7.5,1.2,1,1.7,1.4s.9.7,1.2.9c.3.2.5.4.8.6l.2.7c.9.8,1.7,1.6,2.5,2.5.8.9,1.7,2.1,2.7,3.4.5.6.7,1,1.2,1.6.3.4.6.8.9,1.1.3.3.6.6.9.9.3.3.4.4.7.7,0-.9,0-1.9,0-2.8"/>
            <path id="_Контур_67" data-name="Контур_67" class="cls-1" d="M242.8,159.1c0-.3,0-.5,0-.8,0-.3,0-.6-.1-.9,0-.2-.2-.4-.4-.5-.5-.3-1.1-.5-1.7-.6-1.1,0-2.2.1-3.2.5-.8.2-1.7.5-2.4.9-.3.3-.4.6-.5,1,0,.5,0,1,0,1.5.1,1.1.2,2.2.3,3.4,0,.8.1,1.2.2,2,0,.7.2,1.4.4,2.1.1.5.2,1,.3,1.5,0,.5,0,1-.2,1.5.5.3,1.1.4,1.7.3.8,0,1.7,0,2.8-.2,0-.5,0-1,0-1.5,0-.4.3-.6.6-.7.2,0,.5,0,.7,0,.3.2.6.3.8.6,0,.3-.1.5-.1.8,0,.2,0,.4,0,.6,0,.5.1,1,.2,1.5,0,.5.1.9.2,1.4,0,.4,0,.7,0,1.1,0,.3-.3.5-.5.4,0,0-.2-.1-.5-.2-.3-.1-.5-.3-.7-.5-.2-.1-.3-.4-.4-.6,0-.3,0-.4,0-.7-1.4.1-2.1.2-3.6.4-.2,1-.2,2,0,3,0,.8.2,1.6.3,2.3.2.9.2,1.6.3,1.9,0,0,.1,1.4.5,3.8.1,1,.3,1.9.4,2.5.8.2,1.6.3,2.4.3.9,0,1.9,0,2.8-.2.3-.2.5-.5.5-.8,0-.3,0-.7,0-1,0-.4,0-.8,0-1.2,0-.3.2-.5.5-.7.4-.1,1,.3,1.1.9.2.8.3,1.7.3,2.6,0,.3,0,.7-.3,1-.2.3-.5.7-.9,1.3-1.3,0-1.9.1-3.2.3-2.1.2-3.9.4-5.3.6s-3,.3-4.8.3l-.2-1.4c1-.2,1.5-.3,2.5-.5,0-1.4,0-2.7-.3-4.1-.1-.8-.3-2.1-.7-3.8-.3-1.5-.6-2.9-.8-4.2,0-.6-.1-.9-.2-1.4-.4-2.9-.6-4.3-1-7.2-.2-1.1-.2-1.7-.4-2.8-.4-2.6-.5-3.8-.9-6.4-1.3.3-1.9.4-3.2.7,0-.6-.1-.9-.2-1.4,1.6-.7,3.2-1.3,4.9-1.8,2.1-.6,3.7-1.1,4.7-1.5,3.3-.4,5-.6,8.3-.8,0,0,.2.1.3.3.2.1.3.3.4.5.1.2.2.4.2.6,0,.4.1.8.2,1.2.1.5.2,1,.2,1.5,0,.4-.1.9-.4,1.2-.4.4-1,.6-1.5.5-.2-.2-.3-.4-.4-.6"/>
            <path id="_Контур_68" data-name="Контур_68" class="cls-1" d="M266.9,160.5c-.2.9-.4,2-.6,3.5-.3,2.6-.5,3.8-.8,6.4-.3,2.3-.4,3.4-.7,5.7-.2,1.4-.3,3.4-.3,5.8,0,2.6-.6,5.1-.4,5.7,0,.2.4.4.6.7.1.1.3.3.4.5,0,.2.1.3,0,.5,0,.6-.1.9-.2,1.4,0,0,0-.1,0-.2,0,0-.1-.2-.2-.2,0,0-.2,0-.3.1-.2,0-.4,0-.7,0-.2,0-.3,0-.3,0h-.7c-.2-.2-.7-.3-1.5-.4-.6,0-.9-.1-1.5-.2-.2-.2-.3-.4-.3-.7,0-.2.1-.3.3-.4.2-.2.3-.3.4-.4,0-.2,0-.3.2-.4.2-.1.3-.2.5-.3.2,0,.3-.1.5-.2.1,0,.2-.2.2-.4.4-1.9.7-3.9.9-5.9.2-1.8.3-3.9.5-6.1.2-2.7.4-4.6.5-5.9,0-.2,0-.4-.1-.5,0-.1-.2-.2-.3-.3,0,0-.2,0-.3,0-.8-.3-1.6-.6-2.4-.6-.9,0-1.8-.1-2.7,0-1.1,0-1.9,0-2.4,0-.6.5-1.1,1.2-1.3,2-.2,1-.3,2-.3,3,0,3.2-.2,4.7-.3,7.9v2.2c0,.3.2.7.2,1,0,.3,0,.5,0,.8,0,.3,0,.6,0,.9,0,.3.1.6.2.9.3,0,.6.2.8.5.2.2.4.6.4.9,0,.4-.3.7-.6.8-.8,0-1.6,0-2.3,0-.8,0-1.4.1-1.8.1-.7,0-1.5-.1-2.2-.3,0-.2-.1-.3-.2-.5,0-.3-.1-.5-.1-.8,0-.3,0-.6.3-.9.5,0,.8,0,1.3,0v-2.9c0-6.6,0-10,0-16.6v-5c-.2-.4-.3-.8-.4-1.2,0-.4,0-.9,0-1.3,0-.5,0-1,0-1.5,0-.4-.2-.7-.4-1-.1,0-.2,0-.3,0-.2,0-.4-.1-.6-.2-.3-.1-.5-.3-.7-.5-.1,0-.2-.2-.2-.3,0-.1-.1-.3-.2-.5,0-.3.1-.5.3-.7,1.3,0,2,0,3.3,0,.6,0,1.2,0,1.7-.1.7,0,1.4-.1,2.2-.1.6,0,1.3.1,1.8.4.4,0,.8.2,1.1.5.3.3.5.6.4,1,0,.3-.3.5-.7.6-.6,0-1.1,0-1.7,0-.2.2-.4.4-.4.7,0,.3,0,.5.1.8,0,.5.1.9.1,1.4,0,.5-.1,1-.2,1.5-.1.6-.2,1.2-.3,1.9,0,.6,0,1.1.3,1.6,1.5.4,3,.7,4.5.9,1.5.2,3.1.2,4.6,0,.2-1.7.3-3.2.3-4.5,0-1.2,0-2.3-.3-3.5-.2-.2-.4-.4-.6-.4-.3,0-.6-.1-.9-.2-.3,0-.6,0-1-.2-.2,0-.4-.2-.6-.4,0-.6,0-.9.1-1.4,1.2-.4,2.4-.5,3.7-.4.4,0,.9.2,1.3.3.3,0,.6.2,1,.2.3,0,.5,0,.8,0,.2,0,.5,0,.8.1.4.2.6.5.8.9.2.3.2.7.2,1,0,.3-.2.6-.4.8-.3.2-.6.3-1,.2-.5.6-.8,1.4-1,2.1"/>
            <path id="_Контур_69" data-name="Контур_69" class="cls-1" d="M299.2,184.9c-.8,1.8-1.7,3.5-2.9,5.1-1.7,2.4-3.8,4.6-6.1,6.5-.4.3-.8.5-1.2.7-.4.2-.8.3-1.2.4-1.4.2-2.8,0-4-.6-1.3-.6-2.4-1.5-3.2-2.7-.8-1.1-1.4-2.4-1.7-3.8-.4-1.8-.6-3.7-.7-5.6,0-1.3.1-2.6.4-3.8.2-1.3.6-2.8,1-4.7.1-.4.2-.9.2-1.3,0-.4,0-.7.1-.8-.3,0-.4-.1-.7-.2-.2,0-.5-.1-.8-.2-.3,0-.7-.2-1.1-.3l-.9.5c-.3.2-.6.4-.8.8-.2.5-.3,1-.4,1.5l-1.6,7.7c-.2.9-.3,1.3-.4,2.1,0,.3.1.7.1,1.1,0,.3,0,.5-.1.8,0,.3-.1.6-.1.9,0,.3,0,.6,0,.9.3.1.5.4.7.7.2.3.3.7.2,1,0,.3-.4.6-.7.6-.8-.2-1.5-.4-2.3-.5-.8-.1-1.4-.2-1.8-.3-.7-.2-1.4-.5-2.1-.8-.1-.4-.1-.9,0-1.3,0-.3.2-.6.4-.8.5.1.8.2,1.3.3l.5-2.8c1.1-6.5,1.7-9.8,2.8-16.3l.2-1.4v-.7c.1,0,.5-2.1.5-2.1v-.7c0-.4,0-.8,0-1.3,0-.4.1-.9.2-1.3,0-.5.1-1,.2-1.5,0-.4,0-.8-.2-1.1,0,0-.2,0-.3,0-.2,0-.4-.2-.6-.3-.2-.2-.5-.4-.7-.6,0,0-.1-.2-.2-.3,0-.2,0-.3,0-.5,0-.3.2-.5.5-.6,1.3.3,2,.4,3.3.8.6.1,1.2.2,1.7.3.7,0,1.4.2,2.1.4.6.2,1.2.5,1.8.9.4.1.8.4,1,.8.2.3.3.7.3,1.1,0,.3-.4.4-.8.4-.6,0-1.1-.2-1.7-.4-.3.1-.4.3-.5.6,0,.3,0,.5,0,.8,0,.5,0,.9,0,1.4,0,.2-.2.8-.5,1.6-.5,1.5-.7,2.5-.8,2.9-.2.7-.2,1.4,0,2.1,1.1.6,2.2,1.2,3.3,1.6,0-.1.2-.5.5-1,.2-.5.4-1,.6-1.5,0-.2.3-.6.6-1.2.2-.5.4-.9.7-1.3.2-.3.4-.5.8-.7.3-.2.9-.6,1.7-1.2.8-.6,1.7-1.2,2.6-1.7.8-.4,1.6-.6,2.5-.7,1.1,0,2.2.2,3.1.7.5.2.9.5,1.2.6,1.3.6,2.4,1.4,3.4,2.4.7,1,1.3,2.2,1.7,3.4.8,1.5,1.4,3.1,1.7,4.7.2,1.8,0,3.6-.5,5.3-.4,1.2-.8,2.4-1.3,3.5-.2.6-.4.8-.6,1.4M295.2,182.8c0-.1.2-.4.3-.7.2-.3.3-.6.4-.9.1-.3.2-.7.4-1.1s.2-.7.3-1c.2-.9.4-1.6.6-2,0-.8,0-1.5,0-2.3.1-.8.1-1.6,0-2.4,0-.4,0-.6-.1-1,0-.9-.2-1.7-.5-2.6-.2-.7-.5-1.2-1-1.7-.5-.2-1-.5-1.5-.8-.5-.3-1.1-.6-1.6-.8-.9.3-1.7.7-2.5,1.3-.7.7-1.4,1.4-2.1,2.1-.5.5-.9,1-1.2,1.6-.3.6-.5,1.4-.8,2.2-.5,1.3-1.1,2.9-1.6,4.6-.9,3.5-1.6,7.1-2,10.7,0,.4,0,.8,0,1.2,0,.4,0,.7,0,.8,0,.5,0,.9,0,1.2,0,.3,0,.6.2.8.1,0,.2.1.3.2,0,.2,0,.3,0,.5,0,.2,0,.4,0,.6.3.6.8,1,1.4,1.2.6.3,1.2.4,1.9.5.5,0,1,0,1.4-.4.5-.6,1.1-1.3,1.9-2.3s1.3-1.8,1.8-2.4c.6-.7,1.1-1.5,1.5-2.4.4-.8.9-1.9,1.4-3.2.2-.6.5-1.1.8-1.6"/>
          </g>
        </g>
      </g>
    </g>
  </g>
</svg>