<?xml version="1.0" encoding="UTF-8"?>
<svg xmlns="http://www.w3.org/2000/svg" version="1.1" viewBox="0 0 500 500">
  <defs>
    <style>
      .cls-1 {
        fill: #fff;
      }

      .cls-2 {
        display: none;
      }

      .cls-3 {
        fill: #1d1d1d;
        stroke: #fff;
        stroke-width: 4px;
      }
    </style>
  </defs>
  <!-- Generator: Adobe Illustrator 28.7.1, SVG Export Plug-In . SVG Version: 1.2.0 Build 142)  -->
  <g>
    <g id="_Слой_3" data-name="Слой_3" class="cls-2">
      <rect class="cls-3" x="-35" y="-19" width="657" height="560"/>
    </g>
    <g id="_Слой_2" data-name="Слой_2">
      <g id="_Эллипс_1" data-name="Эллипс_1">
        <path class="cls-3" d="M386,190.5v166H116v-166h44.1c20.3-28.3,53.5-46.7,91-46.7s70.7,18.4,91,46.7h43.8Z"/>
      </g>
      <g>
        <path class="cls-1" d="M227.2,174.5c.2.8.4,1.6.6,2.3.2.7.6,1.2,1,1.6,0,.1.2.2.5.2.3,0,.6,0,.8,0,.2,0,.3.2.4.5-.8.3-1.8.6-3,.9-.7.1-1.7.3-3.1.6-1.5.3-2.6.5-3.3.7,0-.2,0-.4,0-.6,0-.3.2-.4.5-.5.3,0,.4-.1.7-.2-.1-1.8-.4-3.8-.8-5.8-.4-2.1-1-4.6-1.8-7.7-.5-1.9-.7-2.9-1.2-4.9-.1-.5-.2-1-.2-1.5,0-.1,0-.3,0-.5,0-.2,0-.4,0-.6,0-.4-.3-.7-.6-.9-3.1.8-4.6,1.2-7.6,2.2.5,1.4,1,3.7,1.7,6.6.7,3.1,1.3,5.5,1.8,7,.6,1.9.9,2.9,1.5,4.8.2.8.4,1.2.6,2,0,.2.2.3.4.4.2,0,.4.1.7.2.3,0,.5,0,.6.2.1,0,.2.2.3.3,0,.1,0,.2,0,.3,0,.2-.3.4-.9.7-.5.3-1.2.5-2,.8-1.3.4-2.4.7-3.3,1-.3,0-.6,0-.7,0,0,0-.2-.3-.3-.5,0-.1,0-.3,0-.4,0-.1.2-.3.4-.5,0,0,.1-.1.3-.3.1-.1.3-.2.3-.4-.8-2.1-1.1-3.1-1.9-5.2-.2-.6-.3-.8-.5-1.4-.7-1.9-1-2.8-1.7-4.7-.2-.6-.3-.9-.5-1.4-.2-.5-.4-1.3-.7-2.5-.3-1.3-.6-2.2-.9-2.9-.4-1.1-.8-2-1.3-2.7-.7.3-1.3.5-1.8.6-.5.1-.8,0-.9,0,.2-.6.9-1,2.1-1.5.5-.2,1-.3,1.5-.5.6-.2,1-.3,1.3-.4,1-.3,1.5-.5,2.6-.9,6.1-2,9.2-2.8,15.4-4,.6-.1,1,0,1,.3,0,.2,0,.5-.4.8-.3.3-.7.5-1.2.6,1.5,7.1,2.2,10.6,3.7,17.7Z"/>
        <path class="cls-1" d="M253.6,175.7c.2.1.4.2.5.3.1,0,.2.2.2.3,0,.3,0,.4,0,.7,0,0,0,0-.2,0-.1,0-.3,0-.5.1-.3,0-.5.1-.7.1-.2,0-.3,0-.4,0-.3,0-.5,0-.9,0-.4,0-1.5,0-3.2,0-.7,0-1,0-1.7.1-.3-.2-.5-.3-.5-.4,0,0,0-.2.3-.3.2-.1.3-.2.4-.3,0-.1,0-.2.2-.3.1,0,.3-.2.5-.3.2,0,.4-.2.5-.2.1,0,.2-.2.2-.3.2-1.2.2-2.6.2-4.2,0-1.3-.2-2.7-.4-4.3-.2-1.9-.3-3.3-.3-4.2,0-1,0-1.5,0-2.5,0-1.4-.2-2.5-.3-3.3-1.2,2-1.8,3.1-2.9,5.1,0,0,0,.1-.1.3,0,.1-.2.3-.3.6,0,0-.3.5-.7,1.2-.4.7-.7,1.4-.9,1.9-.3.9-.6,1.7-1,2.4-.3.7-.8,1.6-1.3,2.6-.7,1.3-1.2,2.5-1.6,3.6,0,0-.2.4-.5,1.1-.5,1.2-.8,1.8-.8,1.8-.4.8-.9,1.3-1.5,1.4-.4,0-.8,0-1.2-.4-.4-.4-.6-.9-.7-1.5-.1-.8-.2-1.2-.3-2-.2-1.2-.3-2.6-.4-4.2,0-1.2,0-2.3-.2-3.1-.1-.7-.3-1.5-.6-2.4-.2-1.2-.3-1.8-.5-3,0-.2,0-.3,0-.5,0-.6-.1-.9-.2-1.5,0-.2,0-.3,0-.5-.2-.2-.4-.5-.5-.8,0-.2-.1-.5-.2-.9,0-.4-.1-.7-.2-1-.1-.3-.3-.5-.5-.7,0,0-.2,0-.3,0-.2,0-.4,0-.7,0-.3,0-.6-.1-.9-.2,0,0-.2,0-.3-.1-.1,0-.2-.2-.2-.3,0-.2,0-.4.3-.6,1.4-.2,2.1-.4,3.5-.6.4,0,1.1-.2,2-.4.6-.1,1.1-.2,1.3-.3.5,0,1.1,0,1.6,0,.5,0,.9,0,1.3.2.4.2.6.4.6.6,0,.2-.2.4-.7.5-.5.1-1.1.2-1.8.3-.3.2-.3.8-.2,1.8,0,.5.2,1.5.6,3,.1.5.2,1,.3,1.3.1.9.2,2,.3,3.4.1,1.4.1,2.1.1,2.1,0-.2,0-.2,0-.4.2,1.9.3,2.9.5,4.8.2-.5.5-1.1.7-1.8,0-.3.2-.6.3-.8,0-.2.2-.4.3-.6.1-.2.2-.4.3-.6,0-.2,0-.3,0-.5.1-.3.3-.6.6-1.1.6-1,1-1.8,1.3-2.6.7-1.2,2.3-4.5,5.4-9.6,0-.4.2-.7.6-1,.4-.3.9-.4,1.5-.4.9,0,1.4,0,2.3,0,.5,0,.9,0,1.3,0,.3,0,.6,0,.9,0,.4.1.8.3,1,.5.2.2.3.5.3.7,0,.2-.1.4-.3.6-.2.2-.6.2-1,.2-.4.5-.6,1-.7,1.6s-.1,1.5-.1,2.5c0,1.8,0,2.7,0,4.5,0,1.6,0,2.4,0,4.1,0,1,.2,2.4.5,4.1.3,1.8.2,3.7.4,4,0,.1.5.3.8.4Z"/>
        <path class="cls-1" d="M269.9,162.5c.2,0,.5.2.9.4.3.1.7.3,1.2.5.8.7,1.5,1.6,2,2.6.5,1.1.4,2.3.4,3.4,0,.4,0,.9,0,1.5-.3,1.6-1,3-2.3,4.3-1.2,1.3-2.6,2.1-4.3,2.6-.7.1-1.4.2-2.1.2-.7,0-1.7-.1-3.1-.2-.5,0-1.2-.2-2.2-.4-1-.2-1.8-.3-2.2-.4-.6,0-1,0-1.3,0-.3,0-.5-.1-.6-.3-.2-.1-.2-.4-.2-.7,0-.2,0-.3,0-.5.9,0,1.3,0,2.2,0,.2-.4.3-1.1.5-2,0-.4,0-1.2.1-2.1,0-1,.1-1.8.2-2.5,0-.7.2-1.3.4-2,0-.4,0-.6,0-1,0-1,0-1.5.1-2.5,0-2,.1-3.1.2-5.1,0-1.6.1-2.4.2-4.1-1.2,0-2.1-.1-2.7-.3-.6-.1-.9-.4-.9-.9.4-.2.9-.3,1.6-.4.7,0,1.7,0,2.8,0,3,.2,5.3.4,7,.7,1.7.3,2.9.7,3.6,1.3,0,.1.2.3.3.4,0,.1.2.2.2.3.4.5.6.9.8,1.3.1.4,0,.9,0,1.3,0,.2.1.6,0,.9,0,.6-.5,1.2-1.1,1.9-.6.6-1.3,1.1-2.1,1.5,0,.2,0,.3.2.4ZM264.5,155.2c-.1.3-.2.7-.2,1.3,0,.9,0,1.6,0,2.1,0,.5.2,1,.6,1.5.1,0,.3.1.4.2.2,0,.4,0,.7-.1.2-.1.5-.3.8-.5.3-.1.4-.2.7-.4.5-.6.8-1.2,1.1-1.6.3-.5.4-.9.5-1.3,0-.4,0-.8-.2-1-.3-.3-.9-.5-1.5-.6-.6-.1-1.3-.2-2-.3-.4.2-.7.4-.8.7ZM268.1,174.8c.3-.2.6-.4.7-.8.1-.3.2-.7.3-1.1.4-.2.7-.4.7-.4,0,0,.1-.2.2-.5.3-.3.4-.7.5-1.2,0-.2,0-.8,0-1.7,0-.6,0-1,0-1.2,0-.3,0-.5.2-.8,0-.2,0-.4,0-.6,0-.2-.2-.5-.4-.8,0,0,0,0,0-.1,0-.2,0-.2,0-.4,0,0,0-.2-.2-.4,0-.2-.2-.4-.3-.6-.7-.6-1.6-1.1-2.5-1.4-.9-.4-1.8-.6-2.7-.6-.4.2-.6.5-.7.8-.1.4-.2.7-.2,1.1-.3,3.3-.4,4.9-.6,8.1-.1,1.4-.2,2.1-.3,3.5,1,0,1.8.1,2.4.1.6,0,1.1,0,1.4-.3.6-.3,1-.5,1.6-.8Z"/>
        <path class="cls-1" d="M291.7,182.1c-.5.1-.9.2-1.3.3-1.5.1-3.1,0-4.6-.4-1.5-.4-2.9-1.1-4-2-1.2-.9-2-1.8-2.5-2.7-.7-1.3-1.3-2.7-1.6-4-.2-.9-.2-1.9-.1-2.8,0-.9.3-2,.5-3.4,0-.2,0-.5,0-.9,0-.4,0-.8.1-1,0-.4.2-.8.4-1.1,0,0,.2-.3.4-.8.2-.4.3-.8.4-1.1,0-.1.3-.4.5-.9.2-.4.4-.7.6-1,.2-.2.5-.4.7-.5.3-.1.9-.5,1.6-.9,1-.6,1.9-1,2.6-1.3.7-.3,1.6-.5,2.6-.5,1,0,2.1,0,3.4.4.6.2,1,.3,1.3.4,1.6.5,3,1,3.9,1.6.9.6,1.6,1.7,2.3,2.4.8.9,1.9,2.1,2.4,3.4.5,1.3.6,2.7.3,3.9-.1.7-.4,1.5-.8,2.6-.2.4-.2.6-.4,1-.6,1.6-1.4,2.9-2.2,3.8-1.6,1.9-3.4,3.5-5.4,4.8-.3.2-.7.4-1.2.5ZM291.6,178.5c.7-.7,1.2-1.3,1.6-1.8.5-.5,1-1.1,1.3-1.7.3-.6.6-1.4.9-2.4.1-.3.3-.7.6-1.2,0,0,.1-.3.2-.5.1-.2.2-.5.3-.7s.2-.5.2-.8c0-.3.1-.5.2-.7.1-.7.2-1.2.3-1.5-.2-.4-.3-1-.3-1.7,0-.7-.2-1.3-.4-1.8-.1-.3-.2-.4-.3-.7-.3-.8-.6-1.4-.9-1.9-.3-.5-.7-.9-1.3-1.2-.6-.2-1.1-.3-1.7-.5-.6-.2-1.2-.4-1.8-.6-1,.3-1.8.6-2.4,1-.6.4-1.3,1-1.9,1.6-.4.4-.8.7-1,1.2-.2.4-.3,1.1-.5,1.6-.3.9-.8,2.1-1.1,3.4-.5,2.3-.7,4.9-.7,7.7.1.3.2.5.2.8,0,.3,0,.5.1.6,0,.4.1.7.2.9,0,.2.2.4.3.6.2,0,.3.1.4.2,0,0,0,.2,0,.4,0,.2,0,.3.2.5.3.4.9.7,1.8.9.7.2,1.5.3,2.2.3.7,0,1.2,0,1.5-.3.5-.4,1-1,1.7-1.7Z"/>
        <path class="cls-1" d="M194.5,226.8c.4-.2.7-.1.9,0,.1.2.2.5.1.9-.4.3-1.1,1-2.1,2-.7.7-1.2,1.2-1.5,1.5-.6.6-1.2,1-1.8,1.4,0,0-.1,0-.3,0-.1,0-.3,0-.5,0-.2,0-.3-.1-.4-.2,0-.4.1-.7.2-.8,0-.1.3-.4.8-.9,0-.3,0-.6-.4-1-.1-.1-.3-.3-.6-.6-.3-.2-.4-.4-.5-.5-.2-.2-.3-.3-.5-.6-1.1-1.1-2-2.2-2.9-3.2-1-1.2-1.8-2-2.3-2.6-.3-.3-.5-.6-.7-.8-.4-.4-.6-.7-1-1.1-.5-.5-.8-.8-1.1-1.1-.3-.3-.5-.5-.6-.6,0,0,0,0,0,0-.2-.3-.4-.5-.6-.6-.5-.6-1-1.1-1.5-1.6-.2-.2-.3-.4-.5-.6-.2-.2-.3-.3-.5-.3-.2,0-.3,0-.5,0-.2.1-.5.3-.8.6-.2.2-.4.3-.5.4-.1,0-.3.2-.6.2-.5.2-.8.3-.9.1,0,0-.1-.2,0-.4,0-.2,0-.4.1-.6,0-.2.1-.4.2-.6,1.2-1.5,2.9-3.2,5-5.1,1.2-1,1.8-1.5,3.1-2.5.2-.1.3-.2.4-.3,0,0,.2-.2.3-.2.2-.2.4-.3.6-.4,1.2-.8,2.6-1,4.2-.7,1.6.3,3.2.9,4,1.8.6.7,1.1,1.6,1.4,2.1.3.6.4,1.2.5,1.7,0,.6.1,1.2,0,1.9-.1.7-.4,1.5-.7,2.4-.1.5-.2.7-.4,1.1-.3.6-.7,1.1-1.2,1.5-.5.4-1.2,1.1-2.1,1.9,0,0,0,0-.1.2,0,0-.1.2-.1.3,0,.1,0,.3.1.4,0,.1.2.3.5.6.2.2.4.4.5.6.2.2.2.3.4.4.4.5.8,1,1.3,1.7.1.2.3.4.5.8.3.4.5.7.7.9.5.6,1,1,1.6,1.4.5-.4,1-.8,1.4-.9ZM185.9,219.3c.3,0,.5,0,.8-.2.3-.1.6-.3.8-.5.3-.2.5-.5.6-.7.3-.7.5-1.4.6-2.1,0-.8,0-1.4-.2-1.9,0-.2-.2-.4-.3-.8-.1-.3-.3-.7-.4-.9-.2-.3-.4-.6-.7-1-.5-.6-1-1.2-1.7-1.6-.7-.5-1.3-.8-1.9-1-.2.1-.3.2-.5.3-.2,0-.3.1-.4.2-.7.2-1.3.6-1.8,1-.7.6-1.1.9-1.7,1.5.4.8.8,1.5,1.4,2.2.3.3.6.7,1,1.1.4.4.7.7.8.8.7.7,1.3,1.3,1.8,1.9.7.8,1,1.2,1.7,2Z"/>
        <path class="cls-1" d="M206.6,211.5c-.8-1.3-1.6-2.3-2.4-3.2-.4.2-1,.5-1.9.8-1.3.5-2.2,1-2.9,1.4-.1.4-.1.7,0,1.1.2.4.4.9.8,1.5.2,1,.6,1.9,1.1,2.9.5,1,1.4,3.3,2.2,3.7,0,0,.4,0,.5,0,.1,0,.2-.1.4-.2.2-.1.3-.2.4-.2.1,0,.3,0,.4,0,.1.2.2.4.3.6,0,.2.1.3.1.3-.3.5-.6.9-1,1.2,0,0-.2.2-.4.3-.3.2-.6.4-.9.5-.4.2-.7.4-.9.5-.4.2-.7.5-.9.8-.6,0-1,0-1.6-.1.2-1,.5-1.6.9-1.9.2-.2.3-.3.3-.5,0-.2-.2-.4-.4-.7-.5-1.2-1.5-3.2-2.7-6-1.1-2.3-1.7-4-2.1-4.8-.3-.6-.7-1.3-.8-2.1-.2-.8-.1-1.6-.2-2.3,0-.9-.3-2-.2-3s.3-2.1.6-3.4c0,0,0-.2.2-.4.1-.2.3-.4.5-.7.2-.2.5-.5.8-.6.3-.2.6-.3.9-.3.5,0,1.1,0,1.7.1.6.2,1.2.4,1.7.7.5.3.8.6,1,1,.9.5,1.6,1.2,2.2,2,.7,1,2.1,3.1,4.1,6.3,1.1,1.8,2.2,3.5,3.2,5.2.6,1.2.8,1.7,1.4,2.9,0,0,.1.1.2.2.1,0,.2.1.2.1.3.1.5.2.5.4,0,.2,0,.4-.3.7-.3,0-.4.1-.7.2-.5.2-1,.5-1.5.8-.2.1-.4.2-.7.4s-.6.3-.8.5c0,0-.2.2-.4.3-.2.1-.3.2-.4.3-.3.2-.5.2-.6,0,0-.2-.1-.4-.1-.8,0-.4,0-.7.2-1,.1-.3.2-.5.4-.6-1.1-2-2-3.6-2.7-4.8ZM197.1,203.7c.1,1,.3,1.9.5,2.9.1.2.2.6.4,1.2.2.7.4,1.2.5,1.4.9-.3,1.7-.6,2.4-1,.8-.4,1.6-.8,2.4-1.3-.6-1.1-.9-1.7-1.5-2.8-.4-.7-.9-1.4-1.6-2.1-.7-.7-1.4-1.4-2.2-1.9,0,0-.1-.1-.3-.2-.1,0-.4,0-.6.1-.2.3-.2.5-.4.8,0,.9.2,1.8.3,2.8Z"/>
        <path class="cls-1" d="M223.3,203.5c.3.9.4,1.9.4,2.9,0,.4,0,.9,0,1.5,0,.6-.1,1.1-.3,1.5-.2.6-.4,1.2-.7,1.5-.2.4-.5.7-.8,1-.3.3-.5.5-.6.7-.4.4-1,.8-1.8,1.2,0,0,0,0,0,0-.6.2-1.3.2-2.1,0-.8-.2-1.4-.5-1.9-1-.2-.2-.6-.7-1-1.6-.3-.7-.6-1.5-.9-2.4-.3-.9-.5-1.7-.6-2.3,0-.2,0-.4.2-.5.2-.2.4-.3.7-.4.3-.1.5-.2.8-.2.2,0,.4.1.4.3.3,1.4.7,2.5,1.1,3.3.4,1,.8,1.7,1.3,2.2.4.5.9.8,1.3.7.2,0,.4-.2.6-.4.2-.2.4-.3.5-.4.2-.4.4-.7.6-1.1.1-.4.2-.9.2-1.3,0-.4,0-.7,0-1,0-.2,0-.4,0-.6,0-.1,0-.3-.1-.4,0-.1,0-.2-.1-.3,0-.4,0-.8-.1-1.3s-.2-.6-.5-1c0-.1-.1-.2-.2-.4,0-.2-.1-.3-.2-.5,0-.3-.1-.4-.2-.7,0-.1,0-.3-.1-.5-.1-.3-.3-.7-.6-1.1,0,0,0,0,0,0,0-.1-.1-.2-.3-.4,0,0-.2-.1-.4-.3-.2-.1-.4-.3-.7-.4-.7-.1-1.5,0-2.3.3-.3.1-.6.3-1,.4-.1,0-.3,0-.4-.1-.2-.1-.3-.3-.4-.6-.1-.3-.2-.5-.2-.8,0-.2,0-.4.2-.5,0,0,.1,0,.2,0,0,0,.2,0,.2,0,.4-.4.7-.8.8-1.2.1-.4.2-.9.2-1.5,0-.9,0-1.8-.4-2.6-.3-.7-.6-1.2-1.1-1.6-.2,0-.5,0-.8,0-.4,0-.7,0-.9.2-.6.2-1.1.5-1.6.8-.5.3-.9.7-1.1,1,0,.3.2.7.4,1.2.2.5.3.9.4,1.2,0,.3,0,.5-.1.7-.2.1-.2.2-.3.2-.3.1-.6.1-.9-.1-.3-.2-.5-.6-.8-1.1,0,0-.2-.2-.3-.5-.1-.2-.3-.4-.4-.6,0-.1-.2-.3-.5-.6-.3-.2-.5-.5-.6-.6,0-.2,0-.4.1-.5,0-.2.1-.5.5-.7.2-.1.5-.2.7-.2.3,0,.5-.1.6,0,0,0,.2.2.2.4.2,0,.4-.2.6-.3.2-.1.3-.3.5-.4.1-.1.2-.2.2-.2.7-.5,1.2-.8,1.6-.9.1,0,.3-.1.5-.2,1.8-.5,3.1-.7,3.9-.5,0,0,.2.1.3.2.1,0,.2.2.4.3.5.3.8.6,1.1.8.3.3.5.8.7,1.2.1.2.3.4.3.5.2.6.2,1.5-.2,2.5-.3,1-.7,1.9-1.2,2.7.2,0,.4,0,.7,0,.6,0,1.2.1,1.5.1,1,.3,1.9.8,2.7,1.5.8.7,1.4,1.6,1.7,2.5.1.3.3.7.5,1.1Z"/>
        <path class="cls-1" d="M228.3,208.3c0-.3,0-.7-.2-1.1,0-.3-.1-.6-.2-1-.2-1.6-.2-3.9-.1-7,0-1.1,0-1.7.1-2.8.1-3.6,0-7.1-.5-10.4.2-.3.3-.4.6-.7.8-.4,1.4-.6,1.9-.7.5-.1,1,0,1.4,0,.4.1.8.4,1,.8.6,1.9,1.4,3.8,2.2,5.9.8,2.1,1.8,4.7,3,7.8,1.3,3.6,2.2,6.1,2.6,7.5.4,0,.7,0,1,0,.3,0,.5.3.9.7,0,0,0,.2,0,.3,0,.1-.2.2-.4.3-.2,0-.5.1-.8.2-.4,0-1,0-1.6.1-.9,0-1.6.1-2,.2-.4,0-.8.2-1.1.4-.2-.2-.3-.5-.4-.7,0-.2,0-.5,0-.7,0-.2.3-.4.5-.7-.6-1.3-1.1-2.6-1.5-3.8-.4-1.2-.8-2.8-1.3-4.6-.6-2.4-1.1-4.3-1.6-5.5-.3-.3-.5-.5-.7-.6-.2-.1-.5-.1-.8,0,0,1.2,0,2.4,0,3.6,0,1.2-.2,2.6-.3,4.3-.1,2-.2,3.6-.2,4.9,0,1.2.1,2.5.3,3.8.2,0,.4,0,.6.1.2.1.4.2.6.1,0,.2,0,.3.1.5,0,0,0,.2,0,.3,0,.1-.2.2-.4.3-.3,0-.7.2-1.3.3-.5.1-.7.2-1.2.3-.4.1-.7.2-1,.4,0,0-.1-.2-.3-.3-.1-.2-.2-.4-.3-.6,0-.2,0-.4.1-.5.2,0,.5-.2,1.1-.4,0-.4.1-.7.1-1Z"/>
        <path class="cls-1" d="M259.6,205.9c.2.1.3.2.4.3,0,0,.1.2,0,.3,0,.3,0,.4,0,.7,0,0,0,0-.2,0,0,0-.2,0-.4,0-.2,0-.4,0-.6,0-.2,0-.3,0-.3,0-.3,0-.4,0-.7,0-.3,0-1.1,0-2.4-.1-.5,0-.8,0-1.3,0-.2-.2-.3-.4-.3-.5,0,0,0-.2.2-.3.1-.1.3-.2.3-.3,0-.1,0-.2.1-.3,0,0,.2-.1.4-.2.2,0,.3-.2.4-.2,0,0,.1-.2.1-.3.2-1.1.3-2.5.4-4.2,0-1.3,0-2.7,0-4.4,0-1.9,0-3.3,0-4.2,0-1,0-1.5,0-2.5,0-1.4,0-2.6,0-3.4-1.1,2-1.6,3-2.5,4.9,0,0,0,.1-.1.3,0,.1-.2.3-.3.5,0,0-.3.4-.6,1.1-.4.7-.6,1.3-.8,1.9-.3.9-.6,1.6-.9,2.3-.3.7-.7,1.5-1.1,2.5-.6,1.3-1,2.4-1.4,3.4,0,0-.2.4-.4,1.1-.4,1.1-.6,1.7-.7,1.7-.3.8-.7,1.2-1.2,1.3-.3,0-.6-.2-.9-.5-.3-.4-.4-.9-.5-1.5,0-.8-.1-1.2-.2-2-.1-1.2-.2-2.6-.2-4.2,0-1.2,0-2.3,0-3.1,0-.7-.2-1.5-.4-2.4-.1-1.2-.2-1.8-.3-3,0-.2,0-.3,0-.5,0-.6,0-.9-.1-1.5,0-.2,0-.3,0-.5-.1-.2-.3-.5-.4-.8,0-.2,0-.5-.1-.9,0-.4,0-.8-.2-1,0-.3-.2-.5-.4-.7,0,0-.1,0-.3,0-.1,0-.3,0-.5,0-.2,0-.4-.2-.7-.3,0,0-.1,0-.2-.2,0,0-.1-.2-.2-.3,0-.2,0-.4.3-.5,1.1-.1,1.7-.2,2.8-.3.3,0,.9-.1,1.6-.2.5,0,.8-.2,1-.2.4,0,.8,0,1.3.2.4,0,.7,0,1,.3.3.2.4.4.5.7,0,.2-.2.4-.6.5-.4,0-.9.1-1.5.2-.2.2-.3.8-.2,1.7,0,.5.1,1.5.3,3,0,.6.2,1,.2,1.3,0,.9,0,2.1.1,3.5,0,1.4,0,2.1,0,2.1,0-.2,0-.2,0-.4,0,1.9.1,2.9.2,4.8.2-.5.4-1.1.6-1.8,0-.3.2-.6.3-.8,0-.2.2-.3.3-.6.1-.2.2-.4.2-.5,0-.2,0-.3,0-.5.1-.3.3-.6.5-1,.5-.9.9-1.8,1.1-2.5.6-1.2,2-4.3,4.7-9.3,0-.4.2-.7.5-.9.3-.3.7-.4,1.2-.3.7,0,1.1,0,1.8.1.4,0,.8,0,1,0,.3,0,.5,0,.7,0,.3.1.6.3.8.6.2.2.2.5.2.7,0,.2-.1.4-.3.6-.2.2-.5.2-.8.2-.3.4-.6,1-.7,1.6-.1.6-.2,1.4-.3,2.5-.1,1.8-.2,2.7-.3,4.5,0,1.6-.1,2.4-.2,4.1,0,1,0,2.4,0,4.1,0,1.9-.1,3.6,0,4.1,0,.1.4.3.6.4Z"/>
        <path class="cls-1" d="M273.1,193.4c.1,0,.3.2.7.5.2.1.5.3.9.5.6.7,1,1.6,1.3,2.7.3,1.1.1,2.3,0,3.4,0,.4,0,.9-.2,1.4-.4,1.6-1.1,2.9-2.2,4.2-1.1,1.2-2.2,2.1-3.5,2.5-.5.1-1.1.2-1.6.1-.5,0-1.3-.1-2.3-.3-.4,0-.9-.2-1.6-.5-.7-.3-1.3-.4-1.7-.4-.5,0-.8,0-1-.2-.2,0-.4-.2-.5-.3-.1-.2-.1-.4-.1-.7,0-.2,0-.3,0-.5.7,0,1,0,1.7.2.2-.4.3-1.1.5-2,0-.4.2-1.2.3-2.1.1-1,.2-1.8.3-2.5.1-.7.3-1.3.5-2,0-.4,0-.6.1-1,.1-1,.2-1.5.3-2.5.2-2,.4-3.1.6-5.1.2-1.6.3-2.4.5-4-.9-.1-1.6-.2-2.1-.4-.5-.2-.7-.5-.6-.9.3-.2.8-.3,1.3-.3.6,0,1.3,0,2.3.2,2.3.3,4.2.6,5.5,1,1.3.3,2.2.8,2.7,1.4,0,.1.1.3.2.4,0,.1.1.2.1.3.3.5.4.9.5,1.3,0,.4,0,.9,0,1.3,0,.2,0,.5,0,.9-.1.6-.5,1.2-1,1.8-.6.6-1.2,1.1-1.8,1.4,0,.2,0,.3.1.4ZM269.5,185.9c-.1.3-.2.7-.3,1.3-.1.9-.2,1.6-.2,2.1,0,.5.1,1,.3,1.5,0,0,.2.2.3.2.2,0,.4,0,.5-.1.2,0,.4-.2.7-.4.2-.1.3-.2.6-.3.4-.6.8-1.1,1-1.6.3-.5.4-.9.5-1.3,0-.4,0-.8,0-1-.2-.3-.6-.5-1.1-.6-.5-.1-1-.3-1.6-.3-.4.2-.6.4-.7.7ZM270.6,205.5c.3-.2.5-.4.6-.8.1-.3.2-.7.3-1.1.3-.2.5-.3.6-.4,0,0,.1-.2.2-.5.2-.3.4-.7.5-1.2,0-.2.1-.8.2-1.6,0-.6,0-1,.1-1.2,0-.3.1-.5.2-.8,0-.2,0-.4,0-.6,0-.2,0-.5-.2-.8,0,0,0,0,0-.1,0-.2,0-.2,0-.4,0,0,0-.2-.1-.4,0-.2-.1-.4-.2-.7-.5-.6-1.1-1.1-1.8-1.5-.7-.4-1.4-.6-2.1-.7-.3.2-.5.5-.7.8-.1.3-.2.7-.3,1.1-.5,3.2-.7,4.9-1.2,8.1-.2,1.4-.3,2.1-.5,3.5.7.1,1.3.2,1.8.2.4,0,.8,0,1.1-.2.5-.3.8-.5,1.3-.8Z"/>
        <path class="cls-1" d="M297.2,195.1c-.3.5-.7,1.3-1.1,2.2-.7,1.7-1.1,2.5-1.8,4.2-.6,1.5-1,2.2-1.6,3.7-.4.9-.8,2.3-1.3,3.9-.5,1.8-1.4,3.3-1.4,3.8,0,.1.2.4.4.6.1.2.2.3.3.4,0,.1,0,.2,0,.4-.2.4-.3.6-.4.9,0,0,0,0,0-.1,0,0,0-.1-.1-.2,0,0-.2,0-.3,0-.2,0-.4,0-.6-.1-.1,0-.2,0-.3,0-.2-.1-.4-.2-.6-.3-.2,0-.6-.3-1.2-.5-.5-.2-.7-.3-1.2-.5-.1-.3-.2-.4-.1-.5,0,0,.1-.1.3-.2.2,0,.3-.1.4-.1,0-.1.1-.2.2-.2.1,0,.3,0,.5,0,.2,0,.4,0,.5,0,.1,0,.2,0,.2-.2.6-1,1.2-2.3,1.8-3.8.5-1.2,1-2.6,1.5-4.1.6-1.8,1.1-3.1,1.5-3.9,0-.1,0-.3,0-.4,0-.1-.1-.2-.2-.3,0,0-.2,0-.2-.1-.5-.3-1.1-.7-1.9-1-.6-.2-1.4-.5-2.2-.7-.9-.2-1.6-.5-2-.6-.7.3-1.2.6-1.5,1-.3.4-.6,1.1-.9,2-.7,2.1-1,3.2-1.7,5.3-.2.6-.3.9-.5,1.5,0,.2,0,.4,0,.8,0,.1,0,.3-.1.6,0,.2-.1.4-.2.6,0,.2,0,.4,0,.6.2,0,.4.2.6.5.2.3.2.5.2.7,0,.2-.3.4-.7.4-.4-.1-1-.3-2-.5-.7-.1-1.2-.3-1.5-.3-.6-.2-1.2-.4-1.8-.7,0,0,0-.2,0-.4,0-.2,0-.4,0-.6,0-.3.2-.4.4-.5.4.1.7.2,1.1.3.2-.8.3-1.2.5-2,1.3-4.5,1.9-6.8,3.1-11.3.1-.4.2-.6.3-1,0-.2,0-.3.1-.5.2-.6.2-.9.4-1.4,0-.2,0-.3.1-.5,0-.2,0-.5,0-.9,0-.2.1-.5.2-.9.1-.4.2-.7.2-1,0-.3,0-.5-.1-.8,0,0-.1,0-.2,0-.1,0-.3-.1-.5-.3-.2-.1-.4-.3-.5-.5,0,0,0-.1-.1-.2,0-.1,0-.2,0-.4,0-.2.2-.3.4-.4,1.1.3,1.7.4,2.8.7.3,0,.8.2,1.5.3.7.1,1.3.3,1.8.4.6.2,1.1.4,1.5.7.4.1.6.3.8.6.2.3.3.6.2.8,0,.2-.3.3-.7.2-.4,0-.9-.2-1.4-.4-.2,0-.4.2-.5.4,0,0,0,.3,0,.6,0,.4,0,.8-.1,1,0,.2-.2.5-.5,1-.2.4-.4.8-.6,1.2-.1.4-.2.8,0,1.2,1.2.7,2.4,1.2,3.7,1.7,1.3.5,2.6.8,3.9,1.1.4-1.1.8-2.1,1.1-3,.3-.9.4-1.7.3-2.5,0-.1-.2-.3-.5-.5-.1,0-.4-.2-.7-.3-.3-.1-.6-.2-.8-.3-.2,0-.3-.2-.4-.4.1-.4.2-.6.4-1,1.2,0,2.2.2,3.1.6.3.1.7.3,1,.5.4.2.7.3.8.4.2,0,.4.2.6.2s.4.2.6.2c.3.2.5.5.5.8,0,.3,0,.5,0,.7,0,.2-.3.4-.5.4s-.5,0-.8,0c-.5.3-.9.7-1.2,1.2Z"/>
        <path class="cls-1" d="M302.9,220.6c-.4,0-.8,0-1.1,0-1.3,0-2.4-.4-3.4-1-1-.6-1.9-1.4-2.5-2.4-.6-1-1-2-1.1-3-.1-1.4-.2-2.8,0-4,0-.9.4-1.8.7-2.6.3-.9.8-1.9,1.4-3.1,0-.2.2-.5.3-.9.1-.4.3-.7.4-.9.2-.3.4-.7.6-1,0,0,.2-.3.5-.7.3-.4.5-.7.6-.9,0-.1.3-.4.6-.8.3-.4.5-.7.7-.8.2-.2.5-.3.7-.3.3,0,.9-.3,1.6-.6,1-.4,1.8-.6,2.4-.8.6-.2,1.4-.2,2.2-.1.8,0,1.7.4,2.6.9.4.2.7.5.9.6,1.1.7,2.1,1.5,2.7,2.2.6.7.8,1.8,1.1,2.6.4.9,1,2.2,1,3.6,0,1.3-.3,2.6-.9,3.7-.3.6-.8,1.4-1.5,2.3-.3.4-.4.5-.6.9-1,1.4-2,2.5-2.9,3.2-1.9,1.5-3.8,2.8-5.8,3.7-.3.1-.7.2-1.1.3ZM303.9,217.2c.7-.5,1.3-1.1,1.8-1.4.5-.4,1.1-.9,1.5-1.4.4-.5.9-1.2,1.5-2.1.2-.3.5-.6.8-1,0,0,.2-.2.3-.4.2-.2.3-.4.4-.6s.3-.4.4-.7c.2-.3.3-.5.3-.6.3-.6.5-1,.7-1.3,0-.4,0-1,.3-1.6.2-.7.3-1.3.2-1.7,0-.3,0-.4,0-.7,0-.8,0-1.4-.1-1.9,0-.5-.3-.9-.7-1.4-.4-.2-.8-.5-1.2-.8-.4-.3-.9-.6-1.3-.8-.9,0-1.6.3-2.2.5-.6.3-1.3.8-2,1.2-.4.3-.9.6-1.2.9-.3.4-.6.9-.9,1.5-.5.8-1.3,1.9-1.9,3-1.1,2.1-2,4.5-2.8,7.2,0,.3,0,.5,0,.8,0,.3,0,.5,0,.6,0,.4-.1.6-.1.9,0,.2,0,.4,0,.6.1,0,.2.1.2.2,0,0,0,.2,0,.3,0,.2,0,.3,0,.5.1.4.5.7,1.1,1.1.5.3,1,.5,1.6.6s1,0,1.3,0c.5-.3,1.1-.8,1.9-1.3Z"/>
        <path class="cls-1" d="M330.2,217c0-.1.2-.2.4-.4.2-.2.3-.4.4-.5,0-.1,0-.3,0-.5-.2-.5-.5-1.1-.7-1.4-.6-.7-1.6-1.4-2.2-1.9-.7-.5-1.3-.9-2-1.1-.3,0-.6,0-.8.1-.2.1-.5.4-.8.7-.5.6-1,1.2-1.6,1.8-.4.4-.6.7-1,1.1-.2.2-.5.6-.8,1.3-.3.4-.4.7-.6.9-.3.3-.6.5-.9.6.1.4.4.8.9,1.3.5.5,1.1,1.1,1.8,1.8.3-.3.5-.5.8-.7.3-.2.5-.1.7,0,.2.2.4.4.5.5,0,.1.1.4.2.8-.2,0-.4.2-.5.3,0,0-.2.1-.3.3-.2.3-.5.6-.7.9-.3.4-.5.6-.6.8-.2.2-.4.4-.6.5-.2,0-.4,0-.5-.2,0,0,0-.2-.2-.4,0-.2-.2-.5-.2-.7,0-.2,0-.4,0-.5.1-.2.2-.2.4-.4-1-.9-1.5-1.3-2.5-2.2-.5.3-1.1.7-1.6,1.4-.4.4-.7.9-1,1.3-.4.5-.7.9-.8,1.1,0,0-.7.8-1.7,2.1-.4.6-.8,1.1-1.1,1.4.5.7.9,1.3,1.4,1.7.4.5,1.1,1.4,1.9,1.8.2.1.6,0,.8,0,.1,0,.3-.2.6-.5.2-.3.5-.4.6-.5.2,0,.5-.1.7,0,.4.2.5.8.3,1.2-.2.4-.6.9-1.1,1.5-.2.2-.4.3-.7.3-.3,0-.7,0-1.3,0-.9-.8-1.3-1.2-2.2-2.1-1.5-1.3-2.7-2.4-3.7-3.3-1-.9-2.1-1.9-3.2-3,.2-.3.4-.5.6-.8.8.6,1.1.8,1.9,1.4.7-.6,1.3-1.3,2-2.1.4-.5.9-1.2,1.6-2.2.6-.9,1.2-1.8,1.7-2.5.3-.3.4-.5.6-.8,1.3-1.6,1.9-2.4,3.1-4.1.5-.6.7-1,1.2-1.6,1.1-1.4,1.7-2.2,2.8-3.6-.9-.7-1.4-1.1-2.3-1.8.2-.3.4-.5.6-.8.9.4,2.2,1.2,3.9,2.4,1.6,1.1,2.8,1.9,3.7,2.4,2.3,2,3.4,3,5.6,5.1,0,0,0,.2,0,.3,0,.2,0,.3,0,.5,0,.2-.1.3-.2.4-.1.1-.3.4-.5.7-.3.5-.5.8-.6.9-.3.3-.6.4-.9.3-.3,0-1.1-.4-1.2-.8,0,0,0-.4,0-.6Z"/>
      </g>
    </g>
  </g>
</svg>