<?xml version="1.0" encoding="UTF-8"?>
<svg xmlns="http://www.w3.org/2000/svg" version="1.1" viewBox="0 0 500 500">
  <defs>
    <style>
      .cls-1 {
        display: none;
        fill: #b3b3b3;
      }

      .cls-2 {
        fill: #fff;
      }
    </style>
  </defs>
  <!-- Generator: Adobe Illustrator 28.7.1, SVG Export Plug-In . SVG Version: 1.2.0 Build 142)  -->
  <g>
    <g id="_Слой_2" data-name="Слой_2">
      <rect class="cls-1" x="-19" y="-7" width="612" height="563"/>
      <g>
        <path class="cls-2" d="M136.5,139.9c.2-4.1,1.1-4.9,6.6-4.4-1.5-.8-2.2-1.1-3.2-1.6.8-.8,1.5-1.6,2.3-2.4.4.7.7,1.3,1.3,2.4.5-7.4,7.6-8,10.2-11.9,1.8.6,3.2,1.1,4.7,1.3.2,0,.4-1.7.9-2.2.6-.6,1.9-.5,2.4-1.1.5-.6.4-1.7-.2-2.7-.1.8-.3,1.6-.5,2.5-1-.1-2-.3-2.9-.4.9-4.1,4.1-3,6.5-2.7.9.1,1.5,2.4,2.3,3.9.8-.4,1.8-1,2.8-1.6,2.5-1.3,4.6-.6,6.3,1.3.9,1,.9,3.4,3.3,2.3.1.4.3.7.4,1.1.4,2,.5,1.5,2.6,2.2,1.9.7,3.3,2.7,5.8,4.8-2.3-.4-3.4-.7-4.6-.9-.1.3-.3.6-.4.9,1.3.7,2.6,1.5,4,2,.9.3,2.3-.2,2.8.3,1.7,1.7,3.2,3.6,4.3,5.7.2.4-1.4,1.8-1.8,3.7,1.1-.4,2.2-.8,4.2-1.6.2,1.3.5,2.9.6,3.5,3.4,4.1,6.9,7.4,9.4,11.3,5,7.8,9.6,15.8,14,23.9,1.8,3.3,3.3,7,3.7,10.6.3,3.3-.3,7.2-1.9,10-1.8,3.2-4.8,6.1-8,7.9-5.6,3.3-11.8,5.6-17.7,8.3-2.7,1.2-4.2,2.7-2.3,5.9,3.8,6.1,7.2,12.5,11.2,18.5,4.5,6.7,9.5,13.1,14.4,19.5,1.4,1.8,3.6,3,5.2,4.8,2,2.2,5.1,3.8,5.1,7.5,0,0,1.3,3.8,2,.4,7.2,5.6,14.1,11.5,21.4,16.6,6.6,4.6,13.6,8.5,20.6,12.4,4.2,2.3,5.1,1.8,7-2.6,2.1-4.8,3.8-9.8,6.5-14.3,4.9-8.4,10-13.4,19.7-12.1,3.5.5,7,1.8,10.1,3.5,8.4,4.5,16.6,9.5,24.9,14.3,1,.6,1.9,1.4,3.7,2.8-1.9-.1-2.5-.2-3.2-.2v1.1c1.5,0,3-.1,5.6-.3.6.9,1.6,2.7,2.8,4.3.4.5,1.3.6,1.9.8,6.2,2.2,6.5,2.5,7.1,9.1.4-1.5.7-2.5.9-3.5.2,0,.5.1.7.2-.1.5-.2.9-.3,1.4,2.4-.4,4.4.8,7.7,4.6-.6.4-1.1.9-1.7,1.3.4.4.6,1.1,1.1,1.3,1.7.7,3.4,1.1,5.2,2.3-2.9,0-6-.6-6,2.8,3.7,1.5,7.2,2.9,10.7,4.3-1.2,2.8,4.5,5,.7,8.1,0,0-.2.2-.2.3,0,3.6,0,7.1,0,9.7-3.2,1-5.4,1.6-8,2.4,1,1.8,1.5,2.8,2.2,4-2.6,2.7-4.8,6.1-7.9,8-3.1,1.9-5.4,4.5-8,6.9-1.3,1.2-2.4,3.6-5,2-.3.6-.4,1.5-.9,1.8-7.7,5.4-15.8,9.9-24.9,12.7-5.8,1.8-11.5,3.7-17.4,2.9-6.6-.9-13.3-2-19.6-4.1-17.5-5.8-33-15.8-48.1-26-8.3-5.6-16.1-11.9-23.6-18.4-11.9-10.3-23.5-20.8-34.8-31.8-6-5.8-11-12.5-16.4-18.8-5-5.9-10-11.7-14.7-17.9-5-6.6-9.9-13.3-14.3-20.3-4.8-7.7-9-15.8-13.4-23.7-.8-1.4-1.4-2.9-1.6-4.4,0-.8.9-1.7,1.5-2.6-.9-.2-2.3-.5-3.7-.9,0-.3,0-.6,0-.8.7-.3,1.3-.5,2.7-1.1-1.6-.3-2.4-.4-3.5-.6.6-.7,1-1.2,1-1.2-1-1.5-1.9-2.8-3-4.4-.6.3-1.5.8-2.7,1.4,0-1.2-.2-2.3-.2-2.8,1.7-.1,3.3-.2,5.8-.4-2.7-1.3-5.1-1.6-5.6-2.9-.8-1.7-.2-4.1-.2-6.4.8,0,1.5,0,2-.1-.9-6.5-1.7-12.8-2.6-19.7,2.4.8,3.7,1.2,5.1,1.6.2-.3.3-.7.5-1-.9-.7-1.8-1.4-3-2.3,1.3-2.1,3.3-4.3,3.9-6.8.9-3.6,1.2-7.1,5.5-8.3.4-.1.2-2.2.4-3.4.1-1.2.3-2.3.4-3.8,1.3.6,2.1,1,2.8,1.4.3-6.5,5.2.5,6.8-3-2.1-.9-4.1-1.7-6.2-2.6v-1.2c1.7-.1,3.5-.2,5.7-.3,0-1.2,0-2.8,0-4.3.9,1.1,1.8,2.3,2.7,3.4.2.3.4.6.6,1,.4-.2,1-.5,1-.7-.2-2.3-.5-4.5-.7-6-1.4.8-2.5,1.5-3.6,2.2ZM132.4,202.6c0,0,1.3,0,1.5.4,1.5,3,2.7,6.1,4.2,9.1,2.7,5.5,5,11.3,8.3,16.4,5.6,8.9,11.8,17.5,17.9,26.1,6.7,9.6,13.7,18.9,22,27.1,4.7,4.6,8.7,9.8,13.4,14.3,7.9,7.5,16,14.9,24.4,21.9,8.3,7,16.7,14,25.6,20.2,13.6,9.5,27.8,17.9,43.3,24.2,13.3,5.4,26.2,5.1,38.6-1.8,11.8-6.5,23.3-13.6,31.5-24.9,3.1-4.3,3.5-6,.3-9.2-3.7-3.8-7.3-7.8-11.4-11.1-4.5-3.6-9.6-6.5-14.5-9.7-8.8-6-17.8-11.6-27.6-15.7-5.6-2.4-5.7-2.3-8.3,3-2.6,5.4-4.8,11-7.9,16.1-5.9,9.8-9.7,12.7-21.7,8.5-6.4-2.2-12.6-5.6-18.1-9.5-10.6-7.5-21.2-15.1-30.8-23.7-8.2-7.4-15.8-15.7-22.5-24.6-7.4-9.8-13.6-20.6-20.1-31.1-1.5-2.5-2.1-5.8-2.5-8.8-1.2-8.8,4.8-13,11.3-16.6,5.5-3,11.3-5.5,16.9-8.2,2.6-1.2,2.9-3.1,1.8-5.5-1.9-4.1-3.7-8.3-5.6-12.3.7-.7,1.5-1.4,1.6-1.5-1.8-1.2-4.2-2-5-3.6-3.7-7.5-9.3-13.6-13.7-20.6-1.1-1.7-1.9-3.5-2.9-5.1,0,.2-.2.6-.5,1.2-1.7-2.1-3.2-4.4-5-6.2-1.9-1.9-4.1-3.4-6.9-5.7,2.2-.5,2.9-.7,4.1-1-2.2-.4-4.8-.2-5.1-1.1-.7-1.7-1-2.4-2.9-1.6-1.3.6-3.9.5-4,1-.6,3.7-3,2.8-5.1,2.1.4,1,1.3,2.3,1.1,2.5-2.6,2.3-5.3,4.4-8.1,6.7.8,1.6-6.6,11.9-8.8,12.3-2.9,6.2-5.6,11.7-8.2,17.3-.2,0-.5-.1-.7-.2v-1.9c-.3,0-.6,0-.9,0,.1.9.2,1.9.4,2.8.1.8.5,1.6.4,2.3-.4,2.1-1.1,4.2-1.5,6.3-.4,2.3-1,4.7-.7,6.9.4,3.2,1.7,6.2,2.5,9.3.2.9,0,1.8,0,3ZM151.9,130.4c.4-1.1.7-1.9,1.1-2.8-1.5.2-3,.3-4.8.5,1.2,1,2.1,1.6,2.3,1.8-1.1,1-1.8,1.7-2.6,2.4.2.3.4.6.6.9,2.5-.9,4.9-1.8,7.4-2.7,0-.2,0-.5-.1-.7-1.3.2-2.6.4-3.9.6ZM121,186.9c-.3.9-.8,2-.9,3.2,0,.8.4,1.7.7,2.6.5-.7.9-1.4,1.2-1.8.4.6.9,1.5,1.7,3v-5.8c-.5-.2-1.4-.5-2.7-1.1Z"/>
        <path class="cls-2" d="M373.2,224.8c2.3-2.5,1.3-4.6,0-6.7-2.1-3.4-1.8-5.1,2.1-6.5-1.9,0-3-.1-3.6-.2-13.7-42.6-44.3-65.6-87-74.4-.2,0-.4.1-.5.2-2.7,1.5-12.7,1-14.3-1.6-2.4-4-4.8-.5-5.3.2-2.8,3.3-4.8,2.3-7.1-.3-.6-.7-1.4-1.3-2.5-2.4v3.1c-1.1-.2-2-.4-3.9-.7,2.4-1.4,4.3-2.4,6.2-3.5.1-1.4.3-3.3.6-6,1.3,1.2,1.8,1.8,2.9,2.7,0-1.3-.1-1.9-.2-2.5.2,0,.4-.2.6-.3.4.8.9,1.6,1.1,2.4.2.7.2,1.4.7,2.3-.4-3.2,1.1-4.3,3.8-4.3,3.9,0,7.8,0,11.7,0-.1.8-.2,1.6-.3,2.4.9-.4,1.8-.8,2.7-1.2-.3-.6-.6-1.3-.8-1.9,9.6,2.2,19.6,3.4,28.8,6.8,10.1,3.7,19.8,8.9,29,14.5,11.4,7,20.8,16.7,28.5,27.6,7.7,10.9,13.5,23,16.3,36.2.3,1.5,2.3,3.2,0,4.8.5.8,1.7,2,1.5,2.4-1.1,2.1-2.1,4.7-4,5.8-1.7,1-4.5-.8-6.9,1Z"/>
        <path class="cls-2" d="M248.6,168c.2.5.5.9.9,1.7,1.4-5.8,6.3-4.8,9.9-5.1,14.9-1.5,29.1,1.5,42.2,8.6,19.2,10.5,31.6,26.4,36,48,.6,2.8-.9,6.6-4.1,7.4-3.1.7-6.2-1.3-6.9-5-2.8-14-10.1-25.4-21.1-34.4-7.7-6.3-16.6-10.2-26.3-12.3-8.3-1.8-16.6-1.4-25-.1-4.8.7-6.8-1.8-5.8-8.9Z"/>
        <path class="cls-2" d="M258.6,202.4c7.6.5,13.8.9,19.4,4.5,2.4,1.5,5.3,2.2,7.6,3.8,4.3,3.1,8.9,6.1,10.8,11.6.5,1.6,2.7,2.7,3.3,4.3,1.3,3.4,2.4,7,2.9,10.7.5,3.6-1.6,5.9-4.7,6.1-2.5.2-5.9-2.6-6.2-5.2-.6-5.6-3.6-9.9-7.1-14-6.6-7.6-15.1-10.5-24.9-9.9-2.4.1-4.9-.1-7.4-.3-2.9-.3-4.5-2-4.6-4.8,0-2.9,1.5-5,4.3-5.7,2.5-.7,5.2-.7,6.7-.9Z"/>
      </g>
    </g>
  </g>
</svg>